<svg width="203" height="203" viewBox="0 0 203 203" fill="none" xmlns="http://www.w3.org/2000/svg">
<g id="Rank" clip-path="url(#clip0_273_13361)">
<g id="Rankelements">
<path id="Vector" d="M195.682 105.071L193.072 105.083C192.945 78.8261 187.539 64.5177 177.59 47.0771L179.809 45.6294L180.654 45.0886C177.706 40.3904 174.393 35.9683 170.768 31.8786C173.922 27.3438 176.987 22.7133 179.899 17.9194C175.402 21.0177 171.059 24.2737 166.789 27.6368C149.748 10.5004 126.768 0 101.495 0C76.2216 0 53.2363 10.5004 36.1902 27.6424C31.926 24.2793 27.5826 21.0233 23.0806 17.925C25.9868 22.7246 29.0515 27.3495 32.2114 31.8842C16.8508 49.2459 7.17586 72.3873 6.35156 97.9285L7.30268 97.9173L9.91297 97.906C10.0345 124.157 15.4242 138.415 25.4056 155.912L23.1758 157.359L22.3303 157.9C25.2788 162.598 28.576 167.009 32.2008 171.11C29.0463 175.656 25.9921 180.298 23.0859 185.098C27.5879 181.999 31.9419 178.743 36.2061 175.38C53.2522 192.511 76.2164 203.006 101.495 203.006C126.773 203.006 149.738 192.505 166.784 175.38C171.048 178.743 179.159 185.098 183.661 188.201C180.755 183.408 173.944 175.662 170.789 171.116C186.139 153.748 195.819 130.613 196.638 105.071L195.687 105.083L195.682 105.071ZM163.561 160.925C161.579 163.291 159.45 165.556 157.236 167.668C142.446 181.853 122.895 190.483 101.495 190.483C80.0948 190.483 60.5441 181.847 45.7542 167.668C43.5349 165.556 41.4108 163.291 39.4293 160.925C33.5218 153.946 28.6447 145.952 25.0569 137.22L52.021 114.226C50.8374 109.595 50.1875 104.722 50.1875 99.6917C50.1875 95.1964 50.7053 90.8363 51.6564 86.6564L25.617 64.4501C29.1519 56.2312 33.8335 48.6995 39.4399 42.0523C41.4213 39.7032 43.5244 37.4668 45.7278 35.3487C60.5282 21.1641 80.079 12.5171 101.495 12.5171C122.911 12.5171 142.462 21.1641 157.262 35.3487C159.465 37.4612 161.569 39.6976 163.55 42.0523C169.156 48.6995 173.838 56.2368 177.373 64.4501L150.974 86.9662C152.158 91.5967 152.808 96.4695 152.808 101.5C152.808 105.995 152.29 110.355 151.339 114.535L177.949 137.226C174.35 145.958 169.473 153.951 163.566 160.925H163.561Z" fill="#FFB13C"/>
<path id="Vector_2" d="M152.443 49.7422L151.635 50.5646C155.339 54.4291 158.599 58.7723 161.484 63.4085C159.027 58.4906 155.936 53.9277 152.443 49.7422Z" fill="#00FFC8"/>
<path id="Vector_3" d="M121.747 28.8865L121.061 31.3595C126.149 32.9086 131.063 35.1112 135.713 37.8321C140.352 40.5811 144.728 43.8653 148.712 47.6452L149.636 46.5862C145.758 42.5246 141.414 38.9362 136.717 35.9619C132.03 32.9593 126.979 30.6046 121.747 28.8809V28.8865Z" fill="#00FFC8"/>
<path id="Vector_4" d="M101.495 28.4432C106.779 28.4263 112.068 29.046 117.22 30.3191L117.791 27.7278C112.459 26.3758 106.98 25.6885 101.495 25.666C96.0102 25.6829 90.5308 26.3702 85.1992 27.7222L85.7699 30.3191C90.9218 29.0516 96.2058 28.4263 101.495 28.4432Z" fill="#00FFC8"/>
<path id="Vector_5" d="M67.2801 37.838C71.93 35.1171 76.8389 32.9089 81.9273 31.3654L81.2351 28.8867C70.757 32.3005 61.0926 38.4407 53.3516 46.5864L54.2815 47.6455C58.2657 43.8655 62.6408 40.5814 67.2749 37.8323L67.2801 37.838Z" fill="#00FFC8"/>
<path id="Vector_6" d="M41.5 63.4082C44.3903 58.7777 47.6506 54.4288 51.3546 50.5644L50.5409 49.7363C47.0482 53.9275 43.9571 58.4848 41.5 63.4026V63.4082Z" fill="#00FFC8"/>
<path id="Vector_7" d="M50.5409 153.252L51.3493 152.43C47.6453 148.565 44.3851 144.222 41.5 139.586C43.9571 144.504 47.0482 149.061 50.5409 153.252Z" fill="#00FFC8"/>
<path id="Vector_8" d="M54.2763 155.338L53.3516 156.397C57.23 160.459 61.5734 164.047 66.2709 167.021C70.9578 170.024 76.0093 172.378 81.2404 174.102L81.9273 171.629C76.8389 170.08 71.9248 167.878 67.2749 165.157C62.6355 162.408 58.2604 159.123 54.2763 155.344V155.338Z" fill="#00FFC8"/>
<path id="Vector_9" d="M101.495 174.546C96.211 174.568 90.9218 173.943 85.7699 172.67L85.1992 175.261C90.5308 176.613 96.0102 177.3 101.495 177.323C106.98 177.306 112.459 176.619 117.791 175.267L117.22 172.67C112.068 173.937 106.784 174.563 101.495 174.546Z" fill="#00FFC8"/>
<path id="Vector_10" d="M135.708 165.155C131.058 167.876 126.149 170.084 121.061 171.628L121.753 174.106C132.231 170.693 141.895 164.552 149.636 156.407L148.706 155.348C144.722 159.128 140.347 162.412 135.713 165.155H135.708Z" fill="#00FFC8"/>
<path id="Vector_11" d="M152.449 153.252C155.941 149.061 159.032 144.504 161.489 139.586C158.599 144.216 155.339 148.565 151.635 152.43L152.449 153.258V153.252Z" fill="#00FFC8"/>
<path id="Vector_12" d="M7.32946 102.087L7.31889 100.695L6.30437 100.707L0.00585938 100.746V102.137C0.137959 121.769 5.27399 141.041 14.8856 157.85L15.5619 159.045L20.9199 155.569L21.8181 154.983L21.1418 153.789C12.2224 138.19 7.44571 120.31 7.32946 102.081V102.087Z" fill="#00FFC8"/>
<path id="Vector_13" d="M202.984 100.847C202.852 81.2152 197.716 61.9438 188.104 45.1342L187.428 43.9512L182.07 47.4269L181.172 48.0128L181.864 49.1957C190.773 64.8111 195.56 82.6742 195.661 100.903L195.671 102.295L196.691 102.284L203.005 102.244L202.989 100.853L202.984 100.847Z" fill="#00FFC8"/>
</g>
<text id="4-9" fill="white" xml:space="preserve" style="white-space: pre" font-family="Orbitron" font-size="35" letter-spacing="0em"><tspan x="64.6841" y="114.44">4-9</tspan></text>
</g>
<defs>
<clipPath id="clip0_273_13361">
<rect width="203" height="203" fill="white"/>
</clipPath>
</defs>
</svg>
