<svg width="205" height="182" viewBox="0 0 205 182" fill="none" xmlns="http://www.w3.org/2000/svg">
<g id="Rankloose">
<path id="Vector" d="M199.883 148.697C203.199 137.555 205 125.648 205 113.274C205 50.7133 159.11 0 102.5 0C45.8897 0 0 50.7133 0 113.274C0 126.132 1.94182 138.481 5.51174 150L27.2342 141.763C24.9516 134.375 23.5561 126.67 23.1234 118.851L6.68549 119.981C6.57731 118.116 6.52322 116.221 6.49076 114.314L22.9611 114.147C22.9503 113.041 22.9611 111.899 22.9935 110.793C23.1666 104.045 24.0212 97.344 25.5628 90.9002L9.63879 86.2736H9.63338C10.0715 84.4385 10.5529 82.6333 11.0776 80.858H11.083L26.7474 86.3991C28.9001 78.9691 31.9508 71.8678 35.829 65.3104L22.074 55.3818C23.0044 53.8037 23.9834 52.2555 24.9949 50.7432L38.2468 61.4549C42.4334 55.1188 47.3555 49.4461 52.9051 44.5445L42.6768 30.3658C44.0074 29.1584 45.3813 28.0406 46.766 26.9467L56.302 41.7052C62.0788 37.1503 68.364 33.4622 75.0008 30.7544L69.3105 13.7184C70.9062 13.0489 72.5073 12.4452 74.1408 11.8953H74.1462L79.0034 29.254C85.7484 26.9586 92.7638 25.6615 99.8712 25.4105L99.3466 7.22683C101.034 7.16107 102.749 7.14912 104.469 7.20889L104.128 25.3925L104.734 25.4105C111.663 25.6256 118.5 26.8092 125.066 28.9611L129.713 11.5366C131.357 12.0507 132.974 12.6305 134.581 13.2821L129.09 30.4136C135.754 33.0198 142.077 36.6183 147.897 41.0955L157.282 26.2174C158.683 27.2814 160.057 28.4052 161.398 29.5708L151.311 43.893C156.914 48.7108 161.907 54.3297 166.169 60.6121L179.291 49.727C180.319 51.2393 181.32 52.7696 182.261 54.3297L168.625 64.4377C172.568 70.9532 175.71 78.0127 177.95 85.4188L193.549 79.6684C194.096 81.4497 194.577 83.255 195.031 85.0721L179.183 89.89C181.054 97.4038 182.006 105.204 182.028 113.065L198.493 113.029C198.493 114.105 198.477 115.181 198.45 116.269C198.434 117.088 198.396 117.907 198.369 118.714L181.925 117.781C181.558 125.648 180.265 133.376 178.069 140.777L199.872 148.715L199.883 148.697Z" fill="#FF5600"/>
<text id="100 - 200" fill="white" xml:space="preserve" style="white-space: pre" font-family="Orbitron" font-size="40" letter-spacing="0em"><tspan x="61.3281" y="102.36">100&#10;</tspan><tspan x="92.168" y="134.36">-&#10;</tspan><tspan x="52.5391" y="166.36">200</tspan></text>
</g>
</svg>
