<svg width="68" height="68" viewBox="0 0 68 68" fill="none" xmlns="http://www.w3.org/2000/svg">
<path d="M20.7754 22.1697H23.5515V31.1385C23.5514 31.2564 23.5534 31.3743 23.5574 31.4921C22.7122 31.3207 21.9522 30.8623 21.4063 30.1946C20.8603 29.5269 20.562 28.691 20.5619 27.8286V22.3833C20.5619 22.3266 20.5844 22.2723 20.6244 22.2323C20.6645 22.1922 20.7188 22.1697 20.7754 22.1697Z" fill="#FFFDFB" fill-opacity="0.99"/>
<path d="M47.0411 27.8286C47.0411 29.6386 45.7538 31.1479 44.0455 31.4921C44.0498 31.3742 44.0515 31.2572 44.0515 31.1385V22.1697H46.8275C46.8841 22.1697 46.9385 22.1922 46.9785 22.2323C47.0186 22.2723 47.0411 22.3266 47.0411 22.3833V27.8286Z" fill="#FFFDFB" fill-opacity="0.99"/>
<path fill-rule="evenodd" clip-rule="evenodd" d="M34 68C52.7777 68 68 52.7777 68 34C68 15.2223 52.7777 0 34 0C15.2223 0 0 15.2223 0 34C0 52.7777 15.2223 68 34 68ZM27.1817 16.6176C25.2487 16.6176 23.6685 18.1295 23.5574 20.0343H20.7754C20.1524 20.0343 19.555 20.2818 19.1145 20.7223C18.674 21.1628 18.4265 21.7603 18.4265 22.3833V27.8286C18.4266 29.3118 18.9879 30.7401 19.9977 31.8265C21.0074 32.9129 22.3908 33.5771 23.8701 33.6856C24.9181 37.7805 28.4305 40.8879 32.7338 41.3338V44.3781H27.8223C26.6896 44.3781 25.6033 44.828 24.8024 45.629C24.0014 46.4299 23.5515 47.5162 23.5515 48.6489V49.076C23.5515 49.5291 23.7315 49.9636 24.0518 50.284C24.3722 50.6043 24.8067 50.7843 25.2598 50.7843H42.3431C42.7962 50.7843 43.2307 50.6043 43.5511 50.284C43.8715 49.9636 44.0515 49.5291 44.0515 49.076V48.6489C44.0515 47.5162 43.6015 46.4299 42.8006 45.629C41.9996 44.828 40.9133 44.3781 39.7806 44.3781H34.8692V41.3338C39.1725 40.8879 42.6857 37.7805 43.7329 33.6856C46.7763 33.4661 49.1765 30.9275 49.1765 27.8286V22.3833C49.1765 21.7603 48.929 21.1628 48.4885 20.7223C48.048 20.2818 47.4505 20.0343 46.8275 20.0343H44.0455C43.991 19.11 43.5855 18.2415 42.9118 17.6064C42.2381 16.9713 41.3471 16.6176 40.4213 16.6176H27.1817Z" fill="#FFFDFB" fill-opacity="0.99"/>
</svg>
