<svg width="618" height="145" viewBox="0 0 618 145" fill="none" xmlns="http://www.w3.org/2000/svg">
<g id="Bienvenue" clip-path="url(#clip0_522_10016)">
<path id="Vector" d="M618.001 10.8047V101.808H92.8979L97.7507 97.1881H613.141V15.4179H97.7507L92.8979 10.8047H618.001Z" fill="#FFB13C"/>
<g id="Group">
<path id="Vector_2" d="M70.3796 4.63342L16.0269 56.303L70.3796 107.973L81.7241 97.1882L124.732 56.303L70.3796 4.63342ZM70.3796 91.0035L33.863 56.303L70.3796 21.6026L106.882 56.303L70.3796 91.0035Z" fill="#FFB13C"/>
<path id="Vector_3" d="M5.66869 56.3031L38.0206 25.5414L35.1898 22.8503L8.00995 48.6886L0 56.3031L8.00995 63.9176L48.2654 102.186L51.082 99.4949L5.66869 56.3031Z" fill="#409BFF"/>
</g>
<path id="Vector_4" d="M509.301 0H325.569L309.351 15.4179H525.527L509.301 0Z" fill="#FFB13C"/>
<path id="Vector_5" d="M235.246 107.979L219.042 123.397H162.242L139.532 145H41.7949L67.5487 120.517L80.7236 107.979H235.246Z" fill="#409BFF"/>
<path id="Vector_6" d="M151.38 145L164.364 132.658H229.273L255.24 107.979H462.945L449.969 120.315H255.24L229.273 145H151.38Z" fill="#FFB13C"/>
<path id="Vector_7" d="M70.3796 36.825L49.8901 56.3031L70.3796 75.7677L90.8549 56.3031L70.3796 36.825Z" fill="#409BFF"/>
<text id="BIENVENUE !" fill="#F9F9F9" xml:space="preserve" style="white-space: pre" font-family="BatmanForeverAlternate" font-size="40" letter-spacing="0em"><tspan x="138.279" y="69.0222">BIENVENUE !</tspan></text>
</g>
<defs>
<clipPath id="clip0_522_10016">
<rect width="618" height="145" fill="white"/>
</clipPath>
</defs>
</svg>
