<svg width="275" height="1015" viewBox="0 0 275 1015" fill="none" xmlns="http://www.w3.org/2000/svg">
<g filter="url(#filter0_i_338_9897)">
<path d="M8.5 687L58.4016 658.33L127.286 698.997V780.33L58.4016 820.167L8.5 790V687Z" fill="#10161C"/>
</g>
<path d="M8.5 687L58.4016 658.33L127.286 698.997V780.33L58.4016 820.167L8.5 790V687Z" stroke="#002348" stroke-width="2"/>
<g filter="url(#filter1_i_338_9897)">
<path d="M8.5 929L57.9175 901.672L127.286 941.336V1014.5H71.5H8.5V929Z" fill="#10161C"/>
</g>
<path d="M8.5 929L57.9175 901.672L127.286 941.336V1014.5H71.5H8.5V929Z" stroke="#002348"/>
<g filter="url(#filter2_f_338_9897)">
<path d="M57.5723 820.167L128.116 779.5L197.001 820.167V901.5L128.116 941.337L57.5723 901.5V820.167Z" stroke="#8EC4FF" stroke-width="4"/>
</g>
<g filter="url(#filter3_f_338_9897)">
<path d="M57.5723 820.167L128.116 779.5L197.001 820.167V901.5L128.116 941.337L57.5723 901.5V820.167Z" stroke="#409BFF" stroke-width="3"/>
</g>
<path d="M57.5723 820.167L128.116 779.5L197.001 820.167V901.5L128.116 941.337L57.5723 901.5V820.167Z" stroke="#FFFDFB" stroke-opacity="0.99"/>
<g filter="url(#filter4_i_338_9897)">
<path d="M57.8574 89.9967L128.402 49.3301L197.286 89.9967V171.33L128.402 211.167L57.8574 171.33V89.9967Z" fill="#10161C"/>
</g>
<path d="M57.8574 89.9967L128.402 49.3301L197.286 89.9967V171.33L128.402 211.167L57.8574 171.33V89.9967Z" stroke="#002348" stroke-width="2"/>
<path d="M8 199.999L57.8581 171.05V89.7168" stroke="#002348"/>
<path d="M8.50009 302.5L57.8582 332.337V413.67L8.5 442.5" stroke="#002348"/>
<g filter="url(#filter5_i_338_9897)">
<path d="M57.8574 332.336L127.918 292.672L197.286 332.336V413.669L128.402 453.506L57.8574 413.669V332.336Z" fill="#10161C"/>
</g>
<path d="M57.8574 332.336L127.918 292.672L197.286 332.336V413.669L128.402 453.506L57.8574 413.669V332.336Z" stroke="#002348"/>
<path d="M127.572 453.786L198.116 413.119L267.001 453.786V535.119L198.116 574.956L127.572 535.119V453.786Z" stroke="#002348" stroke-width="2"/>
<path d="M57.8574 575.958L128.402 535.291L197.976 574.98L197.286 657.291L127.5 698.999" stroke="#002348" stroke-width="2"/>
<g filter="url(#filter6_f_338_9897)">
<path d="M127.572 211.167L198.116 170.5L267.001 211.167V292.5L198.116 332.337L127.572 292.5V211.167Z" stroke="#8EC4FF" stroke-width="4"/>
</g>
<g filter="url(#filter7_f_338_9897)">
<path d="M127.572 211.167L198.116 170.5L267.001 211.167V292.5L198.116 332.337L127.572 292.5V211.167Z" stroke="#409BFF" stroke-width="3"/>
</g>
<path d="M127.572 211.167L198.116 170.5L267.001 211.167V292.5L198.116 332.337L127.572 292.5V211.167Z" stroke="#FFFDFB" stroke-opacity="0.99"/>
<g filter="url(#filter8_f_338_9897)">
<path d="M8 60.5L58.6887 89.7175L127.573 49.8808V6.5" stroke="#8EC4FF" stroke-width="4"/>
</g>
<g filter="url(#filter9_f_338_9897)">
<path d="M8.5 60.5L58.6887 89.7168L127.573 49.8801V6" stroke="#409BFF" stroke-width="3"/>
</g>
<path d="M9.5 61L58.6887 89.7168L127.573 49.8801V7" stroke="#FFFDFB" stroke-opacity="0.99"/>
<g filter="url(#filter10_f_338_9897)">
<path d="M8.00195 546L57.8581 576.337V657.67L8.00195 686.5" stroke="#8EC4FF" stroke-width="4"/>
</g>
<g filter="url(#filter11_f_338_9897)">
<path d="M8.00195 547L57.8581 576.337V657.67L8.00272 686.5" stroke="#409BFF" stroke-width="3"/>
</g>
<path d="M8.50195 546.5L57.8581 576.337V657.67L8.50272 686" stroke="#FFFDFB" stroke-opacity="0.99"/>
<defs>
<filter id="filter0_i_338_9897" x="7.5" y="657.174" width="125.785" height="174.154" filterUnits="userSpaceOnUse" color-interpolation-filters="sRGB">
<feFlood flood-opacity="0" result="BackgroundImageFix"/>
<feBlend mode="normal" in="SourceGraphic" in2="BackgroundImageFix" result="shape"/>
<feColorMatrix in="SourceAlpha" type="matrix" values="0 0 0 0 0 0 0 0 0 0 0 0 0 0 0 0 0 0 127 0" result="hardAlpha"/>
<feOffset dx="5" dy="10"/>
<feGaussianBlur stdDeviation="18.5"/>
<feComposite in2="hardAlpha" operator="arithmetic" k2="-1" k3="1"/>
<feColorMatrix type="matrix" values="0 0 0 0 0.0844097 0 0 0 0 0.32924 0 0 0 0 0.595833 0 0 0 1 0"/>
<feBlend mode="normal" in2="shape" result="effect1_innerShadow_338_9897"/>
</filter>
<filter id="filter1_i_338_9897" x="8" y="901.098" width="124.785" height="123.902" filterUnits="userSpaceOnUse" color-interpolation-filters="sRGB">
<feFlood flood-opacity="0" result="BackgroundImageFix"/>
<feBlend mode="normal" in="SourceGraphic" in2="BackgroundImageFix" result="shape"/>
<feColorMatrix in="SourceAlpha" type="matrix" values="0 0 0 0 0 0 0 0 0 0 0 0 0 0 0 0 0 0 127 0" result="hardAlpha"/>
<feOffset dx="5" dy="10"/>
<feGaussianBlur stdDeviation="18.5"/>
<feComposite in2="hardAlpha" operator="arithmetic" k2="-1" k3="1"/>
<feColorMatrix type="matrix" values="0 0 0 0 0.0844097 0 0 0 0 0.32924 0 0 0 0 0.595833 0 0 0 1 0"/>
<feBlend mode="normal" in2="shape" result="effect1_innerShadow_338_9897"/>
</filter>
<filter id="filter2_f_338_9897" x="49.5723" y="771.184" width="155.428" height="178.457" filterUnits="userSpaceOnUse" color-interpolation-filters="sRGB">
<feFlood flood-opacity="0" result="BackgroundImageFix"/>
<feBlend mode="normal" in="SourceGraphic" in2="BackgroundImageFix" result="shape"/>
<feGaussianBlur stdDeviation="3" result="effect1_foregroundBlur_338_9897"/>
</filter>
<filter id="filter3_f_338_9897" x="52.0723" y="773.764" width="150.428" height="173.301" filterUnits="userSpaceOnUse" color-interpolation-filters="sRGB">
<feFlood flood-opacity="0" result="BackgroundImageFix"/>
<feBlend mode="normal" in="SourceGraphic" in2="BackgroundImageFix" result="shape"/>
<feGaussianBlur stdDeviation="2" result="effect1_foregroundBlur_338_9897"/>
</filter>
<filter id="filter4_i_338_9897" x="56.8574" y="48.1719" width="146.428" height="174.146" filterUnits="userSpaceOnUse" color-interpolation-filters="sRGB">
<feFlood flood-opacity="0" result="BackgroundImageFix"/>
<feBlend mode="normal" in="SourceGraphic" in2="BackgroundImageFix" result="shape"/>
<feColorMatrix in="SourceAlpha" type="matrix" values="0 0 0 0 0 0 0 0 0 0 0 0 0 0 0 0 0 0 127 0" result="hardAlpha"/>
<feOffset dx="5" dy="10"/>
<feGaussianBlur stdDeviation="18.5"/>
<feComposite in2="hardAlpha" operator="arithmetic" k2="-1" k3="1"/>
<feColorMatrix type="matrix" values="0 0 0 0 0.0844097 0 0 0 0 0.32924 0 0 0 0 0.595833 0 0 0 1 0"/>
<feBlend mode="normal" in2="shape" result="effect1_innerShadow_338_9897"/>
</filter>
<filter id="filter5_i_338_9897" x="57.3574" y="292.096" width="145.428" height="171.986" filterUnits="userSpaceOnUse" color-interpolation-filters="sRGB">
<feFlood flood-opacity="0" result="BackgroundImageFix"/>
<feBlend mode="normal" in="SourceGraphic" in2="BackgroundImageFix" result="shape"/>
<feColorMatrix in="SourceAlpha" type="matrix" values="0 0 0 0 0 0 0 0 0 0 0 0 0 0 0 0 0 0 127 0" result="hardAlpha"/>
<feOffset dx="5" dy="10"/>
<feGaussianBlur stdDeviation="18.5"/>
<feComposite in2="hardAlpha" operator="arithmetic" k2="-1" k3="1"/>
<feColorMatrix type="matrix" values="0 0 0 0 0.0844097 0 0 0 0 0.32924 0 0 0 0 0.595833 0 0 0 1 0"/>
<feBlend mode="normal" in2="shape" result="effect1_innerShadow_338_9897"/>
</filter>
<filter id="filter6_f_338_9897" x="119.572" y="162.184" width="155.428" height="178.457" filterUnits="userSpaceOnUse" color-interpolation-filters="sRGB">
<feFlood flood-opacity="0" result="BackgroundImageFix"/>
<feBlend mode="normal" in="SourceGraphic" in2="BackgroundImageFix" result="shape"/>
<feGaussianBlur stdDeviation="3" result="effect1_foregroundBlur_338_9897"/>
</filter>
<filter id="filter7_f_338_9897" x="122.072" y="164.764" width="150.428" height="173.301" filterUnits="userSpaceOnUse" color-interpolation-filters="sRGB">
<feFlood flood-opacity="0" result="BackgroundImageFix"/>
<feBlend mode="normal" in="SourceGraphic" in2="BackgroundImageFix" result="shape"/>
<feGaussianBlur stdDeviation="2" result="effect1_foregroundBlur_338_9897"/>
</filter>
<filter id="filter8_f_338_9897" x="1.00195" y="0.5" width="134.57" height="97.5273" filterUnits="userSpaceOnUse" color-interpolation-filters="sRGB">
<feFlood flood-opacity="0" result="BackgroundImageFix"/>
<feBlend mode="normal" in="SourceGraphic" in2="BackgroundImageFix" result="shape"/>
<feGaussianBlur stdDeviation="3" result="effect1_foregroundBlur_338_9897"/>
</filter>
<filter id="filter9_f_338_9897" x="3.74609" y="2" width="129.326" height="93.4512" filterUnits="userSpaceOnUse" color-interpolation-filters="sRGB">
<feFlood flood-opacity="0" result="BackgroundImageFix"/>
<feBlend mode="normal" in="SourceGraphic" in2="BackgroundImageFix" result="shape"/>
<feGaussianBlur stdDeviation="2" result="effect1_foregroundBlur_338_9897"/>
</filter>
<filter id="filter10_f_338_9897" x="0.962891" y="538.291" width="64.8945" height="155.939" filterUnits="userSpaceOnUse" color-interpolation-filters="sRGB">
<feFlood flood-opacity="0" result="BackgroundImageFix"/>
<feBlend mode="normal" in="SourceGraphic" in2="BackgroundImageFix" result="shape"/>
<feGaussianBlur stdDeviation="3" result="effect1_foregroundBlur_338_9897"/>
</filter>
<filter id="filter11_f_338_9897" x="3.24219" y="541.707" width="60.1152" height="150.092" filterUnits="userSpaceOnUse" color-interpolation-filters="sRGB">
<feFlood flood-opacity="0" result="BackgroundImageFix"/>
<feBlend mode="normal" in="SourceGraphic" in2="BackgroundImageFix" result="shape"/>
<feGaussianBlur stdDeviation="2" result="effect1_foregroundBlur_338_9897"/>
</filter>
</defs>
</svg>
