<svg width="783" height="805" viewBox="0 0 783 805" fill="none" xmlns="http://www.w3.org/2000/svg">
<g filter="url(#filter0_f_344_10301)">
<path d="M750.135 350.036H495.682L350.513 211.6L306.738 210" stroke="#00FFFF" stroke-width="5" stroke-linejoin="round"/>
</g>
<g filter="url(#filter1_f_344_10301)">
<path d="M750.543 299.873H442.263" stroke="#00FFFF" stroke-width="5" stroke-linejoin="round"/>
</g>
<g filter="url(#filter2_f_344_10301)">
<path d="M751.359 211.213H351.33" stroke="#00FFFF" stroke-width="5" stroke-linejoin="round"/>
</g>
<g filter="url(#filter3_f_344_10301)">
<path d="M675.105 299.484L580.093 210.434" stroke="#00FFFF" stroke-width="5" stroke-linejoin="round"/>
</g>
<g filter="url(#filter4_f_344_10301)">
<path d="M751.359 133.827H380.69L273.852 33.1113" stroke="#00FFFF" stroke-width="5" stroke-linejoin="round"/>
</g>
<g filter="url(#filter5_f_344_10301)">
<path d="M752.174 101.552H416.981L344.397 32.334" stroke="#00FFFF" stroke-width="5" stroke-linejoin="round"/>
</g>
<g filter="url(#filter6_f_344_10301)">
<path d="M752.582 76.2754H441.856" stroke="#00FFFF" stroke-width="5" stroke-linejoin="round"/>
</g>
<g filter="url(#filter7_f_344_10301)">
<path d="M751.738 390H558.919L520.858 436H310.738" stroke="#00FFFF" stroke-width="5" stroke-linejoin="round"/>
</g>
<g filter="url(#filter8_f_344_10301)">
<path d="M751.359 453.475H499.353" stroke="#00FFFF" stroke-width="5" stroke-linejoin="round"/>
</g>
<g filter="url(#filter9_f_344_10301)">
<path d="M752.174 428.199H524.634L497.313 456.198" stroke="#00FFFF" stroke-width="5" stroke-linejoin="round"/>
</g>
<g filter="url(#filter10_f_344_10301)">
<path d="M751.768 553.803H442.672" stroke="#00FFFF" stroke-width="5" stroke-linejoin="round"/>
</g>
<g filter="url(#filter11_f_344_10301)">
<path d="M752.582 696.906H450.827L428.807 674.74H378.243L287.308 765.346H49.1663" stroke="#00FFFF" stroke-width="5" stroke-linejoin="round"/>
</g>
<g filter="url(#filter12_f_344_10301)">
<path d="M752.582 611.744H508.731L479.371 584.523H441.04H752.582" stroke="#00FFFF" stroke-width="5" stroke-linejoin="round"/>
</g>
<g filter="url(#filter13_f_344_10301)">
<ellipse rx="9.78665" ry="9.33277" transform="matrix(-1 0 0 1 432.885 75.8875)" fill="#FFFDFB" fill-opacity="0.99"/>
<path d="M425.599 75.8875C425.599 79.5505 428.748 82.7202 432.885 82.7202C437.023 82.7202 440.172 79.5505 440.172 75.8875C440.172 72.2244 437.023 69.0547 432.885 69.0547C428.748 69.0547 425.599 72.2244 425.599 75.8875Z" stroke="#00FFFF" stroke-width="5"/>
</g>
<g filter="url(#filter14_f_344_10301)">
<ellipse rx="9.78665" ry="9.33277" transform="matrix(-1 0 0 1 580.5 211.212)" fill="#FFFDFB" fill-opacity="0.99"/>
<path d="M573.214 211.212C573.214 214.875 576.363 218.044 580.5 218.044C584.638 218.044 587.787 214.875 587.787 211.212C587.787 207.549 584.638 204.379 580.5 204.379C576.363 204.379 573.214 207.549 573.214 211.212Z" stroke="#00FFFF" stroke-width="5"/>
</g>
<g filter="url(#filter15_f_344_10301)">
<ellipse rx="9.78665" ry="9.33277" transform="matrix(-1 0 0 1 442.67 299.874)" fill="#FFFDFB" fill-opacity="0.99"/>
<path d="M435.384 299.874C435.384 303.537 438.533 306.707 442.67 306.707C446.808 306.707 449.957 303.537 449.957 299.874C449.957 296.211 446.808 293.041 442.67 293.041C438.533 293.041 435.384 296.211 435.384 299.874Z" stroke="#00FFFF" stroke-width="5"/>
</g>
<g filter="url(#filter16_f_344_10301)">
<ellipse rx="9.78665" ry="9.33277" transform="matrix(-1 0 0 1 306.952 434.333)" fill="#FFFDFB" fill-opacity="0.99"/>
<path d="M299.665 434.333C299.665 437.996 302.814 441.166 306.952 441.166C311.089 441.166 314.238 437.996 314.238 434.333C314.238 430.67 311.089 427.5 306.952 427.5C302.814 427.5 299.665 430.67 299.665 434.333Z" stroke="#00FFFF" stroke-width="5"/>
</g>
<g filter="url(#filter17_f_344_10301)">
<ellipse rx="9.78665" ry="9.33277" transform="matrix(-1 0 0 1 499.76 453.864)" fill="#FFFDFB" fill-opacity="0.99"/>
<path d="M492.474 453.864C492.474 457.527 495.623 460.697 499.76 460.697C503.898 460.697 507.047 457.527 507.047 453.864C507.047 450.201 503.898 447.031 499.76 447.031C495.623 447.031 492.474 450.201 492.474 453.864Z" stroke="#00FFFF" stroke-width="5"/>
</g>
<g filter="url(#filter18_f_344_10301)">
<ellipse rx="9.78665" ry="9.33277" transform="matrix(-1 0 0 1 522.596 428.198)" fill="#FFFDFB" fill-opacity="0.99"/>
<path d="M515.31 428.198C515.31 431.861 518.459 435.031 522.596 435.031C526.734 435.031 529.883 431.861 529.883 428.198C529.883 424.535 526.734 421.365 522.596 421.365C518.459 421.365 515.31 424.535 515.31 428.198Z" stroke="#00FFFF" stroke-width="5"/>
</g>
<g filter="url(#filter19_f_344_10301)">
<ellipse rx="9.78665" ry="9.33277" transform="matrix(-1 0 0 1 434.516 553.413)" fill="#FFFDFB" fill-opacity="0.99"/>
<path d="M427.229 553.413C427.229 557.076 430.379 560.246 434.516 560.246C438.654 560.246 441.803 557.076 441.803 553.413C441.803 549.75 438.654 546.58 434.516 546.58C430.379 546.58 427.229 549.75 427.229 553.413Z" stroke="#00FFFF" stroke-width="5"/>
</g>
<g filter="url(#filter20_f_344_10301)">
<ellipse rx="9.78665" ry="9.33277" transform="matrix(-1 0 0 1 434.516 584.522)" fill="#FFFDFB" fill-opacity="0.99"/>
<path d="M427.229 584.522C427.229 588.185 430.379 591.355 434.516 591.355C438.654 591.355 441.803 588.185 441.803 584.522C441.803 580.859 438.654 577.689 434.516 577.689C430.379 577.689 427.229 580.859 427.229 584.522Z" stroke="#00FFFF" stroke-width="5"/>
</g>
<g filter="url(#filter21_f_344_10301)">
<ellipse rx="9.78665" ry="9.33277" transform="matrix(-1 0 0 1 39.7876 764.956)" fill="#FFFDFB" fill-opacity="0.99"/>
<path d="M32.5009 764.956C32.5009 768.619 35.6501 771.789 39.7876 771.789C43.9251 771.789 47.0742 768.619 47.0742 764.956C47.0742 761.293 43.9251 758.123 39.7876 758.123C35.6501 758.123 32.5009 761.293 32.5009 764.956Z" stroke="#00FFFF" stroke-width="5"/>
</g>
<g filter="url(#filter22_f_344_10301)">
<ellipse rx="9.78665" ry="9.33277" transform="matrix(-1 0 0 1 673.473 299.874)" fill="#FFFDFB" fill-opacity="0.99"/>
<path d="M666.186 299.874C666.186 303.537 669.336 306.707 673.473 306.707C677.611 306.707 680.76 303.537 680.76 299.874C680.76 296.211 677.611 293.041 673.473 293.041C669.336 293.041 666.186 296.211 666.186 299.874Z" stroke="#00FFFF" stroke-width="5"/>
</g>
<g filter="url(#filter23_f_344_10301)">
<path d="M755.846 348.481H501.393L356.224 210.045H304.739" stroke="#A0F7FF" stroke-width="4" stroke-linejoin="round"/>
</g>
<g filter="url(#filter24_f_344_10301)">
<path d="M756.252 298.316H447.972" stroke="#A0F7FF" stroke-width="4" stroke-linejoin="round"/>
</g>
<g filter="url(#filter25_f_344_10301)">
<path d="M757.068 209.656H357.039" stroke="#A0F7FF" stroke-width="4" stroke-linejoin="round"/>
</g>
<g filter="url(#filter26_f_344_10301)">
<path d="M680.814 297.927L585.802 208.877" stroke="#A0F7FF" stroke-width="4" stroke-linejoin="round"/>
</g>
<g filter="url(#filter27_f_344_10301)">
<path d="M757.068 132.271H386.399L279.561 31.5547" stroke="#A0F7FF" stroke-width="4" stroke-linejoin="round"/>
</g>
<g filter="url(#filter28_f_344_10301)">
<path d="M757.883 99.9954H422.69L350.106 30.7773" stroke="#A0F7FF" stroke-width="4" stroke-linejoin="round"/>
</g>
<g filter="url(#filter29_f_344_10301)">
<path d="M758.291 74.7188H447.565" stroke="#A0F7FF" stroke-width="4" stroke-linejoin="round"/>
</g>
<g filter="url(#filter30_f_344_10301)">
<path d="M756.738 388H561.733L523.24 434H310.738" stroke="#A0F7FF" stroke-width="4" stroke-linejoin="round"/>
</g>
<g filter="url(#filter31_f_344_10301)">
<path d="M757.883 426.643H530.343L503.022 454.641" stroke="#A0F7FF" stroke-width="4" stroke-linejoin="round"/>
</g>
<g filter="url(#filter32_f_344_10301)">
<path d="M757.475 552.246H448.379" stroke="#A0F7FF" stroke-width="4" stroke-linejoin="round"/>
</g>
<g filter="url(#filter33_f_344_10301)">
<path d="M758.291 695.349H456.536L434.516 673.184H383.952L293.017 763.789H54.8753" stroke="#A0F7FF" stroke-width="4" stroke-linejoin="round"/>
</g>
<g filter="url(#filter34_f_344_10301)">
<path d="M758.291 610.187H514.44L485.08 582.967H446.749H758.291" stroke="#A0F7FF" stroke-width="4" stroke-linejoin="round"/>
</g>
<g filter="url(#filter35_f_344_10301)">
<ellipse rx="9.78665" ry="9.33277" transform="matrix(-1 0 0 1 438.594 74.3308)" fill="#FFFDFB" fill-opacity="0.99"/>
<path d="M430.808 74.3308C430.808 78.2921 434.203 81.6636 438.594 81.6636C442.985 81.6636 446.381 78.2921 446.381 74.3308C446.381 70.3695 442.985 66.998 438.594 66.998C434.203 66.998 430.808 70.3695 430.808 74.3308Z" stroke="#A0F7FF" stroke-width="4"/>
</g>
<g filter="url(#filter36_f_344_10301)">
<ellipse rx="9.78665" ry="9.33277" transform="matrix(-1 0 0 1 586.209 209.655)" fill="#FFFDFB" fill-opacity="0.99"/>
<path d="M578.423 209.655C578.423 213.616 581.818 216.988 586.209 216.988C590.6 216.988 593.996 213.616 593.996 209.655C593.996 205.694 590.6 202.322 586.209 202.322C581.818 202.322 578.423 205.694 578.423 209.655Z" stroke="#A0F7FF" stroke-width="4"/>
</g>
<g filter="url(#filter37_f_344_10301)">
<ellipse rx="9.78665" ry="9.33277" transform="matrix(-1 0 0 1 448.379 298.317)" fill="#FFFDFB" fill-opacity="0.99"/>
<path d="M440.593 298.317C440.593 302.278 443.988 305.65 448.379 305.65C452.77 305.65 456.166 302.278 456.166 298.317C456.166 294.356 452.77 290.984 448.379 290.984C443.988 290.984 440.593 294.356 440.593 298.317Z" stroke="#A0F7FF" stroke-width="4"/>
</g>
<g filter="url(#filter38_f_344_10301)">
<ellipse rx="9.78665" ry="9.33277" transform="matrix(-1 0 0 1 300.952 434.333)" fill="#FFFDFB" fill-opacity="0.99"/>
<path d="M293.165 434.333C293.165 438.294 296.561 441.666 300.952 441.666C305.343 441.666 308.738 438.294 308.738 434.333C308.738 430.371 305.343 427 300.952 427C296.561 427 293.165 430.371 293.165 434.333Z" stroke="#A0F7FF" stroke-width="4"/>
</g>
<g filter="url(#filter39_f_344_10301)">
<ellipse rx="9.78665" ry="9.33277" transform="matrix(-1 0 0 1 505.469 452.307)" fill="#FFFDFB" fill-opacity="0.99"/>
<path d="M497.683 452.307C497.683 456.269 501.078 459.64 505.469 459.64C509.86 459.64 513.256 456.269 513.256 452.307C513.256 448.346 509.86 444.975 505.469 444.975C501.078 444.975 497.683 448.346 497.683 452.307Z" stroke="#A0F7FF" stroke-width="4"/>
</g>
<g filter="url(#filter40_f_344_10301)">
<ellipse rx="9.78665" ry="9.33277" transform="matrix(-1 0 0 1 528.305 426.641)" fill="#FFFDFB" fill-opacity="0.99"/>
<path d="M520.518 426.641C520.518 430.603 523.914 433.974 528.305 433.974C532.696 433.974 536.092 430.603 536.092 426.641C536.092 422.68 532.696 419.309 528.305 419.309C523.914 419.309 520.518 422.68 520.518 426.641Z" stroke="#A0F7FF" stroke-width="4"/>
</g>
<g filter="url(#filter41_f_344_10301)">
<ellipse rx="9.78665" ry="9.33277" transform="matrix(-1 0 0 1 440.225 551.856)" fill="#FFFDFB" fill-opacity="0.99"/>
<path d="M432.438 551.856C432.438 555.818 435.834 559.189 440.225 559.189C444.616 559.189 448.012 555.818 448.012 551.856C448.012 547.895 444.616 544.523 440.225 544.523C435.834 544.523 432.438 547.895 432.438 551.856Z" stroke="#A0F7FF" stroke-width="4"/>
</g>
<g filter="url(#filter42_f_344_10301)">
<ellipse rx="9.78665" ry="9.33277" transform="matrix(-1 0 0 1 440.225 582.966)" fill="#FFFDFB" fill-opacity="0.99"/>
<path d="M432.438 582.966C432.438 586.927 435.834 590.298 440.225 590.298C444.616 590.298 448.012 586.927 448.012 582.966C448.012 579.004 444.616 575.633 440.225 575.633C435.834 575.633 432.438 579.004 432.438 582.966Z" stroke="#A0F7FF" stroke-width="4"/>
</g>
<g filter="url(#filter43_f_344_10301)">
<ellipse rx="9.78665" ry="9.33277" transform="matrix(-1 0 0 1 45.4965 763.399)" fill="#FFFDFB" fill-opacity="0.99"/>
<path d="M37.7099 763.399C37.7099 767.361 41.1055 770.732 45.4965 770.732C49.8876 770.732 53.2832 767.361 53.2832 763.399C53.2832 759.438 49.8876 756.066 45.4965 756.066C41.1055 756.066 37.7099 759.438 37.7099 763.399Z" stroke="#A0F7FF" stroke-width="4"/>
</g>
<g filter="url(#filter44_f_344_10301)">
<ellipse rx="9.78665" ry="9.33277" transform="matrix(-1 0 0 1 679.182 298.317)" fill="#FFFDFB" fill-opacity="0.99"/>
<path d="M671.395 298.317C671.395 302.278 674.791 305.65 679.182 305.65C683.573 305.65 686.969 302.278 686.969 298.317C686.969 294.356 683.573 290.984 679.182 290.984C674.791 290.984 671.395 294.356 671.395 298.317Z" stroke="#A0F7FF" stroke-width="4"/>
</g>
<path d="M709.357 39.7207H476.924" stroke="url(#paint0_linear_344_10301)" stroke-opacity="0.99" stroke-width="20" stroke-linecap="round" stroke-linejoin="round"/>
<path d="M758.293 347.704H503.84L358.671 209.268H302.239" stroke="#FFFDFB" stroke-opacity="0.99" stroke-width="5" stroke-linejoin="round"/>
<path d="M758.699 297.539H450.42" stroke="#FFFDFB" stroke-opacity="0.99" stroke-width="5" stroke-linejoin="round"/>
<path d="M759.516 208.879H359.486" stroke="#FFFDFB" stroke-opacity="0.99" stroke-width="5" stroke-linejoin="round"/>
<path d="M683.262 297.15L588.25 208.1" stroke="#FFFDFB" stroke-opacity="0.99" stroke-width="5" stroke-linejoin="round"/>
<path d="M759.516 131.493H388.846L282.008 30.7773" stroke="#FFFDFB" stroke-opacity="0.99" stroke-width="5" stroke-linejoin="round"/>
<path d="M760.33 99.218H425.137L352.553 30" stroke="#FFFDFB" stroke-opacity="0.99" stroke-width="5" stroke-linejoin="round"/>
<path d="M760.738 73.9414H450.012" stroke="#FFFDFB" stroke-opacity="0.99" stroke-width="5" stroke-linejoin="round"/>
<path d="M759.738 387H561.672L522.576 433H306.738" stroke="#FFFDFB" stroke-opacity="0.99" stroke-width="5" stroke-linejoin="round"/>
<path d="M759.516 451.141H507.509" stroke="#FFFDFB" stroke-opacity="0.99" stroke-width="5" stroke-linejoin="round"/>
<path d="M760.33 425.865H532.79L505.469 453.864" stroke="#FFFDFB" stroke-opacity="0.99" stroke-width="5" stroke-linejoin="round"/>
<path d="M759.922 551.469H450.827" stroke="#FFFDFB" stroke-opacity="0.99" stroke-width="5" stroke-linejoin="round"/>
<path d="M760.738 694.572H458.983L436.963 672.406H386.399L295.464 763.012H57.3225" stroke="#FFFDFB" stroke-opacity="0.99" stroke-width="5" stroke-linejoin="round"/>
<path d="M760.738 609.41H516.888L487.528 582.189H449.197H760.738" stroke="#FFFDFB" stroke-opacity="0.99" stroke-width="5" stroke-linejoin="round"/>
<g filter="url(#filter45_i_344_10301)">
<ellipse rx="9.78665" ry="9.33277" transform="matrix(-1 0 0 1 441.041 73.5535)" fill="#FFFDFB" fill-opacity="0.99"/>
</g>
<g filter="url(#filter46_i_344_10301)">
<ellipse rx="9.78665" ry="9.33277" transform="matrix(-1 0 0 1 588.657 208.878)" fill="#FFFDFB" fill-opacity="0.99"/>
</g>
<g filter="url(#filter47_i_344_10301)">
<ellipse rx="9.78665" ry="9.33277" transform="matrix(-1 0 0 1 450.827 297.54)" fill="#FFFDFB" fill-opacity="0.99"/>
</g>
<g filter="url(#filter48_i_344_10301)">
<ellipse rx="9.78665" ry="9.33277" transform="matrix(-1 0 0 1 308.952 209.333)" fill="#FFFDFB" fill-opacity="0.99"/>
</g>
<g filter="url(#filter49_i_344_10301)">
<ellipse rx="9.78665" ry="9.33277" transform="matrix(-1 0 0 1 303.952 433.333)" fill="#FFFDFB" fill-opacity="0.99"/>
</g>
<g filter="url(#filter50_i_344_10301)">
<ellipse rx="9.78665" ry="9.33277" transform="matrix(-1 0 0 1 507.916 451.53)" fill="#FFFDFB" fill-opacity="0.99"/>
</g>
<g filter="url(#filter51_i_344_10301)">
<ellipse rx="9.78665" ry="9.33277" transform="matrix(-1 0 0 1 530.752 425.864)" fill="#FFFDFB" fill-opacity="0.99"/>
</g>
<g filter="url(#filter52_i_344_10301)">
<ellipse rx="9.78665" ry="9.33277" transform="matrix(-1 0 0 1 442.672 551.079)" fill="#FFFDFB" fill-opacity="0.99"/>
</g>
<g filter="url(#filter53_i_344_10301)">
<ellipse rx="9.78665" ry="9.33277" transform="matrix(-1 0 0 1 442.672 582.188)" fill="#FFFDFB" fill-opacity="0.99"/>
</g>
<g filter="url(#filter54_i_344_10301)">
<ellipse rx="9.78665" ry="9.33277" transform="matrix(-1 0 0 1 47.9438 762.622)" fill="#FFFDFB" fill-opacity="0.99"/>
</g>
<g filter="url(#filter55_i_344_10301)">
<ellipse rx="9.78665" ry="9.33277" transform="matrix(-1 0 0 1 681.629 297.54)" fill="#FFFDFB" fill-opacity="0.99"/>
</g>
<path d="M739.738 511.276H517.5L488.955 486H408.215L327.475 560.662" stroke="url(#paint1_linear_344_10301)" stroke-opacity="0.99" stroke-width="20" stroke-linecap="round" stroke-linejoin="round"/>
<defs>
<filter id="filter0_f_344_10301" x="276.646" y="177.502" width="503.488" height="205.033" filterUnits="userSpaceOnUse" color-interpolation-filters="sRGB">
<feFlood flood-opacity="0" result="BackgroundImageFix"/>
<feBlend mode="normal" in="SourceGraphic" in2="BackgroundImageFix" result="shape"/>
<feGaussianBlur stdDeviation="15" result="effect1_foregroundBlur_344_10301"/>
</filter>
<filter id="filter1_f_344_10301" x="412.264" y="267.373" width="368.279" height="65" filterUnits="userSpaceOnUse" color-interpolation-filters="sRGB">
<feFlood flood-opacity="0" result="BackgroundImageFix"/>
<feBlend mode="normal" in="SourceGraphic" in2="BackgroundImageFix" result="shape"/>
<feGaussianBlur stdDeviation="15" result="effect1_foregroundBlur_344_10301"/>
</filter>
<filter id="filter2_f_344_10301" x="321.33" y="178.713" width="460.029" height="65" filterUnits="userSpaceOnUse" color-interpolation-filters="sRGB">
<feFlood flood-opacity="0" result="BackgroundImageFix"/>
<feBlend mode="normal" in="SourceGraphic" in2="BackgroundImageFix" result="shape"/>
<feGaussianBlur stdDeviation="15" result="effect1_foregroundBlur_344_10301"/>
</filter>
<filter id="filter3_f_344_10301" x="548.383" y="178.609" width="158.432" height="152.699" filterUnits="userSpaceOnUse" color-interpolation-filters="sRGB">
<feFlood flood-opacity="0" result="BackgroundImageFix"/>
<feBlend mode="normal" in="SourceGraphic" in2="BackgroundImageFix" result="shape"/>
<feGaussianBlur stdDeviation="15" result="effect1_foregroundBlur_344_10301"/>
</filter>
<filter id="filter4_f_344_10301" x="242.137" y="1.29297" width="539.223" height="165.035" filterUnits="userSpaceOnUse" color-interpolation-filters="sRGB">
<feFlood flood-opacity="0" result="BackgroundImageFix"/>
<feBlend mode="normal" in="SourceGraphic" in2="BackgroundImageFix" result="shape"/>
<feGaussianBlur stdDeviation="15" result="effect1_foregroundBlur_344_10301"/>
</filter>
<filter id="filter5_f_344_10301" x="312.672" y="0.525391" width="469.502" height="133.527" filterUnits="userSpaceOnUse" color-interpolation-filters="sRGB">
<feFlood flood-opacity="0" result="BackgroundImageFix"/>
<feBlend mode="normal" in="SourceGraphic" in2="BackgroundImageFix" result="shape"/>
<feGaussianBlur stdDeviation="15" result="effect1_foregroundBlur_344_10301"/>
</filter>
<filter id="filter6_f_344_10301" x="411.855" y="43.7754" width="370.727" height="65" filterUnits="userSpaceOnUse" color-interpolation-filters="sRGB">
<feFlood flood-opacity="0" result="BackgroundImageFix"/>
<feBlend mode="normal" in="SourceGraphic" in2="BackgroundImageFix" result="shape"/>
<feGaussianBlur stdDeviation="15" result="effect1_foregroundBlur_344_10301"/>
</filter>
<filter id="filter7_f_344_10301" x="280.738" y="357.5" width="501" height="111" filterUnits="userSpaceOnUse" color-interpolation-filters="sRGB">
<feFlood flood-opacity="0" result="BackgroundImageFix"/>
<feBlend mode="normal" in="SourceGraphic" in2="BackgroundImageFix" result="shape"/>
<feGaussianBlur stdDeviation="15" result="effect1_foregroundBlur_344_10301"/>
</filter>
<filter id="filter8_f_344_10301" x="469.354" y="420.975" width="312.006" height="65" filterUnits="userSpaceOnUse" color-interpolation-filters="sRGB">
<feFlood flood-opacity="0" result="BackgroundImageFix"/>
<feBlend mode="normal" in="SourceGraphic" in2="BackgroundImageFix" result="shape"/>
<feGaussianBlur stdDeviation="15" result="effect1_foregroundBlur_344_10301"/>
</filter>
<filter id="filter9_f_344_10301" x="465.523" y="395.699" width="316.65" height="92.2441" filterUnits="userSpaceOnUse" color-interpolation-filters="sRGB">
<feFlood flood-opacity="0" result="BackgroundImageFix"/>
<feBlend mode="normal" in="SourceGraphic" in2="BackgroundImageFix" result="shape"/>
<feGaussianBlur stdDeviation="15" result="effect1_foregroundBlur_344_10301"/>
</filter>
<filter id="filter10_f_344_10301" x="412.672" y="521.303" width="369.096" height="65" filterUnits="userSpaceOnUse" color-interpolation-filters="sRGB">
<feFlood flood-opacity="0" result="BackgroundImageFix"/>
<feBlend mode="normal" in="SourceGraphic" in2="BackgroundImageFix" result="shape"/>
<feGaussianBlur stdDeviation="15" result="effect1_foregroundBlur_344_10301"/>
</filter>
<filter id="filter11_f_344_10301" x="19.166" y="642.24" width="763.416" height="155.605" filterUnits="userSpaceOnUse" color-interpolation-filters="sRGB">
<feFlood flood-opacity="0" result="BackgroundImageFix"/>
<feBlend mode="normal" in="SourceGraphic" in2="BackgroundImageFix" result="shape"/>
<feGaussianBlur stdDeviation="15" result="effect1_foregroundBlur_344_10301"/>
</filter>
<filter id="filter12_f_344_10301" x="408.541" y="552.023" width="374.041" height="92.2207" filterUnits="userSpaceOnUse" color-interpolation-filters="sRGB">
<feFlood flood-opacity="0" result="BackgroundImageFix"/>
<feBlend mode="normal" in="SourceGraphic" in2="BackgroundImageFix" result="shape"/>
<feGaussianBlur stdDeviation="15" result="effect1_foregroundBlur_344_10301"/>
</filter>
<filter id="filter13_f_344_10301" x="393.098" y="36.5547" width="79.5742" height="78.666" filterUnits="userSpaceOnUse" color-interpolation-filters="sRGB">
<feFlood flood-opacity="0" result="BackgroundImageFix"/>
<feBlend mode="normal" in="SourceGraphic" in2="BackgroundImageFix" result="shape"/>
<feGaussianBlur stdDeviation="15" result="effect1_foregroundBlur_344_10301"/>
</filter>
<filter id="filter14_f_344_10301" x="540.713" y="171.879" width="79.5742" height="78.666" filterUnits="userSpaceOnUse" color-interpolation-filters="sRGB">
<feFlood flood-opacity="0" result="BackgroundImageFix"/>
<feBlend mode="normal" in="SourceGraphic" in2="BackgroundImageFix" result="shape"/>
<feGaussianBlur stdDeviation="15" result="effect1_foregroundBlur_344_10301"/>
</filter>
<filter id="filter15_f_344_10301" x="402.883" y="260.541" width="79.5742" height="78.666" filterUnits="userSpaceOnUse" color-interpolation-filters="sRGB">
<feFlood flood-opacity="0" result="BackgroundImageFix"/>
<feBlend mode="normal" in="SourceGraphic" in2="BackgroundImageFix" result="shape"/>
<feGaussianBlur stdDeviation="15" result="effect1_foregroundBlur_344_10301"/>
</filter>
<filter id="filter16_f_344_10301" x="267.164" y="395" width="79.5742" height="78.666" filterUnits="userSpaceOnUse" color-interpolation-filters="sRGB">
<feFlood flood-opacity="0" result="BackgroundImageFix"/>
<feBlend mode="normal" in="SourceGraphic" in2="BackgroundImageFix" result="shape"/>
<feGaussianBlur stdDeviation="15" result="effect1_foregroundBlur_344_10301"/>
</filter>
<filter id="filter17_f_344_10301" x="459.973" y="414.531" width="79.5742" height="78.666" filterUnits="userSpaceOnUse" color-interpolation-filters="sRGB">
<feFlood flood-opacity="0" result="BackgroundImageFix"/>
<feBlend mode="normal" in="SourceGraphic" in2="BackgroundImageFix" result="shape"/>
<feGaussianBlur stdDeviation="15" result="effect1_foregroundBlur_344_10301"/>
</filter>
<filter id="filter18_f_344_10301" x="482.809" y="388.865" width="79.5742" height="78.666" filterUnits="userSpaceOnUse" color-interpolation-filters="sRGB">
<feFlood flood-opacity="0" result="BackgroundImageFix"/>
<feBlend mode="normal" in="SourceGraphic" in2="BackgroundImageFix" result="shape"/>
<feGaussianBlur stdDeviation="15" result="effect1_foregroundBlur_344_10301"/>
</filter>
<filter id="filter19_f_344_10301" x="394.729" y="514.08" width="79.5742" height="78.666" filterUnits="userSpaceOnUse" color-interpolation-filters="sRGB">
<feFlood flood-opacity="0" result="BackgroundImageFix"/>
<feBlend mode="normal" in="SourceGraphic" in2="BackgroundImageFix" result="shape"/>
<feGaussianBlur stdDeviation="15" result="effect1_foregroundBlur_344_10301"/>
</filter>
<filter id="filter20_f_344_10301" x="394.729" y="545.189" width="79.5742" height="78.666" filterUnits="userSpaceOnUse" color-interpolation-filters="sRGB">
<feFlood flood-opacity="0" result="BackgroundImageFix"/>
<feBlend mode="normal" in="SourceGraphic" in2="BackgroundImageFix" result="shape"/>
<feGaussianBlur stdDeviation="15" result="effect1_foregroundBlur_344_10301"/>
</filter>
<filter id="filter21_f_344_10301" x="0" y="725.623" width="79.5742" height="78.666" filterUnits="userSpaceOnUse" color-interpolation-filters="sRGB">
<feFlood flood-opacity="0" result="BackgroundImageFix"/>
<feBlend mode="normal" in="SourceGraphic" in2="BackgroundImageFix" result="shape"/>
<feGaussianBlur stdDeviation="15" result="effect1_foregroundBlur_344_10301"/>
</filter>
<filter id="filter22_f_344_10301" x="633.686" y="260.541" width="79.5742" height="78.666" filterUnits="userSpaceOnUse" color-interpolation-filters="sRGB">
<feFlood flood-opacity="0" result="BackgroundImageFix"/>
<feBlend mode="normal" in="SourceGraphic" in2="BackgroundImageFix" result="shape"/>
<feGaussianBlur stdDeviation="15" result="effect1_foregroundBlur_344_10301"/>
</filter>
<filter id="filter23_f_344_10301" x="284.738" y="188.045" width="491.107" height="182.436" filterUnits="userSpaceOnUse" color-interpolation-filters="sRGB">
<feFlood flood-opacity="0" result="BackgroundImageFix"/>
<feBlend mode="normal" in="SourceGraphic" in2="BackgroundImageFix" result="shape"/>
<feGaussianBlur stdDeviation="10" result="effect1_foregroundBlur_344_10301"/>
</filter>
<filter id="filter24_f_344_10301" x="427.973" y="276.316" width="348.279" height="44" filterUnits="userSpaceOnUse" color-interpolation-filters="sRGB">
<feFlood flood-opacity="0" result="BackgroundImageFix"/>
<feBlend mode="normal" in="SourceGraphic" in2="BackgroundImageFix" result="shape"/>
<feGaussianBlur stdDeviation="10" result="effect1_foregroundBlur_344_10301"/>
</filter>
<filter id="filter25_f_344_10301" x="337.039" y="187.656" width="440.029" height="44" filterUnits="userSpaceOnUse" color-interpolation-filters="sRGB">
<feFlood flood-opacity="0" result="BackgroundImageFix"/>
<feBlend mode="normal" in="SourceGraphic" in2="BackgroundImageFix" result="shape"/>
<feGaussianBlur stdDeviation="10" result="effect1_foregroundBlur_344_10301"/>
</filter>
<filter id="filter26_f_344_10301" x="564.436" y="187.418" width="137.746" height="131.969" filterUnits="userSpaceOnUse" color-interpolation-filters="sRGB">
<feFlood flood-opacity="0" result="BackgroundImageFix"/>
<feBlend mode="normal" in="SourceGraphic" in2="BackgroundImageFix" result="shape"/>
<feGaussianBlur stdDeviation="10" result="effect1_foregroundBlur_344_10301"/>
</filter>
<filter id="filter27_f_344_10301" x="258.189" y="10.0996" width="518.879" height="144.172" filterUnits="userSpaceOnUse" color-interpolation-filters="sRGB">
<feFlood flood-opacity="0" result="BackgroundImageFix"/>
<feBlend mode="normal" in="SourceGraphic" in2="BackgroundImageFix" result="shape"/>
<feGaussianBlur stdDeviation="10" result="effect1_foregroundBlur_344_10301"/>
</filter>
<filter id="filter28_f_344_10301" x="328.725" y="9.33008" width="449.158" height="112.666" filterUnits="userSpaceOnUse" color-interpolation-filters="sRGB">
<feFlood flood-opacity="0" result="BackgroundImageFix"/>
<feBlend mode="normal" in="SourceGraphic" in2="BackgroundImageFix" result="shape"/>
<feGaussianBlur stdDeviation="10" result="effect1_foregroundBlur_344_10301"/>
</filter>
<filter id="filter29_f_344_10301" x="427.564" y="52.7188" width="350.727" height="44" filterUnits="userSpaceOnUse" color-interpolation-filters="sRGB">
<feFlood flood-opacity="0" result="BackgroundImageFix"/>
<feBlend mode="normal" in="SourceGraphic" in2="BackgroundImageFix" result="shape"/>
<feGaussianBlur stdDeviation="10" result="effect1_foregroundBlur_344_10301"/>
</filter>
<filter id="filter30_f_344_10301" x="290.738" y="366" width="486" height="90" filterUnits="userSpaceOnUse" color-interpolation-filters="sRGB">
<feFlood flood-opacity="0" result="BackgroundImageFix"/>
<feBlend mode="normal" in="SourceGraphic" in2="BackgroundImageFix" result="shape"/>
<feGaussianBlur stdDeviation="10" result="effect1_foregroundBlur_344_10301"/>
</filter>
<filter id="filter31_f_344_10301" x="481.59" y="404.643" width="296.293" height="71.3945" filterUnits="userSpaceOnUse" color-interpolation-filters="sRGB">
<feFlood flood-opacity="0" result="BackgroundImageFix"/>
<feBlend mode="normal" in="SourceGraphic" in2="BackgroundImageFix" result="shape"/>
<feGaussianBlur stdDeviation="10" result="effect1_foregroundBlur_344_10301"/>
</filter>
<filter id="filter32_f_344_10301" x="428.379" y="530.246" width="349.096" height="44" filterUnits="userSpaceOnUse" color-interpolation-filters="sRGB">
<feFlood flood-opacity="0" result="BackgroundImageFix"/>
<feBlend mode="normal" in="SourceGraphic" in2="BackgroundImageFix" result="shape"/>
<feGaussianBlur stdDeviation="10" result="effect1_foregroundBlur_344_10301"/>
</filter>
<filter id="filter33_f_344_10301" x="34.875" y="651.184" width="743.416" height="134.605" filterUnits="userSpaceOnUse" color-interpolation-filters="sRGB">
<feFlood flood-opacity="0" result="BackgroundImageFix"/>
<feBlend mode="normal" in="SourceGraphic" in2="BackgroundImageFix" result="shape"/>
<feGaussianBlur stdDeviation="10" result="effect1_foregroundBlur_344_10301"/>
</filter>
<filter id="filter34_f_344_10301" x="424.75" y="560.967" width="353.541" height="71.2207" filterUnits="userSpaceOnUse" color-interpolation-filters="sRGB">
<feFlood flood-opacity="0" result="BackgroundImageFix"/>
<feBlend mode="normal" in="SourceGraphic" in2="BackgroundImageFix" result="shape"/>
<feGaussianBlur stdDeviation="10" result="effect1_foregroundBlur_344_10301"/>
</filter>
<filter id="filter35_f_344_10301" x="408.807" y="44.998" width="59.5742" height="58.666" filterUnits="userSpaceOnUse" color-interpolation-filters="sRGB">
<feFlood flood-opacity="0" result="BackgroundImageFix"/>
<feBlend mode="normal" in="SourceGraphic" in2="BackgroundImageFix" result="shape"/>
<feGaussianBlur stdDeviation="10" result="effect1_foregroundBlur_344_10301"/>
</filter>
<filter id="filter36_f_344_10301" x="556.422" y="180.322" width="59.5742" height="58.666" filterUnits="userSpaceOnUse" color-interpolation-filters="sRGB">
<feFlood flood-opacity="0" result="BackgroundImageFix"/>
<feBlend mode="normal" in="SourceGraphic" in2="BackgroundImageFix" result="shape"/>
<feGaussianBlur stdDeviation="10" result="effect1_foregroundBlur_344_10301"/>
</filter>
<filter id="filter37_f_344_10301" x="418.592" y="268.984" width="59.5742" height="58.666" filterUnits="userSpaceOnUse" color-interpolation-filters="sRGB">
<feFlood flood-opacity="0" result="BackgroundImageFix"/>
<feBlend mode="normal" in="SourceGraphic" in2="BackgroundImageFix" result="shape"/>
<feGaussianBlur stdDeviation="10" result="effect1_foregroundBlur_344_10301"/>
</filter>
<filter id="filter38_f_344_10301" x="271.164" y="405" width="59.5742" height="58.666" filterUnits="userSpaceOnUse" color-interpolation-filters="sRGB">
<feFlood flood-opacity="0" result="BackgroundImageFix"/>
<feBlend mode="normal" in="SourceGraphic" in2="BackgroundImageFix" result="shape"/>
<feGaussianBlur stdDeviation="10" result="effect1_foregroundBlur_344_10301"/>
</filter>
<filter id="filter39_f_344_10301" x="475.682" y="422.975" width="59.5742" height="58.666" filterUnits="userSpaceOnUse" color-interpolation-filters="sRGB">
<feFlood flood-opacity="0" result="BackgroundImageFix"/>
<feBlend mode="normal" in="SourceGraphic" in2="BackgroundImageFix" result="shape"/>
<feGaussianBlur stdDeviation="10" result="effect1_foregroundBlur_344_10301"/>
</filter>
<filter id="filter40_f_344_10301" x="498.518" y="397.309" width="59.5742" height="58.666" filterUnits="userSpaceOnUse" color-interpolation-filters="sRGB">
<feFlood flood-opacity="0" result="BackgroundImageFix"/>
<feBlend mode="normal" in="SourceGraphic" in2="BackgroundImageFix" result="shape"/>
<feGaussianBlur stdDeviation="10" result="effect1_foregroundBlur_344_10301"/>
</filter>
<filter id="filter41_f_344_10301" x="410.438" y="522.523" width="59.5742" height="58.666" filterUnits="userSpaceOnUse" color-interpolation-filters="sRGB">
<feFlood flood-opacity="0" result="BackgroundImageFix"/>
<feBlend mode="normal" in="SourceGraphic" in2="BackgroundImageFix" result="shape"/>
<feGaussianBlur stdDeviation="10" result="effect1_foregroundBlur_344_10301"/>
</filter>
<filter id="filter42_f_344_10301" x="410.438" y="553.633" width="59.5742" height="58.666" filterUnits="userSpaceOnUse" color-interpolation-filters="sRGB">
<feFlood flood-opacity="0" result="BackgroundImageFix"/>
<feBlend mode="normal" in="SourceGraphic" in2="BackgroundImageFix" result="shape"/>
<feGaussianBlur stdDeviation="10" result="effect1_foregroundBlur_344_10301"/>
</filter>
<filter id="filter43_f_344_10301" x="15.709" y="734.066" width="59.5742" height="58.666" filterUnits="userSpaceOnUse" color-interpolation-filters="sRGB">
<feFlood flood-opacity="0" result="BackgroundImageFix"/>
<feBlend mode="normal" in="SourceGraphic" in2="BackgroundImageFix" result="shape"/>
<feGaussianBlur stdDeviation="10" result="effect1_foregroundBlur_344_10301"/>
</filter>
<filter id="filter44_f_344_10301" x="649.395" y="268.984" width="59.5742" height="58.666" filterUnits="userSpaceOnUse" color-interpolation-filters="sRGB">
<feFlood flood-opacity="0" result="BackgroundImageFix"/>
<feBlend mode="normal" in="SourceGraphic" in2="BackgroundImageFix" result="shape"/>
<feGaussianBlur stdDeviation="10" result="effect1_foregroundBlur_344_10301"/>
</filter>
<filter id="filter45_i_344_10301" x="427.254" y="63.2207" width="23.5742" height="19.666" filterUnits="userSpaceOnUse" color-interpolation-filters="sRGB">
<feFlood flood-opacity="0" result="BackgroundImageFix"/>
<feBlend mode="normal" in="SourceGraphic" in2="BackgroundImageFix" result="shape"/>
<feColorMatrix in="SourceAlpha" type="matrix" values="0 0 0 0 0 0 0 0 0 0 0 0 0 0 0 0 0 0 127 0" result="hardAlpha"/>
<feOffset dx="-4" dy="-1"/>
<feGaussianBlur stdDeviation="2"/>
<feComposite in2="hardAlpha" operator="arithmetic" k2="-1" k3="1"/>
<feColorMatrix type="matrix" values="0 0 0 0 0.266667 0 0 0 0 0.266667 0 0 0 0 0.266667 0 0 0 0.8 0"/>
<feBlend mode="normal" in2="shape" result="effect1_innerShadow_344_10301"/>
</filter>
<filter id="filter46_i_344_10301" x="574.869" y="198.545" width="23.5742" height="19.666" filterUnits="userSpaceOnUse" color-interpolation-filters="sRGB">
<feFlood flood-opacity="0" result="BackgroundImageFix"/>
<feBlend mode="normal" in="SourceGraphic" in2="BackgroundImageFix" result="shape"/>
<feColorMatrix in="SourceAlpha" type="matrix" values="0 0 0 0 0 0 0 0 0 0 0 0 0 0 0 0 0 0 127 0" result="hardAlpha"/>
<feOffset dx="-4" dy="-1"/>
<feGaussianBlur stdDeviation="2"/>
<feComposite in2="hardAlpha" operator="arithmetic" k2="-1" k3="1"/>
<feColorMatrix type="matrix" values="0 0 0 0 0.266667 0 0 0 0 0.266667 0 0 0 0 0.266667 0 0 0 0.8 0"/>
<feBlend mode="normal" in2="shape" result="effect1_innerShadow_344_10301"/>
</filter>
<filter id="filter47_i_344_10301" x="437.039" y="287.207" width="23.5742" height="19.666" filterUnits="userSpaceOnUse" color-interpolation-filters="sRGB">
<feFlood flood-opacity="0" result="BackgroundImageFix"/>
<feBlend mode="normal" in="SourceGraphic" in2="BackgroundImageFix" result="shape"/>
<feColorMatrix in="SourceAlpha" type="matrix" values="0 0 0 0 0 0 0 0 0 0 0 0 0 0 0 0 0 0 127 0" result="hardAlpha"/>
<feOffset dx="-4" dy="-1"/>
<feGaussianBlur stdDeviation="2"/>
<feComposite in2="hardAlpha" operator="arithmetic" k2="-1" k3="1"/>
<feColorMatrix type="matrix" values="0 0 0 0 0.266667 0 0 0 0 0.266667 0 0 0 0 0.266667 0 0 0 0.8 0"/>
<feBlend mode="normal" in2="shape" result="effect1_innerShadow_344_10301"/>
</filter>
<filter id="filter48_i_344_10301" x="295.164" y="199" width="23.5742" height="19.666" filterUnits="userSpaceOnUse" color-interpolation-filters="sRGB">
<feFlood flood-opacity="0" result="BackgroundImageFix"/>
<feBlend mode="normal" in="SourceGraphic" in2="BackgroundImageFix" result="shape"/>
<feColorMatrix in="SourceAlpha" type="matrix" values="0 0 0 0 0 0 0 0 0 0 0 0 0 0 0 0 0 0 127 0" result="hardAlpha"/>
<feOffset dx="-4" dy="-1"/>
<feGaussianBlur stdDeviation="2"/>
<feComposite in2="hardAlpha" operator="arithmetic" k2="-1" k3="1"/>
<feColorMatrix type="matrix" values="0 0 0 0 0.266667 0 0 0 0 0.266667 0 0 0 0 0.266667 0 0 0 0.8 0"/>
<feBlend mode="normal" in2="shape" result="effect1_innerShadow_344_10301"/>
</filter>
<filter id="filter49_i_344_10301" x="290.164" y="423" width="23.5742" height="19.666" filterUnits="userSpaceOnUse" color-interpolation-filters="sRGB">
<feFlood flood-opacity="0" result="BackgroundImageFix"/>
<feBlend mode="normal" in="SourceGraphic" in2="BackgroundImageFix" result="shape"/>
<feColorMatrix in="SourceAlpha" type="matrix" values="0 0 0 0 0 0 0 0 0 0 0 0 0 0 0 0 0 0 127 0" result="hardAlpha"/>
<feOffset dx="-4" dy="-1"/>
<feGaussianBlur stdDeviation="2"/>
<feComposite in2="hardAlpha" operator="arithmetic" k2="-1" k3="1"/>
<feColorMatrix type="matrix" values="0 0 0 0 0.266667 0 0 0 0 0.266667 0 0 0 0 0.266667 0 0 0 0.8 0"/>
<feBlend mode="normal" in2="shape" result="effect1_innerShadow_344_10301"/>
</filter>
<filter id="filter50_i_344_10301" x="494.129" y="441.197" width="23.5742" height="19.666" filterUnits="userSpaceOnUse" color-interpolation-filters="sRGB">
<feFlood flood-opacity="0" result="BackgroundImageFix"/>
<feBlend mode="normal" in="SourceGraphic" in2="BackgroundImageFix" result="shape"/>
<feColorMatrix in="SourceAlpha" type="matrix" values="0 0 0 0 0 0 0 0 0 0 0 0 0 0 0 0 0 0 127 0" result="hardAlpha"/>
<feOffset dx="-4" dy="-1"/>
<feGaussianBlur stdDeviation="2"/>
<feComposite in2="hardAlpha" operator="arithmetic" k2="-1" k3="1"/>
<feColorMatrix type="matrix" values="0 0 0 0 0.266667 0 0 0 0 0.266667 0 0 0 0 0.266667 0 0 0 0.8 0"/>
<feBlend mode="normal" in2="shape" result="effect1_innerShadow_344_10301"/>
</filter>
<filter id="filter51_i_344_10301" x="516.965" y="415.531" width="23.5742" height="19.666" filterUnits="userSpaceOnUse" color-interpolation-filters="sRGB">
<feFlood flood-opacity="0" result="BackgroundImageFix"/>
<feBlend mode="normal" in="SourceGraphic" in2="BackgroundImageFix" result="shape"/>
<feColorMatrix in="SourceAlpha" type="matrix" values="0 0 0 0 0 0 0 0 0 0 0 0 0 0 0 0 0 0 127 0" result="hardAlpha"/>
<feOffset dx="-4" dy="-1"/>
<feGaussianBlur stdDeviation="2"/>
<feComposite in2="hardAlpha" operator="arithmetic" k2="-1" k3="1"/>
<feColorMatrix type="matrix" values="0 0 0 0 0.266667 0 0 0 0 0.266667 0 0 0 0 0.266667 0 0 0 0.8 0"/>
<feBlend mode="normal" in2="shape" result="effect1_innerShadow_344_10301"/>
</filter>
<filter id="filter52_i_344_10301" x="428.885" y="540.746" width="23.5742" height="19.666" filterUnits="userSpaceOnUse" color-interpolation-filters="sRGB">
<feFlood flood-opacity="0" result="BackgroundImageFix"/>
<feBlend mode="normal" in="SourceGraphic" in2="BackgroundImageFix" result="shape"/>
<feColorMatrix in="SourceAlpha" type="matrix" values="0 0 0 0 0 0 0 0 0 0 0 0 0 0 0 0 0 0 127 0" result="hardAlpha"/>
<feOffset dx="-4" dy="-1"/>
<feGaussianBlur stdDeviation="2"/>
<feComposite in2="hardAlpha" operator="arithmetic" k2="-1" k3="1"/>
<feColorMatrix type="matrix" values="0 0 0 0 0.266667 0 0 0 0 0.266667 0 0 0 0 0.266667 0 0 0 0.8 0"/>
<feBlend mode="normal" in2="shape" result="effect1_innerShadow_344_10301"/>
</filter>
<filter id="filter53_i_344_10301" x="428.885" y="571.855" width="23.5742" height="19.666" filterUnits="userSpaceOnUse" color-interpolation-filters="sRGB">
<feFlood flood-opacity="0" result="BackgroundImageFix"/>
<feBlend mode="normal" in="SourceGraphic" in2="BackgroundImageFix" result="shape"/>
<feColorMatrix in="SourceAlpha" type="matrix" values="0 0 0 0 0 0 0 0 0 0 0 0 0 0 0 0 0 0 127 0" result="hardAlpha"/>
<feOffset dx="-4" dy="-1"/>
<feGaussianBlur stdDeviation="2"/>
<feComposite in2="hardAlpha" operator="arithmetic" k2="-1" k3="1"/>
<feColorMatrix type="matrix" values="0 0 0 0 0.266667 0 0 0 0 0.266667 0 0 0 0 0.266667 0 0 0 0.8 0"/>
<feBlend mode="normal" in2="shape" result="effect1_innerShadow_344_10301"/>
</filter>
<filter id="filter54_i_344_10301" x="34.1562" y="752.289" width="23.5742" height="19.666" filterUnits="userSpaceOnUse" color-interpolation-filters="sRGB">
<feFlood flood-opacity="0" result="BackgroundImageFix"/>
<feBlend mode="normal" in="SourceGraphic" in2="BackgroundImageFix" result="shape"/>
<feColorMatrix in="SourceAlpha" type="matrix" values="0 0 0 0 0 0 0 0 0 0 0 0 0 0 0 0 0 0 127 0" result="hardAlpha"/>
<feOffset dx="-4" dy="-1"/>
<feGaussianBlur stdDeviation="2"/>
<feComposite in2="hardAlpha" operator="arithmetic" k2="-1" k3="1"/>
<feColorMatrix type="matrix" values="0 0 0 0 0.266667 0 0 0 0 0.266667 0 0 0 0 0.266667 0 0 0 0.8 0"/>
<feBlend mode="normal" in2="shape" result="effect1_innerShadow_344_10301"/>
</filter>
<filter id="filter55_i_344_10301" x="667.842" y="287.207" width="23.5742" height="19.666" filterUnits="userSpaceOnUse" color-interpolation-filters="sRGB">
<feFlood flood-opacity="0" result="BackgroundImageFix"/>
<feBlend mode="normal" in="SourceGraphic" in2="BackgroundImageFix" result="shape"/>
<feColorMatrix in="SourceAlpha" type="matrix" values="0 0 0 0 0 0 0 0 0 0 0 0 0 0 0 0 0 0 127 0" result="hardAlpha"/>
<feOffset dx="-4" dy="-1"/>
<feGaussianBlur stdDeviation="2"/>
<feComposite in2="hardAlpha" operator="arithmetic" k2="-1" k3="1"/>
<feColorMatrix type="matrix" values="0 0 0 0 0.266667 0 0 0 0 0.266667 0 0 0 0 0.266667 0 0 0 0.8 0"/>
<feBlend mode="normal" in2="shape" result="effect1_innerShadow_344_10301"/>
</filter>
<linearGradient id="paint0_linear_344_10301" x1="723.179" y1="43.9994" x2="470.955" y2="39.8282" gradientUnits="userSpaceOnUse">
<stop/>
<stop offset="1" stop-color="#FFC979"/>
</linearGradient>
<linearGradient id="paint1_linear_344_10301" x1="764.253" y1="805.456" x2="316.766" y2="805.28" gradientUnits="userSpaceOnUse">
<stop/>
<stop offset="1" stop-color="#FFC979"/>
</linearGradient>
</defs>
</svg>
