<svg width="620" height="216" viewBox="0 0 620 216" fill="none" xmlns="http://www.w3.org/2000/svg">
<g id="description-gaming">
<g id="cadre-gaming">
<g id="Group">
<path id="Vector" d="M67.1074 58.8891C69.7793 59.9247 70.7056 62.2348 69.1942 64.0471L74.021 65.9191L76.7708 62.6331L79.5207 59.3471L82.2705 56.0611L77.4437 54.1891C75.9225 56.008 72.5291 56.6387 69.867 55.6097L67.1172 58.8957L67.1074 58.8891Z" fill="#FFB13C"/>
<path id="Vector_2" d="M78.0972 45.7317C80.769 46.7673 81.6953 49.0775 80.1838 50.8898L85.0108 52.7618L87.7606 49.4758L90.5105 46.1898L93.2603 42.9038L88.4335 41.0317C86.9123 42.8507 83.5188 43.4813 80.8567 42.4524L78.1069 45.7384L78.0972 45.7317Z" fill="#FFB13C"/>
<path id="Vector_3" d="M89.0869 32.5812C91.7587 33.6168 92.6851 35.927 91.1737 37.7392L96.0006 39.6113L98.7504 36.3253L101.5 33.0393L104.25 29.7533L99.4233 27.8812C97.9021 29.7001 94.5087 30.3308 91.8466 29.3019L89.0967 32.5879L89.0869 32.5812Z" fill="#FFB13C"/>
<path id="Vector_4" d="M34.1289 98.3544C36.8007 99.39 37.7271 101.7 36.2157 103.512L41.0426 105.384L43.7924 102.098L46.5422 98.8124L49.2921 95.5264L44.4653 93.6544C42.9441 95.4733 39.5507 96.104 36.8886 95.075L34.1387 98.361L34.1289 98.3544Z" fill="#FFB13C"/>
<path id="Vector_5" d="M45.1187 85.1969C47.7905 86.2325 48.7169 88.5427 47.2054 90.355L52.0322 92.227L54.7821 88.941L57.5319 85.655L60.2818 82.369L55.4549 80.4969C53.9337 82.3159 50.5404 82.9465 47.8783 81.9176L45.1284 85.2036L45.1187 85.1969Z" fill="#FFB13C"/>
<path id="Vector_6" d="M56.1084 72.0465C58.7802 73.0821 59.7066 75.3923 58.1952 77.2046L63.022 79.0766L65.7719 75.7906L68.5217 72.5046L71.2716 69.2186L66.4447 67.3466C64.9235 69.1655 61.53 69.7961 58.868 68.7672L56.1182 72.0532L56.1084 72.0465Z" fill="#FFB13C"/>
</g>
<g id="Group_2">
<path id="Vector_7" d="M369.863 201.794C365.631 201.794 362.208 204.131 362.208 207.005C362.208 209.88 365.64 212.216 369.863 212.216C374.085 212.216 377.508 209.88 377.508 207.005C377.508 204.131 374.075 201.794 369.863 201.794ZM369.863 216C362.569 216 356.64 211.964 356.64 206.998C356.64 202.033 362.569 198.003 369.863 198.003C377.157 198.003 383.085 202.04 383.085 206.998C383.085 211.957 377.147 216 369.863 216Z" fill="#FFB13C"/>
<path id="Vector_8" d="M22.652 174.265L0 151.136L126.863 0H246.042L242.747 3.78387H130.091L6.54302 150.984L25.6262 170.474H384.334L381.799 174.265H22.652Z" fill="#FFB13C"/>
<path id="Vector_9" d="M377.195 200.771L372.251 199.031L393.899 170.473H527.432L613.584 53.1733L565.218 3.78386H322.735L326.021 0H568.192L620 52.9011L530.874 174.264H397.292L377.195 200.771Z" fill="#FFB13C"/>
</g>
</g>
<text id="text-content" fill="#F9F9F9" xml:space="preserve" style="white-space: pre" font-family="Orbitron" font-size="20" letter-spacing="0em"><tspan x="153" y="68.18">Lorem ipsum dolor sit amet, </tspan><tspan x="153" y="93.18">consectetur adipiscing elit. Arcu </tspan><tspan x="153" y="118.18">diam in ullamcorper pellentesque ac </tspan></text>
</g>
</svg>
