<?xml version="1.0" encoding="utf-8"?>
<!-- Generator: Adobe Illustrator 26.3.1, SVG Export Plug-In . SVG Version: 6.00 Build 0)  -->
<svg version="1.1" id="Calque_1" xmlns="http://www.w3.org/2000/svg" xmlns:xlink="http://www.w3.org/1999/xlink" x="0px" y="0px"
	 viewBox="0 0 304 582" style="enable-background:new 0 0 304 582;" xml:space="preserve">
<style type="text/css">
	.st0{fill:url(#SVGID_1_);}
	.st1{fill:#409BFF;}
</style>
<linearGradient id="SVGID_1_" gradientUnits="userSpaceOnUse" x1="152" y1="584" x2="152" y2="-2.1913" gradientTransform="matrix(1 0 0 -1 0 584)">
	<stop  offset="0" style="stop-color:#0044FA"/>
	<stop  offset="0.42" style="stop-color:#009FFF"/>
	<stop  offset="0.57" style="stop-color:#32C5F4"/>
	<stop  offset="0.63" style="stop-color:#2FBDF4"/>
	<stop  offset="0.72" style="stop-color:#26A8F5"/>
	<stop  offset="0.83" style="stop-color:#1985F6"/>
	<stop  offset="0.96" style="stop-color:#0656F9"/>
	<stop  offset="1" style="stop-color:#0044FA"/>
</linearGradient>
<path class="st0" d="M302.8,140.6l-11.5-52.6l-10-19.8l-14.1-20.8l-17.5-17.8l-25-17.5L192.5,2l-23.7-1.7L152.1,0l-16.7,0.3L111.8,2
	h-0.1L79.5,12.2L54.5,29.6L37,47.4L22.8,68.2l-10,19.7L1.4,140.5L0,192.9l2.7,14.7l2.4,10.9l0.6,2.9l4.9,19.2l-0.5,11.2l0.5,18.1
	l2.1,15.7l5,30.8l7.1,27.7l3.7,16.4l8.5,27.1l8.5,18.4l5.2,28.4c4.5,26.4,5.2,53.3,1.9,79.9L44.4,582H45l8.4-67.6
	c3.3-26.7,2.7-53.6-1.9-80l-4.9-26.5l12.2,19.2l17.7,17.9l16.8,15.8l16.7,13.2l13.9,9.4l15.1,6.3l12.9,1.2l12.9-1.2l15.2-6.3l14-9.5
	l16.7-13.2l16.8-15.8l17.7-17.9l12-19l-4.9,26.2c-4.5,26.5-5.2,53.4-1.9,80l8.4,67.7h0.6l-8.4-67.7c-3.3-26.6-2.7-53.5,1.9-79.9
	l5.2-27.9l8.8-18.9l8.5-27.1l3.7-16.3l7.1-27.7l5-30.8l2.1-15.7l0.5-18.1l-0.5-11.2l4.9-19.2l0.6-2.9l2.4-11l2.7-14.6l-1.4-52.4
	L302.8,140.6z M111.7,2.5L135,0.8l0.8,28.4l-28.4,2.6L111.7,2.5L111.7,2.5z M87.4,92.7l25.1-6.9l-3.6,33.4l-25.1,5.6L87.4,92.7
	L87.4,92.7z M87.4,92.2l-8-49.5L107,32.4l5.6,52.8L87.4,92.2L87.4,92.2z M96,401.2l19.4-0.3l-1.5,8L96,401.2L96,401.2z M116.4,419.8
	l-20.2-18l17.7,7.6L116.4,419.8z M96.4,400.8l15.9-5.5l12.3-5.5l-9,10.6L96.4,400.8L96.4,400.8z M112.1,394.8l-16.8,5.8l3.6-22.4
	l14.4-6.4l13-6.7l-1,23.8L112.1,394.8L112.1,394.8z M35.4,232.1l4.5,3v5.2l-7-1.1L35.4,232.1L35.4,232.1z M35.4,231.5l-4-4.3
	l17.4-5.2L35.4,231.5L35.4,231.5z M35.7,231.7l14.2-10l1.8,3.5l-11.5,9.5L35.7,231.7L35.7,231.7z M65,181L65,181l1.2,16.8l-23.3,1.4
	l-0.6-10.1L65,181L65,181z M42.4,188.6l-1.1-18.3l22.7-7.6l1.2,17.7H65L42.4,188.6L42.4,188.6z M66.3,198.2l0.4,6.3l-22.5,1
	l-1.2-5.8L66.3,198.2L66.3,198.2z M93.3,333.2l8.3-8.7l10.5,5.5l-7.8,5.2L93.3,333.2L93.3,333.2z M103.7,335.4l-13.6,8.3l2.9-10.2
	L103.7,335.4L103.7,335.4z M99,300.9l8.1,17.1l-5.5,5.8l-16.3-16.1L99,300.9L99,300.9z M85,307.5l-12.2-12.1l18.7-10.5l7.4,15.7
	L85,307.5L85,307.5z M107.4,318.4l5.3,5.5l-0.2,5.6l-10.4-5.4L107.4,318.4L107.4,318.4z M112.5,330.3l3.1,6.7l-10.6-1.9L112.5,330.3
	L112.5,330.3z M107.8,318.2l5.8-2.1l-0.9,7.3L107.8,318.2L107.8,318.2z M107.5,317.8l-8.1-17.1l10.9-5.5l3.3,20.3L107.5,317.8
	L107.5,317.8z M107.6,275.9l11.7-4.7l0.3,18.8l-9.1,4.5L107.6,275.9z M110.2,294.7l-11,5.5l-7.4-15.7l15.4-8.5L110.2,294.7
	L110.2,294.7z M107.1,275.6l-15.4,8.5l0.5-7.8l14.9-7L107.1,275.6L107.1,275.6z M77.6,250l11.3,0.4l1.8,3.3l-13.9,0.5L77.6,250
	L77.6,250z M76.3,254.2l-18.1-4l3.4-3.6l15.6,3.4L76.3,254.2L76.3,254.2z M89.4,250.4l10.4-2l1.7,2.4l-10.4,2.9L89.4,250.4
	L89.4,250.4z M100.2,248.2l5.6-4.3l1.9,0.9l-5.8,5.8L100.2,248.2z M106,243.4l-2.1-5l3.6,5.1L106,243.4L106,243.4z M107.8,243.9v0.4
	l-0.9-0.5L107.8,243.9L107.8,243.9z M108.2,245l2.7,1.3l-6.8,7.4l-1.9-2.7L108.2,245L108.2,245z M105.6,258.1l-12.9,6.8l-0.2-5.7
	l11.5-4.7L105.6,258.1L105.6,258.1z M105.7,258.6l0.8,3.9l-13.7,6.8l-0.1-3.8L105.7,258.6L105.7,258.6z M104.3,254.3l6.9-7.6
	l2.6,2.3l-8,8.9L104.3,254.3L104.3,254.3z M108.4,244.7V244h2.6v2L108.4,244.7z M110.6,243.6h-2.4l-4.9-6.9l1.2-1.2l6.3,8.1H110.6z
	 M102.8,236.4L89.4,231l0.8-2.4v-0.1l13.9,6.8L102.8,236.4z M89.8,228.4l-0.8,2.4l-10.5-2.1v-3.4l11.4,2.9L89.8,228.4L89.8,228.4z
	 M88.9,231.3l13.7,5.5l2.9,6.8l-5.8,4.4l-10.8,2.1l-11.6-0.5l-15.8-3.5L51.3,239l5.7-5.8l11.3-4.5l9.8,0.5L88.9,231.3L88.9,231.3z
	 M57,232.8l-1.9-2.8l12.6-5.2l0.3,3.6L57,232.8L57,232.8z M68.2,224.7l9.8,0.6v3.4l-9.4-0.4L68.2,224.7z M78,224.9l-9.8-0.7
	l-1.2-4.2l11.3,1.3L78,224.9L78,224.9z M67.7,224.4l-12.8,5.3l-2.5-4l14.1-5.6L67.7,224.4L67.7,224.4z M56.7,233.1L51,239l-4.7-2.5
	l8.4-6.2L56.7,233.1z M50.4,239.2l-4.4,1.6v-3.9L50.4,239.2z M51,239.4l10.2,7.1l-3.4,3.6l-11.5-9L51,239.4z M76.3,254.8l0.8,6
	l-18.2-3.2l-0.8-6.9L76.3,254.8L76.3,254.8z M76.8,254.8l14.1-0.6l1,4.6l-14.3,1.9L76.8,254.8L76.8,254.8z M77.6,261.4l14.4-1.9
	l0.2,5.8H92l-15.5,3.1L77.6,261.4L77.6,261.4z M92.2,265.8L92.2,265.8l0.2,3.8l-16.8,5.2l0.8-5.9L92.2,265.8L92.2,265.8z
	 M92.4,258.8l-1-4.6l10.5-2.9l1.9,2.8L92.4,258.8L92.4,258.8z M92.9,269.9l13.7-6.8l0.6,5.8l-14.8,7L92.9,269.9L92.9,269.9z
	 M106.1,258.4l8.1-9.1l2.5,2.2l-9.8,10.7L106.1,258.4L106.1,258.4z M114,248.6l-2.5-2.3v-2.2h3L114,248.6L114,248.6z M111.3,243.6
	l-6.5-8.4l2.3-1.8l7.2,10.2H111.3z M104.4,235l-14-6.9l1.1-2.8l15.2,8L104.4,235L104.4,235z M91.3,224.7L78.7,221l0.2-3.6l13.9,4.7
	L91.3,224.7L91.3,224.7z M91.1,225.1L90,228l-11.5-3l0.3-3.5L91.1,225.1L91.1,225.1z M78.2,221l-11.5-1.4l-1.4-3.7l13.1,1.4
	L78.2,221L78.2,221z M66.3,219.6l-14.2,5.6l-1.8-3.5l1.6-0.5l13-5.4L66.3,219.6L66.3,219.6z M54.4,229.9l-8.7,6.3l-5-1.1l11.2-9.2
	L54.4,229.9z M45.9,241.4l11.7,9.1l0.8,7l-13.6-13.1L45.9,241.4L45.9,241.4z M58.8,258.2l18.3,3.2l-1.1,7L55.5,266L58.8,258.2z
	 M76,268.8l-0.8,6l-23.7-3l3.8-5.5L76,268.8L76,268.8z M75.6,275.2l16.8-5.2l-0.5,6.1l-17.5,7L75.6,275.2L75.6,275.2z M107.1,262.8
	l10-10.9l3.4,3l-12.8,13.7L107.1,262.8L107.1,262.8z M117,251.1l-2.5-2.2l0.4-4.9h3.6L117,251.1L117,251.1z M114.9,243.6l-7.4-10.4
	l3-1l7.9,11.3L114.9,243.6L114.9,243.6z M107.1,232.9l-15.4-8.1l1.5-2.5L110,232L107.1,232.9L107.1,232.9z M79,217l1-9.8l12.7,3.5
	l0.1,10.9L79,217L79,217z M79.7,206.7l-12.4-2l-0.4-6.3l13.7,1L79.7,206.7L79.7,206.7z M67.2,205.2l12.4,2l-1,9.8l-13.2-1.4
	L67.2,205.2L67.2,205.2z M66.8,205.2l-1.9,10.3l-13.1,5.4l-1.6,0.5l-5.8-15.3L66.8,205.2z M45.6,236.7v4.2l-5-0.2v-5.2L45.6,236.7
	L45.6,236.7z M45.5,241.3l-1,2.9l-3.5-3L45.5,241.3L45.5,241.3z M58.3,258.1l-3.3,7.7l-17-16l6.4-5L58.3,258.1L58.3,258.1z
	 M37.8,249.5l-4.1-3.8l10-0.8L37.8,249.5L37.8,249.5z M54.9,266.2l-3.9,5.5l-18.6-17.5l5.4-4.2L54.9,266.2L54.9,266.2z M51.2,272.3
	l23.9,3l-1.2,8l-27.5-4.1L51.2,272.3L51.2,272.3z M74.3,283.8l17.6-7.1l-0.5,7.8l-18.7,10.5L74.3,283.8L74.3,283.8z M84.5,307.8
	l-15,2.6l2.9-13.1l0.2-1.4L84.5,307.8z M84.9,308.2l16.4,16.2l-8.4,8.9l-26-11.3l2.4-11.1L84.9,308.2L84.9,308.2z M92.7,333.7
	l-3,10.5l-22.8-5.4v-16.3L92.7,333.7L92.7,333.7z M89.5,344.7l-4.7,16.5L66.8,356v-16.6L89.5,344.7z M84.7,361.6l-0.6,21.9L69,382.1
	l-2.1-25.6L84.7,361.6L84.7,361.6z M85.2,361.6l14.6-3.8l-1.2,20.5l-13.9,5.1L85.2,361.6L85.2,361.6z M85.3,361.1l4.7-16.4l14.1-8.7
	l-4.3,21.4L85.3,361.1L85.3,361.1z M104.6,335.8l11.3,1.9l11.6,10.2l-14.2,4.5l-13.1,4.7L104.6,335.8z M113,330.4h5.6l3.4,6.3l6.2,7
	l-12-6.3L113,330.4L113,330.4z M112.8,329.9l0.3-5.7l3.9-3l1.4,8.8L112.8,329.9L112.8,329.9z M116.9,320.6l-3.8,3l0.9-7.5l5.1-6.7
	L116.9,320.6L116.9,320.6z M113.9,315.5l-3.3-20.2l9-4.5v3.1l-0.3,14.6L113.9,315.5L113.9,315.5z M119.3,271l-11.7,4.7l0.1-6.4
	l12.8-13.7L119.3,271L119.3,271z M117.2,251.7l1.6-7.4h4.9l-3.1,10.4L117.2,251.7L117.2,251.7z M118.8,243.8l-8-11.4l4.6-1l8.2,12.4
	L118.8,243.8L118.8,243.8z M110.4,232l-17.2-10l-0.1-10.8L115,231L110.4,232L110.4,232z M92.7,210.4l-12.8-3.5l0.9-7.4l13.9,3.8
	L92.7,210.4L92.7,210.4z M80.4,199.1l-13.8-1l-1.1-16.7l16.8,1.8L80.4,199.1L80.4,199.1z M65.5,181l-1.2-17.9l20.4,0.3l-2.3,19.4
	L65.5,181L65.5,181z M64.3,162.7l-2.7-33l20.6-3.8l1.2-0.3l1.4,37.3L64.3,162.7z M63.8,162.7l-22.6,7.6l-0.1-2.1l-1.4-29.5l0.3-0.2
	l21.2-8.6L63.8,162.7L63.8,162.7z M40.6,168.1l0.1,2.3l-17,5.7L21.6,150l17.6-11.1L40.6,168.1L40.6,168.1z M40.7,170.9l1.1,18.3
	l-16.2,5.8l-1.9-18.4L40.7,170.9z M41.8,189.6l0.6,10L27,208.4l-1.4-13L41.8,189.6L41.8,189.6z M42.5,200.1l1.2,5.8l-14.5,11.8
	l-2.1-8.9L42.5,200.1L42.5,200.1z M43.9,206.4l5.8,15.2l-18.5,5.6l-1.7-8.9L43.9,206.4L43.9,206.4z M35,232.2l-2.5,7.4l-8.3-5
	l6.7-6.7L35,232.2L35,232.2z M40.1,241.2l3.7,3.2l-10.6,0.9l-0.3-5.2L40.1,241.2L40.1,241.2z M32.9,245.8l4.4,4.1l-5.4,4.2
	l-10.5-9.9L32.9,245.8z M31.9,254.7l18.7,17.5l-4.7,6.9l-19.1-16.9L31.9,254.7L31.9,254.7z M46.1,279.8l27.7,4.1l-1.7,11.4
	l-30.8-8.5L46.1,279.8z M72,295.8l-0.2,1.5l-2.9,13.1L40,298.2H40l1.1-11.1L72,295.8L72,295.8z M68.8,310.9l-2.4,11L38.7,310
	l1.1-11.3L68.8,310.9L68.8,310.9z M66.3,322.4v16.3l-23.7-10.6l-3.7-17.6L66.3,322.4L66.3,322.4z M66.3,339.2v16.6l-19.5-7.9
	l-4.1-19.3L66.3,339.2L66.3,339.2z M66.3,356.3l2.1,25.8l-14.6-2.3l-6.7-30.3l-0.2-1L66.3,356.3L66.3,356.3z M68.4,382.5l3.2,23.8
	l-12.9-7.1l-4.8-19L68.4,382.5L68.4,382.5z M68.9,382.5l15,1.4l-3,23.8l-8.9-1.3L68.9,382.5L68.9,382.5z M84.3,383.9l13.9-5.1
	l-3.6,22.4l-13.3,6.5L84.3,383.9L84.3,383.9z M112.9,371.8l-14.1,6.3l1.2-20.4l13.3-4.8l14.3-4.5l-1.5,16.7L112.9,371.8L112.9,371.8
	z M128.1,348.3l2.4-0.8l-3.6,14.8L128.1,348.3z M128,347.9l-10.4-9.1l11.3,6l1.6,2.3L128,347.9L128,347.9z M122.3,336.5l-3.3-6.2
	l4.9-2.5l6,6.7l12.4,7.1l-13.2,2.7L122.3,336.5L122.3,336.5z M118.8,329.9l-1.4-8.9l5-2.7l1.4,9.1L118.8,329.9L118.8,329.9z
	 M122.3,317.8l-4.9,2.6l2.3-11.7c1.6-1.1,4.1-2.7,5-3.2L122.3,317.8L122.3,317.8z M119.8,308.1l0.3-14.2v-3.3l7.8-2.3l-3,16.6
	C124.3,305.2,122.6,306.3,119.8,308.1z M120.1,290.1l-0.3-18.9l6.5-5.8l1.7,22.4L120.1,290.1z M126.2,264.9l-6.4,5.8l1.2-15.5
	l6.2-2.4L126.2,264.9z M121.2,254.7l3.2-10.5l4.8-3.4l-1.9,11.5L121.2,254.7z M124.2,243.7l-8.3-12.6l5.5-7.1l7.8,16.2L124.2,243.7
	L124.2,243.7z M115.5,230.8l-22.3-20.2l2.1-6.9l25.8,19.9L115.5,230.8z M95,203l-14-3.9l1.9-15.9l17.4,1.9L95,203L95,203z M83,182.8
	l2.3-19.4l18.9,0.9l-3.8,20.4L83,182.8L83,182.8z M85.3,162.9l-1.4-37.4l25.1-5.6l-4.7,43.8L85.3,162.9L85.3,162.9z M83.5,125.1
	l-1.3,0.3l-20.5,3.8L60,100.3L87,93.1L83.5,125.1L83.5,125.1z M61.1,129.2l-21.3,8.7h-0.1l-1.4-29.4l21.2-8L61.1,129.2L61.1,129.2z
	 M38.3,108l-1.2-41.7l18.1-11.1l4.2,44.9L38.3,108L38.3,108z M39.3,138.2l-17.7,11.1L20.1,121l17.7-12.2L39.3,138.2L39.3,138.2z
	 M21.2,149.6l-12.5,10v-28.3l11-10L21.2,149.6L21.2,149.6z M21.2,150.2l2.1,26l-12.6,7.9l-2-23.8L21.2,150.2L21.2,150.2z
	 M10.9,184.5l12.4-7.8l1.9,18.4l-13,9.5L11,187.8l-0.3-3.1L10.9,184.5L10.9,184.5z M25.3,195.6l1.4,13l-13.3,10.8l-1.1-14.3
	L25.3,195.6z M26.8,209.1l2.1,8.9L18,228.2l-4.5-8.4L26.8,209.1L26.8,209.1z M29.1,218.6l1.7,8.8l-6.9,6.9l-5.6-5.5L29.1,218.6
	L29.1,218.6z M32.5,239.9l0.3,5.3l-12-1.6l-9.7-2.7l12.6-6.1L32.5,239.9L32.5,239.9z M20.7,244l10.9,10.2l-5.1,7.6l-15.4-20.5
	L20.7,244L20.7,244z M26.6,262.6l19.1,16.9l-4.9,7.1L22,269.5L26.6,262.6L26.6,262.6z M40.7,287l-1.1,10.8l-15.8-13.3L22,269.9
	L40.7,287L40.7,287z M39.5,298.3l-1.1,11.3l-12.8-12l-1.7-12.5L39.5,298.3z M38.3,310.2l3.7,17.3l-14.4-14.6l-2-14.5L38.3,310.2
	L38.3,310.2z M42.2,328.3l4.1,19l-14.7-15.9l-3.7-17.7L42.2,328.3L42.2,328.3z M46.4,348.1l0.3,1.3l6.6,29.7L38.2,363l-6.5-30.8
	L46.4,348.1L46.4,348.1z M53.5,380l4.7,18.6l-19.4-18.9l-0.5-15.9L53.5,380L53.5,380z M58.4,399.4l-0.6,13.9l-12.1-13.7l-6.5-19
	L58.4,399.4L58.4,399.4z M58.8,399.7l12.9,7.1l-0.7,17l-12.9-10L58.8,399.7z M72.2,406.9l8.9,1.3l2.9,25.8l-12.4-9.8L72.2,406.9z
	 M81.5,408.1l13.3-6.5l4.9,38.7l-15.2-6L81.5,408.1L81.5,408.1z M95.3,401.9l21.3,19l0.9,32l-17.2-12.2L95.3,401.9L95.3,401.9z
	 M117,421l21.8,9.3l-5.6,30.8l-15.3-8L117,421z M117,420.5l-2.5-10.6l21.9,9.7l2.4,10.2L117,420.5L117,420.5z M114.4,409.3l1.5-8.2
	l19.9,3.3l0.6,14.6L114.4,409.3L114.4,409.3z M116.1,400.8l9.4-11.1l15.2-2.5l-1.3,3.9l-3.6,12.9L116.1,400.8L116.1,400.8z
	 M125.6,389.2l1-23.8l18.5-2.2l-4.3,23.5L125.6,389.2L125.6,389.2z M126.7,365l4.3-17.5l16.4,3.2l-2.3,12.1L126.7,365L126.7,365z
	 M131,347l-1.6-2.3l13.4-2.7l4.5,8.2L131,347L131,347z M130.2,334.1l-5.6-6.3l11.9,2.5l5.9,10.7L130.2,334.1L130.2,334.1z
	 M124.1,327.2l-1.4-9.1l11.2,1.4l2.3,10.2L124.1,327.2L124.1,327.2z M133.9,319.1l-11.2-1.4l2.5-12.4c1.2,0.3,6.6,2.1,10.4,3.3
	L133.9,319.1L133.9,319.1z M125.3,304.8l3-16.7l11.1-3l-3.7,22.9C132.6,307.2,126.5,305.2,125.3,304.8L125.3,304.8z M128.3,287.7
	l-1.7-22.6l10.2-4.1l2.7,23.7L128.3,287.7L128.3,287.7z M136.7,260.5l-10.1,4.1l1-12l10-6.6L136.7,260.5L136.7,260.5z M127.6,251.9
	l1.9-11.7l9.8-11.8l-1.7,16.9L127.6,251.9z M129.3,239.8l-7.8-16.3l10.5-19.4l7.3,23.6L129.3,239.8z M121.2,223.2l-26-20l5.3-18
	l27.5,6.1l3.8,12.2L121.2,223.2L121.2,223.2z M100.6,184.7l3.8-20.5l34.8-11.4L128,190.9L100.6,184.7z M104.5,163.7l4.7-43.9
	l1.9-0.4l27.3-1l1,33.8L104.5,163.7L104.5,163.7z M111,119l-1.7,0.4l3.6-33.4l24.5-1.7l1,33.7L111,119L111,119z M112.8,85.5
	l-5.6-52.8l28.4-2.7l1.6,53.8L112.8,85.5L112.8,85.5z M79.5,12.6l31.7-10l-4.3,29.4L79.3,42.3L79.5,12.6L79.5,12.6z M86.9,92.3
	l-27.1,7.2l-4.2-44.9L78.9,43L86.9,92.3L86.9,92.3z M79.1,12.8l-0.3,29.6L55.5,54.1l-1-24.2L79.1,12.8L79.1,12.8z M37,47.7l17-17.4
	l1,24L37,65.4L37,47.7L37,47.7z M37.8,107.9l-17.7,12.2l1-39.4l15.5-14.4L37.8,107.9L37.8,107.9z M22.9,68.5l13.7-20.1v17.4L21.2,80
	L22.9,68.5z M22.3,69.8l-1.6,10.7l-7.1,6.6L22.3,69.8L22.3,69.8z M13,88.3l7.6-7.1l-1,39.3l-10.9,9.9L13,88.3L13,88.3z M12.2,92.1
	l-3.9,38.8l-6.5,8.8L12.2,92.1L12.2,92.1z M1.5,140.7l6.7-9.1v28.1c-5.2,4.5-6.9,6.1-7.4,6.7L1.5,140.7L1.5,140.7z M0.8,167.1
	c0,0,0.1,0,0.2-0.1c0.3-0.4,4.5-4.2,7.3-6.7l2,23.8l-10.2,8.4L0.8,167.1L0.8,167.1z M0.1,193.1l10.2-8.5l0.2,2.7l1.3,17L2.5,206
	L0.1,193.1L0.1,193.1z M2.9,207.5l-0.2-1l9.2-1.6l1.1,14.4l-7.7-1L2.9,207.5L2.9,207.5z M5.9,221.3l-0.5-2.5l7.7,1l4.5,8.4h-10
	L5.9,221.3L5.9,221.3z M7.8,228.5h10.2l5.6,5.6l-12.8,6.2L7.8,228.5z M10.9,241.2l15.5,20.7l-4.6,6.8l-11.4-17L10.9,241.2z
	 M10.4,252.6l11.1,16.6l1.7,14.4l-12.4-13.7L10.4,252.6L10.4,252.6z M10.9,270.6l12.4,13.7l1.7,12.4l-12.1-11.3L10.9,270.6
	L10.9,270.6z M13.1,286.2l12.1,11.3l2,14.5l-11.9-12.1L13.1,286.2z M15.4,300.7l11.9,12.1l3.7,17.6l-13-14.1L15.4,300.7L15.4,300.7z
	 M18.1,317.2l13,14l6.4,30.5L25,344L18.1,317.2z M25.3,345.2l12.4,17.7l0.5,15.6l-9.5-18.1L25.3,345.2z M29.5,362.8l8.9,16.8
	l6.3,18.4l-7.4-10.4L29.5,362.8L29.5,362.8z M45.2,399.4l0.5,6.1l-7.3-15.9L45.2,399.4L45.2,399.4z M46.2,406.7l-0.5-6.7l12,13.7
	l0.7,12.4L46.2,406.7L46.2,406.7z M58.9,426.7L58.2,414l12.9,10l4.9,19.9L58.9,426.7L58.9,426.7z M76.7,444.6l-4.9-20.1l12.4,9.8
	l8.6,25.5L76.7,444.6L76.7,444.6z M93.4,460.4l-8.7-25.9l15.2,6l9.7,32.6L93.4,460.4L93.4,460.4z M110.1,473.6l-9.7-32.7l17.1,12.2
	l6,29.7L110.1,473.6L110.1,473.6z M124,483l-6-29.7l15.2,8l5.4,27.8L124,483L124,483z M151.7,490.3l-12.5-1.1l-5.5-27.8l18,3.7
	V490.3z M151.7,464.7l-18-3.7l5.6-30.8l12.4,0.8V464.7L151.7,464.7z M151.7,430.4l-12.4-0.8l-2.4-10.4l14.8-0.3L151.7,430.4
	L151.7,430.4z M151.7,418.5l-14.9,0.3l-0.6-14.7l15.5,1.1V418.5L151.7,418.5z M151.7,404.7l-15.4-1l3.6-12.8l1.4-4.1l10.5,3.8
	L151.7,404.7L151.7,404.7z M151.7,390l-10.4-3.8l4.3-23.6l6.1-0.1V390L151.7,390z M151.7,362.1l-6,0.1l2.3-11.9l3.8,1.9V362.1
	L151.7,362.1z M151.7,351.8l-3.8-1.9l-4.3-7.9l8,5.4L151.7,351.8L151.7,351.8z M151.7,346.7l-8.2-5.4l8.2-2.8V346.7L151.7,346.7z
	 M151.7,338l-8.6,3l-6.1-11.1l14.7-5.3V338z M151.7,324l-14.9,5.3l-2.3-10.3l17.2-2.6V324L151.7,324z M151.7,316l-17.2,2.6l1.7-10.5
	l15.5-6.5V316L151.7,316z M151.7,301.2l-15.5,6.4l3.7-22.9h11.7V301.2z M151.7,284.2H140l-2.7-23.8l14.4-3.2V284.2z M151.7,256.7
	l-14.4,3.2l0.9-14.7l13.5-3.5V256.7L151.7,256.7z M151.7,241.2l-13.5,3.5l1.8-17.3l11.7-8.5L151.7,241.2L151.7,241.2z M151.7,218.3
	l-11.8,8.6l-7.4-23.7l19.2-5.4V218.3L151.7,218.3z M151.7,197.3l-19.4,5.5l-3.7-12l23.1-2.5V197.3L151.7,197.3z M151.7,187.9
	l-23.1,2.5l11.3-38.3l11.7-4.5V187.9z M151.7,147.2l-11.7,4.5l-1-33.7l12.7-0.5L151.7,147.2L151.7,147.2z M151.7,117.1l-12.7,0.5
	l-1-33.8l13.7-1V117.1z M151.7,82.3l-13.7,1l-1.6-53.8l15.4-0.6L151.7,82.3L151.7,82.3z M151.7,28.4l-15.4,0.6l-0.8-28.4l16.2-0.3
	v28.2V28.4z M303.7,192.4l-10.2-8.4l2-23.8c2.8,2.5,7,6.3,7.3,6.7c0,0.1,0.1,0.1,0.2,0.1L303.7,192.4L303.7,192.4z M282.2,148.9
	l-17.7-11.1l1.4-29.5l17.7,12.2L282.2,148.9L282.2,148.9z M284.2,120.9l11,10v28.3l-12.5-10L284.2,120.9L284.2,120.9z M190,408.8
	l-1.5-8l19.4,0.3L190,408.8L190,408.8z M207.8,401.6l-20.2,18l2.5-10.4L207.8,401.6z M188.3,400.3l-9-10.6l12.3,5.5l15.9,5.5
	L188.3,400.3z M191.8,394.8l-13.1-5.8l-1-23.8l13,6.7l14.4,6.4l3.6,22.4L191.8,394.8L191.8,394.8z M255.1,221.8l17.4,5.2l-4,4.3
	L255.1,221.8L255.1,221.8z M270.9,239.2l-7.1,1.1V235l4.6-3L270.9,239.2L270.9,239.2z M268.1,231.6l-4.5,3l-11.5-9.5l1.8-3.5
	L268.1,231.6L268.1,231.6z M238.3,180.9l-1.1,16.7l-13.8,1l-1.9-15.8L238.3,180.9L238.3,180.9z M221.4,182.3l-2.3-19.4l20.4-0.3
	l-1.2,17.9L221.4,182.3L221.4,182.3z M199.6,334.9l-7.8-5.2l10.5-5.5l8.2,8.7L199.6,334.9L199.6,334.9z M210.9,333.4l3,10.2
	l-13.6-8.3L210.9,333.4L210.9,333.4z M193.3,294.3l-9.1-4.5l0.3-18.8l11.7,4.7L193.3,294.3z M196.7,275.9l15.4,8.5l-7.4,15.7
	l-11-5.5L196.7,275.9L196.7,275.9z M193.6,295l10.9,5.5l-8.1,17.1l-6.1-2.2L193.6,295L193.6,295z M196.6,318.2l5.4,5.7l-10.4,5.4
	l-0.2-5.6L196.6,318.2L196.6,318.2z M196.2,318l-4.9,5.2l-0.9-7.3L196.2,318L196.2,318z M191.4,330.1l7.5,4.9l-10.6,1.9L191.4,330.1
	L191.4,330.1z M196.9,317.8l8.1-17.1l13.7,6.9l-16.3,16.1L196.9,317.8L196.9,317.8z M205.2,300.3l7.4-15.7l18.7,10.5L219,307.2
	L205.2,300.3L205.2,300.3z M196.9,275.4l-0.1-6.3l14.9,7l0.5,7.8L196.9,275.4L196.9,275.4z M235.9,223.9l-9.8,0.7l-0.3-3.6l11.3-1.3
	L235.9,223.9z M236.2,224.5l12.6,5.2l-1.9,2.8l-11.1-4.4L236.2,224.5L236.2,224.5z M235.8,224.4l-0.3,3.6l-9.4,0.4V225L235.8,224.4
	L235.8,224.4z M225.8,228.9l9.8-0.5l11.3,4.5l5.7,5.8l-10.2,7.1l-15.8,3.5l-11.6,0.5l-10.8-2.1l-5.8-4.4l2.9-6.8l13.7-5.5
	L225.8,228.9L225.8,228.9z M196.4,243.2l3.6-5.1l-2.1,5L196.4,243.2L196.4,243.2z M197.1,243.7l-1,0.5v-0.4L197.1,243.7L197.1,243.7
	z M195.8,243.3h-2.6l6.3-8l1.2,1.2L195.8,243.3L195.8,243.3z M193.4,243.8h2.3v0.6l-2.7,1.3v-1.9H193.4z M198.2,258.4l13,6.9
	l-0.1,3.8l-13.7-6.8L198.2,258.4L198.2,258.4z M198,257.6l-8-8.9l2.6-2.3l6.9,7.6L198,257.6L198,257.6z M198.4,257.9l1.6-3.6
	l11.5,4.7l-0.2,5.7L198.4,257.9L198.4,257.9z M199.9,253.6l-6.8-7.5l2.7-1.3l6,6L199.9,253.6L199.9,253.6z M196.2,244.6l1.9-0.9
	l5.6,4.3l-1.7,2.4L196.2,244.6L196.2,244.6z M204.1,248.2l10.4,2l-1.8,3.3l-10.4-2.9L204.1,248.2L204.1,248.2z M215.1,250.3
	l11.3-0.4l0.8,4.3l-13.9-0.5L215.1,250.3L215.1,250.3z M226.8,249.8l15.6-3.4l3.4,3.6l-18.1,4L226.8,249.8L226.8,249.8z
	 M225.6,228.5l-10.5,2.1l-0.8-2.4V228l11.3-2.9V228.5L225.6,228.5z M214.6,230.7l-13.5,5.4l-1.2-1.2l13.8-6.8v0.1L214.6,230.7z
	 M199.5,234.7l-2.3-1.8l15.2-8l1.1,2.8L199.5,234.7L199.5,234.7z M199.2,235l-6.5,8.4h-3l7.2-10.2L199.2,235z M192.5,243.8v2.2
	l-2.6,2.3l-0.3-4.5H192.5L192.5,243.8z M189.7,249.1l8.1,9.1L197,262l-9.8-10.7L189.7,249.1L189.7,249.1z M197.3,262.9l13.7,6.8
	l0.5,6.1l-14.8-7L197.3,262.9L197.3,262.9z M200.2,253.9l1.9-2.8l10.5,2.9l-1,4.6L200.2,253.9L200.2,253.9z M211.7,265.5
	L211.7,265.5l15.8,3l0.8,5.9l-16.8-5.2L211.7,265.5L211.7,265.5z M211.9,265.1h-0.1l0.2-5.9l14.4,1.9l1.1,6.9L211.9,265.1z
	 M212,258.7l1-4.6l14.1,0.5l-0.8,6L212,258.7z M227.6,254.6l18.1-4l-0.8,6.9l-18.2,3.2L227.6,254.6L227.6,254.6z M242.7,246.2
	l10.2-7.1l4.7,1.7l-11.5,9L242.7,246.2L242.7,246.2z M253.4,238.9l4.4-2.3v3.9L253.4,238.9z M252.9,238.6l-5.7-5.8l2-2.8l8.4,6.2
	L252.9,238.6z M249,229.3l-12.8-5.3l1.2-4.3l14.1,5.6L249,229.3L249,229.3z M237.1,219.2l-11.5,1.4l-0.2-3.6l13.1-1.4L237.1,219.2
	L237.1,219.2z M225.4,224.7l-11.5,3l-1.1-2.9l12.4-3.6L225.4,224.7L225.4,224.7z M212.6,224.3l-1.5-2.5l13.9-4.7l0.2,3.6
	L212.6,224.3L212.6,224.3z M211,221.3l0.1-10.9l12.7-3.5l1,9.7L211,221.3L211,221.3z M212.2,224.5l-15.4,8.1l-2.8-0.9l16.8-9.8
	L212.2,224.5L212.2,224.5z M196.4,232.9l-7.4,10.4h-3.4l7.9-11.3L196.4,232.9L196.4,232.9z M189,243.7l0.4,4.9l-2.5,2.2l-1.5-7.1
	H189z M196.9,262.5l-0.6,5.8l-12.8-13.7l3.4-3L196.9,262.5L196.9,262.5z M211.5,269.7l16.8,5.2l1.1,8l-17.5-7L211.5,269.7
	L211.5,269.7z M227.9,268.4l20.7-2.4l3.8,5.5l-23.7,3L227.9,268.4L227.9,268.4z M227.9,267.9l-1.1-7l18.3-3.2l3.3,7.8L227.9,267.9z
	 M246.2,250.2L258,241l1.1,3l-13.6,13.1L246.2,250.2L246.2,250.2z M249.5,229.4l2.5-4l11.2,9.2l-5,1.1L249.5,229.4z M251.8,224.8
	l-14.2-5.6l1.4-3.7l13.1,5.4l1.5,0.5L251.8,224.8L251.8,224.8z M225.4,216.4l-1-9.8l12.4-2l1.9,10.2L225.4,216.4L225.4,216.4z
	 M236.7,204.3l-12.4,2l-0.9-7.3l13.7-1L236.7,204.3L236.7,204.3z M223.8,206.3l-12.8,3.5l-2.1-6.9L223,199L223.8,206.3L223.8,206.3z
	 M210.6,221.4l-17.2,10l-4.6-1l21.9-19.8L210.6,221.4L210.6,221.4z M193.1,231.8l-8,11.4h-4.8l8.2-12.4L193.1,231.8L193.1,231.8z
	 M185,243.6l1.6,7.4l-3.4,3l-3.1-10.4L185,243.6L185,243.6z M196.2,268.7l0.1,6.4l-11.7-4.7l-1.2-15.4L196.2,268.7L196.2,268.7z
	 M184.2,290.2l9,4.5l-3.3,20.2l-5.4-7l-0.4-14.6L184.2,290.2L184.2,290.2z M189.9,315.5l1,7.5l-3.8-3l-2.3-11.2L189.9,315.5z
	 M190.9,323.6l0.3,5.7h-5.6l1.4-8.8L190.9,323.6L190.9,323.6z M191.1,329.8l-3.2,7l-12,6.3l6.2-7l3.4-6.3H191.1L191.1,329.8z
	 M188.1,337.1l11.3-1.9l4.3,21.4l-13.1-4.7l-14.2-4.5L188.1,337.1L188.1,337.1z M199.9,335.4l14.1,8.7l4.7,16.4l-14.5-3.7
	L199.9,335.4L199.9,335.4z M218.9,361l0.6,21.8l-13.9-5.1l-1.2-20.5L218.9,361L218.9,361z M219.4,361l17.9-5.2l-2.1,25.6l-15.1,1.4
	L219.4,361L219.4,361z M219.3,360.5l-4.7-16.5l22.7-5.4v16.6L219.3,360.5z M214.4,343.6l-3-10.5l25.8-11.1v16.3L214.4,343.6
	L214.4,343.6z M211.2,332.7l-8.4-8.9l16.4-16.2l15.5,2.7l2.5,11.1L211.2,332.7z M219.6,307.2l12-11.8l0.2,1.4l2.9,13.1L219.6,307.2
	L219.6,307.2z M212.8,284l-0.5-7.8l17.6,7l1.7,11.3L212.8,284L212.8,284z M229.1,274.7l23.9-3l4.7,6.9l-27.5,4.1L229.1,274.7
	L229.1,274.7z M249.3,265.6l17.1-16.1l5.4,4.2l-18.6,17.5L249.3,265.6L249.3,265.6z M266.4,248.8l-6-4.7l10.1,0.8L266.4,248.8z
	 M266,249.2l-17,16l-3.3-7.6l13.9-13.4L266,249.2L266,249.2z M259.6,243.6l-1-2.9l4.5-0.1L259.6,243.6L259.6,243.6z M258.5,240.3
	v-4.2l5.1-1.1v5.2L258.5,240.3L258.5,240.3z M253.9,220.7l-1.6-0.5l-13.1-5.4l-1.9-10.3l22.3,1L253.9,220.7z M237.4,204.1l0.4-6.3
	l23.3,1.4l-1.2,5.8L237.4,204.1L237.4,204.1z M237.9,197.5l1.1-16.8h0.1l22.7,8.1l-0.6,10.1L237.9,197.5L237.9,197.5z M239.2,180.3
	C239.2,180.3,239.2,180.3,239.2,180.3l1.1-17.7l22.7,7.6l-1.1,18.3L239.2,180.3L239.2,180.3z M240.3,162.1l2.7-32.9l21.1,8.5
	l0.3,0.2l-1.4,29.5l-0.1,2.1L240.3,162.1L240.3,162.1z M239.8,162.1l-20.5,0.3l1.4-37.3l1.2,0.3l20.6,3.8L239.8,162.1L239.8,162.1z
	 M218.9,162.4l-18.9,0.9l-4.7-43.8l25.1,5.6L218.9,162.4z M218.9,162.8l2.3,19.4l-17.4,1.9l-3.8-20.4L218.9,162.8L218.9,162.8z
	 M221.3,182.8l1.9,15.9l-14,3.9l-5.3-17.9L221.3,182.8L221.3,182.8z M210.9,210l-22.3,20.2L183,223l25.8-19.9L210.9,210z
	 M188.3,230.6l-8.3,12.6l-4.9-3.6l7.8-16.2L188.3,230.6L188.3,230.6z M179.8,243.6l3.2,10.5l-6.1-2.4l-1.9-11.5L179.8,243.6z
	 M183.1,254.7l1.2,15.5l-6.4-5.8l-1-12.1L183.1,254.7z M184.4,270.8l-0.3,18.9l-7.8-2.3l1.7-22.4L184.4,270.8z M184,290.1v3.3
	l0.3,14.2c-2.8-1.9-4.5-3-5.1-3.2l-3-16.6L184,290.1z M184.4,308.2l2.3,11.7l-4.9-2.6l-2.5-12.3
	C180.2,305.5,182.6,307.1,184.4,308.2L184.4,308.2z M186.8,320.4l-1.4,8.9l-4.9-2.5l1.4-9.1L186.8,320.4L186.8,320.4z M185.2,329.9
	l-3.3,6.2l-6.9,7.8l-13.2-2.7l12.4-7.1l6-6.7L185.2,329.9z M175.2,344.3l11.3-6l-10.4,9.1l-2.5-0.8L175.2,344.3L175.2,344.3z
	 M176,347.9l1.2,14l-3.6-14.8L176,347.9z M176.5,348l14.3,4.5l13.3,4.8l1.2,20.4l-14.2-6.3l-13.2-6.8L176.5,348L176.5,348z
	 M205.8,378.4l13.9,5.1l3,23.7l-13.3-6.5L205.8,378.4L205.8,378.4z M220.2,383.5l15-1.4l-3.2,23.9l-8.9,1.3L220.2,383.5L220.2,383.5
	z M235.7,382.1l14.5-2.3l-4.8,19l-12.8,7L235.7,382.1L235.7,382.1z M235.7,381.6l2.1-25.8l19.4-7.8l-0.2,1l-6.7,30.3L235.7,381.6
	L235.7,381.6z M237.8,355.3v-16.6l23.6-10.5l-4.1,19.3L237.8,355.3L237.8,355.3z M237.8,338.2V322l27.5-11.8l-3.7,17.6L237.8,338.2
	L237.8,338.2z M237.8,321.5l-2.4-11l28.8-12.2l1.1,11.3L237.8,321.5L237.8,321.5z M264.1,297.8L235.2,310l-2.9-13.1l-0.2-1.6
	l30.9-8.5L264.1,297.8L264.1,297.8L264.1,297.8z M232.1,295l-1.7-11.4l27.7-4.1l4.9,7.1L232.1,295z M253.5,271.9l18.7-17.5l5.1,7.6
	l-19.1,16.9L253.5,271.9L253.5,271.9z M272.2,253.7l-5.4-4.2l4.4-4.1l11.5-1.6L272.2,253.7z M270.9,244.9l-10.6-0.9l3.7-3.2l7.2-1.1
	L270.9,244.9L270.9,244.9z M269.1,231.8l4.1-4.4l6.7,6.7l-8.3,5L269.1,231.8L269.1,231.8z M273,226.8l-18.5-5.6l5.8-15.2l14.6,11.9
	L273,226.8L273,226.8z M260.4,205.6l1.2-5.8l15.5,8.7l-2.1,8.9L260.4,205.6L260.4,205.6z M261.6,199.3l0.6-10l16.1,5.8l-1.4,13
	L261.6,199.3L261.6,199.3z M262.2,188.8l1.1-18.3l17,5.6l-1.9,18.4L262.2,188.8L262.2,188.8z M263.3,170l0.1-2.3l1.4-29.3l17.6,11.1
	l-2.1,26.1L263.3,170L263.3,170z M265.9,107.7l-21.1-8l4.2-44.9L267.1,66L265.9,107.7L265.9,107.7z M265.9,108.2l-1.4,29.5h-0.1
	l-21.3-8.7l1.6-28.8L265.9,108.2L265.9,108.2z M242.6,128.9l-20.5-3.7l-1.3-0.3l-3.6-32l27.1,7.2L242.6,128.9L242.6,128.9z
	 M220.3,124.8l-25.1-5.6l-3.6-33.4l25.1,6.9L220.3,124.8z M191.6,85.3l5.6-52.8l27.7,10.3l-8,49.5L191.6,85.3z M191.1,85.3
	l-24.5-1.7l1.6-53.8l28.4,2.7L191.1,85.3L191.1,85.3z M191.1,85.7l3.6,33.4l-1.8-0.4l-27.3-1l1-33.7L191.1,85.7L191.1,85.7z
	 M192.9,119.2l1.9,0.4l4.7,43.9L164.6,152l1-33.8L192.9,119.2L192.9,119.2z M199.6,164l3.8,20.5l-27.3,6.1l-11.3-38.1L199.6,164
	L199.6,164z M176,191.1l27.4-6.1l5.3,18l-25.9,20l-10.6-19.6L176,191.1L176,191.1z M182.6,223.4l-7.8,16.3l-10-12.1l7.3-23.6
	L182.6,223.4z M174.6,240.1l1.9,11.6l-10-6.5l-1.7-16.9L174.6,240.1L174.6,240.1z M176.5,252.4l1,12l-10.1-4.1l-0.9-14.6
	L176.5,252.4L176.5,252.4z M177.6,264.9l-1.7,22.6l-11.1-3l2.7-23.7L177.6,264.9L177.6,264.9z M175.8,288l3,16.7
	c-1.3,0.3-7.4,2.3-10.4,3.3l-3.7-22.9L175.8,288L175.8,288z M178.9,305.2l2.5,12.4l-11.2,1.4l-1.7-10.6
	C172.3,307.2,177.8,305.5,178.9,305.2L178.9,305.2z M181.4,318l-1.4,9.1l-12.2,2.6l2.3-10.2L181.4,318L181.4,318z M179.6,327.7
	L174,334l-12.1,7l5.9-10.7L179.6,327.7L179.6,327.7z M174.7,344.6l-1.6,2.3l-16.3,3.2l4.5-8.2L174.7,344.6L174.7,344.6z
	 M173.2,347.3l4.3,17.5l-18.5-2.2l-2.3-12.1L173.2,347.3L173.2,347.3z M177.6,365.3l1,23.8l-15.2-2.5l-4.3-23.5L177.6,365.3
	L177.6,365.3z M178.7,389.6l9.4,11.1l-19.7,3.2l-3.6-12.9l-1.3-3.9L178.7,389.6L178.7,389.6z M168.4,404.3l19.9-3.3l1.5,8.2l-22,9.8
	L168.4,404.3L168.4,404.3z M189.8,409.8l-2.5,10.6l-21.8,9.3l2.4-10.2L189.8,409.8L189.8,409.8z M187.2,420.9l-0.9,32L171,461
	l-5.6-30.8L187.2,420.9L187.2,420.9z M187.6,420.6l21.3-19l-4.9,38.7l-17.2,12.2L187.6,420.6L187.6,420.6z M209.4,401.4l13.3,6.5
	l-3,26.2l-15.2,6L209.4,401.4z M223.2,408l8.9-1.3l0.7,17.3l-12.4,9.8L223.2,408L223.2,408z M232.4,406.5l12.9-7.1l0.7,14.1
	l-12.9,10L232.4,406.5z M245.8,399.2l19.3-18.8l-6.5,19l-12.1,13.7L245.8,399.2L245.8,399.2z M246,398.4l4.7-18.6l15.2-16.3
	l-0.5,15.9L246,398.4L246,398.4z M250.9,378.9l6.6-29.7l0.3-1.3l14.7-15.9l-6.5,30.8L250.9,378.9L250.9,378.9z M258,347l4.1-18.9
	l14.4-14.6l-3.7,17.7L258,347z M262.2,327.3l3.7-17.3l12.7-11.9l-2,14.4v0.1L262.2,327.3L262.2,327.3z M265.8,309.4l-1.1-11.3
	l15.7-13.2l-1.7,12.5L265.8,309.4L265.8,309.4z M264.6,297.6l-1.1-10.8l18.6-17l-1.7,14.5L264.6,297.6L264.6,297.6z M263.3,286.3
	l-4.9-7.1l19.1-16.9l4.6,6.9L263.3,286.3z M272.5,254.1l10.9-10.3l9.5-2.7l-15.4,20.5L272.5,254.1L272.5,254.1z M283.3,243.4
	l-12,1.6l0.3-5.3l8.6-5.2l12.6,6.1L283.3,243.4L283.3,243.4z M273.5,227.1l1.7-8.8l10.7,10.1l-5.6,5.5L273.5,227.1L273.5,227.1z
	 M275.3,217.8l2.1-8.9l13.3,10.8l-4.5,8.4L275.3,217.8L275.3,217.8z M277.6,208.4l1.4-13l13,9.5l-1.1,14.3L277.6,208.4L277.6,208.4z
	 M278.9,194.8l1.9-18.4l12.4,7.8l0.2,0.1l-0.3,3.1l-1.3,16.8L278.9,194.8L278.9,194.8z M280.9,176l2.1-26l12.6,10l-2,23.8L280.9,176
	L280.9,176z M303.4,166.5c-0.5-0.6-2.3-2.2-7.4-6.7v-28.1l6.7,9.1L303.4,166.5L303.4,166.5z M302.5,139.7l-6.5-8.8L292,92.1
	L302.5,139.7L302.5,139.7z M295.5,130.4l-10.9-9.9l-1-39.3l7.6,7.1L295.5,130.4L295.5,130.4z M290.7,87.1l-7.1-6.6L282,69.8
	L290.7,87.1L290.7,87.1z M267.6,48.4l13.7,20.1l1.7,11.5l-15.5-14.3V48.4z M267.6,66.4l15.5,14.4l1,39.4l-17.7-12.2L267.6,66.4
	L267.6,66.4z M250.1,30.4l17,17.4v17.7L249,54.3L250.1,30.4L250.1,30.4z M249.7,30l-1,24.2l-23.3-11.6l-0.3-29.6L249.7,30L249.7,30z
	 M225.4,43l23.3,11.6l-4.2,44.9l-27.1-7.2L225.4,43L225.4,43z M224.7,12.6l0.3,29.7L197.3,32L193,2.6L224.7,12.6z M169.2,0.9
	l23.3,1.6l4.3,29.4l-28.4-2.6L169.2,0.9L169.2,0.9z M152.5,0.6l16.2,0.3l-0.8,28.4l-15.4-0.6V0.6L152.5,0.6z M152.5,29.1l15.4,0.6
	l-1.6,53.8l-13.7-1V29L152.5,29.1z M152.5,83l13.7,1l-1,33.8l-12.7-0.5V83z M152.5,117.8l12.7,0.5l-1,33.7l-11.7-4.5L152.5,117.8
	L152.5,117.8z M152.5,147.9l11.7,4.5l11.3,38.3l-23.1-2.5V147.9z M152.5,188.7l23.1,2.5l-3.7,12l-19.4-5.5V188.7L152.5,188.7z
	 M152.5,198.1l19.2,5.4l-7.4,23.7l-11.8-8.5V198.1L152.5,198.1z M152.5,219.2l11.7,8.4l1.8,17.3l-13.5-3.5L152.5,219.2L152.5,219.2z
	 M152.5,242l13.5,3.5l0.9,14.7l-14.4-3.2V242L152.5,242z M152.5,257.4l14.4,3.2l-2.7,23.8h-11.7V257.4z M152.5,284.9h11.7l3.7,22.9
	l-15.5-6.4V284.9z M152.5,302l15.5,6.4l1.7,10.5l-17.2-2.6V302L152.5,302z M152.5,316.8l17.2,2.6l-2.3,10.3l-14.9-5.3V316.8
	L152.5,316.8z M152.5,324.8l14.7,5.3l-6.1,11.1l-8.6-3V324.8z M152.5,338.8l8.2,2.8l-8.2,5.4V338.8L152.5,338.8z M152.5,347.6l8-5.4
	l-4.3,7.9l-3.8,1.9L152.5,347.6L152.5,347.6z M152.5,352.6l3.8-1.9l2.3,11.9l-6-0.1V352.6L152.5,352.6z M152.5,362.8l6.1,0.1
	l4.3,23.6l-10.4,3.8V362.8L152.5,362.8z M152.5,390.9l10.5-3.8l1.4,4l3.6,12.8l-15.4,1v-14.2L152.5,390.9z M152.5,405.4l15.5-1.1
	l-0.6,14.7l-14.9-0.3V405.4L152.5,405.4z M152.5,419.2l14.8,0.3L165,430l-12.4,0.8L152.5,419.2L152.5,419.2z M152.5,431.2l12.4-0.8
	l5.6,30.8l-18,3.7V431.2L152.5,431.2z M165.1,489.5l-12.5,1.1v-25.1l18-3.7L165.1,489.5z M180.2,483.3l-14.6,6l5.5-27.8l15.2-8
	L180.2,483.3L180.2,483.3z M194.1,473.9l-13.5,9.1l6-29.7l17.1-12.2L194.1,473.9L194.1,473.9z M210.8,460.7l-16.1,12.7l9.7-32.6
	l15.2-6L210.8,460.7L210.8,460.7z M227.6,444.9L211.5,460l8.6-25.5l12.4-9.8L227.6,444.9L227.6,444.9z M245.3,427.1l-17.1,17.2
	l4.9-19.9l12.9-10L245.3,427.1L245.3,427.1z M245.8,426.3l0.7-12.4l12-13.7l-0.5,6.1l-0.1,0.8L245.8,426.3z M258.5,405.8l0.5-6.1
	l6.9-9.7L258.5,405.8L258.5,405.8z M266.8,387.7l-7.4,10.4l6.3-18.4l8.9-16.8L266.8,387.7L266.8,387.7z M275.4,360.6l-9.5,18.1
	l0.5-15.5l12.4-17.7L275.4,360.6L275.4,360.6z M279.1,344.3L266.6,362l6.4-30.5l13-14L279.1,344.3z M286.1,316.6l-13,14.1l3.7-17.6
	l11.9-12.1L286.1,316.6L286.1,316.6z M288.8,300.2l-11.9,12.1l2-14.5l12.1-11.3L288.8,300.2z M291.2,285.8l-12.1,11.3l1.7-12.4
	l12.4-13.7L291.2,285.8L291.2,285.8z M293.3,270.1l-12.4,13.7l1.7-14.4l11.1-16.6L293.3,270.1L293.3,270.1z M293.8,252l-11.4,17
	l-4.6-6.8l15.5-20.7L293.8,252z M293.4,240.5l-12.8-6.2l5.6-5.6h10.2L293.4,240.5z M298.2,221.6l-1.7,6.7h-10l4.5-8.4l7.7-1
	L298.2,221.6L298.2,221.6z M301.3,207.8l-2.4,10.8l-7.7,1l1.1-14.4l9.2,1.6L301.3,207.8z M301.5,206.3l-9.3-1.6l1.3-17l0.2-2.7
	l10.2,8.5L301.5,206.3L301.5,206.3z"/>
<g>
	<path class="st1" d="M172.5,190.5c0,1.6,1.4,3,3,3c1.6,0,3-1.4,3-3s-1.4-3-3-3C173.8,187.5,172.5,188.9,172.5,190.5z"/>
	<path class="st1" d="M196.8,163.4c0,1.6,1.4,3,3,3c1.6,0,3-1.4,3-3s-1.4-3-3-3C198.2,160.4,196.8,161.8,196.8,163.4z"/>
	<path class="st1" d="M236.6,162.6c0,1.6,1.4,3,3,3c1.6,0,3-1.4,3-3s-1.4-3-3-3C237.9,159.5,236.6,160.9,236.6,162.6z"/>
	<path class="st1" d="M275.2,194.9c0,1.6,1.4,3,3,3c1.6,0,3-1.4,3-3s-1.4-3-3-3C276.6,191.9,275.2,193.3,275.2,194.9z"/>
	<path class="st1" d="M250.4,239c0,1.2,1,2.1,2.1,2.1s2.1-1,2.1-2.1s-1-2.1-2.1-2.1S250.4,237.8,250.4,239z"/>
	<path class="st1" d="M291,240.6c0,1.2,1,2.1,2.1,2.1c1.2,0,2.1-1,2.1-2.1s-1-2.1-2.1-2.1C292,238.5,291,239.4,291,240.6z"/>
	<path class="st1" d="M196.3,243.4c0,0.9,0.7,1.6,1.6,1.6c0.9,0,1.6-0.7,1.6-1.6c0-0.9-0.7-1.6-1.6-1.6
		C197,241.8,196.3,242.5,196.3,243.4z"/>
	<path class="st1" d="M184.7,243.4c0,0.9,0.7,1.6,1.6,1.6c0.9,0,1.6-0.7,1.6-1.6c0-0.9-0.7-1.6-1.6-1.6
		C185.4,241.8,184.7,242.5,184.7,243.4z"/>
	<path class="st1" d="M181.9,308.2c0,1.2,1,2.1,2.1,2.1c1.2,0,2.1-1,2.1-2.1s-1-2.1-2.1-2.1C182.9,306.1,181.9,307,181.9,308.2z"/>
	<path class="st1" d="M262.8,290.2c1.9,0,3.5-1.6,3.5-3.5s-1.6-3.5-3.5-3.5s-3.5,1.6-3.5,3.5S260.9,290.2,262.8,290.2z"/>
	<path class="st1" d="M173.6,348.1c0,1.2,1,2.1,2.1,2.1s2.1-1,2.1-2.1s-1-2.1-2.1-2.1S173.6,346.9,173.6,348.1z"/>
	<path class="st1" d="M206.7,401c0,1.2,1,2.1,2.1,2.1c1.2,0,2.1-1,2.1-2.1s-1-2.1-2.1-2.1C207.6,398.9,206.7,399.9,206.7,401z"/>
	<path class="st1" d="M243.1,399.2c0,1.2,1,2.1,2.1,2.1c1.2,0,2.1-1,2.1-2.1s-1-2.1-2.1-2.1C244,397,243.1,398,243.1,399.2z"/>
	<path class="st1" d="M255,347.7c0,1.2,1,2.1,2.1,2.1c1.2,0,2.1-1,2.1-2.1s-1-2.1-2.1-2.1C255.9,345.6,255,346.5,255,347.7z"/>
	<path class="st1" d="M160.7,386.7c0,1.2,1,2.1,2.1,2.1c1.2,0,2.1-1,2.1-2.1c0-1.2-1-2.1-2.1-2.1
		C161.7,384.6,160.7,385.6,160.7,386.7z"/>
	<path class="st1" d="M164.6,432c1.2,0,2.1-1,2.1-2.1c0-1.2-1-2.1-2.1-2.1c-1.2,0-2.1,1-2.1,2.1C162.5,431.1,163.5,432,164.6,432z"
		/>
	<path class="st1" d="M203.9,249.3c0.9,0,1.6-0.7,1.6-1.6c0-0.9-0.7-1.6-1.6-1.6c-0.9,0-1.6,0.7-1.6,1.6
		C202.3,248.6,203,249.3,203.9,249.3z"/>
	<path class="st1" d="M180.6,254.7c0,1.2,1,2.1,2.1,2.1c1.2,0,2.1-1,2.1-2.1s-1-2.1-2.1-2.1C181.5,252.6,180.6,253.5,180.6,254.7z"
		/>
	<path class="st1" d="M201,238.1c0.9,0,1.6-0.7,1.6-1.6c0-0.9-0.7-1.6-1.6-1.6c-0.9,0-1.6,0.7-1.6,1.6
		C199.4,237.4,200.1,238.1,201,238.1z"/>
	<path class="st1" d="M191.8,231.9c0,0.9,0.7,1.6,1.6,1.6s1.6-0.7,1.6-1.6c0-0.9-0.7-1.6-1.6-1.6S191.8,231,191.8,231.9z"/>
	<path class="st1" d="M213.1,250.2c0,0.9,0.7,1.6,1.6,1.6s1.6-0.7,1.6-1.6s-0.7-1.6-1.6-1.6S213.1,249.3,213.1,250.2z"/>
	<path class="st1" d="M213.3,230.9c0,0.9,0.7,1.6,1.6,1.6s1.6-0.7,1.6-1.6c0-0.9-0.7-1.6-1.6-1.6S213.3,230,213.3,230.9z"/>
	<path class="st1" d="M209.2,221.8c0,0.9,0.7,1.6,1.6,1.6c0.9,0,1.6-0.7,1.6-1.6c0-0.9-0.7-1.6-1.6-1.6
		C209.9,220.3,209.2,221,209.2,221.8z"/>
	<path class="st1" d="M224,228.8c0,0.9,0.7,1.6,1.6,1.6c0.9,0,1.6-0.7,1.6-1.6c0-0.9-0.7-1.6-1.6-1.6
		C224.7,227.2,224,227.9,224,228.8z"/>
	<path class="st1" d="M223.4,217c0,0.9,0.7,1.6,1.6,1.6s1.6-0.7,1.6-1.6c0-0.9-0.7-1.6-1.6-1.6S223.4,216.1,223.4,217z"/>
	<path class="st1" d="M224.1,249.7c0,1.2,1,2.3,2.3,2.3c1.2,0,2.3-1,2.3-2.3c0-1.2-1-2.3-2.3-2.3
		C225.2,247.5,224.1,248.5,224.1,249.7z"/>
	<path class="st1" d="M235.5,230.6c1.3,0,2.3-1,2.3-2.3c0-1.3-1-2.3-2.3-2.3s-2.3,1-2.3,2.3C233.2,229.6,234.2,230.6,235.5,230.6z"
		/>
	<path class="st1" d="M238.6,217.6c1.3,0,2.3-1,2.3-2.3c0-1.3-1-2.3-2.3-2.3s-2.3,1-2.3,2.3C236.3,216.6,237.4,217.6,238.6,217.6z"
		/>
	<path class="st1" d="M239.9,246.2c0,1.4,1.1,2.5,2.5,2.5c1.4,0,2.5-1.1,2.5-2.5c0-1.4-1.1-2.5-2.5-2.5
		C240.9,243.8,239.9,244.9,239.9,246.2z"/>
	<path class="st1" d="M244.4,232.9c0,1.4,1.1,2.5,2.5,2.5c1.4,0,2.5-1.1,2.5-2.5c0-1.4-1.1-2.5-2.5-2.5
		C245.5,230.4,244.4,231.5,244.4,232.9z"/>
	<path class="st1" d="M251.3,221c0,1.4,1.1,2.5,2.5,2.5c1.4,0,2.5-1.1,2.5-2.5c0-1.4-1.1-2.5-2.5-2.5
		C252.4,218.6,251.3,219.6,251.3,221z"/>
</g>
<g>
	<path class="st1" d="M154.9,147.4c0,1.6-1.4,3-3,3s-3-1.4-3-3c0-1.6,1.4-3,3-3S154.9,145.8,154.9,147.4z"/>
	<path class="st1" d="M131.3,190.5c0,1.6-1.4,3-3,3c-1.6,0-3-1.4-3-3s1.4-3,3-3C129.9,187.5,131.3,188.9,131.3,190.5z"/>
	<path class="st1" d="M106.9,163.4c0,1.6-1.4,3-3,3c-1.6,0-3-1.4-3-3s1.4-3,3-3C105.6,160.4,106.9,161.8,106.9,163.4z"/>
	<path class="st1" d="M67.2,162.6c0,1.6-1.4,3-3,3s-3-1.4-3-3s1.4-3,3-3S67.2,160.9,67.2,162.6z"/>
	<path class="st1" d="M28.5,194.9c0,1.6-1.4,3-3,3c-1.6,0-3-1.4-3-3s1.4-3,3-3C27.1,191.9,28.5,193.3,28.5,194.9z"/>
	<path class="st1" d="M47.9,240.7c0,1.2-1,2.1-2.1,2.1c-1.2,0-2.1-1-2.1-2.1s1-2.1,2.1-2.1C47,238.6,47.9,239.6,47.9,240.7z"/>
	<path class="st1" d="M12.7,240.6c0,1.2-1,2.1-2.1,2.1c-1.2,0-2.1-1-2.1-2.1s1-2.1,2.1-2.1C11.7,238.5,12.7,239.4,12.7,240.6z"/>
	<path class="st1" d="M107.4,243.4c0,0.9-0.7,1.6-1.6,1.6s-1.6-0.7-1.6-1.6c0-0.9,0.7-1.6,1.6-1.6S107.4,242.5,107.4,243.4z"/>
	<path class="st1" d="M119,243.4c0,0.9-0.7,1.6-1.6,1.6c-0.9,0-1.6-0.7-1.6-1.6c0-0.9,0.7-1.6,1.6-1.6
		C118.3,241.8,119,242.5,119,243.4z"/>
	<path class="st1" d="M121.8,308.2c0,1.2-1,2.1-2.1,2.1c-1.2,0-2.1-1-2.1-2.1s1-2.1,2.1-2.1C120.8,306.1,121.8,307,121.8,308.2z"/>
	<path class="st1" d="M44.4,286.7c0,1.9-1.6,3.5-3.5,3.5c-1.9,0-3.5-1.6-3.5-3.5c0-1.9,1.6-3.5,3.5-3.5
		C42.8,283.2,44.4,284.8,44.4,286.7z"/>
	<path class="st1" d="M130.1,348.1c0,1.2-1,2.1-2.1,2.1c-1.2,0-2.1-1-2.1-2.1s1-2.1,2.1-2.1C129.1,345.9,130.1,346.9,130.1,348.1z"
		/>
	<path class="st1" d="M97.1,401c0,1.2-1,2.1-2.1,2.1c-1.2,0-2.1-1-2.1-2.1s1-2.1,2.1-2.1C96.1,398.9,97.1,399.9,97.1,401z"/>
	<path class="st1" d="M60.6,399.2c0,1.2-1,2.1-2.1,2.1c-1.2,0-2.1-1-2.1-2.1s1-2.1,2.1-2.1C59.7,397,60.6,398,60.6,399.2z"/>
	<path class="st1" d="M48.8,347.7c0,1.2-1,2.1-2.1,2.1c-1.2,0-2.1-1-2.1-2.1s1-2.1,2.1-2.1C47.8,345.6,48.8,346.5,48.8,347.7z"/>
	<path class="st1" d="M154,390.5c0,1.2-1,2.1-2.1,2.1c-1.2,0-2.1-1-2.1-2.1s1-2.1,2.1-2.1C153,388.3,154,389.3,154,390.5z"/>
	<path class="st1" d="M143,386.7c0,1.2-1,2.1-2.1,2.1c-1.2,0-2.1-1-2.1-2.1s1-2.1,2.1-2.1C142,384.6,143,385.6,143,386.7z"/>
	<path class="st1" d="M139.1,432c1.2,0,2.1-1,2.1-2.1s-1-2.1-2.1-2.1c-1.2,0-2.1,1-2.1,2.1S137.9,432,139.1,432z"/>
	<path class="st1" d="M154,325c0,1.2-1,2.1-2.1,2.1c-1.2,0-2.1-1-2.1-2.1s1-2.1,2.1-2.1C153,322.8,154,323.8,154,325z"/>
	<path class="st1" d="M154,218.6c0,1.2-1,2.1-2.1,2.1c-1.2,0-2.1-1-2.1-2.1s1-2.1,2.1-2.1C153,216.5,154,217.5,154,218.6z"/>
	<path class="st1" d="M101.4,247.8c0,0.9-0.7,1.6-1.6,1.6c-0.9,0-1.6-0.7-1.6-1.6s0.7-1.6,1.6-1.6
		C100.8,246.2,101.4,246.9,101.4,247.8z"/>
	<path class="st1" d="M104.4,236.5c0,0.9-0.7,1.6-1.6,1.6s-1.6-0.7-1.6-1.6s0.7-1.6,1.6-1.6S104.4,235.6,104.4,236.5z"/>
	<path class="st1" d="M110.3,233.5c0.9,0,1.6-0.7,1.6-1.6c0-0.9-0.7-1.6-1.6-1.6c-0.9,0-1.6,0.7-1.6,1.6
		C108.7,232.8,109.4,233.5,110.3,233.5z"/>
	<path class="st1" d="M88.9,251.7c0.9,0,1.6-0.7,1.6-1.6s-0.7-1.6-1.6-1.6c-0.9,0-1.6,0.7-1.6,1.6S88.1,251.7,88.9,251.7z"/>
	<path class="st1" d="M88.7,232.5c0.9,0,1.6-0.7,1.6-1.6c0-0.9-0.7-1.6-1.6-1.6c-0.9,0-1.6,0.7-1.6,1.6
		C87.2,231.8,87.9,232.5,88.7,232.5z"/>
	<path class="st1" d="M94.5,221.8c0,0.9-0.7,1.6-1.6,1.6c-0.9,0-1.6-0.7-1.6-1.6c0-0.9,0.7-1.6,1.6-1.6
		C93.8,220.3,94.5,221,94.5,221.8z"/>
	<path class="st1" d="M78.1,230.4c0.9,0,1.6-0.7,1.6-1.6c0-0.9-0.7-1.6-1.6-1.6c-0.9,0-1.6,0.7-1.6,1.6
		C76.5,229.7,77.2,230.4,78.1,230.4z"/>
	<path class="st1" d="M78.6,218.6c0.9,0,1.6-0.7,1.6-1.6c0-0.9-0.7-1.6-1.6-1.6c-0.9,0-1.6,0.7-1.6,1.6
		C77.1,217.8,77.8,218.6,78.6,218.6z"/>
	<path class="st1" d="M77.3,252c1.3,0,2.3-1,2.3-2.3s-1-2.3-2.3-2.3s-2.3,1-2.3,2.3S76.1,252,77.3,252z"/>
	<path class="st1" d="M68.3,230.6c1.3,0,2.3-1,2.3-2.3c0-1.3-1-2.3-2.3-2.3s-2.3,1-2.3,2.3C66,229.6,67,230.6,68.3,230.6z"/>
	<path class="st1" d="M67.3,215.3c0,1.2-1,2.3-2.3,2.3c-1.2,0-2.3-1-2.3-2.3c0-1.2,1-2.3,2.3-2.3C66.3,213.1,67.3,214.1,67.3,215.3z
		"/>
	<path class="st1" d="M63.9,246.2c0,1.4-1.1,2.5-2.5,2.5s-2.5-1.1-2.5-2.5c0-1.4,1.1-2.5,2.5-2.5S63.9,244.9,63.9,246.2z"/>
	<path class="st1" d="M56.9,235.4c1.4,0,2.5-1.1,2.5-2.5s-1.1-2.5-2.5-2.5c-1.4,0-2.5,1.1-2.5,2.5S55.5,235.4,56.9,235.4z"/>
	<path class="st1" d="M50,223.5c1.4,0,2.5-1.1,2.5-2.5s-1.1-2.5-2.5-2.5c-1.4,0-2.5,1.1-2.5,2.5S48.6,223.5,50,223.5z"/>
</g>
</svg>
