<svg width="57" height="57" viewBox="0 0 57 57" fill="none" xmlns="http://www.w3.org/2000/svg">
<g id="icone-profil-gaming">
<g id="_">
<g id="Group">
<g id="Group_2">
<path id="Vector" d="M14.3333 2.9989H8.66667C7.16377 2.9989 5.72243 3.59576 4.65973 4.65817C3.59702 5.72058 3 7.16152 3 8.66399V14.3291M3 42.6546V48.3196C3 49.8221 3.59702 51.2631 4.65973 52.3255C5.72243 53.3879 7.16377 53.9847 8.66667 53.9847H14.3333M42.6667 53.9847H48.3333C49.8362 53.9847 51.2776 53.3879 52.3403 52.3255C53.403 51.2631 54 49.8221 54 48.3196V42.6546M54 14.3291V8.66399C54 7.16152 53.403 5.72058 52.3403 4.65817C51.2776 3.59576 49.8362 2.9989 48.3333 2.9989H42.6667" stroke="#FF5600" stroke-width="5" stroke-linecap="round" stroke-linejoin="round"/>
<path id="Vector_2" d="M29.166 30.9953C33.8604 30.9953 37.666 27.1908 37.666 22.4976C37.666 17.8045 33.8604 14 29.166 14C24.4716 14 20.666 17.8045 20.666 22.4976C20.666 27.1908 24.4716 30.9953 29.166 30.9953Z" fill="#FF5600" stroke="#FF5600" stroke-width="5" stroke-linecap="round" stroke-linejoin="round"/>
<path id="Vector_3" d="M29.1667 30.9952C21.3438 30.9952 15 36.0655 15 42.3254H43.3333C43.3333 36.0655 36.9895 30.9952 29.1667 30.9952Z" fill="#FF5600" stroke="#FF5600" stroke-width="5" stroke-linecap="round" stroke-linejoin="round"/>
</g>
</g>
</g>
</g>
</svg>
