<svg width="443" height="709" viewBox="0 0 443 709" fill="none" xmlns="http://www.w3.org/2000/svg">
<g id="molecule">
<g id="Group 167">
<path id="Vector 33" d="M228 53V112.5L6.00001 260.5V488L228 573V659" stroke="url(#paint0_linear_332_9766)" stroke-width="11" stroke-linecap="round" stroke-linejoin="round"/>
<rect id="Rectangle 151" width="443" height="331" transform="matrix(1 0 0 -1 0 517)" fill="#10161C"/>
<path id="Union" fill-rule="evenodd" clip-rule="evenodd" d="M252.745 21.3039C251.072 10.1827 242.069 1.43234 230.809 0.172874C229.886 0.0576286 228.947 0 227.992 0C227.036 0 226.097 0.0576286 225.175 0.172874C212.712 1.56405 203 12.1749 203 25C203 37.8252 212.72 48.436 225.175 49.8271C225.766 49.901 226.364 49.9512 226.969 49.9777L226.969 50V109.5C226.969 111.232 227.785 112.863 229.171 113.902L424.531 260.252V481.379L230.295 564.948C228.277 565.816 226.969 567.803 226.969 570V656C226.969 657.247 227.384 658.397 228.083 659.319C216.149 661.19 207 671.552 207 684C207 696.825 216.72 707.436 229.175 708.827C230.097 708.942 231.036 709 231.992 709C232.947 709 233.886 708.942 234.809 708.827C246.646 707.51 256.012 697.879 256.909 685.934C256.984 685.292 257 684.659 257 684C257 682.741 256.909 681.506 256.736 680.304H256.745C255.169 669.826 247.086 661.453 236.74 659.466C237.508 658.52 237.969 657.314 237.969 656V573.621L432.205 490.052C434.223 489.184 435.531 487.197 435.531 485V257.5C435.531 255.768 434.715 254.137 433.329 253.098L237.969 106.748V50C237.969 49.3192 237.845 48.6672 237.619 48.0654C246.079 44.5318 252.193 36.4703 252.909 26.9345C252.984 26.2924 253 25.6586 253 25C253 23.7405 252.909 22.5058 252.736 21.3039H252.745ZM230.809 44.1637C229.886 44.2954 228.947 44.3694 227.992 44.3694C227.533 44.3694 227.077 44.3523 226.626 44.32C226.14 44.2849 225.659 44.2323 225.183 44.1642C215.842 42.7895 208.643 34.7388 208.643 25.0088C208.643 15.2788 215.842 7.21988 225.183 5.8534C226.106 5.72169 227.045 5.6476 228 5.6476C228.447 5.6476 228.891 5.66383 229.331 5.69461C229.828 5.7296 230.321 5.78315 230.809 5.85281C238.947 7.0382 245.446 13.3108 247.012 21.3122C247.259 22.514 247.366 23.757 247.366 25.0082C247.366 25.6668 247.325 26.3006 247.275 26.9427C246.394 35.7919 239.549 42.8877 230.809 44.1637ZM237.712 25.0089C237.712 30.3735 233.36 34.7224 227.992 34.7224C222.624 34.7224 218.272 30.3735 218.272 25.0089C218.272 19.6442 222.624 15.2953 227.992 15.2953C233.36 15.2953 237.712 19.6442 237.712 25.0089ZM231.992 703.369C232.947 703.369 233.886 703.295 234.809 703.164C243.549 701.888 250.394 694.792 251.275 685.943C251.325 685.301 251.366 684.667 251.366 684.008C251.366 682.757 251.259 681.514 251.012 680.312C249.446 672.311 242.947 666.038 234.809 664.853C234.578 664.82 234.347 664.791 234.114 664.765C233.59 664.708 233.062 664.67 232.528 664.655C232.352 664.65 232.176 664.648 232 664.648C231.045 664.648 230.106 664.722 229.183 664.853C219.842 666.22 212.643 674.279 212.643 684.009C212.643 693.739 219.842 701.79 229.183 703.164C229.65 703.231 230.121 703.283 230.596 703.318C231.057 703.352 231.523 703.369 231.992 703.369ZM231.992 693.722C237.36 693.722 241.712 689.374 241.712 684.009C241.712 678.644 237.36 674.295 231.992 674.295C226.624 674.295 222.272 678.644 222.272 684.009C222.272 689.374 226.624 693.722 231.992 693.722Z" fill="url(#paint1_linear_332_9766)"/>
</g>
</g>
<defs>
<linearGradient id="paint0_linear_332_9766" x1="228" y1="659" x2="-205.488" y2="344.52" gradientUnits="userSpaceOnUse">
<stop stop-color="#10161C"/>
<stop offset="1" stop-color="#74F4FF"/>
</linearGradient>
<linearGradient id="paint1_linear_332_9766" x1="256.972" y1="661.5" x2="614.064" y2="314.679" gradientUnits="userSpaceOnUse">
<stop stop-color="#65D2DC"/>
<stop offset="1" stop-color="#DB9A38"/>
</linearGradient>
</defs>
</svg>
