<svg width="276" height="248" viewBox="0 0 276 248" fill="none" xmlns="http://www.w3.org/2000/svg">
<g id="scanner-retinien">
<g id="Group">
<g id="Group_2">
<path id="Vector" d="M29.37 21.3812C28.407 21.3812 27.6504 20.6247 27.6504 19.662C27.6504 18.6993 28.407 17.9429 29.37 17.9429C30.333 17.9429 31.0896 18.6993 31.0896 19.662C31.0896 20.6247 30.333 21.3812 29.37 21.3812Z" fill="#FF7500"/>
<path id="Vector_2" d="M29.37 47.2987C28.407 47.2987 27.6504 46.5423 27.6504 45.5796C27.6504 44.6168 28.407 43.8604 29.37 43.8604C30.333 43.8604 31.0896 44.6168 31.0896 45.5796C31.0896 46.5423 30.333 47.2987 29.37 47.2987Z" fill="#FF7500"/>
<path id="Vector_3" d="M29.37 73.285C28.407 73.285 27.6504 72.5286 27.6504 71.5659C27.6504 70.6032 28.407 69.8467 29.37 69.8467C30.333 69.8467 31.0896 70.6032 31.0896 71.5659C31.0896 72.5286 30.333 73.285 29.37 73.285Z" fill="#FF7500"/>
<path id="Vector_4" d="M29.37 99.2026C28.407 99.2026 27.6504 98.4462 27.6504 97.4834C27.6504 96.5207 28.407 95.7643 29.37 95.7643C30.333 95.7643 31.0896 96.5207 31.0896 97.4834C31.0896 98.4462 30.333 99.2026 29.37 99.2026Z" fill="#FF7500"/>
<path id="Vector_5" d="M29.37 125.189C28.407 125.189 27.6504 124.432 27.6504 123.47C27.6504 122.507 28.407 121.751 29.37 121.751C30.333 121.751 31.0896 122.507 31.0896 123.47C31.0896 124.432 30.333 125.189 29.37 125.189Z" fill="#FF7500"/>
<path id="Vector_6" d="M29.37 151.175C28.407 151.175 27.6504 150.419 27.6504 149.456C27.6504 148.493 28.407 147.737 29.37 147.737C30.333 147.737 31.0896 148.493 31.0896 149.456C31.0896 150.419 30.333 151.175 29.37 151.175Z" fill="#FF7500"/>
<path id="Vector_7" d="M29.37 177.093C28.407 177.093 27.6504 176.336 27.6504 175.374C27.6504 174.411 28.407 173.654 29.37 173.654C30.333 173.654 31.0896 174.411 31.0896 175.374C31.0896 176.336 30.333 177.093 29.37 177.093Z" fill="#FF7500"/>
<path id="Vector_8" d="M29.37 203.079C28.407 203.079 27.6504 202.323 27.6504 201.36C27.6504 200.397 28.407 199.641 29.37 199.641C30.333 199.641 31.0896 200.397 31.0896 201.36C31.0896 202.323 30.333 203.079 29.37 203.079Z" fill="#FF7500"/>
<path id="Vector_9" d="M29.37 229.065C28.407 229.065 27.6504 228.309 27.6504 227.346C27.6504 226.384 28.407 225.627 29.37 225.627C30.333 225.627 31.0896 226.384 31.0896 227.346C31.0896 228.309 30.333 229.065 29.37 229.065Z" fill="#FF7500"/>
</g>
<g id="Group_3">
<path id="Vector_10" d="M57.8465 21.3812C56.8836 21.3812 56.127 20.6247 56.127 19.662C56.127 18.6993 56.8836 17.9429 57.8465 17.9429C58.8095 17.9429 59.5661 18.6993 59.5661 19.662C59.5661 20.6247 58.8095 21.3812 57.8465 21.3812Z" fill="#FF7500"/>
<path id="Vector_11" d="M57.8465 47.2987C56.8836 47.2987 56.127 46.5423 56.127 45.5796C56.127 44.6168 56.8836 43.8604 57.8465 43.8604C58.8095 43.8604 59.5661 44.6168 59.5661 45.5796C59.5661 46.5423 58.8095 47.2987 57.8465 47.2987Z" fill="#FF7500"/>
<path id="Vector_12" d="M57.8465 73.285C56.8836 73.285 56.127 72.5286 56.127 71.5659C56.127 70.6032 56.8836 69.8467 57.8465 69.8467C58.8095 69.8467 59.5661 70.6032 59.5661 71.5659C59.5661 72.5286 58.8095 73.285 57.8465 73.285Z" fill="#FF7500"/>
<path id="Vector_13" d="M57.8465 99.2026C56.8836 99.2026 56.127 98.4462 56.127 97.4834C56.127 96.5207 56.8836 95.7643 57.8465 95.7643C58.8095 95.7643 59.5661 96.5207 59.5661 97.4834C59.5661 98.4462 58.8095 99.2026 57.8465 99.2026Z" fill="#FF7500"/>
<path id="Vector_14" d="M57.8465 125.189C56.8836 125.189 56.127 124.432 56.127 123.47C56.127 122.507 56.8836 121.751 57.8465 121.751C58.8095 121.751 59.5661 122.507 59.5661 123.47C59.5661 124.432 58.8095 125.189 57.8465 125.189Z" fill="#FF7500"/>
<path id="Vector_15" d="M57.8465 151.175C56.8836 151.175 56.127 150.419 56.127 149.456C56.127 148.493 56.8836 147.737 57.8465 147.737C58.8095 147.737 59.5661 148.493 59.5661 149.456C59.5661 150.419 58.8095 151.175 57.8465 151.175Z" fill="#FF7500"/>
<path id="Vector_16" d="M57.8465 177.093C56.8836 177.093 56.127 176.336 56.127 175.374C56.127 174.411 56.8836 173.654 57.8465 173.654C58.8095 173.654 59.5661 174.411 59.5661 175.374C59.5661 176.336 58.8095 177.093 57.8465 177.093Z" fill="#FF7500"/>
<path id="Vector_17" d="M57.8465 203.079C56.8836 203.079 56.127 202.323 56.127 201.36C56.127 200.397 56.8836 199.641 57.8465 199.641C58.8095 199.641 59.5661 200.397 59.5661 201.36C59.5661 202.323 58.8095 203.079 57.8465 203.079Z" fill="#FF7500"/>
<path id="Vector_18" d="M57.8465 229.065C56.8836 229.065 56.127 228.309 56.127 227.346C56.127 226.384 56.8836 225.627 57.8465 225.627C58.8095 225.627 59.5661 226.384 59.5661 227.346C59.5661 228.309 58.8095 229.065 57.8465 229.065Z" fill="#FF7500"/>
</g>
<g id="Group_4">
<path id="Vector_19" d="M86.3915 21.3812C85.4285 21.3812 84.6719 20.6247 84.6719 19.662C84.6719 18.6993 85.4285 17.9429 86.3915 17.9429C87.3544 17.9429 88.1111 18.6993 88.1111 19.662C88.1111 20.6247 87.3544 21.3812 86.3915 21.3812Z" fill="#FF7500"/>
<path id="Vector_20" d="M86.3915 47.2987C85.4285 47.2987 84.6719 46.5423 84.6719 45.5796C84.6719 44.6168 85.4285 43.8604 86.3915 43.8604C87.3544 43.8604 88.1111 44.6168 88.1111 45.5796C88.1111 46.5423 87.3544 47.2987 86.3915 47.2987Z" fill="#FF7500"/>
<path id="Vector_21" d="M86.3915 73.285C85.4285 73.285 84.6719 72.5286 84.6719 71.5659C84.6719 70.6032 85.4285 69.8467 86.3915 69.8467C87.3544 69.8467 88.1111 70.6032 88.1111 71.5659C88.1111 72.5286 87.3544 73.285 86.3915 73.285Z" fill="#FF7500"/>
<path id="Vector_22" d="M86.3915 99.2026C85.4285 99.2026 84.6719 98.4462 84.6719 97.4834C84.6719 96.5207 85.4285 95.7643 86.3915 95.7643C87.3544 95.7643 88.1111 96.5207 88.1111 97.4834C88.1111 98.4462 87.3544 99.2026 86.3915 99.2026Z" fill="#FF7500"/>
<path id="Vector_23" d="M86.3915 125.189C85.4285 125.189 84.6719 124.432 84.6719 123.47C84.6719 122.507 85.4285 121.751 86.3915 121.751C87.3544 121.751 88.1111 122.507 88.1111 123.47C88.1111 124.432 87.3544 125.189 86.3915 125.189Z" fill="#FF7500"/>
<path id="Vector_24" d="M86.3915 151.175C85.4285 151.175 84.6719 150.419 84.6719 149.456C84.6719 148.493 85.4285 147.737 86.3915 147.737C87.3544 147.737 88.1111 148.493 88.1111 149.456C88.1111 150.419 87.3544 151.175 86.3915 151.175Z" fill="#FF7500"/>
<path id="Vector_25" d="M86.3915 177.093C85.4285 177.093 84.6719 176.336 84.6719 175.374C84.6719 174.411 85.4285 173.654 86.3915 173.654C87.3544 173.654 88.1111 174.411 88.1111 175.374C88.1111 176.336 87.3544 177.093 86.3915 177.093Z" fill="#FF7500"/>
<path id="Vector_26" d="M86.3915 203.079C85.4285 203.079 84.6719 202.323 84.6719 201.36C84.6719 200.397 85.4285 199.641 86.3915 199.641C87.3544 199.641 88.1111 200.397 88.1111 201.36C88.1111 202.323 87.3544 203.079 86.3915 203.079Z" fill="#FF7500"/>
<path id="Vector_27" d="M86.3915 229.065C85.4285 229.065 84.6719 228.309 84.6719 227.346C84.6719 226.384 85.4285 225.627 86.3915 225.627C87.3544 225.627 88.1111 226.384 88.1111 227.346C88.1111 228.309 87.3544 229.065 86.3915 229.065Z" fill="#FF7500"/>
</g>
<g id="Group_5">
<path id="Vector_28" d="M114.868 21.3812C113.905 21.3812 113.148 20.6247 113.148 19.662C113.148 18.6993 113.905 17.9429 114.868 17.9429C115.831 17.9429 116.588 18.6993 116.588 19.662C116.588 20.6247 115.831 21.3812 114.868 21.3812Z" fill="#FF7500"/>
<path id="Vector_29" d="M114.868 47.2987C113.905 47.2987 113.148 46.5423 113.148 45.5796C113.148 44.6168 113.905 43.8604 114.868 43.8604C115.831 43.8604 116.588 44.6168 116.588 45.5796C116.588 46.5423 115.831 47.2987 114.868 47.2987Z" fill="#FF7500"/>
<path id="Vector_30" d="M114.868 73.285C113.905 73.285 113.148 72.5286 113.148 71.5659C113.148 70.6032 113.905 69.8467 114.868 69.8467C115.831 69.8467 116.588 70.6032 116.588 71.5659C116.588 72.5286 115.831 73.285 114.868 73.285Z" fill="#FF7500"/>
<path id="Vector_31" d="M114.868 99.2026C113.905 99.2026 113.148 98.4462 113.148 97.4834C113.148 96.5207 113.905 95.7643 114.868 95.7643C115.831 95.7643 116.588 96.5207 116.588 97.4834C116.588 98.4462 115.831 99.2026 114.868 99.2026Z" fill="#FF7500"/>
<path id="Vector_32" d="M114.868 125.189C113.905 125.189 113.148 124.432 113.148 123.47C113.148 122.507 113.905 121.751 114.868 121.751C115.831 121.751 116.588 122.507 116.588 123.47C116.588 124.432 115.831 125.189 114.868 125.189Z" fill="#FF7500"/>
<path id="Vector_33" d="M114.868 151.175C113.905 151.175 113.148 150.419 113.148 149.456C113.148 148.493 113.905 147.737 114.868 147.737C115.831 147.737 116.588 148.493 116.588 149.456C116.588 150.419 115.831 151.175 114.868 151.175Z" fill="#FF7500"/>
<path id="Vector_34" d="M114.868 177.093C113.905 177.093 113.148 176.336 113.148 175.374C113.148 174.411 113.905 173.654 114.868 173.654C115.831 173.654 116.588 174.411 116.588 175.374C116.588 176.336 115.831 177.093 114.868 177.093Z" fill="#FF7500"/>
<path id="Vector_35" d="M114.868 203.079C113.905 203.079 113.148 202.323 113.148 201.36C113.148 200.397 113.905 199.641 114.868 199.641C115.831 199.641 116.588 200.397 116.588 201.36C116.588 202.323 115.831 203.079 114.868 203.079Z" fill="#FF7500"/>
<path id="Vector_36" d="M114.868 229.065C113.905 229.065 113.148 228.309 113.148 227.346C113.148 226.384 113.905 225.627 114.868 225.627C115.831 225.627 116.588 226.384 116.588 227.346C116.588 228.309 115.831 229.065 114.868 229.065Z" fill="#FF7500"/>
</g>
<g id="Group_6">
<path id="Vector_37" d="M143.345 21.3812C142.382 21.3812 141.625 20.6247 141.625 19.662C141.625 18.6993 142.382 17.9429 143.345 17.9429C144.308 17.9429 145.064 18.6993 145.064 19.662C145.064 20.6247 144.308 21.3812 143.345 21.3812Z" fill="#FF7500"/>
<path id="Vector_38" d="M143.345 47.2987C142.382 47.2987 141.625 46.5423 141.625 45.5796C141.625 44.6168 142.382 43.8604 143.345 43.8604C144.308 43.8604 145.064 44.6168 145.064 45.5796C145.064 46.5423 144.308 47.2987 143.345 47.2987Z" fill="#FF7500"/>
<path id="Vector_39" d="M143.345 73.285C142.382 73.285 141.625 72.5286 141.625 71.5659C141.625 70.6032 142.382 69.8467 143.345 69.8467C144.308 69.8467 145.064 70.6032 145.064 71.5659C145.064 72.5286 144.308 73.285 143.345 73.285Z" fill="#FF7500"/>
<path id="Vector_40" d="M143.345 99.2026C142.382 99.2026 141.625 98.4462 141.625 97.4834C141.625 96.5207 142.382 95.7643 143.345 95.7643C144.308 95.7643 145.064 96.5207 145.064 97.4834C145.064 98.4462 144.308 99.2026 143.345 99.2026Z" fill="#FF7500"/>
<path id="Vector_41" d="M143.345 125.189C142.382 125.189 141.625 124.432 141.625 123.47C141.625 122.507 142.382 121.751 143.345 121.751C144.308 121.751 145.064 122.507 145.064 123.47C145.064 124.432 144.308 125.189 143.345 125.189Z" fill="#FF7500"/>
<path id="Vector_42" d="M143.345 151.175C142.382 151.175 141.625 150.419 141.625 149.456C141.625 148.493 142.382 147.737 143.345 147.737C144.308 147.737 145.064 148.493 145.064 149.456C145.064 150.419 144.308 151.175 143.345 151.175Z" fill="#FF7500"/>
<path id="Vector_43" d="M143.345 177.093C142.382 177.093 141.625 176.336 141.625 175.374C141.625 174.411 142.382 173.654 143.345 173.654C144.308 173.654 145.064 174.411 145.064 175.374C145.064 176.336 144.308 177.093 143.345 177.093Z" fill="#FF7500"/>
<path id="Vector_44" d="M143.345 203.079C142.382 203.079 141.625 202.323 141.625 201.36C141.625 200.397 142.382 199.641 143.345 199.641C144.308 199.641 145.064 200.397 145.064 201.36C145.064 202.323 144.308 203.079 143.345 203.079Z" fill="#FF7500"/>
<path id="Vector_45" d="M143.345 229.065C142.382 229.065 141.625 228.309 141.625 227.346C141.625 226.384 142.382 225.627 143.345 225.627C144.308 225.627 145.064 226.384 145.064 227.346C145.064 228.309 144.308 229.065 143.345 229.065Z" fill="#FF7500"/>
</g>
<g id="Group_7">
<path id="Vector_46" d="M171.821 21.3812C170.858 21.3812 170.102 20.6247 170.102 19.662C170.102 18.6993 170.858 17.9429 171.821 17.9429C172.784 17.9429 173.541 18.6993 173.541 19.662C173.541 20.6247 172.784 21.3812 171.821 21.3812Z" fill="#FF7500"/>
<path id="Vector_47" d="M171.821 47.2987C170.858 47.2987 170.102 46.5423 170.102 45.5796C170.102 44.6168 170.858 43.8604 171.821 43.8604C172.784 43.8604 173.541 44.6168 173.541 45.5796C173.541 46.5423 172.784 47.2987 171.821 47.2987Z" fill="#FF7500"/>
<path id="Vector_48" d="M171.821 73.285C170.858 73.285 170.102 72.5286 170.102 71.5659C170.102 70.6032 170.858 69.8467 171.821 69.8467C172.784 69.8467 173.541 70.6032 173.541 71.5659C173.541 72.5286 172.784 73.285 171.821 73.285Z" fill="#FF7500"/>
<path id="Vector_49" d="M171.821 99.2026C170.858 99.2026 170.102 98.4462 170.102 97.4834C170.102 96.5207 170.858 95.7643 171.821 95.7643C172.784 95.7643 173.541 96.5207 173.541 97.4834C173.541 98.4462 172.784 99.2026 171.821 99.2026Z" fill="#FF7500"/>
<path id="Vector_50" d="M171.821 125.189C170.858 125.189 170.102 124.432 170.102 123.47C170.102 122.507 170.858 121.751 171.821 121.751C172.784 121.751 173.541 122.507 173.541 123.47C173.541 124.432 172.784 125.189 171.821 125.189Z" fill="#FF7500"/>
<path id="Vector_51" d="M171.821 151.175C170.858 151.175 170.102 150.419 170.102 149.456C170.102 148.493 170.858 147.737 171.821 147.737C172.784 147.737 173.541 148.493 173.541 149.456C173.541 150.419 172.784 151.175 171.821 151.175Z" fill="#FF7500"/>
<path id="Vector_52" d="M171.821 177.093C170.858 177.093 170.102 176.336 170.102 175.374C170.102 174.411 170.858 173.654 171.821 173.654C172.784 173.654 173.541 174.411 173.541 175.374C173.541 176.336 172.784 177.093 171.821 177.093Z" fill="#FF7500"/>
<path id="Vector_53" d="M171.821 203.079C170.858 203.079 170.102 202.323 170.102 201.36C170.102 200.397 170.858 199.641 171.821 199.641C172.784 199.641 173.541 200.397 173.541 201.36C173.541 202.323 172.784 203.079 171.821 203.079Z" fill="#FF7500"/>
<path id="Vector_54" d="M171.821 229.065C170.858 229.065 170.102 228.309 170.102 227.346C170.102 226.384 170.858 225.627 171.821 225.627C172.784 225.627 173.541 226.384 173.541 227.346C173.541 228.309 172.784 229.065 171.821 229.065Z" fill="#FF7500"/>
</g>
<g id="Group_8">
<path id="Vector_55" d="M200.298 21.3812C199.335 21.3812 198.578 20.6247 198.578 19.662C198.578 18.6993 199.335 17.9429 200.298 17.9429C201.261 17.9429 202.017 18.6993 202.017 19.662C202.017 20.6247 201.261 21.3812 200.298 21.3812Z" fill="#FF7500"/>
<path id="Vector_56" d="M200.298 47.2987C199.335 47.2987 198.578 46.5423 198.578 45.5796C198.578 44.6168 199.335 43.8604 200.298 43.8604C201.261 43.8604 202.017 44.6168 202.017 45.5796C202.017 46.5423 201.261 47.2987 200.298 47.2987Z" fill="#FF7500"/>
<path id="Vector_57" d="M200.298 73.285C199.335 73.285 198.578 72.5286 198.578 71.5659C198.578 70.6032 199.335 69.8467 200.298 69.8467C201.261 69.8467 202.017 70.6032 202.017 71.5659C202.017 72.5286 201.261 73.285 200.298 73.285Z" fill="#FF7500"/>
<path id="Vector_58" d="M200.298 99.2026C199.335 99.2026 198.578 98.4462 198.578 97.4834C198.578 96.5207 199.335 95.7643 200.298 95.7643C201.261 95.7643 202.017 96.5207 202.017 97.4834C202.017 98.4462 201.261 99.2026 200.298 99.2026Z" fill="#FF7500"/>
<path id="Vector_59" d="M200.298 125.189C199.335 125.189 198.578 124.432 198.578 123.47C198.578 122.507 199.335 121.751 200.298 121.751C201.261 121.751 202.017 122.507 202.017 123.47C202.017 124.432 201.261 125.189 200.298 125.189Z" fill="#FF7500"/>
<path id="Vector_60" d="M200.298 151.175C199.335 151.175 198.578 150.419 198.578 149.456C198.578 148.493 199.335 147.737 200.298 147.737C201.261 147.737 202.017 148.493 202.017 149.456C202.017 150.419 201.261 151.175 200.298 151.175Z" fill="#FF7500"/>
<path id="Vector_61" d="M200.298 177.093C199.335 177.093 198.578 176.336 198.578 175.374C198.578 174.411 199.335 173.654 200.298 173.654C201.261 173.654 202.017 174.411 202.017 175.374C202.017 176.336 201.261 177.093 200.298 177.093Z" fill="#FF7500"/>
<path id="Vector_62" d="M200.298 203.079C199.335 203.079 198.578 202.323 198.578 201.36C198.578 200.397 199.335 199.641 200.298 199.641C201.261 199.641 202.017 200.397 202.017 201.36C202.017 202.323 201.261 203.079 200.298 203.079Z" fill="#FF7500"/>
<path id="Vector_63" d="M200.298 229.065C199.335 229.065 198.578 228.309 198.578 227.346C198.578 226.384 199.335 225.627 200.298 225.627C201.261 225.627 202.017 226.384 202.017 227.346C202.017 228.309 201.261 229.065 200.298 229.065Z" fill="#FF7500"/>
</g>
<g id="Group_9">
<path id="Vector_64" d="M228.774 21.3812C227.811 21.3812 227.055 20.6247 227.055 19.662C227.055 18.6993 227.811 17.9429 228.774 17.9429C229.737 17.9429 230.494 18.6993 230.494 19.662C230.494 20.6247 229.737 21.3812 228.774 21.3812Z" fill="#FF7500"/>
<path id="Vector_65" d="M228.774 47.2987C227.811 47.2987 227.055 46.5423 227.055 45.5796C227.055 44.6168 227.811 43.8604 228.774 43.8604C229.737 43.8604 230.494 44.6168 230.494 45.5796C230.494 46.5423 229.737 47.2987 228.774 47.2987Z" fill="#FF7500"/>
<path id="Vector_66" d="M228.774 73.285C227.811 73.285 227.055 72.5286 227.055 71.5659C227.055 70.6032 227.811 69.8467 228.774 69.8467C229.737 69.8467 230.494 70.6032 230.494 71.5659C230.494 72.5286 229.737 73.285 228.774 73.285Z" fill="#FF7500"/>
<path id="Vector_67" d="M228.774 99.2026C227.811 99.2026 227.055 98.4462 227.055 97.4834C227.055 96.5207 227.811 95.7643 228.774 95.7643C229.737 95.7643 230.494 96.5207 230.494 97.4834C230.494 98.4462 229.737 99.2026 228.774 99.2026Z" fill="#FF7500"/>
<path id="Vector_68" d="M228.774 125.189C227.811 125.189 227.055 124.432 227.055 123.47C227.055 122.507 227.811 121.751 228.774 121.751C229.737 121.751 230.494 122.507 230.494 123.47C230.494 124.432 229.737 125.189 228.774 125.189Z" fill="#FF7500"/>
<path id="Vector_69" d="M228.774 151.175C227.811 151.175 227.055 150.419 227.055 149.456C227.055 148.493 227.811 147.737 228.774 147.737C229.737 147.737 230.494 148.493 230.494 149.456C230.494 150.419 229.737 151.175 228.774 151.175Z" fill="#FF7500"/>
<path id="Vector_70" d="M228.774 177.093C227.811 177.093 227.055 176.336 227.055 175.374C227.055 174.411 227.811 173.654 228.774 173.654C229.737 173.654 230.494 174.411 230.494 175.374C230.494 176.336 229.737 177.093 228.774 177.093Z" fill="#FF7500"/>
<path id="Vector_71" d="M228.774 203.079C227.811 203.079 227.055 202.323 227.055 201.36C227.055 200.397 227.811 199.641 228.774 199.641C229.737 199.641 230.494 200.397 230.494 201.36C230.494 202.323 229.737 203.079 228.774 203.079Z" fill="#FF7500"/>
<path id="Vector_72" d="M228.774 229.065C227.811 229.065 227.055 228.309 227.055 227.346C227.055 226.384 227.811 225.627 228.774 225.627C229.737 225.627 230.494 226.384 230.494 227.346C230.494 228.309 229.737 229.065 228.774 229.065Z" fill="#FF7500"/>
</g>
</g>
<g id="Group_10">
<path id="Vector_73" style="mix-blend-mode:screen" d="M275.822 0H0V247.076H275.822V0Z" fill="url(#paint0_linear_522_10326)"/>
</g>
<g id="Group_11">
<path id="Vector_74" style="mix-blend-mode:screen" d="M182.52 0H129.656V247.076H182.52V0Z" fill="url(#paint1_linear_522_10326)"/>
</g>
<g id="Group_12" style="mix-blend-mode:screen">
<g id="Group_13">
<path id="Vector_75" d="M156.278 98.7203C156.071 97.1392 155.659 95.558 155.177 94.0456C154.627 92.4644 153.939 90.952 153.045 89.5083C152.151 88.0646 151.188 86.7584 150.087 85.521C148.987 84.3523 147.749 83.2523 146.442 82.2899C145.135 81.3962 143.759 80.5712 142.315 79.8837C140.87 79.1962 139.357 78.715 137.844 78.3025C136.33 77.9588 134.748 77.6838 133.166 77.6151C131.584 77.5463 129.934 77.6151 128.352 77.8213C126.77 78.0275 125.119 78.44 123.605 78.99C122.023 79.54 120.51 80.2962 119.066 81.1212C117.621 82.0149 116.246 82.9773 115.008 84.146C113.838 85.246 112.738 86.4834 111.706 87.7896C110.743 89.0958 109.918 90.4707 109.23 91.9144C108.542 93.3581 107.992 94.8705 107.648 96.383C107.304 97.8954 107.029 99.4766 106.891 101.058C106.822 102.639 106.891 104.22 107.097 105.801C107.304 107.382 107.716 108.964 108.198 110.476C108.748 112.057 109.436 113.57 110.33 115.013C111.224 116.457 112.187 117.763 113.288 119.001C114.388 120.169 115.627 121.269 116.933 122.232C118.24 123.125 119.616 123.95 121.06 124.638C122.505 125.325 124.018 125.807 125.531 126.219C127.045 126.563 128.627 126.838 130.209 126.907C130.621 126.907 130.965 126.907 131.378 126.907C132.616 126.907 133.785 126.838 135.024 126.632C136.606 126.425 138.256 126.013 139.77 125.463C141.352 124.913 142.865 124.157 144.309 123.332C145.754 122.438 147.129 121.476 148.368 120.307C149.537 119.207 150.637 117.969 151.669 116.663C152.632 115.357 153.458 113.982 154.145 112.538C154.833 111.095 155.384 109.582 155.727 108.07C156.14 106.557 156.346 104.976 156.484 103.395C156.553 101.814 156.484 100.233 156.278 98.6516V98.7203ZM146.029 82.8398C147.336 83.7335 148.505 84.8335 149.537 85.9334C150.569 87.0334 151.463 88.2708 152.288 89.577L149.743 91.0894C149.055 89.9895 148.23 88.8896 147.336 87.9271C146.373 86.8959 145.341 86.0022 144.241 85.1772C143.14 84.3523 141.971 83.6648 140.733 83.1148C139.632 82.5648 138.394 82.2211 137.225 81.8774L137.981 79.0588C139.357 79.4025 140.733 79.8837 142.039 80.5024C143.484 81.1212 144.791 81.9461 146.029 82.8398ZM152.219 103.258C152.151 104.426 151.944 105.664 151.669 106.832L148.78 106.145C148.987 105.183 149.193 104.151 149.262 103.12C149.262 102.02 149.262 100.852 149.124 99.7516C148.987 98.5829 148.712 97.4829 148.299 96.383C147.955 95.3518 147.473 94.3893 146.923 93.4268L149.468 91.9144C150.087 93.0143 150.637 94.183 151.05 95.3517C151.463 96.5892 151.807 97.8954 152.013 99.2703C152.219 100.577 152.219 101.883 152.151 103.189L152.219 103.258ZM111.087 101.333C111.156 100.095 111.362 98.9266 111.637 97.7579L114.526 98.4454C114.32 99.4078 114.113 100.439 114.045 101.47C114.045 102.639 114.045 103.739 114.182 104.839C114.32 106.008 114.595 107.107 115.008 108.207C115.351 109.239 115.833 110.201 116.383 111.164L113.838 112.676C113.219 111.576 112.669 110.407 112.256 109.239C111.843 108.001 111.5 106.626 111.293 105.32C111.087 104.014 111.087 102.708 111.156 101.401L111.087 101.333ZM148.643 103.051C148.643 104.014 148.436 104.976 148.23 105.939L140.457 104.014C140.526 103.533 140.664 103.12 140.664 102.639C140.664 102.089 140.664 101.47 140.664 100.92C140.595 100.37 140.457 99.7515 140.251 99.2016C140.114 98.7203 139.838 98.3079 139.632 97.8266L146.579 93.7018C147.061 94.5955 147.542 95.558 147.886 96.5205C148.23 97.5517 148.505 98.6516 148.643 99.7516C148.78 100.852 148.849 101.951 148.78 102.983L148.643 103.051ZM114.664 101.47C114.664 100.508 114.87 99.5453 115.076 98.5829L122.849 100.508C122.78 100.989 122.642 101.401 122.642 101.883C122.642 102.433 122.642 103.051 122.642 103.601C122.711 104.151 122.849 104.77 123.055 105.32C123.193 105.801 123.468 106.214 123.674 106.695L116.727 110.82C116.177 109.926 115.764 108.964 115.42 108.001C115.076 106.97 114.801 105.87 114.664 104.77C114.526 103.67 114.457 102.57 114.526 101.539L114.664 101.47ZM139.77 103.876L132.479 102.089L138.944 98.1704C139.151 98.5829 139.357 98.9953 139.495 99.4078C139.701 99.889 139.77 100.439 139.907 100.989C139.976 101.539 139.976 102.02 139.907 102.57C139.907 102.983 139.77 103.395 139.701 103.808L139.77 103.876ZM123.468 100.577L130.759 102.364L124.293 106.282C124.087 105.87 123.881 105.458 123.743 105.045C123.537 104.564 123.468 104.014 123.33 103.464C123.262 102.914 123.262 102.364 123.33 101.883C123.33 101.47 123.468 101.058 123.537 100.645L123.468 100.577ZM133.992 94.2518C134.405 94.3893 134.817 94.5268 135.23 94.6643C135.711 94.8705 136.193 95.1455 136.606 95.4892C137.018 95.833 137.431 96.1767 137.844 96.5892C138.119 96.9329 138.394 97.2767 138.669 97.6891L132.203 101.608L134.061 94.3206L133.992 94.2518ZM131.516 101.401L127.664 95.008C128.076 94.8018 128.489 94.5955 128.902 94.3893C129.383 94.1831 129.934 94.0456 130.484 93.9768C130.897 93.9768 131.309 93.9081 131.722 93.9081C131.86 93.9081 131.997 93.9081 132.135 93.9081C132.547 93.9081 132.96 93.9768 133.373 94.1143L131.516 101.401ZM130.965 101.745L123.674 99.9578C123.812 99.5453 123.949 99.1328 124.087 98.7891C124.293 98.3079 124.568 97.8266 124.912 97.4142C125.256 97.0017 125.6 96.5892 126.013 96.1767C126.357 95.9017 126.701 95.6267 127.113 95.3517L130.965 101.745ZM131.103 102.914L129.246 110.201C128.833 110.064 128.42 109.926 128.008 109.789C127.526 109.582 127.045 109.307 126.632 108.964C126.219 108.62 125.807 108.276 125.394 107.864C125.119 107.52 124.844 107.176 124.568 106.764L131.034 102.845L131.103 102.914ZM131.722 103.051L135.574 109.445C135.161 109.651 134.748 109.857 134.336 110.064C133.785 110.27 133.304 110.407 132.754 110.476C132.203 110.545 131.653 110.614 131.172 110.545C130.759 110.545 130.346 110.476 129.934 110.339L131.791 103.051H131.722ZM132.272 102.708L139.563 104.495C139.426 104.908 139.288 105.32 139.151 105.664C138.944 106.145 138.669 106.626 138.325 107.039C137.981 107.451 137.637 107.864 137.225 108.276C136.881 108.551 136.537 108.826 136.124 109.101L132.272 102.708ZM139.151 97.3454C138.875 96.9329 138.6 96.5205 138.256 96.1767C137.844 95.7642 137.431 95.3517 136.95 95.008C136.468 94.6643 135.987 94.3893 135.436 94.1143C135.024 93.9081 134.542 93.7706 134.129 93.6331L136.124 85.8647C137.087 86.1397 137.981 86.4147 138.875 86.8272C139.838 87.3084 140.801 87.8583 141.696 88.4771C142.59 89.0958 143.415 89.852 144.172 90.677C144.86 91.4332 145.479 92.2581 146.029 93.1518L139.082 97.2767L139.151 97.3454ZM134.68 89.0958L133.579 93.5643C133.098 93.4956 132.616 93.3581 132.203 93.3581C131.653 93.3581 131.034 93.3581 130.484 93.4268C129.934 93.4956 129.315 93.6331 128.764 93.8393C128.283 93.9768 127.87 94.2518 127.389 94.4581L125.325 91.0207C124.981 90.402 124.568 89.7833 124.225 89.1645L123.262 87.5834C124.156 87.0334 125.119 86.6209 126.082 86.2772C127.113 85.9334 128.214 85.6585 129.315 85.4522C130.14 85.3147 130.965 85.246 131.791 85.246C132.066 85.246 132.341 85.246 132.616 85.246C133.579 85.246 134.542 85.4522 135.505 85.6584L134.68 88.9583V89.0958ZM123.605 89.577C123.949 90.1958 124.362 90.8145 124.706 91.4332L126.77 94.8705C126.357 95.1455 125.944 95.4205 125.531 95.7642C125.119 96.1767 124.706 96.5892 124.362 97.0704C124.018 97.5516 123.743 98.0329 123.468 98.5829C123.262 98.9953 123.124 99.4766 122.986 99.8891L115.214 97.9641C115.489 97.0017 115.833 96.108 116.246 95.2143C116.727 94.2518 117.277 93.2894 117.896 92.3957C118.584 91.5019 119.341 90.677 120.166 89.9208C120.923 89.2333 121.817 88.6146 122.711 88.0646L123.674 89.6458L123.605 89.577ZM124.087 107.176C124.362 107.589 124.637 108.001 124.981 108.345C125.394 108.757 125.807 109.17 126.288 109.514C126.77 109.857 127.251 110.132 127.801 110.407C128.214 110.614 128.695 110.751 129.108 110.889L127.113 118.657C126.15 118.382 125.256 118.107 124.362 117.694C123.399 117.213 122.436 116.663 121.542 116.045C120.648 115.426 119.822 114.67 119.066 113.845C118.378 113.088 117.759 112.263 117.209 111.37L124.156 107.245L124.087 107.176ZM129.727 111.026C130.209 111.095 130.621 111.232 131.103 111.232C131.24 111.232 131.378 111.232 131.516 111.232C131.928 111.232 132.41 111.232 132.822 111.164C133.373 111.095 133.992 110.957 134.542 110.751C135.024 110.614 135.436 110.339 135.918 110.132L140.045 116.938C139.151 117.488 138.188 117.901 137.225 118.244C136.193 118.588 135.092 118.863 133.992 119.069C132.891 119.207 131.791 119.276 130.69 119.207C129.727 119.207 128.764 119.001 127.801 118.794L129.796 111.026H129.727ZM136.468 109.72C136.881 109.445 137.293 109.17 137.706 108.826C138.119 108.414 138.532 108.001 138.875 107.52C139.219 107.039 139.494 106.557 139.77 106.008C139.976 105.595 140.114 105.114 140.251 104.701L148.024 106.626C147.749 107.589 147.405 108.482 146.992 109.376C146.51 110.339 145.96 111.301 145.272 112.195C144.584 113.088 143.828 113.913 143.002 114.67C142.246 115.357 141.352 115.976 140.457 116.526L136.33 109.72H136.468ZM146.648 92.9456C146.098 92.0519 145.41 91.1582 144.722 90.402C143.965 89.577 143.071 88.8208 142.177 88.1333C141.283 87.4459 140.251 86.8959 139.219 86.4147C138.325 86.0022 137.293 85.6585 136.33 85.3835L136.674 84.146C136.674 84.146 136.812 83.5273 136.95 83.1836L137.087 82.4961C138.256 82.7711 139.426 83.1836 140.526 83.6648C141.696 84.2148 142.865 84.9022 143.965 85.6584C145.066 86.4147 146.029 87.3084 146.992 88.3396C147.886 89.302 148.643 90.3332 149.262 91.3644L146.717 92.8769L146.648 92.9456ZM136.262 83.0461C136.262 83.0461 136.124 83.6648 135.987 84.0085L135.643 85.246C134.68 85.0397 133.648 84.9022 132.616 84.8335C131.516 84.8335 130.346 84.8335 129.177 84.971C128.008 85.1085 126.907 85.4522 125.807 85.7959C124.775 86.1397 123.812 86.6209 122.849 87.1709L121.336 84.696C122.436 84.0773 123.605 83.4586 124.844 83.0461C126.15 82.5649 127.457 82.2899 128.764 82.0836C129.727 81.9461 130.759 81.8774 131.791 81.8774C132.135 81.8774 132.41 81.8774 132.754 81.8774C133.992 81.8774 135.161 82.0836 136.33 82.3586L136.193 83.0461H136.262ZM122.367 87.5146C121.473 88.0646 120.579 88.7521 119.754 89.5083C118.928 90.2645 118.103 91.1582 117.415 92.1207C116.727 93.0144 116.177 94.0456 115.695 95.0768C115.283 95.9705 114.939 96.9329 114.664 97.9641L111.775 97.2767C112.119 96.108 112.531 94.9393 113.013 93.9081C113.563 92.7394 114.251 91.5707 115.076 90.4707C115.902 89.3708 116.796 88.3396 117.759 87.4459C118.722 86.5522 119.754 85.7959 120.854 85.1085L122.367 87.5834V87.5146ZM116.59 111.645C117.14 112.538 117.828 113.432 118.515 114.188C119.272 115.013 120.166 115.77 121.06 116.457C121.955 117.145 122.986 117.694 124.018 118.176C124.912 118.588 125.875 118.932 126.907 119.207L126.15 122.094C124.981 121.819 123.812 121.407 122.711 120.857C121.542 120.307 120.373 119.619 119.272 118.863C118.172 118.107 117.209 117.213 116.246 116.182C115.351 115.22 114.595 114.188 113.976 113.157L116.521 111.645H116.59ZM127.526 119.344C128.489 119.551 129.521 119.688 130.553 119.757C130.828 119.757 131.103 119.757 131.378 119.757C132.203 119.757 133.098 119.757 133.923 119.551C135.092 119.413 136.193 119.069 137.293 118.726C138.325 118.382 139.288 117.901 140.251 117.351L141.764 119.826C140.664 120.444 139.495 121.063 138.256 121.476C137.018 121.957 135.643 122.232 134.336 122.438C133.029 122.644 131.653 122.713 130.346 122.644C129.108 122.644 127.939 122.438 126.77 122.163L127.526 119.276V119.344ZM140.87 117.076C141.764 116.526 142.659 115.838 143.484 115.082C144.309 114.326 145.135 113.432 145.823 112.47C146.51 111.576 147.061 110.545 147.542 109.514C147.955 108.62 148.299 107.657 148.574 106.626L151.463 107.314C151.119 108.482 150.706 109.651 150.225 110.682C149.674 111.851 148.987 113.02 148.161 114.12C147.336 115.22 146.442 116.251 145.479 117.145C144.516 118.038 143.484 118.794 142.383 119.482L140.87 117.007V117.076ZM123.743 79.6775C125.256 79.1275 126.77 78.7838 128.352 78.5088C129.521 78.3713 130.69 78.2338 131.86 78.2338C132.272 78.2338 132.616 78.2338 133.029 78.2338C134.473 78.3025 135.918 78.5088 137.293 78.8525L136.537 81.6711C135.299 81.3962 134.061 81.1899 132.822 81.1212C131.447 81.1212 130.071 81.1212 128.695 81.3274C127.32 81.5337 125.944 81.8774 124.637 82.3586C123.399 82.7711 122.161 83.3898 120.992 84.0773L119.754 82.0836L119.478 81.6024C120.785 80.8462 122.23 80.1587 123.674 79.6775H123.743ZM109.78 92.2582C110.468 90.8145 111.293 89.5083 112.187 88.2708C113.15 86.9646 114.182 85.796 115.351 84.7648C116.452 83.7335 117.759 82.8398 119.066 82.0149L119.341 82.4961L120.579 84.4898C119.41 85.1772 118.378 86.0022 117.415 86.8959C116.383 87.8583 115.42 88.8896 114.595 89.9895C113.769 91.0894 113.082 92.2582 112.463 93.4956C111.912 94.5956 111.5 95.833 111.156 97.0017L108.267 96.3142C108.611 94.9393 109.161 93.5643 109.78 92.2582ZM107.648 105.801C107.441 104.289 107.373 102.708 107.441 101.195C107.51 99.7516 107.785 98.3079 108.06 96.9329L110.949 97.6204C110.674 98.8578 110.468 100.095 110.399 101.333C110.33 102.708 110.399 104.083 110.537 105.389C110.743 106.764 111.018 108.07 111.5 109.445C111.912 110.682 112.531 111.851 113.15 113.02L110.605 114.532C109.849 113.226 109.161 111.851 108.679 110.407C108.129 108.895 107.785 107.382 107.579 105.801H107.648ZM117.209 121.751C115.97 120.857 114.732 119.757 113.701 118.657C112.669 117.557 111.775 116.32 110.949 115.013L113.494 113.501C114.182 114.601 115.008 115.701 115.902 116.663C116.865 117.694 117.896 118.588 118.997 119.413C120.098 120.238 121.267 120.926 122.505 121.476C123.605 122.026 124.844 122.369 126.013 122.713L125.807 123.4L125.325 125.188V125.6C123.812 125.257 122.436 124.775 121.129 124.157C119.685 123.538 118.378 122.713 117.14 121.819L117.209 121.751ZM139.495 124.913C137.981 125.463 136.468 125.807 134.886 126.082C133.373 126.288 131.791 126.357 130.209 126.288C128.764 126.219 127.32 126.013 125.944 125.669V125.325L126.494 123.538L126.701 122.85C127.939 123.125 129.177 123.332 130.415 123.4C130.759 123.4 131.103 123.4 131.447 123.4C132.479 123.4 133.51 123.332 134.542 123.194C135.918 122.988 137.293 122.644 138.6 122.163C139.838 121.751 141.077 121.132 142.246 120.444L143.759 122.919C142.452 123.675 141.008 124.363 139.563 124.844L139.495 124.913ZM153.458 112.332C152.77 113.707 152.013 115.082 151.05 116.32C150.087 117.626 149.055 118.794 147.886 119.826C146.786 120.857 145.479 121.751 144.172 122.576L142.659 120.101C143.828 119.413 144.86 118.588 145.891 117.694C146.923 116.732 147.886 115.701 148.712 114.601C149.537 113.501 150.225 112.332 150.844 111.095C151.394 109.995 151.807 108.757 152.151 107.589L155.04 108.276C154.696 109.651 154.145 111.026 153.526 112.332H153.458ZM155.727 103.395C155.659 104.839 155.384 106.282 155.04 107.657L152.151 106.97C152.426 105.733 152.632 104.495 152.701 103.258C152.77 101.883 152.701 100.508 152.563 99.2016C152.357 97.8266 152.082 96.4517 151.6 95.2143C151.188 93.9768 150.637 92.8081 149.95 91.6394L152.495 90.127C153.251 91.4332 153.939 92.8081 154.421 94.2518C154.971 95.7642 155.315 97.2767 155.521 98.8578C155.727 100.37 155.796 101.951 155.727 103.464V103.395Z" fill="url(#paint2_linear_522_10326)"/>
</g>
<g id="Group_14" style="mix-blend-mode:screen">
<g id="Group_15">
<path id="Vector_76" d="M248.309 115.563C248.309 115.563 248.309 115.357 248.241 115.288L217.838 85.3148L193.695 69.8467H193.626L161.848 62.7658C161.848 62.7658 161.848 62.7658 161.78 62.7658L110.673 65.8594H110.536L74.6306 81.8087L53.2389 98.9954V99.1329L36.043 133.919V134.125V134.263C36.043 134.263 36.1806 134.331 36.2493 134.4L68.2337 139.831L87.0805 145.331L88.8001 145.881C88.8001 145.881 88.9376 146.018 89.0752 146.018C89.0752 146.018 89.144 146.018 89.2128 146.018L116.245 153.993H116.314L151.187 153.855L179.113 152.755H179.251L216.6 136.737L248.309 116.045C248.309 116.045 248.309 115.907 248.378 115.838L248.309 115.563ZM116.314 153.099L114.938 151.174L153.113 151.38L150.912 152.893L116.314 153.03V153.099ZM89.0064 145.056L88.181 143.887L114.044 151.174L115.282 152.893L88.9376 145.125L89.0064 145.056ZM67.7522 137.15L68.4401 130.55L87.6307 134.125L87.1492 142.993L67.7522 137.15ZM53.3765 99.6141L55.5088 101.814L41.3393 129.656L36.9372 132.888L53.3077 99.6828L53.3765 99.6141ZM216.944 85.3835L214.812 86.071L191.494 70.8779L193.489 70.3279L216.944 85.3835ZM67.202 137.012L37.006 133.644L41.752 130.206L67.821 130.481L67.1332 137.012H67.202ZM56.059 102.295L62.3184 108.345L53.1013 123.401L42.4399 129.175L56.059 102.364V102.295ZM110.88 66.4094L156.002 64.622L149.949 68.5405L106.959 72.4591L110.88 66.4781V66.4094ZM189.637 70.8779L181.727 73.9715L150.912 68.6093L157.24 64.5532L189.637 70.8779ZM214.261 86.4147L208.552 90.677L182.483 74.384L190.737 71.1529L214.261 86.4835V86.4147ZM210.341 125.463L196.653 120.444L216.256 115.22H233.383L210.272 125.394L210.341 125.463ZM155.933 140.931L152.287 132.269L171.478 131.238L178.081 139.281L155.933 140.931ZM42.9901 129.519L53.514 123.882H72.0168L68.165 129.863L42.9901 129.588V129.519ZM62.9374 108.62L65.5512 109.857L58.6728 120.788L54.2019 122.851L62.8686 108.62H62.9374ZM80.4772 94.1831L83.3661 96.4518L66.0326 109.307L63.4877 108.139L80.546 94.1831H80.4772ZM208.002 91.0208L194.521 100.714L174.367 88.4084L181.796 74.659L207.933 91.0208H208.002ZM195.552 120.101L193.351 119.619L212.404 114.945L214.399 115.151L195.484 120.169L195.552 120.101ZM151.875 131.65L149.33 129.45L169.071 128.488L170.997 130.619L151.875 131.65ZM75.7311 120.651L71.8793 118.657L87.4244 115.563L95.8848 123.057L75.7311 120.651ZM54.8897 123.194L59.0167 121.269H74.7682L72.4983 123.194H54.8897ZM65.8951 110.476L67.0644 115.495L59.9109 119.963L65.8951 110.476ZM147.266 82.9086L148.16 88.2021L109.229 87.3084L107.372 82.9086H147.266ZM148.848 128.832L150.774 111.782L173.885 114.463L168.933 127.938L148.848 128.9V128.832ZM117.552 130.275L110.123 111.714H150.155L148.229 128.832L117.552 130.275ZM97.0541 123.194L88.2498 115.426L109.504 111.714L116.795 130.069L97.0541 123.194ZM67.4771 115.976L70.2973 118.313L60.5988 120.238L67.4771 115.907V115.976ZM70.9851 118.863L74.4243 120.651H62.1808L70.9851 118.863ZM71.1227 118.176L68.0962 115.632L83.8476 105.801L87.218 114.945L71.1914 118.176H71.1227ZM107.647 99.7516L109.435 111.095L87.8371 114.876L84.3979 105.595L107.647 99.7516ZM109.366 87.9271L148.367 88.8209L151.324 98.5829L108.266 99.1329L109.366 87.9959V87.9271ZM172.923 92.9457L175.536 103.051L151.943 98.5829L148.986 88.8896L172.923 92.9457ZM192.526 103.945L193.42 108.482L176.293 103.258L173.679 93.3582L192.526 103.945ZM194.245 109.376L210.341 114.257L194.039 114.051L194.589 110.957C194.589 110.957 194.589 110.889 194.589 110.82L194.314 109.307L194.245 109.376ZM193.901 110.957L193.351 114.051L174.711 113.845L176.224 103.876L193.489 109.101L193.833 110.889L193.901 110.957ZM110.054 111.095L108.266 99.6828L151.393 99.1329L150.293 111.026H110.054V111.095ZM152.081 99.2704L175.674 103.739L174.161 113.845L150.98 111.164L152.081 99.2704ZM174.642 114.463L193.282 114.67L191.907 119.344L169.827 127.594L174.642 114.463ZM193.901 114.876V114.67L210.066 114.876L192.595 119.138L193.901 114.876ZM194.177 108.62L193.351 104.289L209.79 113.363L194.177 108.62ZM192.801 103.326L173.61 92.5332L174.367 88.9584L194.245 101.127L192.732 103.258L192.801 103.326ZM172.991 92.3269L148.917 88.2021L148.092 82.9774L173.817 88.7521L172.991 92.3269ZM107.647 99.1329L84.3291 104.976V96.658L108.747 88.0646L107.647 99.1329ZM83.71 105.183L67.821 115.082L66.5829 109.72L83.7789 97.0017V105.183H83.71ZM97.0541 123.813L117.07 130.756L116.589 133.3L94.9906 125.944L96.9853 123.813H97.0541ZM117.689 130.894L148.504 129.45L151.049 131.65L117.208 133.438L117.689 130.894ZM171.822 130.55L169.758 128.282L192.113 119.894L194.658 120.513L171.822 130.55ZM212.611 114.257L193.282 103.601L194.796 101.47L215.156 114.463L212.679 114.257H212.611ZM173.954 88.1334L147.954 82.3586L150.43 69.0905L181.383 74.4528L173.954 88.1334ZM147.335 82.2211H107.234L106.753 73.0091L149.742 69.0905L147.266 82.2899L147.335 82.2211ZM106.753 82.9774L108.61 87.4459L83.9852 96.108L81.1651 93.8394L106.753 82.9774ZM75.7311 121.269L96.2287 123.676L94.3027 125.738L73.3925 123.194L75.7311 121.201V121.269ZM94.5091 126.494L116.382 133.988L113.631 142.031L88.6625 133.644L94.5091 126.494ZM117.001 134.056L151.668 132.269L155.314 140.931L114.319 142.1L117.001 134.125V134.056ZM178.838 139.075L172.166 130.963L195.621 120.651H195.827L209.584 125.738L178.907 139.075H178.838ZM216.394 114.532L195.208 100.989L208.621 91.2958L234.209 114.601H216.463L216.394 114.532ZM106.134 73.0091L106.615 82.1524L80.6836 93.1519L76.6253 86.6897L106.134 73.0091ZM76.0751 86.9647L80.1333 93.4269L62.9374 107.52L56.6781 101.47L76.1439 86.9647H76.0751ZM72.8422 123.607L93.89 126.15L88.1122 133.231L68.9903 129.656L72.911 123.607H72.8422ZM88.5249 133.988L113.631 142.443L114.181 150.212L88.0434 142.856L88.5249 133.988ZM114.869 150.281L114.319 142.512L155.52 141.343L154.145 150.487L114.938 150.281H114.869ZM156.139 141.275L178.563 139.625V150.006L154.764 150.487L156.139 141.275ZM179.251 149.868V139.487L210.41 125.944L216.119 133.438L179.251 149.868ZM216.738 133.163L211.029 125.669L235.172 115.151L244.32 115.426L216.669 133.163H216.738ZM235.24 114.532L209.24 90.8145L214.949 86.5522L244.526 114.738L235.24 114.463V114.532ZM190.944 70.1905L158.753 63.9345L162.055 63.0408L192.526 69.778L191.013 70.1905H190.944ZM157.309 63.6595L141.488 64.2782L158.891 63.247L157.309 63.6595ZM106.34 72.2529L76.4878 86.071L75.3872 81.8774L110.054 66.5469L106.271 72.2529H106.34ZM75.9375 86.4147L56.2654 101.058L54.0643 98.8579L74.837 82.2899L75.9375 86.4147ZM67.5459 137.356L67.9586 138.594L47.3235 135.087L67.4771 137.356H67.5459ZM154.557 151.105L178.769 150.624L178.975 151.518L152.494 152.618L154.626 151.105H154.557ZM179.388 150.487L216.394 133.988V135.569L179.594 151.312L179.388 150.418V150.487ZM217.013 133.713L245.558 115.426H247.346L217.013 135.294V133.781V133.713ZM245.558 114.738L215.706 86.2085L217.976 85.521L247.622 114.738H245.627H245.558ZM87.4244 144.093L68.7152 138.662L68.3025 137.425L87.6307 143.2L88.4561 144.368L87.4244 144.093Z" fill="url(#paint3_linear_522_10326)"/>
</g>
</g>
</g>
</g>
<defs>
<linearGradient id="paint0_linear_522_10326" x1="275.822" y1="123.538" x2="0" y2="123.538" gradientUnits="userSpaceOnUse">
<stop offset="0.1"/>
<stop offset="0.24"/>
<stop offset="0.2401" stop-color="#080400"/>
<stop offset="0.31" stop-color="#010000"/>
<stop offset="0.35" stop-color="#140A00"/>
<stop offset="0.36" stop-color="#251200"/>
<stop offset="0.3799" stop-color="#3B1D00"/>
<stop offset="0.38" stop-color="#562B00"/>
<stop offset="0.39" stop-color="#773C00"/>
<stop offset="0.4" stop-color="#9C4F00"/>
<stop offset="0.4099" stop-color="#F77C00"/>
<stop offset="0.41" stop-color="#F57B00"/>
<stop offset="0.4101" stop-color="#BE5F00"/>
<stop offset="0.56" stop-color="#8B4600"/>
<stop offset="0.63" stop-color="#603000"/>
<stop offset="0.7" stop-color="#3D1F00"/>
<stop offset="0.802083" stop-color="#221100"/>
<stop offset="0.9199" stop-color="#0F0700"/>
<stop offset="0.92" stop-color="#030100"/>
<stop offset="1"/>
</linearGradient>
<linearGradient id="paint1_linear_522_10326" x1="182.52" y1="801.932" x2="129.541" y2="807.761" gradientUnits="userSpaceOnUse">
<stop offset="0.1"/>
<stop offset="0.24"/>
<stop offset="0.31" stop-color="#010000"/>
<stop offset="0.33" stop-color="#080400"/>
<stop offset="0.35" stop-color="#140A00"/>
<stop offset="0.36" stop-color="#251200"/>
<stop offset="0.37" stop-color="#3B1D00"/>
<stop offset="0.38" stop-color="#562B00"/>
<stop offset="0.39" stop-color="#773C00"/>
<stop offset="0.4" stop-color="#9C4F00"/>
<stop offset="0.41" stop-color="#F57B00"/>
<stop offset="0.42" stop-color="#F77C00"/>
<stop offset="0.49" stop-color="#BE5F00"/>
<stop offset="0.56" stop-color="#8B4600"/>
<stop offset="0.63" stop-color="#603000"/>
<stop offset="0.7" stop-color="#3D1F00"/>
<stop offset="0.78" stop-color="#221100"/>
<stop offset="0.85" stop-color="#0F0700"/>
<stop offset="0.92" stop-color="#030100"/>
<stop offset="1"/>
</linearGradient>
<linearGradient id="paint2_linear_522_10326" x1="106.891" y1="102.295" x2="156.553" y2="102.295" gradientUnits="userSpaceOnUse">
<stop stop-color="#FFD600"/>
<stop offset="0.15" stop-color="#F5CD00"/>
<stop offset="0.4" stop-color="#DBB800"/>
<stop offset="0.72" stop-color="#B19400"/>
<stop offset="1" stop-color="#877100"/>
</linearGradient>
<linearGradient id="paint3_linear_522_10326" x1="35.8366" y1="108.276" x2="248.309" y2="108.276" gradientUnits="userSpaceOnUse">
<stop stop-color="#FFD600"/>
<stop offset="0.08" stop-color="#F5CD00"/>
<stop offset="0.21" stop-color="#DBB800"/>
<stop offset="0.38" stop-color="#B19400"/>
<stop offset="0.58" stop-color="#766300"/>
<stop offset="0.81" stop-color="#2C2500"/>
<stop offset="0.93"/>
<stop offset="1"/>
</linearGradient>
</defs>
</svg>
