<svg width="115" height="115" viewBox="0 0 115 115" fill="none" xmlns="http://www.w3.org/2000/svg">
<g clip-path="url(#clip0_230_7383)">
<path d="M98.3828 5.98431H0V88.0555L9.73855 105.812H20.7693C20.7262 105.357 20.7046 104.889 20.7046 104.413C20.7046 104.081 20.7166 103.753 20.7406 103.425H10.2804L1.30902 87.0676V8.37104H97.841L106.597 24.3438V103.421H29.6688C29.6903 103.748 29.7047 104.072 29.7047 104.409C29.7047 104.885 29.6832 105.357 29.64 105.807H107.906V23.3602L98.3805 5.98431H98.3828Z" fill="#FFB13C"/>
<path d="M30.3336 103.42C30.0626 98.6951 27.8666 95.0101 25.2054 95.0101C22.5442 95.0101 20.3481 98.6951 20.0772 103.42C20.0604 103.748 20.0508 104.072 20.0508 104.408C20.0508 104.885 20.0676 105.348 20.1083 105.807C20.4799 110.336 22.6233 113.807 25.2078 113.807C27.7922 113.807 29.9356 110.336 30.3072 105.807C30.3455 105.344 30.3647 104.885 30.3647 104.408C30.3647 104.076 30.3551 103.748 30.3384 103.42H30.3336ZM25.2054 112.613C22.9829 112.613 21.1368 109.667 20.77 105.807C20.7269 105.353 20.7053 104.885 20.7053 104.408C20.7053 104.076 20.7173 103.748 20.7413 103.42C21.0074 99.3595 22.9062 96.2034 25.2054 96.2034C27.5045 96.2034 29.4057 99.3639 29.6719 103.42C29.6934 103.748 29.7078 104.072 29.7078 104.408C29.7078 104.885 29.6862 105.357 29.6431 105.807C29.2763 109.667 27.4254 112.613 25.2078 112.613H25.2054Z" fill="white"/>
<path d="M30.9883 103.42C30.7174 98.0394 28.2264 93.8168 25.2056 93.8168C22.1847 93.8168 19.6938 98.0438 19.4229 103.42C19.4061 103.748 19.3965 104.072 19.3965 104.408C19.3965 104.885 19.4133 105.357 19.4492 105.807C19.8256 110.987 22.2639 115 25.2056 115C28.1473 115 30.5879 110.987 30.9619 105.807C30.9979 105.353 31.0147 104.885 31.0147 104.408C31.0147 104.076 31.0051 103.748 30.9883 103.42ZM29.7056 104.408C29.7056 104.885 29.6841 105.357 29.6409 105.807C29.2741 109.667 27.4232 112.613 25.2056 112.613C22.9879 112.613 21.1371 109.667 20.7702 105.807C20.7271 105.353 20.7055 104.885 20.7055 104.408C20.7055 104.076 20.7175 103.748 20.7415 103.42C21.0076 99.3596 22.9064 96.2035 25.2056 96.2035C27.5048 96.2035 29.406 99.3639 29.6721 103.42C29.6937 103.748 29.708 104.072 29.708 104.408H29.7056Z" fill="#FFB13C"/>
<path d="M88.2729 105H49.9492V112.182H88.2729V105Z" fill="#FFB13C"/>
<path d="M27.4613 104.408C27.4613 104.902 27.4133 105.37 27.327 105.807C27.0129 107.39 26.1786 108.522 25.2052 108.522C24.2319 108.522 23.3975 107.394 23.0835 105.807C22.9972 105.37 22.9492 104.898 22.9492 104.408C22.9492 104.068 22.9708 103.731 23.0187 103.421C23.2585 101.628 24.1504 100.291 25.2052 100.291C26.2601 100.291 27.152 101.628 27.3917 103.421C27.4397 103.731 27.4613 104.068 27.4613 104.408Z" fill="#00FFC8"/>
<path fill-rule="evenodd" clip-rule="evenodd" d="M2 9H97.3455L106 24.7183V103H52H30.9918C30.8276 97.9857 28.2078 94 25 94C21.7922 94 19.1724 97.9857 19.0082 103H11.139L2 86.2116V9Z" fill="#00FFC8"/>
<path d="M37.5099 35.5557C37.6941 32.3839 40.3149 29.8663 43.5208 29.8663H65.4792C67.0148 29.8661 68.4924 30.4551 69.6097 31.5127C70.7271 32.5703 71.3998 34.0166 71.4901 35.5557H76.1042C77.1374 35.5557 78.1283 35.9679 78.8589 36.7014C79.5895 37.435 80 38.4299 80 39.4673V48.5349C80 53.6952 76.0192 57.9225 70.9716 58.288C69.2347 65.1069 63.408 70.2815 56.2708 71.0239V76.0933H64.4167C66.2953 76.0933 68.097 76.8425 69.4253 78.1763C70.7537 79.51 71.5 81.3189 71.5 83.2051V83.9163C71.5 84.6708 71.2015 85.3943 70.6701 85.9278C70.1388 86.4613 69.4181 86.761 68.6667 86.761H40.3333C39.5819 86.761 38.8612 86.4613 38.3299 85.9278C37.7985 85.3943 37.5 84.6708 37.5 83.9163V83.2051C37.5 81.3189 38.2463 79.51 39.5747 78.1763C40.903 76.8425 42.7047 76.0933 44.5833 76.0933H52.7292V71.0239C45.592 70.2815 39.7667 65.1069 38.0284 58.288C35.575 58.1074 33.2806 57.0014 31.6059 55.1922C29.9311 53.3831 29.0002 51.0047 29 48.5349V39.4673C29 38.4299 29.4105 37.435 30.1411 36.7014C30.8717 35.9679 31.8626 35.5557 32.8958 35.5557H37.5099ZM37.5 39.1117H32.8958C32.8019 39.1117 32.7118 39.1491 32.6454 39.2158C32.579 39.2825 32.5417 39.373 32.5417 39.4673V48.5349C32.5419 49.971 33.0366 51.363 33.9421 52.4748C34.8476 53.5866 36.108 54.3499 37.5099 54.6354C37.5033 54.4392 37.5 54.2429 37.5 54.0465V39.1117ZM71.4901 54.6354C74.3234 54.0622 76.4583 51.5489 76.4583 48.5349V39.4673C76.4583 39.373 76.421 39.2825 76.3546 39.2158C76.2882 39.1491 76.1981 39.1117 76.1042 39.1117H71.5V54.0465C71.5 54.2442 71.4972 54.4391 71.4901 54.6354V54.6354Z" fill="#1D110C"/>
</g>
<defs>
<clipPath id="clip0_230_7383">
<rect width="115" height="115" fill="white"/>
</clipPath>
</defs>
</svg>
