<svg width="618" height="145" viewBox="0 0 618 145" fill="none" xmlns="http://www.w3.org/2000/svg">
<g clip-path="url(#clip0_230_7429)">
<path d="M618.001 10.8047V101.808H92.8984L97.7512 97.1881H613.141V15.4179H97.7512L92.8984 10.8047H618.001Z" fill="#FFB13C"/>
<path d="M70.3801 4.63342L16.0273 56.303L70.3801 107.973L81.7245 97.1882L124.733 56.303L70.3801 4.63342ZM70.3801 91.0035L33.8635 56.303L70.3801 21.6026L106.882 56.303L70.3801 91.0035Z" fill="#FFB13C"/>
<path d="M5.66869 56.3031L38.0206 25.5414L35.1898 22.8503L8.00995 48.6886L0 56.3031L8.00995 63.9176L48.2654 102.186L51.082 99.4949L5.66869 56.3031Z" fill="#409BFF"/>
<path d="M509.302 0H325.57L309.352 15.4179H525.528L509.302 0Z" fill="#FFB13C"/>
<path d="M235.246 107.979L219.042 123.397H162.242L139.532 145H41.7949L67.5487 120.517L80.7236 107.979H235.246Z" fill="#409BFF"/>
<path d="M151.381 145L164.364 132.658H229.274L255.24 107.979H462.946L449.969 120.315H255.24L229.274 145H151.381Z" fill="#FFB13C"/>
<path d="M70.3801 36.825L49.8906 56.3031L70.3801 75.7677L90.8554 56.3031L70.3801 36.825V36.825Z" fill="#409BFF"/>
<path d="M168.599 61.5822L163.239 68.8222H138.279V45.2222H163.239L168.599 52.4622L165.239 57.0222L168.599 61.5822ZM160.799 52.4622L159.079 50.5022H145.399V54.6222H159.079L160.799 52.4622ZM160.799 61.5822L159.079 59.4222H145.399V63.5422H159.079L160.799 61.5822ZM203.444 63.4222L198.084 68.7822H178.444L173.084 63.4222V50.5822L178.444 45.2222H198.084L203.444 50.5822V63.4222ZM196.324 63.5422V50.4622H180.204V63.5422H196.324ZM237.636 68.7822H232.236L215.516 55.0222V68.7822L208.396 68.7422V45.2222H213.476L230.516 59.2622V45.2222L237.636 41.1022V68.7822ZM292.498 68.7822H285.378V63.0222L283.218 60.9022H269.618V68.7822L262.498 72.8622V45.2222H287.138L292.498 52.4622L288.418 57.9422L292.498 62.0222V68.7822ZM285.178 52.9422L283.298 50.4622H269.618V55.5422H283.298L285.178 52.9422ZM325.581 45.2222L320.341 50.5022H304.501V54.6222H322.141L317.341 59.4222H304.501V63.5422H324.741L319.461 68.8222H297.381V45.2222H325.581ZM359.489 45.2222L354.249 50.4622H347.249V72.8622L340.129 68.7822V50.4622H333.129L327.889 45.2222H359.489ZM389.108 63.4222L383.748 68.7822H364.108L358.748 63.4222V50.5822L364.108 45.2222H383.748L389.108 50.5822V63.4222ZM381.988 63.5422V50.4622H365.868V63.5422H381.988ZM422.543 63.4222L417.183 68.7822H399.303L393.943 63.4222V45.1822L401.063 45.2222V63.5422H415.383V45.2222L422.503 41.1022L422.543 63.4222ZM457.654 72.8622L450.534 68.7822V63.0222L448.374 60.9022H434.774V68.7822H427.654V45.2222H452.294L457.654 52.4622L453.574 57.9422L457.654 62.0222V72.8622ZM450.334 52.9422L448.454 50.4622H434.774V55.5422H448.454L450.334 52.9422ZM490.617 45.2222L488.977 58.1422L486.617 60.9022L484.177 58.1422L482.537 45.2222H490.617ZM489.217 68.7822H483.977V63.5422H489.217V68.7822Z" fill="#F9F9F9"/>
</g>
<defs>
<clipPath id="clip0_230_7429">
<rect width="618" height="145" fill="white"/>
</clipPath>
</defs>
</svg>
