<svg width="45" height="74" viewBox="0 0 45 74" fill="none" xmlns="http://www.w3.org/2000/svg">
<g filter="url(#filter0_f_483_8471)">
<path fill-rule="evenodd" clip-rule="evenodd" d="M28.2368 35.2815C33.1287 33.1735 36.5 28.3652 36.5 22.7665C36.5 15.1919 30.3519 9 22.75 9C15.1481 9 9 15.1255 9 22.7006C9 28.2997 12.3713 33.1736 17.2632 35.2815V41.9341L20.0397 44.7006L17.2632 47.467L20.0397 50.2335L17.2632 53L20.0397 55.7664L17.2632 58.5329L22.75 64L28.2368 58.5329V35.2815ZM24.936 17.116C24.936 18.334 23.945 19.3214 22.7226 19.3214C21.5002 19.3214 20.5092 18.334 20.5092 17.116C20.5092 15.8979 21.5002 14.9105 22.7226 14.9105C23.945 14.9105 24.936 15.8979 24.936 17.116ZM22.7226 20.821C21.5002 20.821 20.5092 21.8119 20.5092 23.0344V27.7822C20.5092 29.0046 21.5002 29.9955 22.7226 29.9955C23.945 29.9955 24.936 29.0046 24.936 27.7822V23.0344C24.936 21.8119 23.945 20.821 22.7226 20.821Z" fill="#FF5600"/>
<path d="M28.2368 35.2815L27.2474 32.9856L25.7368 33.6366V35.2815H28.2368ZM17.2632 35.2815H19.7632V33.6365L18.2525 32.9856L17.2632 35.2815ZM17.2632 41.9341H14.7632V42.9723L15.4986 43.705L17.2632 41.9341ZM20.0397 44.7006L21.8042 46.4715L23.5816 44.7006L21.8042 42.9296L20.0397 44.7006ZM17.2632 47.467L15.4986 45.6961L13.7213 47.467L15.4986 49.238L17.2632 47.467ZM20.0397 50.2335L21.8042 52.0044L23.5816 50.2335L21.8042 48.4626L20.0397 50.2335ZM17.2632 53L15.4986 51.229L13.7213 53L15.4986 54.7709L17.2632 53ZM20.0397 55.7664L21.8042 57.5374L23.5816 55.7664L21.8042 53.9955L20.0397 55.7664ZM17.2632 58.5329L15.4986 56.762L13.7213 58.5329L15.4986 60.3039L17.2632 58.5329ZM22.75 64L20.9854 65.7709L22.75 67.5292L24.5146 65.7709L22.75 64ZM28.2368 58.5329L30.0014 60.3039L30.7368 59.5711V58.5329H28.2368ZM34 22.7665C34 27.3295 31.2575 31.2576 27.2474 32.9856L29.2261 37.5774C34.9999 35.0894 39 29.4009 39 22.7665H34ZM22.75 11.5C28.9641 11.5 34 16.5654 34 22.7665H39C39 13.8183 31.7398 6.5 22.75 6.5V11.5ZM11.5 22.7006C11.5 16.5148 16.5202 11.5 22.75 11.5V6.5C13.7759 6.5 6.5 13.7363 6.5 22.7006H11.5ZM18.2525 32.9856C14.2555 31.2633 11.5 27.2778 11.5 22.7006H6.5C6.5 29.3216 10.4871 35.0839 16.2739 37.5774L18.2525 32.9856ZM19.7632 41.9341V35.2815H14.7632V41.9341H19.7632ZM21.8042 42.9296L19.0278 40.1631L15.4986 43.705L18.2751 46.4715L21.8042 42.9296ZM19.0278 49.238L21.8042 46.4715L18.2751 42.9296L15.4986 45.6961L19.0278 49.238ZM21.8042 48.4626L19.0278 45.6961L15.4986 49.238L18.2751 52.0044L21.8042 48.4626ZM19.0278 54.7709L21.8042 52.0044L18.2751 48.4626L15.4986 51.229L19.0278 54.7709ZM21.8042 53.9955L19.0278 51.229L15.4986 54.7709L18.2751 57.5374L21.8042 53.9955ZM19.0278 60.3039L21.8042 57.5374L18.2751 53.9955L15.4986 56.762L19.0278 60.3039ZM24.5146 62.2291L19.0278 56.762L15.4986 60.3039L20.9854 65.7709L24.5146 62.2291ZM26.4722 56.762L20.9854 62.2291L24.5146 65.7709L30.0014 60.3039L26.4722 56.762ZM25.7368 35.2815V58.5329H30.7368V35.2815H25.7368ZM22.7226 21.8214C25.3172 21.8214 27.436 19.7232 27.436 17.116H22.436C22.436 16.9448 22.5728 16.8214 22.7226 16.8214V21.8214ZM18.0092 17.116C18.0092 19.7232 20.128 21.8214 22.7226 21.8214V16.8214C22.8724 16.8214 23.0092 16.9448 23.0092 17.116H18.0092ZM22.7226 12.4105C20.128 12.4105 18.0092 14.5088 18.0092 17.116H23.0092C23.0092 17.2871 22.8724 17.4105 22.7226 17.4105V12.4105ZM27.436 17.116C27.436 14.5088 25.3172 12.4105 22.7226 12.4105V17.4105C22.5728 17.4105 22.436 17.2871 22.436 17.116H27.436ZM23.0092 23.0344C23.0092 23.1927 22.8809 23.321 22.7226 23.321V18.321C20.1195 18.321 18.0092 20.4312 18.0092 23.0344H23.0092ZM23.0092 27.7822V23.0344H18.0092V27.7822H23.0092ZM22.7226 27.4955C22.8809 27.4955 23.0092 27.6239 23.0092 27.7822H18.0092C18.0092 30.3853 20.1195 32.4955 22.7226 32.4955V27.4955ZM22.436 27.7822C22.436 27.6239 22.5643 27.4955 22.7226 27.4955V32.4955C25.3257 32.4955 27.436 30.3853 27.436 27.7822H22.436ZM22.436 23.0344V27.7822H27.436V23.0344H22.436ZM22.7226 23.321C22.5643 23.321 22.436 23.1927 22.436 23.0344H27.436C27.436 20.4312 25.3257 18.321 22.7226 18.321V23.321Z" fill="#FF5600"/>
</g>
<g filter="url(#filter1_f_483_8471)">
<path fill-rule="evenodd" clip-rule="evenodd" d="M28.2368 35.2815C33.1287 33.1735 36.5 28.3652 36.5 22.7665C36.5 15.1919 30.3519 9 22.75 9C15.1481 9 9 15.1255 9 22.7006C9 28.2997 12.3713 33.1736 17.2632 35.2815V41.9341L20.0397 44.7006L17.2632 47.467L20.0397 50.2335L17.2632 53L20.0397 55.7664L17.2632 58.5329L22.75 64L28.2368 58.5329V35.2815ZM24.936 17.116C24.936 18.334 23.945 19.3214 22.7226 19.3214C21.5002 19.3214 20.5092 18.334 20.5092 17.116C20.5092 15.8979 21.5002 14.9105 22.7226 14.9105C23.945 14.9105 24.936 15.8979 24.936 17.116ZM22.7226 20.821C21.5002 20.821 20.5092 21.8119 20.5092 23.0344V27.7822C20.5092 29.0046 21.5002 29.9955 22.7226 29.9955C23.945 29.9955 24.936 29.0046 24.936 27.7822V23.0344C24.936 21.8119 23.945 20.821 22.7226 20.821Z" fill="#FF7B38"/>
<path d="M28.2368 35.2815L27.4453 33.4448L26.2368 33.9655V35.2815H28.2368ZM17.2632 35.2815H19.2632V33.9655L18.0547 33.4448L17.2632 35.2815ZM17.2632 41.9341H15.2632V42.7646L15.8516 43.3508L17.2632 41.9341ZM20.0397 44.7006L21.4513 46.1173L22.8732 44.7006L21.4513 43.2838L20.0397 44.7006ZM17.2632 47.467L15.8516 46.0503L14.4297 47.467L15.8516 48.8838L17.2632 47.467ZM20.0397 50.2335L21.4513 51.6503L22.8732 50.2335L21.4513 48.8167L20.0397 50.2335ZM17.2632 53L15.8516 51.5832L14.4297 53L15.8516 54.4167L17.2632 53ZM20.0397 55.7664L21.4513 57.1832L22.8732 55.7664L21.4513 54.3497L20.0397 55.7664ZM17.2632 58.5329L15.8516 57.1162L14.4297 58.5329L15.8516 59.9497L17.2632 58.5329ZM22.75 64L21.3383 65.4168L22.75 66.8234L24.1617 65.4168L22.75 64ZM28.2368 58.5329L29.6484 59.9497L30.2368 59.3635V58.5329H28.2368ZM34.5 22.7665C34.5 27.5366 31.6317 31.6408 27.4453 33.4448L29.0283 37.1182C34.6257 34.7062 38.5 29.1938 38.5 22.7665H34.5ZM22.75 11C29.2417 11 34.5 16.2907 34.5 22.7665H38.5C38.5 14.093 31.4622 7 22.75 7V11ZM11 22.7006C11 16.2369 16.2458 11 22.75 11V7C14.0503 7 7 14.0141 7 22.7006H11ZM18.0547 33.4448C13.8786 31.6453 11 27.4821 11 22.7006H7C7 29.1172 10.8639 34.7018 16.4718 37.1182L18.0547 33.4448ZM19.2632 41.9341V35.2815H15.2632V41.9341H19.2632ZM21.4513 43.2838L18.6749 40.5173L15.8516 43.3508L18.628 46.1173L21.4513 43.2838ZM18.6749 48.8838L21.4513 46.1173L18.628 43.2838L15.8516 46.0503L18.6749 48.8838ZM21.4513 48.8167L18.6749 46.0503L15.8516 48.8838L18.628 51.6503L21.4513 48.8167ZM18.6749 54.4167L21.4513 51.6503L18.628 48.8167L15.8516 51.5832L18.6749 54.4167ZM21.4513 54.3497L18.6749 51.5832L15.8516 54.4167L18.628 57.1832L21.4513 54.3497ZM18.6749 59.9497L21.4513 57.1832L18.628 54.3497L15.8516 57.1162L18.6749 59.9497ZM24.1617 62.5832L18.6749 57.1162L15.8516 59.9497L21.3383 65.4168L24.1617 62.5832ZM26.8251 57.1162L21.3383 62.5832L24.1617 65.4168L29.6484 59.9497L26.8251 57.1162ZM26.2368 35.2815V58.5329H30.2368V35.2815H26.2368ZM22.7226 21.3214C25.0428 21.3214 26.936 19.4453 26.936 17.116H22.936C22.936 17.2226 22.8472 17.3214 22.7226 17.3214V21.3214ZM18.5092 17.116C18.5092 19.4453 20.4024 21.3214 22.7226 21.3214V17.3214C22.598 17.3214 22.5092 17.2226 22.5092 17.116H18.5092ZM22.7226 12.9105C20.4024 12.9105 18.5092 14.7866 18.5092 17.116H22.5092C22.5092 17.0093 22.598 16.9105 22.7226 16.9105V12.9105ZM26.936 17.116C26.936 14.7866 25.0428 12.9105 22.7226 12.9105V16.9105C22.8472 16.9105 22.936 17.0093 22.936 17.116H26.936ZM22.5092 23.0344C22.5092 22.9165 22.6048 22.821 22.7226 22.821V18.821C20.3956 18.821 18.5092 20.7074 18.5092 23.0344H22.5092ZM22.5092 27.7822V23.0344H18.5092V27.7822H22.5092ZM22.7226 27.9955C22.6048 27.9955 22.5092 27.9 22.5092 27.7822H18.5092C18.5092 30.1091 20.3956 31.9955 22.7226 31.9955V27.9955ZM22.936 27.7822C22.936 27.9 22.8404 27.9955 22.7226 27.9955V31.9955C25.0496 31.9955 26.936 30.1091 26.936 27.7822H22.936ZM22.936 23.0344V27.7822H26.936V23.0344H22.936ZM22.7226 22.821C22.8404 22.821 22.936 22.9165 22.936 23.0344H26.936C26.936 20.7074 25.0496 18.821 22.7226 18.821V22.821Z" fill="#FF7B38"/>
</g>
<g filter="url(#filter2_f_483_8471)">
<path fill-rule="evenodd" clip-rule="evenodd" d="M28.2368 35.2815C33.1287 33.1735 36.5 28.3652 36.5 22.7665C36.5 15.1919 30.3519 9 22.75 9C15.1481 9 9 15.1255 9 22.7006C9 28.2997 12.3713 33.1736 17.2632 35.2815V41.9341L20.0397 44.7006L17.2632 47.467L20.0397 50.2335L17.2632 53L20.0397 55.7664L17.2632 58.5329L22.75 64L28.2368 58.5329V35.2815ZM24.936 17.116C24.936 18.334 23.945 19.3214 22.7226 19.3214C21.5002 19.3214 20.5092 18.334 20.5092 17.116C20.5092 15.8979 21.5002 14.9105 22.7226 14.9105C23.945 14.9105 24.936 15.8979 24.936 17.116ZM22.7226 20.821C21.5002 20.821 20.5092 21.8119 20.5092 23.0344V27.7822C20.5092 29.0046 21.5002 29.9955 22.7226 29.9955C23.945 29.9955 24.936 29.0046 24.936 27.7822V23.0344C24.936 21.8119 23.945 20.821 22.7226 20.821Z" fill="#FFAC81"/>
<path d="M28.2368 35.2815L27.6432 33.9039L26.7368 34.2945V35.2815H28.2368ZM17.2632 35.2815H18.7632V34.2945L17.8568 33.9039L17.2632 35.2815ZM17.2632 41.9341H15.7632V42.557L16.2045 42.9967L17.2632 41.9341ZM20.0397 44.7006L21.0984 45.7631L22.1648 44.7006L21.0984 43.638L20.0397 44.7006ZM17.2632 47.467L16.2045 46.4045L15.1381 47.467L16.2045 48.5296L17.2632 47.467ZM20.0397 50.2335L21.0984 51.2961L22.1648 50.2335L21.0984 49.1709L20.0397 50.2335ZM17.2632 53L16.2045 51.9374L15.1381 53L16.2045 54.0625L17.2632 53ZM20.0397 55.7664L21.0984 56.829L22.1648 55.7664L21.0984 54.7039L20.0397 55.7664ZM17.2632 58.5329L16.2045 57.4704L15.1381 58.5329L16.2045 59.5955L17.2632 58.5329ZM22.75 64L21.6912 65.0626L22.75 66.1175L23.8088 65.0626L22.75 64ZM28.2368 58.5329L29.2955 59.5955L29.7368 59.1558V58.5329H28.2368ZM35 22.7665C35 27.7438 32.006 32.0239 27.6432 33.9039L28.8304 36.659C34.2515 34.323 38 28.9866 38 22.7665H35ZM22.75 10.5C29.5192 10.5 35 16.016 35 22.7665H38C38 14.3677 31.1846 7.5 22.75 7.5V10.5ZM10.5 22.7006C10.5 15.9591 15.9714 10.5 22.75 10.5V7.5C14.3248 7.5 7.5 14.292 7.5 22.7006H10.5ZM17.8568 33.9039C13.5018 32.0274 10.5 27.6865 10.5 22.7006H7.5C7.5 28.9128 11.2408 34.3198 16.6696 36.6591L17.8568 33.9039ZM18.7632 41.9341V35.2815H15.7632V41.9341H18.7632ZM21.0984 43.638L18.322 40.8715L16.2045 42.9967L18.9809 45.7631L21.0984 43.638ZM18.322 48.5296L21.0984 45.7631L18.9809 43.638L16.2045 46.4045L18.322 48.5296ZM21.0984 49.1709L18.322 46.4045L16.2045 48.5296L18.9809 51.2961L21.0984 49.1709ZM18.322 54.0625L21.0984 51.2961L18.9809 49.1709L16.2045 51.9374L18.322 54.0625ZM21.0984 54.7039L18.322 51.9374L16.2045 54.0625L18.9809 56.829L21.0984 54.7039ZM18.322 59.5955L21.0984 56.829L18.9809 54.7039L16.2045 57.4704L18.322 59.5955ZM23.8088 62.9374L18.322 57.4704L16.2045 59.5955L21.6912 65.0626L23.8088 62.9374ZM27.178 57.4704L21.6912 62.9374L23.8088 65.0626L29.2955 59.5955L27.178 57.4704ZM26.7368 35.2815V58.5329H29.7368V35.2815H26.7368ZM22.7226 20.8214C24.7684 20.8214 26.436 19.1675 26.436 17.116H23.436C23.436 17.5005 23.1217 17.8214 22.7226 17.8214V20.8214ZM19.0092 17.116C19.0092 19.1675 20.6769 20.8214 22.7226 20.8214V17.8214C22.3235 17.8214 22.0092 17.5005 22.0092 17.116H19.0092ZM22.7226 13.4105C20.6769 13.4105 19.0092 15.0644 19.0092 17.116H22.0092C22.0092 16.7314 22.3235 16.4105 22.7226 16.4105V13.4105ZM26.436 17.116C26.436 15.0644 24.7684 13.4105 22.7226 13.4105V16.4105C23.1217 16.4105 23.436 16.7314 23.436 17.116H26.436ZM22.0092 23.0344C22.0092 22.6404 22.3286 22.321 22.7226 22.321V19.321C20.6718 19.321 19.0092 20.9835 19.0092 23.0344H22.0092ZM22.0092 27.7822V23.0344H19.0092V27.7822H22.0092ZM22.7226 28.4955C22.3286 28.4955 22.0092 28.1761 22.0092 27.7822H19.0092C19.0092 29.833 20.6718 31.4955 22.7226 31.4955V28.4955ZM23.436 27.7822C23.436 28.1761 23.1166 28.4955 22.7226 28.4955V31.4955C24.7734 31.4955 26.436 29.833 26.436 27.7822H23.436ZM23.436 23.0344V27.7822H26.436V23.0344H23.436ZM22.7226 22.321C23.1166 22.321 23.436 22.6404 23.436 23.0344H26.436C26.436 20.9835 24.7734 19.321 22.7226 19.321V22.321Z" fill="#FFAC81"/>
</g>
<path fill-rule="evenodd" clip-rule="evenodd" d="M28.2368 35.2815C33.1287 33.1735 36.5 28.3652 36.5 22.7665C36.5 15.1919 30.3519 9 22.75 9C15.1481 9 9 15.1255 9 22.7006C9 28.2997 12.3713 33.1736 17.2632 35.2815V41.9341L20.0397 44.7006L17.2632 47.467L20.0397 50.2335L17.2632 53L20.0397 55.7664L17.2632 58.5329L22.75 64L28.2368 58.5329V35.2815ZM24.936 17.116C24.936 18.334 23.945 19.3214 22.7226 19.3214C21.5002 19.3214 20.5092 18.334 20.5092 17.116C20.5092 15.8979 21.5002 14.9105 22.7226 14.9105C23.945 14.9105 24.936 15.8979 24.936 17.116ZM22.7226 20.821C21.5002 20.821 20.5092 21.8119 20.5092 23.0344V27.7822C20.5092 29.0046 21.5002 29.9955 22.7226 29.9955C23.945 29.9955 24.936 29.0046 24.936 27.7822V23.0344C24.936 21.8119 23.945 20.821 22.7226 20.821Z" fill="#FFF4E3"/>
<defs>
<filter id="filter0_f_483_8471" x="0.5" y="0.5" width="44.5" height="73.0292" filterUnits="userSpaceOnUse" color-interpolation-filters="sRGB">
<feFlood flood-opacity="0" result="BackgroundImageFix"/>
<feBlend mode="normal" in="SourceGraphic" in2="BackgroundImageFix" result="shape"/>
<feGaussianBlur stdDeviation="3" result="effect1_foregroundBlur_483_8471"/>
</filter>
<filter id="filter1_f_483_8471" x="2" y="2" width="41.5" height="69.8234" filterUnits="userSpaceOnUse" color-interpolation-filters="sRGB">
<feFlood flood-opacity="0" result="BackgroundImageFix"/>
<feBlend mode="normal" in="SourceGraphic" in2="BackgroundImageFix" result="shape"/>
<feGaussianBlur stdDeviation="2.5" result="effect1_foregroundBlur_483_8471"/>
</filter>
<filter id="filter2_f_483_8471" x="4.5" y="4.5" width="36.5" height="64.6176" filterUnits="userSpaceOnUse" color-interpolation-filters="sRGB">
<feFlood flood-opacity="0" result="BackgroundImageFix"/>
<feBlend mode="normal" in="SourceGraphic" in2="BackgroundImageFix" result="shape"/>
<feGaussianBlur stdDeviation="1.5" result="effect1_foregroundBlur_483_8471"/>
</filter>
</defs>
</svg>
