<svg width="80" height="80" viewBox="0 0 80 80" fill="none" xmlns="http://www.w3.org/2000/svg">
<path d="M23.6422 39.6465C19.9509 39.6465 16.9629 40.9707 16.9629 42.7373V43.3557C16.9629 45.0336 19.9509 46.4466 23.6422 46.4466C27.3334 46.4466 30.3214 45.1223 30.3214 43.3557V42.7373C30.3214 41.0588 27.3334 39.6465 23.6422 39.6465Z" fill="url(#paint0_linear_230_9122)"/>
<path d="M23.6425 47.9468C20.3908 47.9468 17.754 46.8874 17.0509 45.5625C16.9633 45.7393 16.875 46.0041 16.875 46.1809V46.7993C16.875 48.4772 19.863 49.8902 23.5543 49.8902C27.2455 49.8902 30.2335 48.5659 30.2335 46.7993V46.1809C30.2335 46.0041 30.1459 45.7393 30.0576 45.5625C29.531 46.8874 26.8943 47.9468 23.6426 47.9468H23.6425Z" fill="url(#paint1_linear_230_9122)"/>
<path d="M23.6425 51.3901C20.3908 51.3901 17.754 50.3307 17.0509 49.0059C16.9633 49.1826 16.875 49.4475 16.875 49.6243V50.2427C16.875 51.9205 19.863 53.3335 23.5543 53.3335C27.2455 53.3335 30.2335 52.0093 30.2335 50.2427V49.6243C30.2335 49.4475 30.1459 49.1826 30.0576 49.0059C29.531 50.3301 26.8943 51.3901 23.6426 51.3901H23.6425Z" fill="url(#paint2_linear_230_9122)"/>
<path d="M23.6425 54.9234C20.3908 54.9234 17.754 53.8639 17.0509 52.5391C16.9633 52.7158 16.875 52.9807 16.875 53.1575V53.7759C16.875 55.4538 19.863 56.8667 23.5543 56.8667C27.2455 56.8667 30.2335 55.5425 30.2335 53.7759V53.1575C30.2335 52.9807 30.1459 52.7158 30.0576 52.5391C29.531 53.8639 26.8943 54.9234 23.6426 54.9234H23.6425Z" fill="url(#paint3_linear_230_9122)"/>
<path d="M23.6425 58.3667C20.3908 58.3667 17.754 57.3073 17.0509 55.9824C16.9633 56.1592 16.875 56.4241 16.875 56.6008V57.2192C16.875 58.8971 19.863 60.3101 23.5543 60.3101C27.2455 60.3101 30.2335 58.9858 30.2335 57.2192V56.6008C30.2335 56.4241 30.1459 56.1592 30.0576 55.9824C29.531 57.3073 26.8943 58.3667 23.6426 58.3667H23.6425Z" fill="url(#paint4_linear_230_9122)"/>
<path d="M46.2299 33.0237V32.4053C46.2299 30.7274 43.2419 29.3145 39.5506 29.3145C38.3203 29.3145 37.0898 29.4912 36.123 29.7561L42.1874 35.849C44.5605 35.3193 46.2299 34.2599 46.2299 33.0237V33.0237Z" fill="url(#paint5_linear_230_9122)"/>
<path d="M46.2284 36.3794V35.761C46.2284 35.5842 46.1408 35.3194 46.0525 35.1426C45.7012 35.9371 44.6461 36.5555 43.3281 36.9972L44.6462 38.3215C45.7013 37.8805 46.2285 37.1746 46.2285 36.3795L46.2284 36.3794Z" fill="url(#paint6_linear_230_9122)"/>
<path d="M46.2286 39.8228V39.2043C46.2286 39.0276 46.1409 38.7627 46.0526 38.5859C45.965 38.8508 45.789 39.1156 45.5254 39.2924L46.2286 39.9989V39.8228Z" fill="url(#paint7_linear_230_9122)"/>
<path d="M32.8711 39.8242C32.8711 40.8836 34.0138 41.7668 35.6838 42.2967L32.8711 39.4707V39.8242Z" fill="url(#paint8_linear_230_9122)"/>
<path d="M32.9591 42.1191C32.8715 42.2959 32.7832 42.5608 32.7832 42.7375V43.444C32.7832 45.1219 35.7712 46.5349 39.4625 46.5349H39.7261L37.7048 44.5041C35.3324 44.15 33.4864 43.2667 32.9592 42.1192L32.9591 42.1191Z" fill="url(#paint9_linear_230_9122)"/>
<path d="M39.5507 47.9468C36.299 47.9468 33.6622 46.8874 32.9591 45.5625C32.8715 45.7393 32.7832 46.0041 32.7832 46.1809V46.7993C32.7832 48.4772 35.7712 49.8902 39.4625 49.8902C40.6052 49.8902 41.7474 49.7134 42.7141 49.5372L41.1325 47.9481C40.6935 47.9469 40.078 47.9469 39.5508 47.9469L39.5507 47.9468Z" fill="url(#paint10_linear_230_9122)"/>
<path d="M39.5507 51.3901C36.299 51.3901 33.6622 50.3307 32.9591 49.0059C32.8715 49.1826 32.7832 49.4475 32.7832 49.6243V50.2427C32.7832 51.9205 35.7712 53.3335 39.4625 53.3335C41.8356 53.3335 43.8568 52.8038 45.0872 51.9206L43.8569 50.6844C42.7147 51.0367 41.2207 51.3903 39.5507 51.3903L39.5507 51.3901Z" fill="url(#paint11_linear_230_9122)"/>
<path d="M39.5507 54.9234C36.299 54.9234 33.6622 53.8639 32.9591 52.5391C32.8715 52.7158 32.7832 52.9807 32.7832 53.1575V53.7759C32.7832 55.4538 35.7712 56.8667 39.4625 56.8667C43.1537 56.8667 46.1417 55.5425 46.1417 53.7759V53.1575V52.9807L45.8781 52.7158C45.1756 54.0401 42.6271 54.9234 39.5509 54.9234L39.5507 54.9234Z" fill="url(#paint12_linear_230_9122)"/>
<path d="M39.5507 58.3667C36.299 58.3667 33.6622 57.3073 32.9591 55.9824C32.8715 56.1592 32.7832 56.4241 32.7832 56.6008V57.2192C32.7832 58.8971 35.7712 60.3101 39.4625 60.3101C43.1537 60.3101 46.1417 58.9858 46.1417 57.2192V56.6008C46.1417 56.4241 46.0541 56.1592 45.9658 55.9824C45.4392 57.3073 42.8025 58.3667 39.5508 58.3667H39.5507Z" fill="url(#paint13_linear_230_9122)"/>
<path d="M55.4566 25.9605C59.1479 25.9605 62.1359 24.6362 62.1359 22.8696V22.1631C62.1359 20.4852 59.1479 19.0723 55.4566 19.0723C51.7653 19.0723 48.7773 20.3965 48.7773 22.1631V22.8696C48.7773 24.5475 51.7653 25.9605 55.4566 25.9605Z" fill="url(#paint14_linear_230_9122)"/>
<path d="M55.4566 29.3159C59.1479 29.3159 62.1359 27.9917 62.1359 26.2251L62.1365 25.6067C62.1365 25.4299 62.0489 25.1651 61.9606 24.9883C61.3451 26.4012 58.6207 27.3726 55.369 27.3726C52.1174 27.3726 49.4806 26.3131 48.7775 24.9883C48.6898 25.1651 48.6016 25.4299 48.6016 25.6067V26.2251C48.7775 27.991 51.7655 29.3159 55.4568 29.3159H55.4566Z" fill="url(#paint15_linear_230_9122)"/>
<path d="M55.4573 32.7593C59.1485 32.7593 62.1365 31.435 62.1365 29.6685V29.05C62.1365 28.8733 62.0489 28.6084 61.9606 28.4316C61.3451 29.8446 58.6207 30.8159 55.369 30.8159C52.1174 30.8159 49.4806 29.7565 48.7775 28.4316C48.6898 28.6084 48.6016 28.8733 48.6016 29.05V29.6685C48.7781 31.3463 51.7661 32.7593 55.4574 32.7593H55.4573Z" fill="url(#paint16_linear_230_9122)"/>
<path d="M55.4566 36.3798C59.1479 36.3798 62.1359 35.0555 62.1359 33.2889L62.1365 32.6711C62.1365 32.4944 62.0489 32.2295 61.9606 32.0527C61.3451 33.4657 58.6207 34.437 55.369 34.437C52.1174 34.437 49.4806 33.3776 48.7775 32.0527C48.6898 32.2295 48.6016 32.4944 48.6016 32.6711V33.2895C48.7775 34.9674 51.7655 36.3798 55.4568 36.3798L55.4566 36.3798Z" fill="url(#paint17_linear_230_9122)"/>
<path d="M55.4573 39.7359C59.1485 39.7359 62.1365 38.4116 62.1365 36.645V36.0266C62.1365 35.8498 62.0489 35.585 61.9606 35.4082C61.3451 36.8212 58.6207 37.7925 55.369 37.7925C52.1174 37.7925 49.4806 36.7331 48.7775 35.4082C48.6898 35.585 48.6016 35.8498 48.6016 36.0266V36.645C48.7781 38.4115 51.7661 39.7359 55.4574 39.7359H55.4573Z" fill="url(#paint18_linear_230_9122)"/>
<path d="M55.4573 43.1792C59.1485 43.1792 62.1365 41.855 62.1365 40.0884V39.47C62.1365 39.2932 62.0489 39.0283 61.9606 38.8516C61.3451 40.2645 58.6207 41.2359 55.369 41.2359C52.1174 41.2359 49.4806 40.1764 48.7775 38.8516C48.6898 39.0283 48.6016 39.2932 48.6016 39.47V40.0884C48.7781 41.7663 51.7661 43.1792 55.4574 43.1792H55.4573Z" fill="url(#paint19_linear_230_9122)"/>
<path d="M55.4569 46.7124C59.1481 46.7124 62.1361 45.3882 62.1361 43.6216V43.0032C62.1361 42.8264 62.0485 42.5615 61.9602 42.3848C61.3447 43.7977 58.6203 44.7691 55.3687 44.7691C52.117 44.7691 49.4802 43.7096 48.7771 42.3848C48.7771 42.4728 48.7771 42.4728 48.6895 42.5615L52.6442 46.5349C53.6116 46.6242 54.4902 46.7123 55.4569 46.7123L55.4569 46.7124Z" fill="url(#paint20_linear_230_9122)"/>
<path d="M62.1366 47.0649V46.4465C62.1366 46.2698 62.0489 46.0049 61.9607 45.8281C61.3452 47.2411 58.6208 48.2124 55.3691 48.2124H54.4023L56.3359 50.155C59.6751 49.8902 62.1366 48.654 62.1366 47.0648L62.1366 47.0649Z" fill="url(#paint21_linear_230_9122)"/>
<path d="M62.1369 50.2427V49.6243C62.1369 49.4475 62.0492 49.1826 61.9609 49.0059C61.4337 50.0653 59.676 50.9485 57.3906 51.3015L58.9723 52.8906C60.9058 52.2735 62.1368 51.3022 62.1368 50.2427L62.1369 50.2427Z" fill="url(#paint22_linear_230_9122)"/>
<path d="M62.1367 53.7759V53.1575C62.1367 52.9807 62.049 52.7158 61.9607 52.5391C61.6971 53.1575 61.0816 53.5985 60.2031 54.0401L61.3458 55.1882C61.8725 54.7472 62.1367 54.3056 62.1367 53.7759L62.1367 53.7759Z" fill="url(#paint23_linear_230_9122)"/>
<path d="M48.8654 55.8946C48.7777 56.0714 48.6895 56.3363 48.6895 56.513V57.1314C48.6895 58.4557 50.623 59.6039 53.2597 60.0454L50.623 57.3962C49.8321 57.0426 49.129 56.5123 48.8654 55.8945L48.8654 55.8946Z" fill="url(#paint24_linear_230_9122)"/>
<path d="M39.5492 0C17.6653 0 0 17.7485 0 39.7355C0 61.7225 17.6653 79.471 39.5492 79.471C61.4331 79.471 79.0984 61.7225 79.0984 39.7355C79.0984 17.7485 61.4331 0 39.5492 0ZM75.1044 39.7355C75.1044 48.036 70.8026 57.4179 65.8811 63.2458L15.3722 12.737C21.2607 7.7923 31.288 3.51366 39.5492 3.51366C58.1797 3.51304 75.1044 21.1033 75.1044 39.7355ZM3.95286 39.7355C3.95286 31.1837 7.90305 21.2001 12.737 15.3722L63.2458 66.3203C57.4451 71.177 47.6353 75.5436 39.4616 75.5436C20.9175 75.5436 3.95286 58.3667 3.95286 39.7355Z" fill="url(#paint25_linear_230_9122)"/>
<defs>
<linearGradient id="paint0_linear_230_9122" x1="18.8846" y1="46.4466" x2="20.2373" y2="38.8117" gradientUnits="userSpaceOnUse">
<stop stop-color="#65D2DC"/>
<stop offset="1" stop-color="#DB9A38"/>
</linearGradient>
<linearGradient id="paint1_linear_230_9122" x1="18.7968" y1="49.8902" x2="19.3547" y2="44.9416" gradientUnits="userSpaceOnUse">
<stop stop-color="#65D2DC"/>
<stop offset="1" stop-color="#DB9A38"/>
</linearGradient>
<linearGradient id="paint2_linear_230_9122" x1="18.7968" y1="53.3335" x2="19.3547" y2="48.385" gradientUnits="userSpaceOnUse">
<stop stop-color="#65D2DC"/>
<stop offset="1" stop-color="#DB9A38"/>
</linearGradient>
<linearGradient id="paint3_linear_230_9122" x1="18.7968" y1="56.8667" x2="19.3547" y2="51.9182" gradientUnits="userSpaceOnUse">
<stop stop-color="#65D2DC"/>
<stop offset="1" stop-color="#DB9A38"/>
</linearGradient>
<linearGradient id="paint4_linear_230_9122" x1="18.7968" y1="60.3101" x2="19.3547" y2="55.3615" gradientUnits="userSpaceOnUse">
<stop stop-color="#65D2DC"/>
<stop offset="1" stop-color="#DB9A38"/>
</linearGradient>
<linearGradient id="paint5_linear_230_9122" x1="37.577" y1="35.849" x2="39.1977" y2="28.6467" gradientUnits="userSpaceOnUse">
<stop stop-color="#65D2DC"/>
<stop offset="1" stop-color="#DB9A38"/>
</linearGradient>
<linearGradient id="paint6_linear_230_9122" x1="43.7454" y1="38.3215" x2="44.9712" y2="35.1079" gradientUnits="userSpaceOnUse">
<stop stop-color="#65D2DC"/>
<stop offset="1" stop-color="#DB9A38"/>
</linearGradient>
<linearGradient id="paint7_linear_230_9122" x1="45.6265" y1="39.9989" x2="46.395" y2="38.9001" gradientUnits="userSpaceOnUse">
<stop stop-color="#65D2DC"/>
<stop offset="1" stop-color="#DB9A38"/>
</linearGradient>
<linearGradient id="paint8_linear_230_9122" x1="33.2757" y1="42.2967" x2="34.2954" y2="39.3807" gradientUnits="userSpaceOnUse">
<stop stop-color="#65D2DC"/>
<stop offset="1" stop-color="#DB9A38"/>
</linearGradient>
<linearGradient id="paint9_linear_230_9122" x1="33.782" y1="46.5349" x2="34.861" y2="41.6603" gradientUnits="userSpaceOnUse">
<stop stop-color="#65D2DC"/>
<stop offset="1" stop-color="#DB9A38"/>
</linearGradient>
<linearGradient id="paint10_linear_230_9122" x1="34.2119" y1="49.8902" x2="34.9548" y2="44.9914" gradientUnits="userSpaceOnUse">
<stop stop-color="#65D2DC"/>
<stop offset="1" stop-color="#DB9A38"/>
</linearGradient>
<linearGradient id="paint11_linear_230_9122" x1="34.5533" y1="53.3335" x2="35.1577" y2="48.3961" gradientUnits="userSpaceOnUse">
<stop stop-color="#65D2DC"/>
<stop offset="1" stop-color="#DB9A38"/>
</linearGradient>
<linearGradient id="paint12_linear_230_9122" x1="34.705" y1="56.8667" x2="35.2629" y2="51.9182" gradientUnits="userSpaceOnUse">
<stop stop-color="#65D2DC"/>
<stop offset="1" stop-color="#DB9A38"/>
</linearGradient>
<linearGradient id="paint13_linear_230_9122" x1="34.705" y1="60.3101" x2="35.2629" y2="55.3615" gradientUnits="userSpaceOnUse">
<stop stop-color="#65D2DC"/>
<stop offset="1" stop-color="#DB9A38"/>
</linearGradient>
<linearGradient id="paint14_linear_230_9122" x1="50.6991" y1="25.9605" x2="52.0859" y2="18.2328" gradientUnits="userSpaceOnUse">
<stop stop-color="#65D2DC"/>
<stop offset="1" stop-color="#DB9A38"/>
</linearGradient>
<linearGradient id="paint15_linear_230_9122" x1="50.5487" y1="29.3159" x2="51.0996" y2="24.3658" gradientUnits="userSpaceOnUse">
<stop stop-color="#65D2DC"/>
<stop offset="1" stop-color="#DB9A38"/>
</linearGradient>
<linearGradient id="paint16_linear_230_9122" x1="50.5487" y1="32.7593" x2="51.0996" y2="27.8092" gradientUnits="userSpaceOnUse">
<stop stop-color="#65D2DC"/>
<stop offset="1" stop-color="#DB9A38"/>
</linearGradient>
<linearGradient id="paint17_linear_230_9122" x1="50.5487" y1="36.3798" x2="51.0994" y2="31.4303" gradientUnits="userSpaceOnUse">
<stop stop-color="#65D2DC"/>
<stop offset="1" stop-color="#DB9A38"/>
</linearGradient>
<linearGradient id="paint18_linear_230_9122" x1="50.5487" y1="39.7359" x2="51.0996" y2="34.7857" gradientUnits="userSpaceOnUse">
<stop stop-color="#65D2DC"/>
<stop offset="1" stop-color="#DB9A38"/>
</linearGradient>
<linearGradient id="paint19_linear_230_9122" x1="50.5487" y1="43.1792" x2="51.0996" y2="38.2291" gradientUnits="userSpaceOnUse">
<stop stop-color="#65D2DC"/>
<stop offset="1" stop-color="#DB9A38"/>
</linearGradient>
<linearGradient id="paint20_linear_230_9122" x1="50.6239" y1="46.7124" x2="51.1783" y2="41.7631" gradientUnits="userSpaceOnUse">
<stop stop-color="#65D2DC"/>
<stop offset="1" stop-color="#DB9A38"/>
</linearGradient>
<linearGradient id="paint21_linear_230_9122" x1="55.515" y1="50.155" x2="56.455" y2="45.3275" gradientUnits="userSpaceOnUse">
<stop stop-color="#65D2DC"/>
<stop offset="1" stop-color="#DB9A38"/>
</linearGradient>
<linearGradient id="paint22_linear_230_9122" x1="58.0734" y1="52.8906" x2="59.2587" y2="48.7297" gradientUnits="userSpaceOnUse">
<stop stop-color="#65D2DC"/>
<stop offset="1" stop-color="#DB9A38"/>
</linearGradient>
<linearGradient id="paint23_linear_230_9122" x1="60.4813" y1="55.1882" x2="61.6731" y2="52.6888" gradientUnits="userSpaceOnUse">
<stop stop-color="#65D2DC"/>
<stop offset="1" stop-color="#DB9A38"/>
</linearGradient>
<linearGradient id="paint24_linear_230_9122" x1="49.3469" y1="60.0454" x2="50.7283" y2="55.6753" gradientUnits="userSpaceOnUse">
<stop stop-color="#65D2DC"/>
<stop offset="1" stop-color="#DB9A38"/>
</linearGradient>
<linearGradient id="paint25_linear_230_9122" x1="11.3791" y1="79.471" x2="40.0529" y2="-2.5301" gradientUnits="userSpaceOnUse">
<stop stop-color="#65D2DC"/>
<stop offset="1" stop-color="#DB9A38"/>
</linearGradient>
</defs>
</svg>
