<svg width="103" height="50" viewBox="0 0 103 50" fill="none" xmlns="http://www.w3.org/2000/svg">
<path d="M97.7635 12.9132H94.2717C93.5441 5.7061 87.5792 0 80.3052 0H22.4044C15.1304 0 9.31173 5.7061 8.43781 12.9132H4.94604C2.18167 12.9132 0 15.1651 0 18.0181V31.9819C0 34.835 2.18178 37.0868 4.94604 37.0868H8.43781C9.16541 44.2939 15.1304 50 22.4044 50H36.5159C39.134 50 41.6082 48.9484 43.6446 46.8462C45.6813 44.7442 48.4454 43.5429 51.5 43.5429C54.5556 43.5429 57.1737 44.7442 59.3554 46.8462C61.392 48.7986 63.865 50 66.4841 50H80.5956C87.8696 50 93.6883 44.2939 94.5622 37.0868H98.054C100.818 37.0868 103 34.8349 103 31.9819V18.0181C102.709 15.3159 100.528 12.9132 97.7635 12.9132ZM99.3638 32.1328C99.3638 33.0336 98.6362 33.7846 97.7635 33.7846H94.4177V16.3665H97.7635C98.6362 16.3665 99.3638 17.1175 99.3638 18.0182V32.1328ZM80.3063 46.547H66.1948C64.4493 46.547 62.703 45.796 61.394 44.4449C58.6296 41.7427 55.1389 40.2406 51.2107 40.2406C47.2824 40.2406 43.7915 41.7426 41.0273 44.4449C39.7183 45.7961 37.9718 46.547 36.2265 46.547H22.115C16.1501 46.547 11.3493 41.5919 11.3493 35.4354V14.5651C11.3493 8.40859 16.1501 3.45353 22.115 3.45353H80.0159C85.9808 3.45353 90.7816 8.40859 90.7816 14.5651V35.5861C91.0718 41.5928 86.2702 46.547 80.3063 46.547ZM3.34764 32.1328V18.1691C3.34764 17.2683 4.07524 16.5174 4.94797 16.5174H8.29373V33.9354H4.94797C4.07524 33.7846 3.34764 33.0336 3.34764 32.1328Z" fill="url(#paint0_linear_230_9118)"/>
<path d="M97.7635 12.9132H94.2717C93.5441 5.7061 87.5792 0 80.3052 0H22.4044C15.1304 0 9.31173 5.7061 8.43781 12.9132H4.94604C2.18167 12.9132 0 15.1651 0 18.0181V31.9819C0 34.835 2.18178 37.0868 4.94604 37.0868H8.43781C9.16541 44.2939 15.1304 50 22.4044 50H36.5159C39.134 50 41.6082 48.9484 43.6446 46.8462C45.6813 44.7442 48.4454 43.5429 51.5 43.5429C54.5556 43.5429 57.1737 44.7442 59.3554 46.8462C61.392 48.7986 63.865 50 66.4841 50H80.5956C87.8696 50 93.6883 44.2939 94.5622 37.0868H98.054C100.818 37.0868 103 34.8349 103 31.9819V18.0181C102.709 15.3159 100.528 12.9132 97.7635 12.9132ZM99.3638 32.1328C99.3638 33.0336 98.6362 33.7846 97.7635 33.7846H94.4177V16.3665H97.7635C98.6362 16.3665 99.3638 17.1175 99.3638 18.0182V32.1328ZM80.3063 46.547H66.1948C64.4493 46.547 62.703 45.796 61.394 44.4449C58.6296 41.7427 55.1389 40.2406 51.2107 40.2406C47.2824 40.2406 43.7915 41.7426 41.0273 44.4449C39.7183 45.7961 37.9718 46.547 36.2265 46.547H22.115C16.1501 46.547 11.3493 41.5919 11.3493 35.4354V14.5651C11.3493 8.40859 16.1501 3.45353 22.115 3.45353H80.0159C85.9808 3.45353 90.7816 8.40859 90.7816 14.5651V35.5861C91.0718 41.5928 86.2702 46.547 80.3063 46.547ZM3.34764 32.1328V18.1691C3.34764 17.2683 4.07524 16.5174 4.94797 16.5174H8.29373V33.9354H4.94797C4.07524 33.7846 3.34764 33.0336 3.34764 32.1328Z" stroke="black"/>
<defs>
<linearGradient id="paint0_linear_230_9118" x1="14.8175" y1="50" x2="24.3283" y2="-6.29331" gradientUnits="userSpaceOnUse">
<stop stop-color="#65D2DC"/>
<stop offset="1" stop-color="#DB9A38"/>
</linearGradient>
</defs>
</svg>
