<svg width="67" height="103" viewBox="0 0 67 103" fill="none" xmlns="http://www.w3.org/2000/svg">
<path d="M53.7789 45.4106L66.4932 11.3495C67.5081 8.53184 66.9766 5.37801 65.0972 3.06494C63.2171 0.752634 60.2724 -0.372443 57.3603 0.110091C54.4481 0.593378 52.0069 2.61097 50.9475 5.41121L41.6315 30.3447L41.0711 28.8413C40.478 27.2655 39.4289 25.9106 38.0641 24.9525C36.6985 23.9934 35.08 23.4777 33.4216 23.4717H7.06757C5.28756 23.4717 3.64321 24.4367 2.75291 26.005C1.86328 27.5725 1.86328 29.5034 2.75291 31.0716C3.64329 32.6391 5.28754 33.6049 7.06757 33.6049H32.1899L35.1643 41.5825C33.4947 42.4571 31.5739 42.7029 29.7428 42.2762L20.5699 40.0807C16.1974 39.0334 11.6728 38.8246 7.22546 39.4654C5.02732 39.7587 3.03606 40.9326 1.69406 42.727C0.352067 44.5213 -0.228306 46.787 0.0816002 49.0188C0.391487 51.2512 1.5658 53.2651 3.34369 54.611C5.12148 55.9576 7.35525 56.5253 9.54674 56.1876C11.9533 55.8392 14.4027 55.9523 16.7684 56.5208L26.3157 58.8053V64.4307L24.4297 64.4315C22.7298 64.4315 21.1596 65.3535 20.3092 66.8501C19.4596 68.3475 19.4596 70.1916 20.3092 71.689C21.1595 73.1863 22.7298 74.1084 24.4297 74.1084H26.315V75.789C26.3157 76.3582 26.1645 76.9161 25.8768 77.4047C25.5892 77.8933 25.177 78.2929 24.684 78.5613L7.53181 87.9255C5.88154 88.8258 4.8296 90.553 4.77172 92.4561C3.69673 93.3337 2.96502 94.5718 2.70776 95.9485C2.44976 97.3253 2.68404 98.7511 3.36758 99.9678C4.05038 101.185 5.13795 102.114 6.43533 102.589C7.73196 103.063 9.15235 103.052 10.4416 102.556C11.7301 102.061 12.8035 101.114 13.4678 99.8864C14.132 98.6582 14.3433 97.2294 14.0646 95.8572L24.4726 90.1603C24.8596 89.9476 25.3288 89.9574 25.7062 90.1866C26.0843 90.4166 26.3156 90.8313 26.3148 91.2784V93.4936C26.3148 93.6557 26.3549 93.8132 26.369 93.9746C25.8018 94.8974 25.4994 95.9629 25.4949 97.0509C25.4949 99.162 26.6025 101.112 28.3996 102.167C30.1967 103.222 32.4112 103.222 34.2081 102.167C36.0052 101.112 37.1128 99.162 37.1128 97.0509C37.1084 95.9697 36.8088 94.9103 36.2476 93.9912C36.2543 93.8841 36.2788 93.7824 36.2788 93.673V91.2785C36.2788 90.8314 36.5101 90.4167 36.8874 90.1868C37.2655 89.9576 37.7341 89.9478 38.1211 90.1604L48.5387 95.8618C48.2504 97.2431 48.4587 98.6831 49.1244 99.9226C49.7894 101.162 50.8696 102.117 52.1684 102.617C53.4666 103.117 54.8982 103.128 56.2037 102.647C57.5093 102.166 58.6021 101.226 59.2855 99.9966C59.9683 98.7677 60.1959 97.33 59.9275 95.9449C59.6584 94.5591 58.9111 93.3182 57.8199 92.4442C57.7918 91.5108 57.5212 90.6015 57.0371 89.8076C56.5529 89.0145 55.8716 88.3646 55.0621 87.9242L37.9077 78.533C37.4154 78.2638 37.004 77.8635 36.7171 77.3756C36.4309 76.8871 36.2797 76.3291 36.2797 75.7607V74.108H38.1649C39.8649 74.108 41.4358 73.1859 42.2854 71.6886C43.135 70.1919 43.135 68.3471 42.2854 66.8505C41.4358 65.3531 39.8649 64.4311 38.1649 64.4311H36.2789V59.6343C40.1829 59.0801 43.8682 57.4667 46.9471 54.9635C50.0268 52.4611 52.3866 49.1608 53.7789 45.4106ZM33.3367 30.2273H7.06805C6.15099 30.2273 5.40739 29.4711 5.40739 28.5385C5.40739 27.6058 6.15099 26.8496 7.06805 26.8496H33.4221C34.4074 26.8534 35.3682 27.1595 36.1792 27.7287C36.9902 28.298 37.6122 29.1032 37.9651 30.0389L42.9746 43.4759C43.28 44.3558 42.8263 45.3209 41.9619 45.6315C41.0967 45.9422 40.1478 45.4807 39.8423 44.6009L34.8908 31.3169C34.6461 30.661 34.0269 30.2266 33.3367 30.2273ZM9.0836 52.8447C7.89446 53.0106 6.686 52.7339 5.68145 52.0658C4.6769 51.3978 3.94371 50.383 3.61598 49.209L5.22176 48.8268C5.66955 48.7258 5.95275 48.2756 5.8534 47.8195C5.7548 47.3641 5.31146 47.0768 4.86369 47.1771L3.41285 47.5232C3.48179 46.3561 3.94589 45.2501 4.72507 44.3912C5.50498 43.5324 6.55252 42.9737 7.69052 42.8109C11.7294 42.2258 15.8402 42.415 19.8102 43.3703L28.9823 45.5658C31.457 46.1517 34.0548 45.8734 36.356 44.7764L36.7289 45.7769C37.3257 47.4688 38.7594 48.7113 40.4966 49.0423C42.2336 49.3733 44.0128 48.7423 45.1709 47.3844C46.3289 46.0273 46.6922 44.147 46.125 42.4444C46.1843 42.4625 46.2459 42.4738 46.3081 42.4783C46.6521 42.4783 46.9613 42.2619 47.0836 41.934L48.2661 38.7658C48.3484 38.5555 48.3439 38.321 48.2542 38.1137C48.1645 37.9071 47.997 37.745 47.7894 37.6651C47.5818 37.5844 47.3505 37.5919 47.1488 37.6862C46.9465 37.7804 46.79 37.9531 46.7137 38.1657L45.629 41.0715L43.4049 35.1047L54.0545 6.60623C54.698 4.93923 56.1593 3.74191 57.8978 3.45624C59.6363 3.17049 61.3933 3.83926 62.5201 5.21524C63.6468 6.59121 63.9761 8.47003 63.3852 10.1574L50.6709 44.2185C49.0777 48.5175 46.0025 52.0815 42.0169 54.2453C38.0321 56.4092 33.4096 57.0259 29.0105 55.981L17.5298 53.2336C14.7631 52.5701 11.8978 52.4383 9.0836 52.8447ZM8.37782 99.581C7.37178 99.581 6.46513 98.965 6.07967 98.0196C5.69491 97.0749 5.90767 95.987 6.61863 95.2639C7.32959 94.5401 8.39938 94.3237 9.329 94.715C10.2579 95.1063 10.8644 96.0284 10.8644 97.0509C10.8629 98.4472 9.75016 99.5789 8.37782 99.581ZM31.3043 99.581C30.299 99.581 29.3916 98.9643 29.0067 98.0196C28.622 97.0741 28.8347 95.987 29.5457 95.2632C30.2574 94.5401 31.3264 94.3237 32.2561 94.715C33.185 95.1063 33.7914 96.0284 33.7914 97.0509C33.7899 98.448 32.678 99.5797 31.3043 99.581ZM54.2308 99.581C53.2248 99.581 52.3173 98.965 51.9326 98.0196C51.5479 97.0749 51.7599 95.987 52.4716 95.2639C53.1826 94.5401 54.2524 94.3237 55.1812 94.715C56.1109 95.1063 56.7166 96.0284 56.7173 97.0509C56.7151 98.4472 55.6037 99.5789 54.2308 99.581ZM36.3314 81.5063L53.4874 90.8991C53.6216 90.9782 53.7461 91.074 53.8588 91.1833C52.448 91.267 51.1165 91.8732 50.1156 92.8873L39.695 87.1843C38.2783 86.4092 36.5658 86.4484 35.1845 87.2868C33.8034 88.126 32.9576 89.6422 32.9576 91.2784V91.4186C31.8796 91.0529 30.7135 91.0537 29.6362 91.4224V91.2784C29.637 89.6423 28.7911 88.1261 27.41 87.2868C26.0281 86.4477 24.3148 86.4085 22.8982 87.1843L12.4873 92.8826C11.4835 91.8678 10.1491 91.2624 8.73595 91.1817C8.84789 91.0724 8.9717 90.9781 9.10588 90.899L26.255 81.5378C27.2781 80.9814 28.1321 80.1513 28.7282 79.1387C29.3235 78.1261 29.6378 76.968 29.6363 75.7881V74.1076H32.9576V75.7603C32.9569 76.9387 33.2705 78.0953 33.8643 79.1071C34.4589 80.1189 35.3113 80.9483 36.3314 81.5063ZM39.6002 69.2688C39.6002 70.0755 38.9574 70.7292 38.1641 70.73H24.4305C23.6372 70.73 22.9944 70.0763 22.9944 69.2688C22.9944 68.4621 23.6372 67.8084 24.4305 67.8084H38.1641C38.9574 67.8091 39.6002 68.4621 39.6002 69.2688ZM29.6362 64.4315V59.5156C30.7335 59.7109 31.8441 59.8202 32.9576 59.8428V64.4314L29.6362 64.4315ZM57.353 9.66386L57.9416 8.08356C58.1033 7.64703 58.5829 7.42687 59.0122 7.59198C59.4407 7.7571 59.6572 8.24415 59.4955 8.68069L58.9069 10.261C58.7846 10.589 58.4747 10.8061 58.13 10.8069C58.0291 10.8061 57.9298 10.788 57.8356 10.7518C57.4064 10.5867 57.1906 10.0997 57.353 9.66386ZM48.487 33.4142L49.6695 30.2476C49.7451 30.0342 49.9008 29.8601 50.1032 29.7651C50.3056 29.6701 50.5376 29.6618 50.746 29.7425C50.9543 29.8231 51.1226 29.986 51.2115 30.1941C51.3012 30.4014 51.3042 30.6374 51.2212 30.8478L50.0387 34.0143C49.9164 34.3423 49.6072 34.5587 49.2617 34.5587C49.1616 34.5587 49.0616 34.5398 48.9674 34.5044C48.7621 34.4245 48.5952 34.2654 48.5048 34.0603C48.4151 33.856 48.4084 33.6238 48.487 33.4142ZM54.3986 17.578L55.581 14.4114C55.6574 14.1995 55.8138 14.0269 56.0162 13.9334C56.2179 13.8399 56.4484 13.8324 56.656 13.9123C56.8628 13.993 57.0304 14.1543 57.1201 14.3609C57.2098 14.5667 57.2143 14.8012 57.1327 15.0116L55.9502 18.1781C55.8272 18.5054 55.5195 18.7225 55.1748 18.7225C55.074 18.7217 54.9746 18.7036 54.8804 18.6675C54.6744 18.5883 54.5076 18.4292 54.4171 18.2241C54.3259 18.0198 54.32 17.7884 54.3986 17.578ZM51.4428 25.496L52.6253 22.3294C52.7009 22.116 52.8573 21.9426 53.0597 21.8476C53.2621 21.7534 53.4934 21.7451 53.7017 21.8258C53.9101 21.9064 54.0776 22.0686 54.1673 22.2766C54.2563 22.484 54.26 22.7192 54.1769 22.9296L52.9945 26.0961C52.8721 26.4241 52.5637 26.6405 52.219 26.6405C52.1182 26.6397 52.0188 26.6217 51.9247 26.5862C51.7186 26.5063 51.5518 26.3472 51.4613 26.1429C51.3709 25.9378 51.3649 25.7056 51.4428 25.496ZM21.0121 48.9066C20.9461 49.3145 20.5999 49.6139 20.1929 49.6146C20.1484 49.6146 20.1031 49.6108 20.0587 49.6025L18.0756 49.2731C17.8583 49.2369 17.6641 49.1147 17.5351 48.933C17.4061 48.7506 17.3542 48.5244 17.3898 48.3035C17.4224 48.0811 17.5425 47.882 17.7219 47.7508C17.9021 47.6196 18.126 47.5684 18.3432 47.6076L20.3255 47.937C20.5435 47.9732 20.7377 48.0954 20.8667 48.2771C20.995 48.4595 21.0476 48.6857 21.0121 48.9066ZM14.1248 47.686C14.0766 48.1127 13.7222 48.4347 13.3012 48.4354C13.2693 48.4354 13.2382 48.4339 13.2063 48.4309C12.2729 48.3223 11.3343 48.2665 10.3951 48.2673L9.99552 48.2703C9.77088 48.2891 9.54921 48.2077 9.38761 48.0479C9.22673 47.888 9.14147 47.6641 9.15481 47.4357C9.15259 47.2117 9.2371 46.9961 9.39131 46.8355C9.54477 46.6757 9.75532 46.5837 9.9755 46.5814L10.3951 46.5784C11.3967 46.5784 12.3983 46.6357 13.394 46.7511C13.6126 46.7767 13.8128 46.889 13.95 47.0647C14.0871 47.2404 14.15 47.4635 14.1248 47.686Z" fill="url(#paint0_linear_230_9114)"/>
<defs>
<linearGradient id="paint0_linear_230_9114" x1="9.63859" y1="103" x2="59.2524" y2="10.2712" gradientUnits="userSpaceOnUse">
<stop stop-color="#65D2DC"/>
<stop offset="1" stop-color="#DB9A38"/>
</linearGradient>
</defs>
</svg>
