<svg width="68" height="68" viewBox="0 0 68 68" fill="none" xmlns="http://www.w3.org/2000/svg">
<path fill-rule="evenodd" clip-rule="evenodd" d="M34 68C52.7777 68 68 52.7777 68 34C68 15.2223 52.7777 0 34 0C15.2223 0 0 15.2223 0 34C0 52.7777 15.2223 68 34 68ZM40.6539 17.5852C40.6539 20.1175 38.894 22.1704 36.723 22.1704C34.5521 22.1704 32.7922 20.1175 32.7922 17.5852C32.7922 15.0529 34.5521 13 36.723 13C38.894 13 40.6539 15.0529 40.6539 17.5852ZM38.5963 31.1809H36.7222V26.3291C36.7222 25.6894 36.4936 25.0494 36.0823 24.6763L31.0543 19.9844C30.7342 19.6646 30.3229 19.5046 29.866 19.5046H23.6041C22.9642 19.3979 22.3242 19.6646 21.8671 20.2511L17.8906 25.5827C17.1592 26.5422 17.2507 27.9818 18.0733 28.7819C18.8958 29.635 20.13 29.5283 20.8159 28.5688L24.1984 24.0367H28.1749C28.1749 24.0367 21.6843 33.2603 21.6388 33.4203C21.4561 33.7937 21.3187 34.1667 21.3187 34.6464V42.0574H14.9653C13.8682 42.0574 13 43.0705 13 44.3498C12.9997 45.6299 13.8682 46.6426 14.9653 46.6426H23.2841C24.3812 46.6426 25.2494 45.6295 25.2494 44.3502L25.2497 37.3123L31.7858 45.5764V51.7076C31.7858 52.9873 32.6543 54 33.7511 54C34.8482 54 35.7164 52.9869 35.7164 51.7076C35.7164 51.7076 35.6708 44.83 35.6708 44.6696C35.6708 44.0831 35.5337 43.4967 35.168 43.07L29.2259 35.6059L32.8366 29.8478V33.3668C32.8366 34.0064 33.0652 34.5929 33.4309 35.0195C33.7966 35.446 34.2995 35.7127 34.8478 35.7127H38.6416C39.7386 35.7127 40.6068 34.6996 40.6068 33.4203C40.5616 32.1941 39.6932 31.1809 38.5963 31.1809ZM43.2588 27.9818H49.3836V25.6363L54 31.181L49.3836 36.7257V34.3801H43.2588V27.9818Z" fill="#FFFDFB" fill-opacity="0.99"/>
</svg>
