<svg width="105" height="106" viewBox="0 0 105 106" fill="none" xmlns="http://www.w3.org/2000/svg">
<path d="M66.1311 38.0145C65.3346 37.681 64.481 37.509 63.6187 37.5085C61.8773 37.5073 60.2068 38.2042 58.9746 39.4459C57.7425 40.6876 57.0496 42.3724 57.0485 44.1296C57.0473 45.8867 57.738 47.5724 58.9685 48.8157C60.1991 50.059 61.8687 50.7582 63.6101 50.7593C64.4723 50.7599 65.3263 50.5891 66.1231 50.2567C66.9199 49.9242 67.6441 49.4367 68.2542 48.8218C68.8643 48.207 69.3484 47.477 69.6789 46.6734C70.0094 45.8697 70.1798 45.0083 70.1803 44.1382C70.1809 43.2682 70.0116 42.4065 69.6822 41.6025C69.3527 40.7984 68.8696 40.0677 68.2603 39.4521C67.651 38.8365 66.9274 38.3479 66.1311 38.0145Z" fill="#FFB13C"/>
<path fill-rule="evenodd" clip-rule="evenodd" d="M104.014 52.8591C104.014 81.6711 80.8669 105.028 52.3136 105.028C23.7603 105.028 0.613281 81.6711 0.613281 52.8591C0.613281 24.0471 23.7603 0.69043 52.3136 0.69043C80.8669 0.69043 104.014 24.0471 104.014 52.8591ZM19.2642 63.0016C21.4261 70.1332 25.7999 76.3761 31.7417 80.8112C37.6836 85.2464 44.8796 87.6395 52.2705 87.6382C71.3307 87.6382 86.7804 72.0659 86.7804 52.8591C86.7804 33.6523 71.3307 18.08 52.2748 18.08C43.5257 18.0766 35.1022 21.4282 28.71 27.4561C22.3179 33.4841 18.4346 41.7379 17.8467 50.5463L17.8596 50.5724L36.4028 58.2629C38.0752 57.1457 40.056 56.5931 42.0597 56.6848L50.5041 44.3208L50.4998 44.1469C50.5032 40.6402 51.8849 37.278 54.3419 34.7979C56.7989 32.3178 60.1305 30.9224 63.6058 30.9178C67.0811 30.9224 70.4126 32.3178 72.8696 34.7979C75.3266 37.278 76.7084 40.6402 76.7118 44.1469C76.7105 45.9091 76.3607 47.6532 75.6831 49.2772C75.0054 50.9013 74.0134 52.3725 72.7652 53.6049C71.5171 54.8373 70.0377 55.806 68.4139 56.4543C66.7901 57.1025 65.0544 57.4174 63.3085 57.3804L51.2279 66.0752C51.2688 67.6857 50.9102 69.2811 50.1844 70.7161C49.4586 72.1512 48.3889 73.3803 47.0724 74.2919C45.7559 75.2034 44.2344 75.7684 42.6464 75.9354C41.0584 76.1024 39.4542 75.8662 37.9797 75.2482C36.5645 74.6531 35.312 73.723 34.3282 72.5366C33.3443 71.3501 32.658 69.942 32.3271 68.4315L19.2685 63.0016H19.2642ZM44.3714 73.1027C42.6061 73.868 40.6148 73.9093 38.8198 73.2179V73.2136C37.1496 72.5117 35.796 71.2109 35.0198 69.5618L39.2851 71.3442C39.9442 71.6211 40.651 71.7643 41.3649 71.7656C42.0789 71.7668 42.7861 71.6262 43.4463 71.3517C44.1064 71.0772 44.7064 70.6742 45.2122 70.1657C45.7179 69.6572 46.1195 69.0531 46.3939 68.388C46.6683 67.7229 46.8102 67.0097 46.8115 66.2893C46.8127 65.5689 46.6734 64.8552 46.4013 64.1891C46.1293 63.523 45.7299 62.9175 45.2259 62.4072C44.722 61.8969 44.1233 61.4917 43.4642 61.2148L39.0568 59.3715C40.8147 58.6964 42.7623 58.7276 44.4982 59.4584C46.249 60.257 47.6226 61.7123 48.3278 63.5157C49.0331 65.3191 49.0144 67.3288 48.2758 69.1186C47.5372 70.9083 46.1367 72.3374 44.3714 73.1027ZM57.4313 50.3799C55.794 48.7262 54.8739 46.4845 54.8727 44.1469C54.8762 41.8109 55.7973 39.5715 57.4344 37.9196C59.0714 36.2678 61.2907 35.3382 63.6058 35.3348C65.9209 35.3382 68.1402 36.2678 69.7772 37.9196C71.4142 39.5715 72.3354 41.8109 72.3388 44.1469C72.3377 46.4845 71.4175 48.7262 69.7802 50.3799C68.143 52.0336 65.9224 52.9643 63.6058 52.9678C61.2892 52.9643 59.0686 52.0336 57.4313 50.3799Z" fill="#FFB13C"/>
</svg>
