<svg width="52" height="40" viewBox="0 0 52 40" fill="none" xmlns="http://www.w3.org/2000/svg">
<path d="M16.4493 0.74707H9.17896C6.82225 0.74707 4.56206 1.69175 2.89561 3.37329C1.22917 5.05484 0.292969 7.3355 0.292969 9.71356V17.0498H7.62148C6.9103 15.8066 6.62548 14.3614 6.81121 12.9382C6.99694 11.5151 7.64283 10.1935 8.64873 9.17853C9.65462 8.16352 10.9643 7.51178 12.3747 7.32437C13.785 7.13695 15.2173 7.42435 16.4493 8.14198V0.74707ZM19.6806 13.7892V17.0498H22.9118C23.5509 17.0498 24.1757 16.8586 24.707 16.5003C25.2384 16.142 25.6526 15.6328 25.8971 15.037C26.1417 14.4412 26.2057 13.7856 26.081 13.1531C25.9563 12.5207 25.6486 11.9397 25.1967 11.4837C24.7448 11.0277 24.169 10.7172 23.5422 10.5913C22.9154 10.4655 22.2657 10.5301 21.6753 10.7769C21.0849 11.0237 20.5802 11.4416 20.2251 11.9778C19.8701 12.514 19.6806 13.1444 19.6806 13.7892ZM28.5084 17.0498C29.2196 15.8066 29.5044 14.3614 29.3187 12.9382C29.1329 11.5151 28.4871 10.1935 27.4812 9.17853C26.4753 8.16352 25.1656 7.51178 23.7552 7.32437C22.3448 7.13695 20.9126 7.42435 19.6806 8.14198V0.74707H43.1073C45.464 0.74707 47.7242 1.69175 49.3906 3.37329C51.0571 5.05484 51.9933 7.3355 51.9933 9.71356V17.0498H28.5084ZM21.9651 20.3103L27.287 25.6772C27.5904 25.9833 27.7608 26.3985 27.7608 26.8314C27.7608 27.2643 27.5904 27.6795 27.287 27.9856C26.9836 28.2918 26.5721 28.4637 26.1431 28.4637C25.7141 28.4637 25.3026 28.2918 24.9992 27.9856L19.6806 22.6155V39.8736H43.1073C45.464 39.8736 47.7242 38.9289 49.3906 37.2474C51.0571 35.5658 51.9933 33.2851 51.9933 30.9071V20.3103H21.9651ZM16.4493 39.8736V22.6155L11.1306 27.9856C10.8273 28.2918 10.4158 28.4637 9.98677 28.4637C9.55774 28.4637 9.14628 28.2918 8.8429 27.9856C8.53953 27.6795 8.3691 27.2643 8.3691 26.8314C8.3691 26.3985 8.53953 25.9833 8.8429 25.6772L14.1648 20.3103H0.292969V30.9071C0.292969 33.2851 1.22917 35.5658 2.89561 37.2474C4.56206 38.9289 6.82225 39.8736 9.17896 39.8736H16.4493ZM16.4493 13.7892C16.4493 13.1444 16.2598 12.514 15.9047 11.9778C15.5497 11.4416 15.045 11.0237 14.4546 10.7769C13.8642 10.5301 13.2145 10.4655 12.5877 10.5913C11.9608 10.7172 11.3851 11.0277 10.9332 11.4837C10.4813 11.9397 10.1735 12.5207 10.0489 13.1531C9.92418 13.7856 9.98817 14.4412 10.2327 15.037C10.4773 15.6328 10.8915 16.142 11.4228 16.5003C11.9542 16.8586 12.579 17.0498 13.218 17.0498H16.4493V13.7892Z" fill="#FFFDFB" fill-opacity="0.99"/>
</svg>
