<svg width="148" height="148" viewBox="0 0 148 148" fill="none" xmlns="http://www.w3.org/2000/svg">
<path fill-rule="evenodd" clip-rule="evenodd" d="M73.9938 147.582C114.579 147.582 147.481 114.678 147.481 74.0885C147.481 33.4989 114.579 0.594482 73.9938 0.594482C33.4081 0.594482 0.506836 33.4989 0.506836 74.0885C0.506836 114.678 33.4081 147.582 73.9938 147.582ZM71.4938 25.0925V34.9202C51.8418 36.1615 36.0701 51.9316 34.829 71.5885H25.0025V76.5885H34.829C36.0701 96.2454 51.8418 112.016 71.4938 113.257V123.084H76.4938V113.257C96.1457 112.016 111.917 96.2454 113.159 76.5885H122.985V71.5885H113.159C111.917 51.9316 96.1457 36.1615 76.4938 34.9202V25.0925H71.4938ZM39.8406 71.5885C41.0655 54.6936 54.6039 41.157 71.4938 39.9318V51.3089C60.8504 52.4685 52.3755 60.9444 51.2161 71.5885H39.8406ZM56.2547 71.5885C57.3603 63.708 63.6144 57.4533 71.4938 56.3475V71.5885H56.2547ZM76.4938 56.3475V71.5885H91.7328C90.6272 63.708 84.3731 57.4533 76.4938 56.3475ZM56.2547 76.5885H71.4938V91.8295C63.6144 90.7236 57.3603 84.469 56.2547 76.5885ZM76.4938 76.5885V91.8295C84.3731 90.7236 90.6272 84.469 91.7328 76.5885H76.4938ZM51.2161 76.5885C52.3755 87.2325 60.8504 95.7084 71.4938 96.8681V108.245C54.6039 107.02 41.0655 93.4833 39.8406 76.5885H51.2161ZM76.4938 96.8681V108.245C93.3836 107.02 106.922 93.4833 108.147 76.5885H96.7714C95.612 87.2325 87.1372 95.7084 76.4938 96.8681ZM76.4938 39.9318C93.3836 41.157 106.922 54.6936 108.147 71.5885H96.7714C95.612 60.9444 87.1372 52.4685 76.4938 51.3089V39.9318Z" fill="#5EF0D0"/>
</svg>
