<svg width="79" height="59" viewBox="0 0 79 59" fill="none" xmlns="http://www.w3.org/2000/svg">
<path d="M9.63772 0.182617C4.86917 0.182617 0.992188 4.57244 0.992188 9.97177V49.1284C0.992188 54.5277 4.86917 58.9176 9.63772 58.9176H70.1565C74.925 58.9176 78.802 54.5277 78.802 49.1284V9.97177C78.802 4.57244 74.925 0.182617 70.1565 0.182617H9.63772ZM16.1219 24.6555H37.7357C38.9245 24.6555 39.8971 25.7568 39.8971 27.1028C39.8971 28.4488 38.9245 29.5501 37.7357 29.5501H16.1219C14.9331 29.5501 13.9605 28.4488 13.9605 27.1028C13.9605 25.7568 14.9331 24.6555 16.1219 24.6555ZM13.9605 41.7865C13.9605 40.4405 14.9331 39.3392 16.1219 39.3392H63.6723C64.8611 39.3392 65.8337 40.4405 65.8337 41.7865C65.8337 43.1325 64.8611 44.2338 63.6723 44.2338H16.1219C14.9331 44.2338 13.9605 43.1325 13.9605 41.7865ZM51.7847 14.8664H62.5916C64.3883 14.8664 65.8337 16.503 65.8337 18.5373V25.8792C65.8337 27.9135 64.3883 29.5501 62.5916 29.5501H51.7847C49.988 29.5501 48.5426 27.9135 48.5426 25.8792V18.5373C48.5426 16.503 49.988 14.8664 51.7847 14.8664Z" fill="#FFFDFB" fill-opacity="0.99"/>
</svg>
