<svg width="100" height="101" viewBox="0 0 100 101" fill="none" xmlns="http://www.w3.org/2000/svg">
<g filter="url(#filter0_d_309_11124)">
<path fill-rule="evenodd" clip-rule="evenodd" d="M50 0C24.5955 0 4 20.679 4 46.1867C4 71.6943 24.5955 92.3733 50 92.3733C75.4045 92.3733 96 71.6943 96 46.1867C96 20.679 75.4045 0 50 0ZM69.9389 38.3769C70.3061 37.9555 70.5856 37.4647 70.761 36.9332C70.9364 36.4018 71.0042 35.8405 70.9604 35.2824C70.9166 34.7242 70.762 34.1805 70.5059 33.6832C70.2497 33.1859 69.897 32.7451 69.4687 32.3867C69.0403 32.0283 68.5449 31.7595 68.0115 31.5961C67.4781 31.4328 66.9176 31.3782 66.363 31.4356C65.8083 31.493 65.2706 31.6612 64.7817 31.9302C64.2927 32.1993 63.8622 32.5639 63.5156 33.0025L45.5338 54.664L36.2293 45.3175C35.4406 44.5527 34.3842 44.1295 33.2878 44.139C32.1913 44.1486 31.1425 44.5902 30.3671 45.3687C29.5918 46.1472 29.152 47.2003 29.1425 48.3012C29.1329 49.4021 29.5544 50.4627 30.3162 51.2546L42.8616 63.851C43.2725 64.2633 43.7645 64.5851 44.3061 64.796C44.8477 65.0068 45.4272 65.102 46.0075 65.0755C46.5878 65.0491 47.1563 64.9015 47.6766 64.6422C48.197 64.3829 48.6578 64.0177 49.0298 63.5696L69.9389 38.3769Z" fill="#FFFDFB"/>
<path d="M63.1271 32.6877L45.5003 53.9216L36.5836 44.9648L36.5837 44.9647L36.5774 44.9586C35.6945 44.1024 34.5116 43.6283 33.2834 43.639C32.0552 43.6498 30.8807 44.1444 30.0129 45.0158C29.145 45.8872 28.6531 47.0655 28.6425 48.2968C28.6318 49.5282 29.1032 50.7149 29.9558 51.6012L29.9558 51.6013L29.9619 51.6074L42.5074 64.2038L42.5075 64.2039C42.9674 64.6654 43.5182 65.0258 44.1247 65.2619C44.7313 65.498 45.3803 65.6047 46.0303 65.575C46.6803 65.5454 47.3169 65.3801 47.8996 65.0898C48.4823 64.7994 48.9982 64.3905 49.4145 63.889L49.4146 63.889L70.3201 38.7005C70.7289 38.23 71.0402 37.6825 71.2358 37.09C71.4321 36.4954 71.5079 35.8675 71.4589 35.2432C71.4099 34.6189 71.237 34.0106 70.9503 33.4542C70.6637 32.8978 70.269 32.4044 69.7895 32.0032C69.31 31.602 68.7552 31.301 68.1579 31.1181C67.5606 30.9351 66.9328 30.874 66.3115 30.9383C65.6903 31.0025 65.0881 31.1909 64.5406 31.4922C63.9948 31.7925 63.5144 32.199 63.1271 32.6877ZM4.5 46.1867C4.5 20.9533 24.8735 0.5 50 0.5C75.1265 0.5 95.5 20.9533 95.5 46.1867C95.5 71.4201 75.1265 91.8733 50 91.8733C24.8735 91.8733 4.5 71.4201 4.5 46.1867Z" stroke="black"/>
</g>
<defs>
<filter id="filter0_d_309_11124" x="0" y="0" width="100" height="100.373" filterUnits="userSpaceOnUse" color-interpolation-filters="sRGB">
<feFlood flood-opacity="0" result="BackgroundImageFix"/>
<feColorMatrix in="SourceAlpha" type="matrix" values="0 0 0 0 0 0 0 0 0 0 0 0 0 0 0 0 0 0 127 0" result="hardAlpha"/>
<feOffset dy="4"/>
<feGaussianBlur stdDeviation="2"/>
<feComposite in2="hardAlpha" operator="out"/>
<feColorMatrix type="matrix" values="0 0 0 0 0.0627451 0 0 0 0 0.0862745 0 0 0 0 0.109804 0 0 0 0.5 0"/>
<feBlend mode="normal" in2="BackgroundImageFix" result="effect1_dropShadow_309_11124"/>
<feBlend mode="normal" in="SourceGraphic" in2="effect1_dropShadow_309_11124" result="shape"/>
</filter>
</defs>
</svg>
