<svg width="52" height="40" viewBox="0 0 52 40" fill="none" xmlns="http://www.w3.org/2000/svg">
<path d="M6.02573 0.181641C2.85729 0.181641 0.28125 3.10594 0.28125 6.70272V32.7871C0.28125 36.3838 2.85729 39.3081 6.02573 39.3081H46.2371C49.4055 39.3081 51.9815 36.3838 51.9815 32.7871V6.70272C51.9815 3.10594 49.4055 0.181641 46.2371 0.181641H6.02573ZM10.3341 16.4844H24.6953C25.4851 16.4844 26.1314 17.218 26.1314 18.1146C26.1314 19.0113 25.4851 19.7449 24.6953 19.7449H10.3341C9.54422 19.7449 8.89797 19.0113 8.89797 18.1146C8.89797 17.218 9.54422 16.4844 10.3341 16.4844ZM8.89797 27.8962C8.89797 26.9996 9.54422 26.266 10.3341 26.266H41.9287C42.7186 26.266 43.3648 26.9996 43.3648 27.8962C43.3648 28.7929 42.7186 29.5265 41.9287 29.5265H10.3341C9.54422 29.5265 8.89797 28.7929 8.89797 27.8962ZM34.0301 9.96327H41.2106C42.4044 9.96327 43.3648 11.0535 43.3648 12.4087V17.2995C43.3648 18.6546 42.4044 19.7449 41.2106 19.7449H34.0301C32.8363 19.7449 31.8759 18.6546 31.8759 17.2995V12.4087C31.8759 11.0535 32.8363 9.96327 34.0301 9.96327Z" fill="#FFFDFB" fill-opacity="0.99"/>
</svg>
