<svg width="146" height="148" viewBox="0 0 146 148" fill="none" xmlns="http://www.w3.org/2000/svg">
<path d="M92.4844 53.1756C91.3623 52.7058 90.1596 52.4635 88.9448 52.4627C86.4913 52.4611 84.1378 53.4429 82.4018 55.1922C80.6659 56.9415 79.6897 59.3149 79.6881 61.7904C79.6865 64.2658 80.6595 66.6405 82.3932 68.3921C84.1269 70.1437 86.4792 71.1286 88.9326 71.1302C90.1474 71.131 91.3505 70.8904 92.4731 70.4221C93.5958 69.9537 94.616 69.2669 95.4756 68.4008C96.3351 67.5346 97.0172 66.5061 97.4828 65.374C97.9484 64.2419 98.1885 63.0283 98.1893 61.8026C98.1901 60.5769 97.9516 59.363 97.4875 58.2303C97.0233 57.0975 96.3426 56.0681 95.4842 55.2009C94.6257 54.3336 93.6064 53.6454 92.4844 53.1756Z" fill="#FFB13C"/>
<path fill-rule="evenodd" clip-rule="evenodd" d="M145.857 74.0883C145.857 114.678 113.245 147.582 73.0172 147.582C32.7891 147.582 0.177734 114.678 0.177734 74.0883C0.177734 33.4987 32.7891 0.59436 73.0172 0.59436C113.245 0.59436 145.857 33.4987 145.857 74.0883ZM26.4546 88.3768C29.5004 98.4237 35.6626 107.219 44.034 113.467C52.4054 119.715 62.5437 123.086 72.9565 123.084C99.81 123.084 121.577 101.146 121.577 74.0884C121.577 47.0303 99.81 25.0924 72.9626 25.0924C60.6361 25.0875 48.7685 29.8092 39.7627 38.3012C30.7569 46.7933 25.2859 58.421 24.4576 70.8301L24.4758 70.8669L50.6009 81.7011C52.9571 80.1271 55.7478 79.3487 58.5707 79.4779L70.4678 62.0598L70.4617 61.8149C70.4666 56.8746 72.4133 52.138 75.8749 48.6441C79.3365 45.1503 84.0303 43.1845 88.9266 43.178C93.8228 43.1845 98.5166 45.1503 101.978 48.6441C105.44 52.138 107.387 56.8746 107.391 61.8149C107.389 64.2973 106.897 66.7544 105.942 69.0423C104.987 71.3302 103.59 73.4029 101.831 75.139C100.073 76.8751 97.9884 78.2398 95.7006 79.1531C93.4129 80.0664 90.9675 80.51 88.5077 80.4578L71.4876 92.7068C71.5453 94.9758 71.0399 97.2232 70.0175 99.2449C68.995 101.267 67.4878 102.998 65.633 104.282C63.7782 105.566 61.6346 106.362 59.3973 106.598C57.16 106.833 54.8998 106.5 52.8225 105.63C50.8286 104.791 49.0641 103.481 47.6779 101.809C46.2918 100.138 45.3248 98.1544 44.8587 96.0263L26.4606 88.3768H26.4546ZM61.8276 102.607C59.3405 103.685 56.535 103.743 54.0061 102.769V102.763C51.653 101.774 49.746 99.9419 48.6524 97.6187L54.6616 100.13C55.5903 100.52 56.586 100.721 57.5919 100.723C58.5978 100.725 59.5942 100.527 60.5242 100.14C61.4542 99.7536 62.2996 99.1858 63.0122 98.4694C63.7248 97.753 64.2905 96.902 64.6771 95.9651C65.0637 95.0281 65.2636 94.0234 65.2654 93.0085C65.2672 91.9936 65.0708 90.9882 64.6876 90.0498C64.3043 89.1114 63.7416 88.2584 63.0316 87.5395C62.3216 86.8205 61.4782 86.2497 60.5495 85.8596L54.3399 83.2629C56.8167 82.3118 59.5606 82.3557 62.0063 83.3853C64.4729 84.5103 66.4082 86.5605 67.4018 89.1011C68.3954 91.6418 68.369 94.4729 67.3284 96.9943C66.2878 99.5157 64.3147 101.529 61.8276 102.607ZM80.2275 70.5957C77.9208 68.2659 76.6244 65.108 76.6228 61.8149C76.6276 58.5238 77.9254 55.369 80.2318 53.0419C82.5381 50.7149 85.6649 49.4054 88.9266 49.4005C92.1882 49.4054 95.315 50.7149 97.6213 53.0419C99.9277 55.369 101.226 58.5238 101.23 61.8149C101.229 65.108 99.9323 68.2659 97.6256 70.5957C95.3189 72.9254 92.1903 74.2366 88.9266 74.2415C85.6628 74.2366 82.5342 72.9254 80.2275 70.5957Z" fill="#FFB13C"/>
</svg>
