<svg width="81" height="60" viewBox="0 0 81 60" fill="none" xmlns="http://www.w3.org/2000/svg">
<path d="M25.6932 0.513672H14.5566C10.9467 0.513672 7.48459 1.94772 4.93197 4.50033C2.37936 7.05295 0.945313 10.515 0.945312 14.125V25.2615H12.1709C11.0816 23.3743 10.6453 21.1805 10.9298 19.0201C11.2143 16.8597 12.2036 14.8536 13.7444 13.3128C15.2852 11.772 17.2914 10.7826 19.4517 10.4981C21.6121 10.2136 23.806 10.6499 25.6932 11.7393V0.513672ZM30.6427 20.3119V25.2615H35.5923C36.5712 25.2615 37.5282 24.9712 38.3421 24.4274C39.1561 23.8835 39.7905 23.1105 40.1651 22.2061C40.5397 21.3016 40.6377 20.3065 40.4468 19.3463C40.2558 18.3862 39.7844 17.5043 39.0922 16.8121C38.3999 16.1199 37.518 15.6485 36.5579 15.4575C35.5978 15.2665 34.6026 15.3645 33.6982 15.7391C32.7938 16.1138 32.0207 16.7482 31.4769 17.5621C30.933 18.3761 30.6427 19.333 30.6427 20.3119ZM44.1649 25.2615C45.2543 23.3743 45.6906 21.1805 45.4061 19.0201C45.1216 16.8597 44.1322 14.8536 42.5914 13.3128C41.0506 11.772 39.0445 10.7826 36.8841 10.4981C34.7238 10.2136 32.5299 10.6499 30.6427 11.7393V0.513672H66.5271C70.137 0.513672 73.5991 1.94772 76.1517 4.50033C78.7044 7.05295 80.1384 10.515 80.1384 14.125V25.2615H44.1649ZM34.1421 30.2111L42.294 38.3581C42.7587 38.8228 43.0198 39.453 43.0198 40.1102C43.0198 40.7674 42.7587 41.3977 42.294 41.8624C41.8293 42.3271 41.199 42.5881 40.5419 42.5881C39.8847 42.5881 39.2544 42.3271 38.7897 41.8624L30.6427 33.7104V59.9085H66.5271C70.137 59.9085 73.5991 58.4744 76.1517 55.9218C78.7044 53.3692 80.1384 49.9071 80.1384 46.2972V30.2111H34.1421ZM25.6932 59.9085V33.7104L17.5462 41.8624C17.0815 42.3271 16.4512 42.5881 15.794 42.5881C15.1368 42.5881 14.5066 42.3271 14.0419 41.8624C13.5772 41.3977 13.3161 40.7674 13.3161 40.1102C13.3161 39.453 13.5772 38.8228 14.0419 38.3581L22.1938 30.2111H0.945312V46.2972C0.945313 49.9071 2.37936 53.3692 4.93197 55.9218C7.48459 58.4744 10.9467 59.9085 14.5566 59.9085H25.6932ZM25.6932 20.3119C25.6932 19.333 25.4029 18.3761 24.859 17.5621C24.3151 16.7482 23.5421 16.1138 22.6377 15.7391C21.7333 15.3645 20.7381 15.2665 19.778 15.4575C18.8178 15.6485 17.9359 16.1199 17.2437 16.8121C16.5515 17.5043 16.0801 18.3862 15.8891 19.3463C15.6981 20.3065 15.7962 21.3016 16.1708 22.2061C16.5454 23.1105 17.1798 23.8835 17.9938 24.4274C18.8077 24.9712 19.7647 25.2615 20.7436 25.2615H25.6932V20.3119Z" fill="#FFFDFB" fill-opacity="0.99"/>
</svg>
