<svg width="79" height="79" viewBox="0 0 79 79" fill="none" xmlns="http://www.w3.org/2000/svg">
<mask id="mask0_309_10505" style="mask-type:alpha" maskUnits="userSpaceOnUse" x="5" y="5" width="70" height="69">
<path d="M60.9815 36.2873V60.7602M18.4598 60.7602V72.1809H60.9815V60.7602M18.4598 60.7602H7.01172V36.2873C7.01172 31.3927 10.2826 25.6824 15.189 21.6036C20.0953 17.5247 26.6371 16.709 26.6371 16.709L39.7207 29.7612M18.4598 60.7602V36.2873M60.9815 60.7602H72.4296V36.2873C72.4296 31.3927 69.1587 25.6824 64.2524 21.6036C59.346 17.5247 52.8042 16.709 52.8042 16.709L39.7207 29.7612M39.7207 29.7612V44.4449" stroke="white" stroke-width="3.33333" stroke-linecap="round" stroke-linejoin="round"/>
<path d="M15.1889 21.6037C20.0952 17.5248 26.637 16.7091 26.637 16.7091L39.7206 29.7613L52.8041 16.7091C52.8041 16.7091 59.3459 17.5248 64.2523 21.6037L67.5232 14.2618L64.2523 6.91992H15.1889L11.918 14.2618L15.1889 21.6037Z" fill="white" stroke="white" stroke-width="3.33333" stroke-linecap="round" stroke-linejoin="round"/>
</mask>
<g mask="url(#mask0_309_10505)">
<path d="M0.46875 0.393555H78.9702V78.7068H0.46875V0.393555Z" fill="#FFFDFB" fill-opacity="0.99"/>
</g>
</svg>
