<svg width="105" height="106" viewBox="0 0 105 106" fill="none" xmlns="http://www.w3.org/2000/svg">
<path fill-rule="evenodd" clip-rule="evenodd" d="M52.3097 105.028C80.8629 105.028 104.01 81.6711 104.01 52.8591C104.01 24.0471 80.8629 0.69043 52.3097 0.69043C23.7564 0.69043 0.609375 24.0471 0.609375 52.8591C0.609375 81.6711 23.7564 105.028 52.3097 105.028ZM49.8097 18.08V24.3848C36.1449 25.5928 25.2547 36.6075 24.067 50.3591H17.8428V55.3591H24.067C25.2547 69.1107 36.1449 80.1254 49.8097 81.3334V87.6382H54.8097V81.3334C68.4744 80.1254 79.3647 69.1107 80.5523 55.3591H86.7765V50.3591H80.5523C79.3647 36.6075 68.4744 25.5928 54.8097 24.3848V18.08H49.8097ZM29.0897 50.3591C30.2437 39.3422 38.9359 30.5853 49.8097 29.4092V36.0538C42.4894 37.153 36.7119 43.0041 35.6306 50.3591H29.0897ZM40.7076 50.3591C41.6778 45.7509 45.2735 42.126 49.8097 41.1365V50.3591H40.7076ZM54.8097 41.1365V50.3591H63.9117C62.9415 45.7509 59.3458 42.126 54.8097 41.1365ZM40.7076 55.3591H49.8097V64.5818C45.2735 63.5922 41.6778 59.9674 40.7076 55.3591ZM54.8097 55.3591V64.5818C59.3458 63.5922 62.9415 59.9674 63.9117 55.3591H54.8097ZM35.6306 55.3591C36.7119 62.7141 42.4894 68.5652 49.8097 69.6644V76.309C38.9359 75.133 30.2437 66.376 29.0897 55.3591H35.6306ZM54.8097 69.6644V76.309C65.6835 75.133 74.3756 66.376 75.5296 55.3591H68.9887C67.9074 62.7141 62.1299 68.5652 54.8097 69.6644ZM54.8097 29.4092C65.6835 30.5853 74.3756 39.3422 75.5296 50.3591H68.9887C67.9074 43.0041 62.1299 37.153 54.8097 36.0538V29.4092Z" fill="#5EF0D0"/>
</svg>
