<svg width="105" height="106" viewBox="0 0 105 106" fill="none" xmlns="http://www.w3.org/2000/svg">
<path d="M53.6948 23.9176C53.6948 23.1469 53.0735 22.5199 52.3097 22.5199C51.5459 22.5199 50.9245 23.1467 50.9244 23.9176C50.9244 23.9492 50.926 23.9808 50.9278 24.0119C50.9718 24.7405 51.579 25.3154 52.3095 25.3154C53.0402 25.3154 53.6471 24.7405 53.6917 24.0066C53.6932 23.9808 53.6948 23.9492 53.6948 23.9176Z" fill="#FF7B38"/>
<path d="M23.628 54.2568C23.6594 54.2568 23.6906 54.2553 23.7213 54.2534C24.4435 54.2088 25.0133 53.5963 25.0133 52.8591C25.0133 52.1226 24.4447 51.5109 23.7186 51.4647L23.7123 51.4643C23.6875 51.4629 23.6579 51.4614 23.628 51.4614C22.8643 51.4614 22.2428 52.0884 22.2428 52.8591C22.2428 53.6298 22.8642 54.2568 23.628 54.2568Z" fill="#FF7B38"/>
<path d="M50.9245 81.8006C50.9245 82.5713 51.5459 83.1983 52.3097 83.1983C53.0735 83.1983 53.6948 82.5715 53.6948 81.8006C53.6948 81.769 53.6933 81.7375 53.6914 81.7063C53.6473 80.9778 53.0402 80.4028 52.3097 80.4028C51.5791 80.4028 50.9721 80.9778 50.9276 81.7116C50.9261 81.7375 50.9245 81.769 50.9245 81.8006Z" fill="#FF7B38"/>
<path d="M49.1406 40.3737C50.2528 37.5369 51.5336 36.267 52.3097 36.267C53.0857 36.267 54.3664 37.5369 55.4785 40.3737C55.8379 41.2906 56.1507 42.2978 56.4175 43.3724C55.0793 43.2582 53.7049 43.1978 52.3095 43.1978C50.9143 43.1978 49.5401 43.2582 48.2015 43.3724C48.4685 42.2978 48.7811 41.2907 49.1406 40.3737Z" fill="#FF7B38"/>
<path d="M45.4529 37.7803C45.3161 38.0856 45.1811 38.4038 45.0491 38.7406C44.4316 40.3159 43.9308 42.1004 43.5536 44.0239C41.6474 44.4045 39.879 44.9098 38.3177 45.5329C37.9842 45.6661 37.6689 45.8023 37.3663 45.9404C39.0083 42.3437 41.8887 39.4372 45.4529 37.7803Z" fill="#FF7B38"/>
<path d="M35.8667 52.8591C35.8667 52.076 37.1251 50.7838 39.9365 49.6616C40.8451 49.2989 41.8433 48.9833 42.9083 48.714C42.7951 50.0644 42.7353 51.4512 42.7353 52.8592C42.7353 54.2673 42.7951 55.6538 42.9083 57.0045C41.8433 56.7351 40.8453 56.4196 39.9365 56.0569C37.1249 54.9344 35.8667 53.6422 35.8667 52.8591Z" fill="#FF7B38"/>
<path d="M37.3663 59.778C37.6688 59.916 37.9841 60.0523 38.3177 60.1854C39.879 60.8086 41.6474 61.3138 43.5536 61.6945C43.9308 63.6179 44.4316 65.4024 45.0491 66.9778C45.1811 67.3144 45.3161 67.6326 45.4529 67.938C41.8887 66.281 39.0083 63.3745 37.3663 59.778Z" fill="#FF7B38"/>
<path d="M55.4786 65.3445C54.3664 68.1813 53.0857 69.4512 52.3097 69.4512C51.5336 69.4512 50.2528 68.1813 49.1407 65.3445C48.7812 64.4277 48.4685 63.4204 48.2016 62.3458C49.5399 62.46 50.9143 62.5204 52.3097 62.5204C53.7049 62.5204 55.0791 62.46 56.4177 62.3458C56.1507 63.4204 55.8381 64.4275 55.4786 65.3445Z" fill="#FF7B38"/>
<path d="M57.2142 57.8079C55.6442 57.9867 53.9977 58.0806 52.3097 58.0806C50.6213 58.0806 48.975 57.9866 47.4051 57.8079C47.2281 56.2237 47.1349 54.5625 47.1349 52.859C47.1349 51.1553 47.2281 49.4941 47.4051 47.91C48.9751 47.7314 50.6216 47.6373 52.3097 47.6373C53.9979 47.6373 55.6443 47.7314 57.2142 47.91C57.3912 49.4942 57.4844 51.1555 57.4844 52.859C57.4844 54.5626 57.3914 56.2238 57.2142 57.8079Z" fill="#FF7B38"/>
<path d="M67.2531 45.9402C66.9505 45.8022 66.6351 45.6659 66.3015 45.5328C64.7402 44.9096 62.9718 44.4044 61.0656 44.0237C60.6883 42.1003 60.1876 40.3158 59.57 38.7404C59.4381 38.4038 59.3031 38.0856 59.1663 37.7802C62.7306 39.4372 65.611 42.3437 67.2531 45.9402Z" fill="#FF7B38"/>
<path d="M59.1664 67.9379C59.3032 67.6326 59.4382 67.3143 59.5702 66.9777C60.1878 65.4023 60.6885 63.6178 61.0657 61.6944C62.9719 61.3137 64.7404 60.8084 66.3016 60.1853C66.6352 60.0521 66.9505 59.9159 67.2532 59.7778C65.611 63.3745 62.7306 66.281 59.1664 67.9379Z" fill="#FF7B38"/>
<path d="M64.683 56.0566C63.7743 56.4193 62.7761 56.7349 61.7112 57.0042C61.8244 55.6538 61.8842 54.267 61.8842 52.859C61.8842 51.451 61.8244 50.0644 61.7112 48.7137C62.7761 48.9831 63.7742 49.2986 64.683 49.6613C67.4943 50.7835 68.7528 52.0758 68.7528 52.8588C68.7526 53.6419 67.4943 54.9344 64.683 56.0566Z" fill="#FF7B38"/>
<path fill-rule="evenodd" clip-rule="evenodd" d="M57.4262 79.0789C62.5435 78.0619 67.3212 75.5019 71.0351 71.7542C74.7493 68.0064 77.2863 63.1851 78.2939 58.0215C76.4521 57.038 75.206 55.0848 75.206 52.8592C75.206 50.633 76.4528 48.6791 78.2938 47.6963C77.2859 42.5327 74.7489 37.7117 71.0349 33.9641C67.3208 30.2163 62.5427 27.6562 57.4253 26.6393C56.4507 28.4978 54.515 29.7552 52.3094 29.7552C50.1031 29.7552 48.167 28.4971 47.1928 26.6395C42.0757 27.6565 37.298 30.2164 33.5839 33.9641C29.8697 37.712 27.3328 42.5332 26.3249 47.697C28.167 48.6803 29.413 50.6336 29.413 52.8592C29.413 55.0855 28.1662 57.0394 26.3252 58.0222C27.3333 63.1856 29.87 68.0066 33.5841 71.7542C37.2984 75.5022 42.0764 78.0621 47.1938 79.079C48.1684 77.2205 50.104 75.9632 52.3097 75.9632C54.5159 75.9632 56.4523 77.2212 57.4262 79.0789ZM52.3097 31.8272C40.8168 31.8272 31.4666 41.2622 31.4666 52.8591C31.4666 64.456 40.8168 73.891 52.3097 73.891C63.8025 73.891 73.1527 64.456 73.1527 52.8591C73.1527 41.2622 63.8025 31.8272 52.3097 31.8272Z" fill="#FF7B38"/>
<path d="M80.9032 54.2537C80.9287 54.2552 80.96 54.2568 80.9913 54.2568C81.7553 54.2568 82.3765 53.6297 82.3765 52.859C82.3765 52.0883 81.7551 51.4613 80.9913 51.4613C80.96 51.4613 80.9287 51.4628 80.8979 51.4647C80.1758 51.5092 79.6061 52.1217 79.6061 52.859C79.6061 53.5963 80.1758 54.2087 80.9032 54.2537Z" fill="#FF7B38"/>
<path fill-rule="evenodd" clip-rule="evenodd" d="M104.01 52.8591C104.01 81.6711 80.8629 105.028 52.3097 105.028C23.7564 105.028 0.609375 81.6711 0.609375 52.8591C0.609375 24.0471 23.7564 0.69043 52.3097 0.69043C80.8629 0.69043 104.01 24.0471 104.01 52.8591ZM74.1464 30.8244C78.5818 35.3001 81.5778 41.0903 82.6937 47.2798C85.0553 48.015 86.7765 50.2378 86.7765 52.8591C86.7765 55.4804 85.0553 57.7032 82.6938 58.4383C81.5779 64.6278 78.5818 70.4182 74.1466 74.8937C69.711 79.3692 63.9728 82.3924 57.8389 83.5184C57.1104 85.9014 54.9075 87.6382 52.3097 87.6382C49.712 87.6382 47.5091 85.9014 46.7806 83.5185C40.6467 82.3926 34.9083 79.3692 30.473 74.8939C26.0377 70.4181 23.0416 64.6279 21.9258 58.4384C19.564 57.7033 17.8428 55.4804 17.8428 52.8591C17.8428 50.2378 19.564 48.0149 21.9256 47.2799C23.0414 41.0905 26.0376 35.3 30.4729 30.8245C34.9083 26.349 40.6465 23.3258 46.7804 22.1998C47.5091 19.8168 49.712 18.08 52.3097 18.08C54.9075 18.08 57.1104 19.8168 57.8388 22.1997C63.9727 23.3257 69.7111 26.349 74.1464 30.8244Z" fill="#FF7B38"/>
</svg>
