<svg width="52" height="53" viewBox="0 0 52 53" fill="none" xmlns="http://www.w3.org/2000/svg">
<mask id="mask0_311_10176" style="mask-type:alpha" maskUnits="userSpaceOnUse" x="2" y="3" width="48" height="48">
<path d="M40.1455 24.5715V40.8742M12.1412 40.8742V48.4821H40.1455V40.8742M12.1412 40.8742H4.60156V24.5715C4.60156 21.3109 6.75574 17.507 9.98701 14.7898C13.2183 12.0727 17.5266 11.5293 17.5266 11.5293L26.1434 20.2241M12.1412 40.8742V24.5715M40.1455 40.8742H47.6851V24.5715C47.6851 21.3109 45.531 17.507 42.2997 14.7898C39.0684 12.0727 34.7601 11.5293 34.7601 11.5293L26.1434 20.2241M26.1434 20.2241V30.0057" stroke="white" stroke-width="3.33333" stroke-linecap="round" stroke-linejoin="round"/>
<path d="M9.98621 14.7894C13.2175 12.0723 17.5258 11.5289 17.5258 11.5289L26.1425 20.2237L34.7593 11.5289C34.7593 11.5289 39.0676 12.0723 42.2989 14.7894L44.4531 9.89863L42.2989 5.00781H9.98621L7.83203 9.89863L9.98621 14.7894Z" fill="white" stroke="white" stroke-width="3.33333" stroke-linecap="round" stroke-linejoin="round"/>
</mask>
<g mask="url(#mask0_311_10176)">
<path d="M0.292969 0.660156H51.9933V52.8288H0.292969V0.660156Z" fill="#FFFDFB" fill-opacity="0.99"/>
</g>
</svg>
