<svg width="150" height="150" viewBox="0 0 150 150" fill="none" xmlns="http://www.w3.org/2000/svg">
<path d="M76.9555 33.5776C76.9555 32.4797 76.0646 31.5865 74.9694 31.5865C73.8741 31.5865 72.9832 32.4795 72.983 33.5776C72.983 33.6227 72.9853 33.6676 72.9878 33.712C73.0509 34.7499 73.9216 35.569 74.9692 35.569C76.0169 35.569 76.8872 34.7499 76.9511 33.7044C76.9532 33.6676 76.9555 33.6227 76.9555 33.5776Z" fill="#FF7B38"/>
<path d="M33.8419 76.799C33.8869 76.799 33.9317 76.7968 33.9757 76.7941C35.0113 76.7307 35.8283 75.858 35.8283 74.8078C35.8283 73.7586 35.013 72.8871 33.9719 72.8213L33.9628 72.8207C33.9273 72.8188 33.8848 72.8167 33.8419 72.8167C32.7469 72.8167 31.8558 73.7099 31.8558 74.8078C31.8558 75.9058 32.7467 76.799 33.8419 76.799Z" fill="#FF7B38"/>
<path d="M72.9832 116.038C72.9832 117.136 73.8741 118.029 74.9694 118.029C76.0646 118.029 76.9555 117.136 76.9555 116.038C76.9555 115.993 76.9534 115.948 76.9507 115.904C76.8874 114.866 76.0169 114.047 74.9694 114.047C73.9218 114.047 73.0513 114.866 72.9876 115.911C72.9855 115.948 72.9832 115.993 72.9832 116.038Z" fill="#FF7B38"/>
<path d="M70.4251 57.021C72.02 52.9797 73.8566 51.1707 74.9694 51.1707C76.0821 51.1707 77.9185 52.9797 79.5132 57.021C80.0286 58.3272 80.4771 59.7622 80.8598 61.2931C78.9408 61.1303 76.97 61.0444 74.9692 61.0444C72.9685 61.0444 70.9979 61.1303 69.0786 61.2931C69.4614 59.7622 69.9097 58.3274 70.4251 57.021Z" fill="#FF7B38"/>
<path d="M65.1373 53.3265C64.9411 53.7614 64.7475 54.2147 64.5583 54.6945C63.6727 56.9388 62.9548 59.4809 62.4138 62.2211C59.6805 62.7634 57.1447 63.4832 54.906 64.3709C54.4278 64.5606 53.9756 64.7547 53.5416 64.9514C55.8962 59.8276 60.0264 55.687 65.1373 53.3265Z" fill="#FF7B38"/>
<path d="M51.3913 74.8078C51.3913 73.6923 53.1958 71.8513 57.2271 70.2527C58.53 69.7359 59.9614 69.2863 61.4885 68.9027C61.3261 70.8265 61.2404 72.8022 61.2404 74.808C61.2404 76.8139 61.3261 78.7892 61.4885 80.7133C59.9614 80.3295 58.5302 79.8801 57.2271 79.3634C53.1955 77.7644 51.3913 75.9234 51.3913 74.8078Z" fill="#FF7B38"/>
<path d="M53.5416 84.6645C53.9754 84.8611 54.4276 85.0552 54.906 85.2449C57.1447 86.1327 59.6805 86.8525 62.4138 87.3948C62.9548 90.1349 63.6727 92.6771 64.5583 94.9214C64.7475 95.401 64.9411 95.8542 65.1373 96.2893C60.0264 93.9287 55.8962 89.7881 53.5416 84.6645Z" fill="#FF7B38"/>
<path d="M79.5134 92.5946C77.9185 96.6359 76.0821 98.445 74.9694 98.445C73.8566 98.445 72.02 96.6359 70.4253 92.5946C69.9099 91.2884 69.4614 89.8535 69.0788 88.3226C70.9978 88.4854 72.9685 88.5713 74.9694 88.5713C76.97 88.5713 78.9406 88.4854 80.8599 88.3226C80.4771 89.8535 80.0288 91.2882 79.5134 92.5946Z" fill="#FF7B38"/>
<path d="M82.0021 81.8579C79.7508 82.1126 77.3899 82.2464 74.9694 82.2464C72.5484 82.2464 70.1877 82.1124 67.9366 81.8579C67.6828 79.6011 67.5492 77.2344 67.5492 74.8076C67.5492 72.3806 67.6828 70.014 67.9366 67.7573C70.1879 67.5028 72.5488 67.3689 74.9694 67.3689C77.3901 67.3689 79.751 67.5028 82.0021 67.7573C82.256 70.0142 82.3895 72.3808 82.3895 74.8076C82.3895 77.2346 82.2561 79.6013 82.0021 81.8579Z" fill="#FF7B38"/>
<path d="M96.3971 64.9512C95.9633 64.7545 95.511 64.5604 95.0325 64.3708C92.7938 63.483 90.258 62.7632 87.5247 62.2209C86.9838 59.4808 86.2658 56.9386 85.3802 54.6943C85.191 54.2147 84.9974 53.7614 84.8012 53.3263C89.9123 55.687 94.0426 59.8276 96.3971 64.9512Z" fill="#FF7B38"/>
<path d="M84.8014 96.2891C84.9976 95.8542 85.1912 95.4008 85.3804 94.9212C86.266 92.6769 86.984 90.1347 87.5249 87.3946C90.2582 86.8523 92.794 86.1325 95.0327 85.2447C95.5111 85.055 95.9633 84.8609 96.3973 84.6643C94.0426 89.7881 89.9123 93.9287 84.8014 96.2891Z" fill="#FF7B38"/>
<path d="M92.7118 79.363C91.4089 79.8798 89.9775 80.3294 88.4504 80.713C88.6128 78.7892 88.6985 76.8135 88.6985 74.8076C88.6985 72.8018 88.6128 70.8265 88.4504 68.9023C89.9775 69.2861 91.4087 69.7355 92.7118 70.2523C96.743 71.8509 98.5476 73.6919 98.5476 74.8074C98.5474 75.923 96.743 77.7644 92.7118 79.363Z" fill="#FF7B38"/>
<path fill-rule="evenodd" clip-rule="evenodd" d="M82.3061 112.161C89.6439 110.712 96.4948 107.065 101.82 101.726C107.146 96.3867 110.784 89.5183 112.229 82.1622C109.588 80.7611 107.801 77.9786 107.801 74.808C107.801 71.6365 109.589 68.853 112.229 67.4529C110.783 60.0968 107.146 53.2288 101.82 47.89C96.4942 42.5508 89.6427 38.9037 82.3048 37.455C80.9072 40.1027 78.1316 41.8939 74.969 41.8939C71.8053 41.8939 69.0291 40.1017 67.6322 37.4552C60.2946 38.9041 53.4437 42.551 48.118 47.89C42.7921 53.2292 39.1543 60.0976 37.7091 67.4539C40.3505 68.8547 42.1373 71.6374 42.1373 74.808C42.1373 77.9796 40.3494 80.7631 37.7095 82.1632C39.1551 89.5191 42.7925 96.3871 48.1182 101.726C53.4443 107.065 60.2956 110.712 67.6335 112.161C69.0311 109.513 71.8067 107.722 74.9694 107.722C78.133 107.722 80.9096 109.514 82.3061 112.161ZM74.9694 44.8458C58.4895 44.8458 45.082 58.2868 45.082 74.8078C45.082 91.3289 58.4895 104.77 74.9694 104.77C91.4492 104.77 104.857 91.3289 104.857 74.8078C104.857 58.2868 91.4492 44.8458 74.9694 44.8458Z" fill="#FF7B38"/>
<path d="M115.97 76.7945C116.007 76.7967 116.052 76.799 116.097 76.799C117.192 76.799 118.083 75.9056 118.083 74.8076C118.083 73.7097 117.192 72.8165 116.097 72.8165C116.052 72.8165 116.007 72.8186 115.963 72.8213C114.927 72.8848 114.11 73.7573 114.11 74.8076C114.11 75.858 114.927 76.7305 115.97 76.7945Z" fill="#FF7B38"/>
<path fill-rule="evenodd" clip-rule="evenodd" d="M149.104 74.8078C149.104 115.853 115.913 149.127 74.9694 149.127C34.0261 149.127 0.834961 115.853 0.834961 74.8078C0.834961 33.7622 34.0261 0.488159 74.9694 0.488159C115.913 0.488159 149.104 33.7622 149.104 74.8078ZM106.282 43.4171C112.642 49.7933 116.938 58.042 118.538 66.8595C121.924 67.9069 124.392 71.0735 124.392 74.8078C124.392 78.5422 121.924 81.7087 118.538 82.756C116.938 91.5735 112.642 99.8226 106.282 106.198C99.9216 112.574 91.6934 116.881 82.8979 118.485C81.8532 121.88 78.6944 124.354 74.9694 124.354C71.2445 124.354 68.0857 121.88 67.041 118.485C58.2455 116.881 50.0171 112.574 43.6572 106.199C37.2973 99.8224 33.0012 91.5737 31.4011 82.7562C28.0145 81.7089 25.5464 78.5422 25.5464 74.8078C25.5464 71.0735 28.0145 67.9067 31.4009 66.8597C33.0008 58.0422 37.2971 49.7931 43.657 43.4172C50.0171 37.0414 58.2453 32.7346 67.0408 31.1305C68.0857 27.7356 71.2445 25.2614 74.9694 25.2614C78.6944 25.2614 81.8532 27.7356 82.8977 31.1303C91.6932 32.7344 99.9218 37.0414 106.282 43.4171Z" fill="#FF7B38"/>
</svg>
