<svg width="30" height="44" viewBox="0 0 30 44" fill="none" xmlns="http://www.w3.org/2000/svg">
<g id="Property 1=3">
<g id="3/Black">
<g id="Vector 162" filter="url(#filter0_f_175_12660)">
<path d="M7.93934 5L6.46875 6.17241L9.40993 8.81034H20.5864L23.5276 6.17241L21.9099 5H7.93934Z" fill="#383838"/>
</g>
<g id="Vector 163" filter="url(#filter1_f_175_12660)">
<path d="M9.40993 20.0947L6.46875 21.9999L9.40993 24.0516H20.5864L23.5276 21.9999L20.5864 20.0947H9.40993Z" fill="#383838"/>
</g>
<g id="Vector 164" filter="url(#filter2_f_175_12660)">
<path d="M7.93934 39L6.46875 37.8276L9.40993 35.1897H20.5864L23.5276 37.8276L21.9099 39H7.93934Z" fill="#383838"/>
</g>
<g id="Vector 165" filter="url(#filter3_f_175_12660)">
<path d="M5 20.4184L6.17647 21.707L8.82353 19.1297L8.82353 9.33605L6.17647 6.75876L5 8.17627L5 20.4184Z" fill="#383838"/>
</g>
<g id="Vector 166" filter="url(#filter4_f_175_12660)">
<path d="M5 23.5816L6.17647 22.293L8.82353 24.8703L8.82353 34.664L6.17647 37.2412L5 35.8237L5 23.5816Z" fill="#383838"/>
</g>
<g id="Vector 167" filter="url(#filter5_f_175_12660)">
<path d="M25 20.4184L23.8235 21.707L21.1765 19.1297V9.33605L23.8235 6.75876L25 8.17627V20.4184Z" fill="#383838"/>
</g>
<g id="Vector 168" filter="url(#filter6_f_175_12660)">
<path d="M25 23.5816L23.8235 22.293L21.1765 24.8703V34.664L23.8235 37.2412L25 35.8237V23.5816Z" fill="#383838"/>
</g>
</g>
<g id="3/Rouge">
<g id="Vector 169" filter="url(#filter7_f_175_12660)">
<path d="M7.06043 5L5.58984 6.17241L8.53102 8.81034H19.7075L22.6487 6.17241L21.031 5H7.06043Z" fill="#FF5600"/>
<path d="M7.06043 5L5.58984 6.17241L8.53102 8.81034H19.7075L22.6487 6.17241L21.031 5H7.06043Z" stroke="#FF5600" stroke-width="2" stroke-linejoin="round"/>
</g>
<g id="Vector 170" filter="url(#filter8_f_175_12660)">
<path d="M8.53102 20.0947L5.58984 21.9999L8.53102 24.0516H19.7075L22.6487 21.9999L19.7075 20.0947H8.53102Z" fill="#FF5600"/>
<path d="M8.53102 20.0947L5.58984 21.9999L8.53102 24.0516H19.7075L22.6487 21.9999L19.7075 20.0947H8.53102Z" stroke="#FF5600" stroke-width="2" stroke-linejoin="round"/>
</g>
<g id="Vector 171" filter="url(#filter9_f_175_12660)">
<path d="M7.06043 39L5.58984 37.8276L8.53102 35.1897H19.7075L22.6487 37.8276L21.031 39H7.06043Z" fill="#FF5600"/>
<path d="M7.06043 39L5.58984 37.8276L8.53102 35.1897H19.7075L22.6487 37.8276L21.031 39H7.06043Z" stroke="#FF5600" stroke-width="2" stroke-linejoin="round"/>
</g>
<g id="Vector 174" filter="url(#filter10_f_175_12660)">
<path d="M24.1211 20.4184L22.9446 21.707L20.2976 19.1297V9.33605L22.9446 6.75876L24.1211 8.17627V20.4184Z" fill="#FF5600"/>
<path d="M24.1211 20.4184L22.9446 21.707L20.2976 19.1297V9.33605L22.9446 6.75876L24.1211 8.17627V20.4184Z" stroke="#FF5600" stroke-width="2" stroke-linejoin="round"/>
</g>
<g id="Vector 175" filter="url(#filter11_f_175_12660)">
<path d="M24.1211 23.5816L22.9446 22.293L20.2976 24.8703V34.664L22.9446 37.2412L24.1211 35.8237V23.5816Z" fill="#FF5600"/>
<path d="M24.1211 23.5816L22.9446 22.293L20.2976 24.8703V34.664L22.9446 37.2412L24.1211 35.8237V23.5816Z" stroke="#FF5600" stroke-width="2" stroke-linejoin="round"/>
</g>
</g>
<g id="3/Orange">
<g id="Vector 162_2" filter="url(#filter12_f_175_12660)">
<path d="M7.06043 5L5.58984 6.17241L8.53102 8.81034H19.7075L22.6487 6.17241L21.031 5H7.06043Z" fill="#FFB13C"/>
<path d="M7.06043 5L5.58984 6.17241L8.53102 8.81034H19.7075L22.6487 6.17241L21.031 5H7.06043Z" stroke="#FFB13C" stroke-linejoin="round"/>
</g>
<g id="Vector 163_2" filter="url(#filter13_f_175_12660)">
<path d="M8.53102 20.0947L5.58984 21.9999L8.53102 24.0516H19.7075L22.6487 21.9999L19.7075 20.0947H8.53102Z" fill="#FFB13C"/>
<path d="M8.53102 20.0947L5.58984 21.9999L8.53102 24.0516H19.7075L22.6487 21.9999L19.7075 20.0947H8.53102Z" stroke="#FFB13C" stroke-linejoin="round"/>
</g>
<g id="Vector 164_2" filter="url(#filter14_f_175_12660)">
<path d="M7.06043 39L5.58984 37.8276L8.53102 35.1897H19.7075L22.6487 37.8276L21.031 39H7.06043Z" fill="#FFB13C"/>
<path d="M7.06043 39L5.58984 37.8276L8.53102 35.1897H19.7075L22.6487 37.8276L21.031 39H7.06043Z" stroke="#FFB13C" stroke-linejoin="round"/>
</g>
<g id="Vector 167_2" filter="url(#filter15_f_175_12660)">
<path d="M24.1211 20.4184L22.9446 21.707L20.2976 19.1297V9.33605L22.9446 6.75876L24.1211 8.17627V20.4184Z" fill="#FFB13C"/>
<path d="M24.1211 20.4184L22.9446 21.707L20.2976 19.1297V9.33605L22.9446 6.75876L24.1211 8.17627V20.4184Z" stroke="#FFB13C" stroke-linejoin="round"/>
</g>
<g id="Vector 168_2" filter="url(#filter16_f_175_12660)">
<path d="M24.1211 23.5816L22.9446 22.293L20.2976 24.8703V34.664L22.9446 37.2412L24.1211 35.8237V23.5816Z" fill="#FFB13C"/>
<path d="M24.1211 23.5816L22.9446 22.293L20.2976 24.8703V34.664L22.9446 37.2412L24.1211 35.8237V23.5816Z" stroke="#FFB13C" stroke-linejoin="round"/>
</g>
</g>
<g id="3/White">
<path id="Vector 155" d="M21.0587 6.25512L19.3247 7.81034H8.91377L7.13765 6.21734L7.41027 6H20.7067L21.0587 6.25512Z" fill="#FFFDFB" fill-opacity="0.99" stroke="#FFF4E3" stroke-width="2" stroke-linejoin="round"/>
<path id="Vector 161" d="M20.8568 22.0306L19.3932 23.0516H8.84535L7.38176 22.0306L8.8266 21.0947H19.4119L20.8568 22.0306Z" fill="#FFFDFB" fill-opacity="0.99" stroke="#FFF4E3" stroke-width="2" stroke-linejoin="round"/>
<path id="Vector 158" d="M21.0587 37.7449L19.3247 36.1897H8.91377L7.13765 37.7827L7.41027 38H20.7067L21.0587 37.7449Z" fill="#FFFDFB" fill-opacity="0.99" stroke="#FFF4E3" stroke-width="2" stroke-linejoin="round"/>
<path id="Vector 157" d="M22.8665 8.23048L21.2976 9.7581V18.7077L22.9023 20.2702L23.1211 20.0306V8.53719L22.8665 8.23048Z" fill="#FFFDFB" fill-opacity="0.99" stroke="#FFF4E3" stroke-width="2" stroke-linejoin="round"/>
<path id="Vector 160" d="M22.8665 35.7695L21.2976 34.2419V25.2923L22.9023 23.7298L23.1211 23.9694V35.4628L22.8665 35.7695Z" fill="#FFFDFB" fill-opacity="0.99" stroke="#FFF4E3" stroke-width="2" stroke-linejoin="round"/>
</g>
</g>
<defs>
<filter id="filter0_f_175_12660" x="4.46875" y="3" width="21.0586" height="7.81055" filterUnits="userSpaceOnUse" color-interpolation-filters="sRGB">
<feFlood flood-opacity="0" result="BackgroundImageFix"/>
<feBlend mode="normal" in="SourceGraphic" in2="BackgroundImageFix" result="shape"/>
<feGaussianBlur stdDeviation="1" result="effect1_foregroundBlur_175_12660"/>
</filter>
<filter id="filter1_f_175_12660" x="4.46875" y="18.0947" width="21.0586" height="7.95703" filterUnits="userSpaceOnUse" color-interpolation-filters="sRGB">
<feFlood flood-opacity="0" result="BackgroundImageFix"/>
<feBlend mode="normal" in="SourceGraphic" in2="BackgroundImageFix" result="shape"/>
<feGaussianBlur stdDeviation="1" result="effect1_foregroundBlur_175_12660"/>
</filter>
<filter id="filter2_f_175_12660" x="4.46875" y="33.1895" width="21.0586" height="7.81055" filterUnits="userSpaceOnUse" color-interpolation-filters="sRGB">
<feFlood flood-opacity="0" result="BackgroundImageFix"/>
<feBlend mode="normal" in="SourceGraphic" in2="BackgroundImageFix" result="shape"/>
<feGaussianBlur stdDeviation="1" result="effect1_foregroundBlur_175_12660"/>
</filter>
<filter id="filter3_f_175_12660" x="3" y="4.75879" width="7.82422" height="18.9482" filterUnits="userSpaceOnUse" color-interpolation-filters="sRGB">
<feFlood flood-opacity="0" result="BackgroundImageFix"/>
<feBlend mode="normal" in="SourceGraphic" in2="BackgroundImageFix" result="shape"/>
<feGaussianBlur stdDeviation="1" result="effect1_foregroundBlur_175_12660"/>
</filter>
<filter id="filter4_f_175_12660" x="3" y="20.293" width="7.82422" height="18.9482" filterUnits="userSpaceOnUse" color-interpolation-filters="sRGB">
<feFlood flood-opacity="0" result="BackgroundImageFix"/>
<feBlend mode="normal" in="SourceGraphic" in2="BackgroundImageFix" result="shape"/>
<feGaussianBlur stdDeviation="1" result="effect1_foregroundBlur_175_12660"/>
</filter>
<filter id="filter5_f_175_12660" x="19.1758" y="4.75879" width="7.82422" height="18.9482" filterUnits="userSpaceOnUse" color-interpolation-filters="sRGB">
<feFlood flood-opacity="0" result="BackgroundImageFix"/>
<feBlend mode="normal" in="SourceGraphic" in2="BackgroundImageFix" result="shape"/>
<feGaussianBlur stdDeviation="1" result="effect1_foregroundBlur_175_12660"/>
</filter>
<filter id="filter6_f_175_12660" x="19.1758" y="20.293" width="7.82422" height="18.9482" filterUnits="userSpaceOnUse" color-interpolation-filters="sRGB">
<feFlood flood-opacity="0" result="BackgroundImageFix"/>
<feBlend mode="normal" in="SourceGraphic" in2="BackgroundImageFix" result="shape"/>
<feGaussianBlur stdDeviation="1" result="effect1_foregroundBlur_175_12660"/>
</filter>
<filter id="filter7_f_175_12660" x="0.589844" y="0" width="27.0586" height="13.8105" filterUnits="userSpaceOnUse" color-interpolation-filters="sRGB">
<feFlood flood-opacity="0" result="BackgroundImageFix"/>
<feBlend mode="normal" in="SourceGraphic" in2="BackgroundImageFix" result="shape"/>
<feGaussianBlur stdDeviation="2" result="effect1_foregroundBlur_175_12660"/>
</filter>
<filter id="filter8_f_175_12660" x="0.589844" y="15.0947" width="27.0586" height="13.957" filterUnits="userSpaceOnUse" color-interpolation-filters="sRGB">
<feFlood flood-opacity="0" result="BackgroundImageFix"/>
<feBlend mode="normal" in="SourceGraphic" in2="BackgroundImageFix" result="shape"/>
<feGaussianBlur stdDeviation="2" result="effect1_foregroundBlur_175_12660"/>
</filter>
<filter id="filter9_f_175_12660" x="0.589844" y="30.1895" width="27.0586" height="13.8105" filterUnits="userSpaceOnUse" color-interpolation-filters="sRGB">
<feFlood flood-opacity="0" result="BackgroundImageFix"/>
<feBlend mode="normal" in="SourceGraphic" in2="BackgroundImageFix" result="shape"/>
<feGaussianBlur stdDeviation="2" result="effect1_foregroundBlur_175_12660"/>
</filter>
<filter id="filter10_f_175_12660" x="15.2969" y="1.75879" width="13.8242" height="24.9482" filterUnits="userSpaceOnUse" color-interpolation-filters="sRGB">
<feFlood flood-opacity="0" result="BackgroundImageFix"/>
<feBlend mode="normal" in="SourceGraphic" in2="BackgroundImageFix" result="shape"/>
<feGaussianBlur stdDeviation="2" result="effect1_foregroundBlur_175_12660"/>
</filter>
<filter id="filter11_f_175_12660" x="15.2969" y="17.293" width="13.8242" height="24.9482" filterUnits="userSpaceOnUse" color-interpolation-filters="sRGB">
<feFlood flood-opacity="0" result="BackgroundImageFix"/>
<feBlend mode="normal" in="SourceGraphic" in2="BackgroundImageFix" result="shape"/>
<feGaussianBlur stdDeviation="2" result="effect1_foregroundBlur_175_12660"/>
</filter>
<filter id="filter12_f_175_12660" x="3.08984" y="2.5" width="22.0586" height="8.81055" filterUnits="userSpaceOnUse" color-interpolation-filters="sRGB">
<feFlood flood-opacity="0" result="BackgroundImageFix"/>
<feBlend mode="normal" in="SourceGraphic" in2="BackgroundImageFix" result="shape"/>
<feGaussianBlur stdDeviation="1" result="effect1_foregroundBlur_175_12660"/>
</filter>
<filter id="filter13_f_175_12660" x="3.08984" y="17.5947" width="22.0586" height="8.95703" filterUnits="userSpaceOnUse" color-interpolation-filters="sRGB">
<feFlood flood-opacity="0" result="BackgroundImageFix"/>
<feBlend mode="normal" in="SourceGraphic" in2="BackgroundImageFix" result="shape"/>
<feGaussianBlur stdDeviation="1" result="effect1_foregroundBlur_175_12660"/>
</filter>
<filter id="filter14_f_175_12660" x="3.08984" y="32.6895" width="22.0586" height="8.81055" filterUnits="userSpaceOnUse" color-interpolation-filters="sRGB">
<feFlood flood-opacity="0" result="BackgroundImageFix"/>
<feBlend mode="normal" in="SourceGraphic" in2="BackgroundImageFix" result="shape"/>
<feGaussianBlur stdDeviation="1" result="effect1_foregroundBlur_175_12660"/>
</filter>
<filter id="filter15_f_175_12660" x="17.7969" y="4.25879" width="8.82422" height="19.9482" filterUnits="userSpaceOnUse" color-interpolation-filters="sRGB">
<feFlood flood-opacity="0" result="BackgroundImageFix"/>
<feBlend mode="normal" in="SourceGraphic" in2="BackgroundImageFix" result="shape"/>
<feGaussianBlur stdDeviation="1" result="effect1_foregroundBlur_175_12660"/>
</filter>
<filter id="filter16_f_175_12660" x="17.7969" y="19.793" width="8.82422" height="19.9482" filterUnits="userSpaceOnUse" color-interpolation-filters="sRGB">
<feFlood flood-opacity="0" result="BackgroundImageFix"/>
<feBlend mode="normal" in="SourceGraphic" in2="BackgroundImageFix" result="shape"/>
<feGaussianBlur stdDeviation="1" result="effect1_foregroundBlur_175_12660"/>
</filter>
</defs>
</svg>
