<svg width="30" height="42" viewBox="0 0 30 42" fill="none" xmlns="http://www.w3.org/2000/svg">
<g id="Property 1=4">
<g id="4/Black">
<g id="Vector 162" filter="url(#filter0_f_175_12661)">
<path d="M7.93934 4L6.46875 5.17241L9.40993 7.81034H20.5864L23.5276 5.17241L21.9099 4H7.93934Z" fill="#383838"/>
</g>
<g id="Vector 163" filter="url(#filter1_f_175_12661)">
<path d="M9.40993 19.0947L6.46875 20.9999L9.40993 23.0516H20.5864L23.5276 20.9999L20.5864 19.0947H9.40993Z" fill="#383838"/>
</g>
<g id="Vector 164" filter="url(#filter2_f_175_12661)">
<path d="M7.93934 38L6.46875 36.8276L9.40993 34.1897H20.5864L23.5276 36.8276L21.9099 38H7.93934Z" fill="#383838"/>
</g>
<g id="Vector 165" filter="url(#filter3_f_175_12661)">
<path d="M5 19.4184L6.17647 20.707L8.82353 18.1297L8.82353 8.33605L6.17647 5.75876L5 7.17627L5 19.4184Z" fill="#383838"/>
</g>
<g id="Vector 166" filter="url(#filter4_f_175_12661)">
<path d="M5 22.5816L6.17647 21.293L8.82353 23.8703L8.82353 33.664L6.17647 36.2412L5 34.8237L5 22.5816Z" fill="#383838"/>
</g>
<g id="Vector 167" filter="url(#filter5_f_175_12661)">
<path d="M25 19.4184L23.8235 20.707L21.1765 18.1297V8.33605L23.8235 5.75876L25 7.17627V19.4184Z" fill="#383838"/>
</g>
<g id="Vector 168" filter="url(#filter6_f_175_12661)">
<path d="M25 22.5816L23.8235 21.293L21.1765 23.8703V33.664L23.8235 36.2412L25 34.8237V22.5816Z" fill="#383838"/>
</g>
</g>
<g id="4/Rouge">
<g id="Vector 170" filter="url(#filter7_f_175_12661)">
<path d="M9.40993 19.0947L6.46875 20.9999L9.40993 23.0516H20.5864L23.5276 20.9999L20.5864 19.0947H9.40993Z" fill="#FF5600"/>
<path d="M9.40993 19.0947L6.46875 20.9999L9.40993 23.0516H20.5864L23.5276 20.9999L20.5864 19.0947H9.40993Z" stroke="#FF5600" stroke-width="2" stroke-linejoin="round"/>
</g>
<g id="Vector 172" filter="url(#filter8_f_175_12661)">
<path d="M5 19.4184L6.17647 20.707L8.82353 18.1297L8.82353 8.33605L6.17647 5.75876L5 7.17627L5 19.4184Z" fill="#FF5600"/>
<path d="M5 19.4184L6.17647 20.707L8.82353 18.1297L8.82353 8.33605L6.17647 5.75876L5 7.17627L5 19.4184Z" stroke="#FF5600" stroke-width="2" stroke-linejoin="round"/>
</g>
<g id="Vector 174" filter="url(#filter9_f_175_12661)">
<path d="M25 19.4184L23.8235 20.707L21.1765 18.1297V8.33605L23.8235 5.75876L25 7.17627V19.4184Z" fill="#FF5600"/>
<path d="M25 19.4184L23.8235 20.707L21.1765 18.1297V8.33605L23.8235 5.75876L25 7.17627V19.4184Z" stroke="#FF5600" stroke-width="2" stroke-linejoin="round"/>
</g>
<g id="Vector 175" filter="url(#filter10_f_175_12661)">
<path d="M25 22.5816L23.8235 21.293L21.1765 23.8703V33.664L23.8235 36.2412L25 34.8237V22.5816Z" fill="#FF5600"/>
<path d="M25 22.5816L23.8235 21.293L21.1765 23.8703V33.664L23.8235 36.2412L25 34.8237V22.5816Z" stroke="#FF5600" stroke-width="2" stroke-linejoin="round"/>
</g>
</g>
<g id="4/Orange">
<g id="Vector 163_2" filter="url(#filter11_f_175_12661)">
<path d="M9.40993 19.0947L6.46875 20.9999L9.40993 23.0516H20.5864L23.5276 20.9999L20.5864 19.0947H9.40993Z" fill="#FFB13C"/>
<path d="M9.40993 19.0947L6.46875 20.9999L9.40993 23.0516H20.5864L23.5276 20.9999L20.5864 19.0947H9.40993Z" stroke="#FFB13C" stroke-linejoin="round"/>
</g>
<g id="Vector 165_2" filter="url(#filter12_f_175_12661)">
<path d="M5 19.4184L6.17647 20.707L8.82353 18.1297L8.82353 8.33605L6.17647 5.75876L5 7.17627L5 19.4184Z" fill="#FFB13C"/>
<path d="M5 19.4184L6.17647 20.707L8.82353 18.1297L8.82353 8.33605L6.17647 5.75876L5 7.17627L5 19.4184Z" stroke="#FFB13C" stroke-linejoin="round"/>
</g>
<g id="Vector 167_2" filter="url(#filter13_f_175_12661)">
<path d="M25 19.4184L23.8235 20.707L21.1765 18.1297V8.33605L23.8235 5.75876L25 7.17627V19.4184Z" fill="#FFB13C"/>
<path d="M25 19.4184L23.8235 20.707L21.1765 18.1297V8.33605L23.8235 5.75876L25 7.17627V19.4184Z" stroke="#FFB13C" stroke-linejoin="round"/>
</g>
<g id="Vector 168_2" filter="url(#filter14_f_175_12661)">
<path d="M25 22.5816L23.8235 21.293L21.1765 23.8703V33.664L23.8235 36.2412L25 34.8237V22.5816Z" fill="#FFB13C"/>
<path d="M25 22.5816L23.8235 21.293L21.1765 23.8703V33.664L23.8235 36.2412L25 34.8237V22.5816Z" stroke="#FFB13C" stroke-linejoin="round"/>
</g>
</g>
<g id="4/White">
<path id="Vector 161" d="M21.7357 21.0306L20.2721 22.0516H9.72426L8.26066 21.0306L9.70551 20.0947H20.2908L21.7357 21.0306Z" fill="#FFFDFB" fill-opacity="0.99" stroke="#FFF4E3" stroke-width="2" stroke-linejoin="round"/>
<path id="Vector 156" d="M6.25455 7.23048L7.82353 8.7581L7.82353 17.7077L6.21875 19.2702L6 19.0306L6 7.53719L6.25455 7.23048Z" fill="#FFFDFB" fill-opacity="0.99" stroke="#FFF4E3" stroke-width="2" stroke-linejoin="round"/>
<path id="Vector 157" d="M23.7454 7.23048L22.1765 8.7581V17.7077L23.7813 19.2702L24 19.0306V7.53719L23.7454 7.23048Z" fill="#FFFDFB" fill-opacity="0.99" stroke="#FFF4E3" stroke-width="2" stroke-linejoin="round"/>
<path id="Vector 160" d="M23.7454 34.7695L22.1765 33.2419V24.2923L23.7813 22.7298L24 22.9694V34.4628L23.7454 34.7695Z" fill="#FFFDFB" fill-opacity="0.99" stroke="#FFF4E3" stroke-width="2" stroke-linejoin="round"/>
</g>
</g>
<defs>
<filter id="filter0_f_175_12661" x="4.46875" y="2" width="21.0586" height="7.81055" filterUnits="userSpaceOnUse" color-interpolation-filters="sRGB">
<feFlood flood-opacity="0" result="BackgroundImageFix"/>
<feBlend mode="normal" in="SourceGraphic" in2="BackgroundImageFix" result="shape"/>
<feGaussianBlur stdDeviation="1" result="effect1_foregroundBlur_175_12661"/>
</filter>
<filter id="filter1_f_175_12661" x="4.46875" y="17.0947" width="21.0586" height="7.95703" filterUnits="userSpaceOnUse" color-interpolation-filters="sRGB">
<feFlood flood-opacity="0" result="BackgroundImageFix"/>
<feBlend mode="normal" in="SourceGraphic" in2="BackgroundImageFix" result="shape"/>
<feGaussianBlur stdDeviation="1" result="effect1_foregroundBlur_175_12661"/>
</filter>
<filter id="filter2_f_175_12661" x="4.46875" y="32.1895" width="21.0586" height="7.81055" filterUnits="userSpaceOnUse" color-interpolation-filters="sRGB">
<feFlood flood-opacity="0" result="BackgroundImageFix"/>
<feBlend mode="normal" in="SourceGraphic" in2="BackgroundImageFix" result="shape"/>
<feGaussianBlur stdDeviation="1" result="effect1_foregroundBlur_175_12661"/>
</filter>
<filter id="filter3_f_175_12661" x="3" y="3.75879" width="7.82422" height="18.9482" filterUnits="userSpaceOnUse" color-interpolation-filters="sRGB">
<feFlood flood-opacity="0" result="BackgroundImageFix"/>
<feBlend mode="normal" in="SourceGraphic" in2="BackgroundImageFix" result="shape"/>
<feGaussianBlur stdDeviation="1" result="effect1_foregroundBlur_175_12661"/>
</filter>
<filter id="filter4_f_175_12661" x="3" y="19.293" width="7.82422" height="18.9482" filterUnits="userSpaceOnUse" color-interpolation-filters="sRGB">
<feFlood flood-opacity="0" result="BackgroundImageFix"/>
<feBlend mode="normal" in="SourceGraphic" in2="BackgroundImageFix" result="shape"/>
<feGaussianBlur stdDeviation="1" result="effect1_foregroundBlur_175_12661"/>
</filter>
<filter id="filter5_f_175_12661" x="19.1758" y="3.75879" width="7.82422" height="18.9482" filterUnits="userSpaceOnUse" color-interpolation-filters="sRGB">
<feFlood flood-opacity="0" result="BackgroundImageFix"/>
<feBlend mode="normal" in="SourceGraphic" in2="BackgroundImageFix" result="shape"/>
<feGaussianBlur stdDeviation="1" result="effect1_foregroundBlur_175_12661"/>
</filter>
<filter id="filter6_f_175_12661" x="19.1758" y="19.293" width="7.82422" height="18.9482" filterUnits="userSpaceOnUse" color-interpolation-filters="sRGB">
<feFlood flood-opacity="0" result="BackgroundImageFix"/>
<feBlend mode="normal" in="SourceGraphic" in2="BackgroundImageFix" result="shape"/>
<feGaussianBlur stdDeviation="1" result="effect1_foregroundBlur_175_12661"/>
</filter>
<filter id="filter7_f_175_12661" x="1.46875" y="14.0947" width="27.0586" height="13.957" filterUnits="userSpaceOnUse" color-interpolation-filters="sRGB">
<feFlood flood-opacity="0" result="BackgroundImageFix"/>
<feBlend mode="normal" in="SourceGraphic" in2="BackgroundImageFix" result="shape"/>
<feGaussianBlur stdDeviation="2" result="effect1_foregroundBlur_175_12661"/>
</filter>
<filter id="filter8_f_175_12661" x="0" y="0.758789" width="13.8242" height="24.9482" filterUnits="userSpaceOnUse" color-interpolation-filters="sRGB">
<feFlood flood-opacity="0" result="BackgroundImageFix"/>
<feBlend mode="normal" in="SourceGraphic" in2="BackgroundImageFix" result="shape"/>
<feGaussianBlur stdDeviation="2" result="effect1_foregroundBlur_175_12661"/>
</filter>
<filter id="filter9_f_175_12661" x="16.1758" y="0.758789" width="13.8242" height="24.9482" filterUnits="userSpaceOnUse" color-interpolation-filters="sRGB">
<feFlood flood-opacity="0" result="BackgroundImageFix"/>
<feBlend mode="normal" in="SourceGraphic" in2="BackgroundImageFix" result="shape"/>
<feGaussianBlur stdDeviation="2" result="effect1_foregroundBlur_175_12661"/>
</filter>
<filter id="filter10_f_175_12661" x="16.1758" y="16.293" width="13.8242" height="24.9482" filterUnits="userSpaceOnUse" color-interpolation-filters="sRGB">
<feFlood flood-opacity="0" result="BackgroundImageFix"/>
<feBlend mode="normal" in="SourceGraphic" in2="BackgroundImageFix" result="shape"/>
<feGaussianBlur stdDeviation="2" result="effect1_foregroundBlur_175_12661"/>
</filter>
<filter id="filter11_f_175_12661" x="3.96875" y="16.5947" width="22.0586" height="8.95703" filterUnits="userSpaceOnUse" color-interpolation-filters="sRGB">
<feFlood flood-opacity="0" result="BackgroundImageFix"/>
<feBlend mode="normal" in="SourceGraphic" in2="BackgroundImageFix" result="shape"/>
<feGaussianBlur stdDeviation="1" result="effect1_foregroundBlur_175_12661"/>
</filter>
<filter id="filter12_f_175_12661" x="2.5" y="3.25879" width="8.82422" height="19.9482" filterUnits="userSpaceOnUse" color-interpolation-filters="sRGB">
<feFlood flood-opacity="0" result="BackgroundImageFix"/>
<feBlend mode="normal" in="SourceGraphic" in2="BackgroundImageFix" result="shape"/>
<feGaussianBlur stdDeviation="1" result="effect1_foregroundBlur_175_12661"/>
</filter>
<filter id="filter13_f_175_12661" x="18.6758" y="3.25879" width="8.82422" height="19.9482" filterUnits="userSpaceOnUse" color-interpolation-filters="sRGB">
<feFlood flood-opacity="0" result="BackgroundImageFix"/>
<feBlend mode="normal" in="SourceGraphic" in2="BackgroundImageFix" result="shape"/>
<feGaussianBlur stdDeviation="1" result="effect1_foregroundBlur_175_12661"/>
</filter>
<filter id="filter14_f_175_12661" x="18.6758" y="18.793" width="8.82422" height="19.9482" filterUnits="userSpaceOnUse" color-interpolation-filters="sRGB">
<feFlood flood-opacity="0" result="BackgroundImageFix"/>
<feBlend mode="normal" in="SourceGraphic" in2="BackgroundImageFix" result="shape"/>
<feGaussianBlur stdDeviation="1" result="effect1_foregroundBlur_175_12661"/>
</filter>
</defs>
</svg>
