<svg width="30" height="44" viewBox="0 0 30 44" fill="none" xmlns="http://www.w3.org/2000/svg">
<g id="Property 1=7">
<g id="7/Black">
<g id="Vector 162" filter="url(#filter0_f_175_12664)">
<path d="M7.93934 5L6.46875 6.17241L9.40993 8.81034H20.5864L23.5276 6.17241L21.9099 5H7.93934Z" fill="#383838"/>
</g>
<g id="Vector 163" filter="url(#filter1_f_175_12664)">
<path d="M9.40993 20.0947L6.46875 21.9999L9.40993 24.0516H20.5864L23.5276 21.9999L20.5864 20.0947H9.40993Z" fill="#383838"/>
</g>
<g id="Vector 164" filter="url(#filter2_f_175_12664)">
<path d="M7.93934 39L6.46875 37.8276L9.40993 35.1897H20.5864L23.5276 37.8276L21.9099 39H7.93934Z" fill="#383838"/>
</g>
<g id="Vector 165" filter="url(#filter3_f_175_12664)">
<path d="M5 20.4184L6.17647 21.707L8.82353 19.1297L8.82353 9.33605L6.17647 6.75876L5 8.17627L5 20.4184Z" fill="#383838"/>
</g>
<g id="Vector 166" filter="url(#filter4_f_175_12664)">
<path d="M5 23.5816L6.17647 22.293L8.82353 24.8703L8.82353 34.664L6.17647 37.2412L5 35.8237L5 23.5816Z" fill="#383838"/>
</g>
<g id="Vector 167" filter="url(#filter5_f_175_12664)">
<path d="M25 20.4184L23.8235 21.707L21.1765 19.1297V9.33605L23.8235 6.75876L25 8.17627V20.4184Z" fill="#383838"/>
</g>
<g id="Vector 168" filter="url(#filter6_f_175_12664)">
<path d="M25 23.5816L23.8235 22.293L21.1765 24.8703V34.664L23.8235 37.2412L25 35.8237V23.5816Z" fill="#383838"/>
</g>
</g>
<g id="7/Rouge">
<g id="Vector 169" filter="url(#filter7_f_175_12664)">
<path d="M7.3534 5.87891L5.88281 7.05132L8.82399 9.68925H20.0005L22.9416 7.05132L21.324 5.87891H7.3534Z" fill="#FF5600"/>
<path d="M7.3534 5.87891L5.88281 7.05132L8.82399 9.68925H20.0005L22.9416 7.05132L21.324 5.87891H7.3534Z" stroke="#FF5600" stroke-width="2" stroke-linejoin="round"/>
</g>
<g id="Vector 174" filter="url(#filter8_f_175_12664)">
<path d="M24.4141 21.2973L23.2376 22.5859L20.5905 20.0086V10.215L23.2376 7.63766L24.4141 9.05517V21.2973Z" fill="#FF5600"/>
<path d="M24.4141 21.2973L23.2376 22.5859L20.5905 20.0086V10.215L23.2376 7.63766L24.4141 9.05517V21.2973Z" stroke="#FF5600" stroke-width="2" stroke-linejoin="round"/>
</g>
<g id="Vector 175" filter="url(#filter9_f_175_12664)">
<path d="M24.4141 24.4605L23.2376 23.1719L20.5905 25.7492V35.5429L23.2376 38.1201L24.4141 36.7026V24.4605Z" fill="#FF5600"/>
<path d="M24.4141 24.4605L23.2376 23.1719L20.5905 25.7492V35.5429L23.2376 38.1201L24.4141 36.7026V24.4605Z" stroke="#FF5600" stroke-width="2" stroke-linejoin="round"/>
</g>
</g>
<g id="7/Orange">
<g id="Vector 162_2" filter="url(#filter10_f_175_12664)">
<path d="M7.3534 5.87891L5.88281 7.05132L8.82399 9.68925H20.0005L22.9416 7.05132L21.324 5.87891H7.3534Z" fill="#FFB13C"/>
<path d="M7.3534 5.87891L5.88281 7.05132L8.82399 9.68925H20.0005L22.9416 7.05132L21.324 5.87891H7.3534Z" stroke="#FFB13C" stroke-linejoin="round"/>
</g>
<g id="Vector 167_2" filter="url(#filter11_f_175_12664)">
<path d="M24.4141 21.2973L23.2376 22.5859L20.5905 20.0086V10.215L23.2376 7.63766L24.4141 9.05517V21.2973Z" fill="#FFB13C"/>
<path d="M24.4141 21.2973L23.2376 22.5859L20.5905 20.0086V10.215L23.2376 7.63766L24.4141 9.05517V21.2973Z" stroke="#FFB13C" stroke-linejoin="round"/>
</g>
<g id="Vector 168_2" filter="url(#filter12_f_175_12664)">
<path d="M24.4141 24.4605L23.2376 23.1719L20.5905 25.7492V35.5429L23.2376 38.1201L24.4141 36.7026V24.4605Z" fill="#FFB13C"/>
<path d="M24.4141 24.4605L23.2376 23.1719L20.5905 25.7492V35.5429L23.2376 38.1201L24.4141 36.7026V24.4605Z" stroke="#FFB13C" stroke-linejoin="round"/>
</g>
</g>
<g id="7/White">
<path id="Vector 155" d="M21.3517 7.13403L19.6177 8.68925H9.20674L7.43062 7.09625L7.70324 6.87891H20.9997L21.3517 7.13403Z" fill="#FFFDFB" fill-opacity="0.99" stroke="#FFF4E3" stroke-width="2" stroke-linejoin="round"/>
<path id="Vector 157" d="M23.1595 9.10939L21.5905 10.637V19.5866L23.1953 21.1491L23.4141 20.9095V9.41609L23.1595 9.10939Z" fill="#FFFDFB" fill-opacity="0.99" stroke="#FFF4E3" stroke-width="2" stroke-linejoin="round"/>
<path id="Vector 160" d="M23.1595 36.6484L21.5905 35.1208V26.1712L23.1953 24.6087L23.4141 24.8483V36.3417L23.1595 36.6484Z" fill="#FFFDFB" fill-opacity="0.99" stroke="#FFF4E3" stroke-width="2" stroke-linejoin="round"/>
</g>
</g>
<defs>
<filter id="filter0_f_175_12664" x="4.46875" y="3" width="21.0586" height="7.81055" filterUnits="userSpaceOnUse" color-interpolation-filters="sRGB">
<feFlood flood-opacity="0" result="BackgroundImageFix"/>
<feBlend mode="normal" in="SourceGraphic" in2="BackgroundImageFix" result="shape"/>
<feGaussianBlur stdDeviation="1" result="effect1_foregroundBlur_175_12664"/>
</filter>
<filter id="filter1_f_175_12664" x="4.46875" y="18.0947" width="21.0586" height="7.95703" filterUnits="userSpaceOnUse" color-interpolation-filters="sRGB">
<feFlood flood-opacity="0" result="BackgroundImageFix"/>
<feBlend mode="normal" in="SourceGraphic" in2="BackgroundImageFix" result="shape"/>
<feGaussianBlur stdDeviation="1" result="effect1_foregroundBlur_175_12664"/>
</filter>
<filter id="filter2_f_175_12664" x="4.46875" y="33.1895" width="21.0586" height="7.81055" filterUnits="userSpaceOnUse" color-interpolation-filters="sRGB">
<feFlood flood-opacity="0" result="BackgroundImageFix"/>
<feBlend mode="normal" in="SourceGraphic" in2="BackgroundImageFix" result="shape"/>
<feGaussianBlur stdDeviation="1" result="effect1_foregroundBlur_175_12664"/>
</filter>
<filter id="filter3_f_175_12664" x="3" y="4.75879" width="7.82422" height="18.9482" filterUnits="userSpaceOnUse" color-interpolation-filters="sRGB">
<feFlood flood-opacity="0" result="BackgroundImageFix"/>
<feBlend mode="normal" in="SourceGraphic" in2="BackgroundImageFix" result="shape"/>
<feGaussianBlur stdDeviation="1" result="effect1_foregroundBlur_175_12664"/>
</filter>
<filter id="filter4_f_175_12664" x="3" y="20.293" width="7.82422" height="18.9482" filterUnits="userSpaceOnUse" color-interpolation-filters="sRGB">
<feFlood flood-opacity="0" result="BackgroundImageFix"/>
<feBlend mode="normal" in="SourceGraphic" in2="BackgroundImageFix" result="shape"/>
<feGaussianBlur stdDeviation="1" result="effect1_foregroundBlur_175_12664"/>
</filter>
<filter id="filter5_f_175_12664" x="19.1758" y="4.75879" width="7.82422" height="18.9482" filterUnits="userSpaceOnUse" color-interpolation-filters="sRGB">
<feFlood flood-opacity="0" result="BackgroundImageFix"/>
<feBlend mode="normal" in="SourceGraphic" in2="BackgroundImageFix" result="shape"/>
<feGaussianBlur stdDeviation="1" result="effect1_foregroundBlur_175_12664"/>
</filter>
<filter id="filter6_f_175_12664" x="19.1758" y="20.293" width="7.82422" height="18.9482" filterUnits="userSpaceOnUse" color-interpolation-filters="sRGB">
<feFlood flood-opacity="0" result="BackgroundImageFix"/>
<feBlend mode="normal" in="SourceGraphic" in2="BackgroundImageFix" result="shape"/>
<feGaussianBlur stdDeviation="1" result="effect1_foregroundBlur_175_12664"/>
</filter>
<filter id="filter7_f_175_12664" x="0.882812" y="0.878906" width="27.0586" height="13.8105" filterUnits="userSpaceOnUse" color-interpolation-filters="sRGB">
<feFlood flood-opacity="0" result="BackgroundImageFix"/>
<feBlend mode="normal" in="SourceGraphic" in2="BackgroundImageFix" result="shape"/>
<feGaussianBlur stdDeviation="2" result="effect1_foregroundBlur_175_12664"/>
</filter>
<filter id="filter8_f_175_12664" x="15.5898" y="2.6377" width="13.8242" height="24.9482" filterUnits="userSpaceOnUse" color-interpolation-filters="sRGB">
<feFlood flood-opacity="0" result="BackgroundImageFix"/>
<feBlend mode="normal" in="SourceGraphic" in2="BackgroundImageFix" result="shape"/>
<feGaussianBlur stdDeviation="2" result="effect1_foregroundBlur_175_12664"/>
</filter>
<filter id="filter9_f_175_12664" x="15.5898" y="18.1719" width="13.8242" height="24.9482" filterUnits="userSpaceOnUse" color-interpolation-filters="sRGB">
<feFlood flood-opacity="0" result="BackgroundImageFix"/>
<feBlend mode="normal" in="SourceGraphic" in2="BackgroundImageFix" result="shape"/>
<feGaussianBlur stdDeviation="2" result="effect1_foregroundBlur_175_12664"/>
</filter>
<filter id="filter10_f_175_12664" x="3.38281" y="3.37891" width="22.0586" height="8.81055" filterUnits="userSpaceOnUse" color-interpolation-filters="sRGB">
<feFlood flood-opacity="0" result="BackgroundImageFix"/>
<feBlend mode="normal" in="SourceGraphic" in2="BackgroundImageFix" result="shape"/>
<feGaussianBlur stdDeviation="1" result="effect1_foregroundBlur_175_12664"/>
</filter>
<filter id="filter11_f_175_12664" x="18.0898" y="5.1377" width="8.82422" height="19.9482" filterUnits="userSpaceOnUse" color-interpolation-filters="sRGB">
<feFlood flood-opacity="0" result="BackgroundImageFix"/>
<feBlend mode="normal" in="SourceGraphic" in2="BackgroundImageFix" result="shape"/>
<feGaussianBlur stdDeviation="1" result="effect1_foregroundBlur_175_12664"/>
</filter>
<filter id="filter12_f_175_12664" x="18.0898" y="20.6719" width="8.82422" height="19.9482" filterUnits="userSpaceOnUse" color-interpolation-filters="sRGB">
<feFlood flood-opacity="0" result="BackgroundImageFix"/>
<feBlend mode="normal" in="SourceGraphic" in2="BackgroundImageFix" result="shape"/>
<feGaussianBlur stdDeviation="1" result="effect1_foregroundBlur_175_12664"/>
</filter>
</defs>
</svg>
