<svg width="80" height="95" viewBox="0 0 80 95" fill="none" xmlns="http://www.w3.org/2000/svg">
<g id="Property 1=0">
<g id="0">
<path fill-rule="evenodd" clip-rule="evenodd" d="M37.1854 0H70.1197V3.47445H74.145V31.7137H69.5279V9.58787H66.6004V31.7137H68.9619V39.8265H66.6004V44.2517H69.5279V39.8265H74.145V74.2772H72.3153V77.9648H74.145V83.3321L71.5835 84.8472V84.6026H67.1922V87.4446L54.4188 95H49.6273V92.7154H45.236V95H7.31873V66.3776H5.71776V59.3998H5.7149V56.7897H7.31873V11.6679L26.9735 0H32.7942V1.99939H37.1854V0ZM64.3448 39.8265V31.7137H61.4173V39.8265H64.3448ZM50.5593 39.8265H45.3761V31.7137H50.5593V12.3161H30.9045V56.7897H23.5858V66.3776H30.9045V82.6839H50.5593V39.8265ZM13.0336 22.6502V56.7897H10.838V22.6502H13.0336ZM10.8209 66.3776H13.0365V90.7506H10.8209V66.3776Z" fill="#FF9900"/>
<path d="M0 66.3776V56.7897H3.51928V59.3998H3.50213V66.3776H0Z" fill="#FF9900"/>
</g>
<g id="0/Cyan">
<path fill-rule="evenodd" clip-rule="evenodd" d="M43.0404 0H75.9747V3.47445H80V31.7137H75.3829V9.58787H72.4554V31.7137H74.8169V39.8265H72.4554V44.2517H75.3829V39.8265H80V74.2772H78.1703V77.9648H80V83.3321L77.4384 84.8472V84.6026H73.0472V87.4446L60.2737 95H55.4823V92.7154H51.091V95H13.1737V66.3776H11.5727V59.3998H11.5699V56.7897H13.1737V11.6679L32.8285 0H38.6492V1.99939H43.0404V0ZM70.1998 39.8265V31.7137H67.2723V39.8265H70.1998ZM56.4143 39.8265H51.2311V31.7137H56.4143V12.3161H36.7595V56.7897H29.4407V66.3776H36.7595V82.6839H56.4143V39.8265ZM18.8886 22.6502V56.7897H16.693V22.6502H18.8886ZM16.6758 66.3776H18.8915V90.7506H16.6758V66.3776Z" fill="#00FFFF"/>
<path d="M5.85498 66.3776V56.7897H9.37426V59.3998H9.35711V66.3776H5.85498Z" fill="#00FFFF"/>
</g>
<g id="0/White">
<path fill-rule="evenodd" clip-rule="evenodd" d="M40.1132 0H73.0475V3.47445H77.0728V31.7137H72.4557V9.58787H69.5282V31.7137H71.8896V39.8265H69.5282V44.2517H72.4557V39.8265H77.0728V74.2772H75.2431V77.9648H77.0728V83.3321L74.5112 84.8472V84.6026H70.12V87.4446L57.3465 95H52.555V92.7154H48.1638V95H10.2465V66.3776H8.64549V59.3998H8.64263V56.7897H10.2465V11.6679L29.9013 0H35.7219V1.99939H40.1132V0ZM67.2725 39.8265V31.7137H64.345V39.8265H67.2725ZM53.487 39.8265H48.3039V31.7137H53.487V12.3161H33.8322V56.7897H26.5135V66.3776H33.8322V82.6839H53.487V39.8265ZM15.9614 22.6502V56.7897H13.7657V22.6502H15.9614ZM13.7486 66.3776H15.9642V90.7506H13.7486V66.3776Z" fill="#FFFDFB" fill-opacity="0.99"/>
<path d="M2.92773 66.3776V56.7897H6.44701V59.3998H6.42986V66.3776H2.92773Z" fill="#FFFDFB" fill-opacity="0.99"/>
</g>
</g>
</svg>
