<svg width="34" height="95" viewBox="0 0 34 95" fill="none" xmlns="http://www.w3.org/2000/svg">
<g id="Property 1=1">
<g id="1">
<path fill-rule="evenodd" clip-rule="evenodd" d="M5.21649 9.36315V6.19409L15.6381 0H26.0596V31.5005H20.8431V41.0884H26.0596V63.9518H28.1525V73.5397H26.0596V88.8059L15.6381 95H5.21649V73.5397H7.30937V63.9518H5.21649V41.0884H3.55475V31.5005H5.21649V13.6846L14.8529 9.36315H5.21649ZM21.3485 63.9518H23.4414V73.5397H21.3485V85.9249H23.5613V73.5397H25.6542V63.9518H23.5613V52.3616H21.3485V63.9518ZM8.77125 24.1252V31.5005H6.57843V24.1252H8.77125ZM6.57843 41.0884H8.77125V55.839H6.57843V41.0884Z" fill="#FF9900"/>
<path d="M0 41.0884V31.5005H1.36194V41.0884H0Z" fill="#FF9900"/>
</g>
<g id="1/Cyan">
<path fill-rule="evenodd" clip-rule="evenodd" d="M11.0641 9.36315V6.19409L21.4857 0H31.9073V31.5005H26.6908V41.0884H31.9073V63.9518H34.0002V73.5397H31.9073V88.8059L21.4857 95H11.0641V73.5397H13.157V63.9518H11.0641V41.0884H9.40241V31.5005H11.0641V13.6846L20.7005 9.36315H11.0641ZM27.1962 63.9518H29.289V73.5397H27.1962V85.9249H29.409V73.5397H31.5018V63.9518H29.409V52.3616H27.1962V63.9518ZM14.6189 24.1252V31.5005H12.4261V24.1252H14.6189ZM12.4261 41.0884H14.6189V55.839H12.4261V41.0884Z" fill="#00FFFF"/>
<path d="M5.84766 41.0884V31.5005H7.2096V41.0884H5.84766Z" fill="#00FFFF"/>
</g>
<g id="1/White">
<path fill-rule="evenodd" clip-rule="evenodd" d="M8.14032 9.36315V6.19409L18.5619 0H28.9835V31.5005H23.767V41.0884H28.9835V63.9518H31.0763V73.5397H28.9835V88.8059L18.5619 95H8.14032V73.5397H10.2332V63.9518H8.14032V41.0884H6.47858V31.5005H8.14032V13.6846L17.7767 9.36315H8.14032ZM24.2723 63.9518H26.3652V73.5397H24.2723V85.9249H26.4851V73.5397H28.578V63.9518H26.4851V52.3616H24.2723V63.9518ZM11.6951 24.1252V31.5005H9.50226V24.1252H11.6951ZM9.50226 41.0884H11.6951V55.839H9.50226V41.0884Z" fill="#FFFDFB" fill-opacity="0.99"/>
<path d="M2.92383 41.0884V31.5005H4.28577V41.0884H2.92383Z" fill="#FFFDFB" fill-opacity="0.99"/>
</g>
</g>
</svg>
