<svg width="80" height="95" viewBox="0 0 80 95" fill="none" xmlns="http://www.w3.org/2000/svg">
<g id="Property 1=2">
<g id="2">
<path fill-rule="evenodd" clip-rule="evenodd" d="M9.97094 0V2.6649H20.0354L5.08045 11.6679V24.8484H28.4698V12.3161H47.89V17.7007H50.8045V27.2886H47.89V31.3306L26.4852 45.3033L5.08045 57.6194V66.3776H5.74102V75.9654H5.08045V95L66.0458 94.7347V75.2279H68.2231V94.7252L71.2793 94.7119V67.6308H47.89V82.6839H28.4698V75.9654H23.3893V66.3776H28.4698V60.1403L54.9777 42.9265H71.2793V27.2886H74.1938V17.7007H71.2793V0H9.97094ZM70.5649 17.7007H68.3876V27.2886H70.5649V17.7007ZM67.6504 27.2886H65.4731V38.1383H67.6504V27.2886ZM67.6504 17.7007V6.42456H65.4731V17.7007H67.6504ZM10.8215 66.3776V58.4837H8.62428V66.3776H10.8215ZM10.8215 75.9654H8.62428V92.119H10.8215V75.9654Z" fill="#FF9900"/>
<path d="M0 75.9654V66.3776H3.54384V75.9654H0Z" fill="#FF9900"/>
</g>
<g id="2/Cyan">
<path fill-rule="evenodd" clip-rule="evenodd" d="M15.7771 0V2.6649H25.8416L10.8866 11.6679V24.8484H34.2759V12.3161H53.6962V17.7007H56.6106V27.2886H53.6962V31.3306L32.2914 45.3033L10.8866 57.6194V66.3776H11.5472V75.9654H10.8866V95L71.8519 94.7347V75.2279H74.0293V94.7252L77.0855 94.7119V67.6308H53.6962V82.6839H34.2759V75.9654H29.1955V66.3776H34.2759V60.1403L60.7838 42.9265H77.0855V27.2886H79.9999V17.7007H77.0855V0H15.7771ZM76.371 17.7007H74.1937V27.2886H76.371V17.7007ZM73.4566 27.2886H71.2793V38.1383H73.4566V27.2886ZM73.4566 17.7007V6.42456H71.2793V17.7007H73.4566ZM16.6276 66.3776V58.4837H14.4304V66.3776H16.6276ZM16.6276 75.9654H14.4304V92.119H16.6276V75.9654Z" fill="#00FFFF"/>
<path d="M5.80615 75.9654V66.3776H9.34999V75.9654H5.80615Z" fill="#00FFFF"/>
</g>
<g id="2/White">
<path fill-rule="evenodd" clip-rule="evenodd" d="M12.8743 0V2.6649H22.9388L7.98377 11.6679V24.8484H31.3731V12.3161H50.7933V17.7007H53.7078V27.2886H50.7933V31.3306L29.3885 45.3033L7.98377 57.6194V66.3776H8.64434V75.9654H7.98377V95L68.9491 94.7347V75.2279H71.1264V94.7252L74.1826 94.7119V67.6308H50.7933V82.6839H31.3731V75.9654H26.2926V66.3776H31.3731V60.1403L57.881 42.9265H74.1826V27.2886H77.0971V17.7007H74.1826V0H12.8743ZM73.4682 17.7007H71.2909V27.2886H73.4682V17.7007ZM70.5538 27.2886H68.3764V38.1383H70.5538V27.2886ZM70.5538 17.7007V6.42456H68.3764V17.7007H70.5538ZM13.7248 66.3776V58.4837H11.5276V66.3776H13.7248ZM13.7248 75.9654H11.5276V92.119H13.7248V75.9654Z" fill="#FFFDFB" fill-opacity="0.99"/>
<path d="M2.90332 75.9654V66.3776H6.44716V75.9654H2.90332Z" fill="#FFFDFB" fill-opacity="0.99"/>
</g>
</g>
</svg>
