<svg width="80" height="95" viewBox="0 0 80 95" fill="none" xmlns="http://www.w3.org/2000/svg">
<g id="Property 1=3">
<g id="3">
<path fill-rule="evenodd" clip-rule="evenodd" d="M62.2519 2.9176H50.2055V0H20.2584L13.3969 3.90451V24.5506H24.2954V20.6367H17.3224V14.6592H24.2954V12.1685H44.4069V13.6345H47.2196V23.1074H44.4069V30.9551L27.5984 41.4157L44.4069 51.8052V61.412H53.7287V65.1124H44.4069V67.5575H38.9519V77.0304H44.4069V82.8315H24.2954V70.4494H0V83.4719L20.2584 95H68.6289V91.2996H73.9871V77.0304H68.532V67.5575H73.9871V63.2622H68.6289V49.9551L54.8297 41.4157L68.6289 32.8052V23.1074H71.4416V13.6345H68.6289V2.9176H64.5068V13.6345H62.2519V2.9176ZM65.0323 67.5575V59.4906H62.8303V67.5575H65.0323ZM59.5772 67.5575H57.3752V77.0304H59.5772V67.5575ZM62.8303 77.0304V92.6517H65.0323V77.0304H62.8303ZM62.2519 24.5648V23.1074H64.5068V24.5648H62.2519ZM67.3194 23.1074H65.0646V13.6345H67.3194V23.1074Z" fill="#FF9900"/>
<path d="M0 11.5281L11.1421 5.18764V24.5506H0V11.5281Z" fill="#FF9900"/>
</g>
<g id="3/Cyan">
<path fill-rule="evenodd" clip-rule="evenodd" d="M68.2646 2.9176H56.2182V0H26.2711L19.4096 3.90451V24.5506H30.3081V20.6367H23.3351V14.6592H30.3081V12.1685H50.4196V13.6345H53.2323V23.1074H50.4196V30.9551L33.6111 41.4157L50.4196 51.8052V61.412H59.7414V65.1124H50.4196V67.5575H44.9645V77.0304H50.4196V82.8315H30.3081V70.4494H6.0127V83.4719L26.2711 95H74.6416V91.2996H79.9998V77.0304H74.5447V67.5575H79.9998V63.2622H74.6416V49.9551L60.8424 41.4157L74.6416 32.8052V23.1074H77.4543V13.6345H74.6416V2.9176H70.5194V13.6345H68.2646V2.9176ZM71.045 67.5575V59.4906H68.843V67.5575H71.045ZM65.5899 67.5575H63.3879V77.0304H65.5899V67.5575ZM68.843 77.0304V92.6517H71.045V77.0304H68.843ZM68.2646 24.5648V23.1074H70.5194V24.5648H68.2646ZM73.3321 23.1074H71.0773V13.6345H73.3321V23.1074Z" fill="#00FFFF"/>
<path d="M6.0127 11.5281L17.1548 5.18764V24.5506H6.0127V11.5281Z" fill="#00FFFF"/>
</g>
<g id="3/White">
<path fill-rule="evenodd" clip-rule="evenodd" d="M65.2583 2.9176H53.2119V0H23.2647L16.4033 3.90451V24.5506H27.3017V20.6367H20.3287V14.6592H27.3017V12.1685H47.4133V13.6345H50.226V23.1074H47.4133V30.9551L30.6047 41.4157L47.4133 51.8052V61.412H56.7351V65.1124H47.4133V67.5575H41.9582V77.0304H47.4133V82.8315H27.3017V70.4494H3.00635V83.4719L23.2647 95H71.6352V91.2996H76.9934V77.0304H71.5384V67.5575H76.9934V63.2622H71.6352V49.9551L57.8361 41.4157L71.6352 32.8052V23.1074H74.4479V13.6345H71.6352V2.9176H67.5131V13.6345H65.2583V2.9176ZM68.0386 67.5575V59.4906H65.8366V67.5575H68.0386ZM62.5836 67.5575H60.3816V77.0304H62.5836V67.5575ZM65.8366 77.0304V92.6517H68.0386V77.0304H65.8366ZM65.2583 24.5648V23.1074H67.5131V24.5648H65.2583ZM70.3258 23.1074H68.0709V13.6345H70.3258V23.1074Z" fill="#FFFDFB" fill-opacity="0.99"/>
<path d="M3.00635 11.5281L14.1485 5.18764V24.5506H3.00635V11.5281Z" fill="#FFFDFB" fill-opacity="0.99"/>
</g>
</g>
</svg>
