<svg width="80" height="95" viewBox="0 0 80 95" fill="none" xmlns="http://www.w3.org/2000/svg">
<g id="Property 1=4">
<g id="4">
<path fill-rule="evenodd" clip-rule="evenodd" d="M54.5588 3.45716H48.6269L41.8162 0H71.3292V6.48218H67.2281V37.0925H71.3292V67.6394H74.0007V77.2273H71.3292V88.8059L60.6371 95H49.9451V77.2273H52.6166V67.6394H49.9451V59.0599L13.6214 37.2179V22.6502H11.3717V35.8651L8.86122 34.3556L7.61626 33.6353V22.6502H9.12779V13.0623H7.61626V6.19409L12.23 3.45716H6.81069L0 0H29.0004V13.0623H24.5068V22.6502H29.0004V27.4412L49.9451 40.4776V6.19409L54.5588 3.45716ZM66.0564 67.6394H68.2534V45.5914H66.0564V67.6394ZM68.7279 67.6394V77.2273H70.9249V67.6394H68.7279ZM68.2534 77.2273H66.0564V79.2267H68.2534V77.2273ZM13.6214 13.0623H11.3717V8.63715H13.6214V13.0623Z" fill="#FF9900"/>
<path d="M3.12267 22.6502V13.0623H6.87807V22.6502H3.12267Z" fill="#FF9900"/>
</g>
<g id="4/Cyan">
<path fill-rule="evenodd" clip-rule="evenodd" d="M60.5578 3.45716H54.6259L47.8152 0H77.3282V6.48218H73.2271V37.0925H77.3282V67.6394H79.9998V77.2273H77.3282V88.8059L66.6362 95H55.9441V77.2273H58.6156V67.6394H55.9441V59.0599L19.6204 37.2179V22.6502H17.3707V35.8651L14.8602 34.3556L13.6153 33.6353V22.6502H15.1268V13.0623H13.6153V6.19409L18.229 3.45716H12.8097L5.99902 0H34.9994V13.0623H30.5058V22.6502H34.9994V27.4412L55.9441 40.4776V6.19409L60.5578 3.45716ZM72.0554 67.6394H74.2524V45.5914H72.0554V67.6394ZM74.727 67.6394V77.2273H76.924V67.6394H74.727ZM74.2524 77.2273H72.0554V79.2267H74.2524V77.2273ZM19.6204 13.0623H17.3707V8.63715H19.6204V13.0623Z" fill="#00FFFF"/>
<path d="M9.12169 22.6502V13.0623H12.8771V22.6502H9.12169Z" fill="#00FFFF"/>
</g>
<g id="4/White">
<path fill-rule="evenodd" clip-rule="evenodd" d="M57.5583 3.45716H51.6264L44.8157 0H74.3287V6.48218H70.2276V37.0925H74.3287V67.6394H77.0002V77.2273H74.3287V88.8059L63.6366 95H52.9446V77.2273H55.6161V67.6394H52.9446V59.0599L16.6209 37.2179V22.6502H14.3712V35.8651L11.8607 34.3556L10.6158 33.6353V22.6502H12.1273V13.0623H10.6158V6.19409L15.2295 3.45716H9.8102L2.99951 0H31.9999V13.0623H27.5063V22.6502H31.9999V27.4412L52.9446 40.4776V6.19409L57.5583 3.45716ZM69.0559 67.6394H71.2529V45.5914H69.0559V67.6394ZM71.7274 67.6394V77.2273H73.9244V67.6394H71.7274ZM71.2529 77.2273H69.0559V79.2267H71.2529V77.2273ZM16.6209 13.0623H14.3712V8.63715H16.6209V13.0623Z" fill="#FFFDFB" fill-opacity="0.99"/>
<path d="M6.12218 22.6502V13.0623H9.87758V22.6502H6.12218Z" fill="#FFFDFB" fill-opacity="0.99"/>
</g>
</g>
</svg>
