<svg width="80" height="95" viewBox="0 0 80 95" fill="none" xmlns="http://www.w3.org/2000/svg">
<g id="Property 1=5">
<g id="5">
<path fill-rule="evenodd" clip-rule="evenodd" d="M70.0666 51.9621H53.854L27.4909 34.7614V27.7198H23.2616V18.1392H27.4909V12.2348H46.8051V15.1914H70.0666V0.215909L27.068 0V2.80682H11.549V18.1392H9.38357V2.80682H4.22937V18.1392H0V27.7198H4.22937V32.9621H9.38357V27.7198H11.549V32.9621H16.6355V37.0644H4.22937V37.2803L25.4467 49.5871L46.8051 63.5492V68.2532H50.5269V77.8338H46.8051V82.5492H27.4909V66.572H19.3846V68.5871H4.22937V95L70.0666 94.8561V77.8338H68.7837V68.2532H70.0666V58.1515H74.2255V54.0492H70.0666V51.9621ZM67.247 68.2532V58.9432H65.0619V68.2532H67.247ZM67.247 77.8338H65.0619V92.4811H67.247V77.8338ZM5.1542 18.1392H7.31963V27.7198H5.1542V18.1392Z" fill="#FF9900"/>
<path d="M73.7885 77.8338V68.2532H70.9689V77.8338H73.7885Z" fill="#FF9900"/>
</g>
<g id="5/Cyan">
<path fill-rule="evenodd" clip-rule="evenodd" d="M75.841 51.9621H59.6284L33.2653 34.7614V27.7198H29.036V18.1392H33.2653V12.2348H52.5795V15.1914H75.841V0.215909L32.8424 0V2.80682H17.3234V18.1392H15.158V2.80682H10.0038V18.1392H5.77441V27.7198H10.0038V32.9621H15.158V27.7198H17.3234V32.9621H22.4099V37.0644H10.0038V37.2803L31.2211 49.5871L52.5795 63.5492V68.2532H56.3013V77.8338H52.5795V82.5492H33.2653V66.572H25.159V68.5871H10.0038V95L75.841 94.8561V77.8338H74.5581V68.2532H75.841V58.1515H79.9999V54.0492H75.841V51.9621ZM73.0214 68.2532V58.9432H70.8363V68.2532H73.0214ZM73.0214 77.8338H70.8363V92.4811H73.0214V77.8338ZM10.9286 18.1392H13.094V27.7198H10.9286V18.1392Z" fill="#00FFFF"/>
<path d="M79.5629 77.8338V68.2532H76.7433V77.8338H79.5629Z" fill="#00FFFF"/>
</g>
<g id="5/White">
<path fill-rule="evenodd" clip-rule="evenodd" d="M72.9538 51.9621H56.7412L30.3781 34.7614V27.7198H26.1488V18.1392H30.3781V12.2348H49.6923V15.1914H72.9538V0.215909L29.9552 0V2.80682H14.4362V18.1392H12.2708V2.80682H7.11658V18.1392H2.88721V27.7198H7.11658V32.9621H12.2708V27.7198H14.4362V32.9621H19.5227V37.0644H7.11658V37.2803L28.3339 49.5871L49.6923 63.5492V68.2532H53.4141V77.8338H49.6923V82.5492H30.3781V66.572H22.2718V68.5871H7.11658V95L72.9538 94.8561V77.8338H71.6709V68.2532H72.9538V58.1515H77.1127V54.0492H72.9538V51.9621ZM70.1342 68.2532V58.9432H67.9491V68.2532H70.1342ZM70.1342 77.8338H67.9491V92.4811H70.1342V77.8338ZM8.0414 18.1392H10.2068V27.7198H8.0414V18.1392Z" fill="#FFFDFB" fill-opacity="0.99"/>
<path d="M76.6757 77.8338V68.2532H73.8561V77.8338H76.6757Z" fill="#FFFDFB" fill-opacity="0.99"/>
</g>
</g>
</svg>
