<svg width="80" height="95" viewBox="0 0 80 95" fill="none" xmlns="http://www.w3.org/2000/svg">
<g id="Property 1=6">
<g id="6">
<path fill-rule="evenodd" clip-rule="evenodd" d="M0.897257 0L7.53107 0.0169442V22.626H9.7904V0.022715L29.0652 0.0719472V2.08647H69.6624V27.3399H45.3924V12.303H25.1673V22.626H21.0341V32.2036H25.1673V34.8224L52.6734 52.0178H69.6624V68.3038H68.6799V77.8814H69.6624V94.8984L21.087 95V91.1427H0.897257V63.7452H4.13326V32.2036H0V22.626H3.39781V29.7804H5.65713V22.626H4.13326V18.4185H0.897257V0ZM66.6471 77.8814H64.3671V92.7399H66.6471V77.8814ZM49.7051 77.8814V68.3038H45.3924V63.6013L25.1673 50.9386V82.5954H45.3924V77.8814H49.7051ZM64.3671 68.3038H66.6471V59.2125H64.3671V68.3038Z" fill="#FF9900"/>
<path d="M70.9598 68.3038H73.9751V77.8814H70.9598V68.3038Z" fill="#FF9900"/>
</g>
<g id="6/Cyan">
<path fill-rule="evenodd" clip-rule="evenodd" d="M6.92216 0L13.556 0.0169442V22.626H15.8153V0.022715L35.0901 0.0719472V2.08647H75.6873V27.3399H51.4173V12.303H31.1922V22.626H27.059V32.2036H31.1922V34.8224L58.6983 52.0178H75.6873V68.3038H74.7048V77.8814H75.6873V94.8984L27.1119 95V91.1427H6.92216V63.7452H10.1582V32.2036H6.0249V22.626H9.42271V29.7804H11.682V22.626H10.1582V18.4185H6.92216V0ZM72.672 77.8814H70.392V92.7399H72.672V77.8814ZM55.73 77.8814V68.3038H51.4173V63.6013L31.1922 50.9386V82.5954H51.4173V77.8814H55.73ZM70.392 68.3038H72.672V59.2125H70.392V68.3038Z" fill="#00FFFF"/>
<path d="M76.9847 68.3038H80V77.8814H76.9847V68.3038Z" fill="#00FFFF"/>
</g>
<g id="6/White">
<path fill-rule="evenodd" clip-rule="evenodd" d="M3.90971 0L10.5435 0.0169442V22.626H12.8028V0.022715L32.0777 0.0719472V2.08647H72.6749V27.3399H48.4048V12.303H28.1798V22.626H24.0465V32.2036H28.1798V34.8224L55.6858 52.0178H72.6749V68.3038H71.6923V77.8814H72.6749V94.8984L24.0995 95V91.1427H3.90971V63.7452H7.14572V32.2036H3.01245V22.626H6.41026V29.7804H8.66958V22.626H7.14572V18.4185H3.90971V0ZM69.6595 77.8814H67.3796V92.7399H69.6595V77.8814ZM52.7175 77.8814V68.3038H48.4048V63.6013L28.1798 50.9386V82.5954H48.4048V77.8814H52.7175ZM67.3796 68.3038H69.6595V59.2125H67.3796V68.3038Z" fill="#FFFDFB" fill-opacity="0.99"/>
<path d="M73.9722 68.3038H76.9876V77.8814H73.9722V68.3038Z" fill="#FFFDFB" fill-opacity="0.99"/>
</g>
</g>
</svg>
