<svg width="80" height="95" viewBox="0 0 80 95" fill="none" xmlns="http://www.w3.org/2000/svg">
<g id="Property 1=7">
<g id="7">
<path fill-rule="evenodd" clip-rule="evenodd" d="M16.8411 4.21198L4.45319 11.6679V24.8484H27.6322V12.3161H46.9481V16.0124H51.0669V25.6003H46.9481V31.3306L25.6655 45.3033L20.1868 48.4723H25.806V52.7938H12.8117L4.45319 57.6194V75.0147H4.8971V84.6026H4.45319V95L7.19253 94.9915V84.6026H9.35028V94.9848L27.7025 94.928V84.6026H23.2493V77.3569C23.2399 76.575 23.2317 75.7944 23.2247 75.0147H27.6759C27.6322 70.0493 27.6322 65.121 27.6322 60.1403L53.972 42.9265H70.1271V25.6003H69.1887V16.0124H70.1271V0H39.5589V4.21198H16.8411ZM67.2473 16.0124V5.83397H65.0699V16.0124H67.2473ZM67.2473 25.6003H65.0699V39.3973H67.2473V25.6003ZM9.35028 75.0147H7.19253V67.6394H9.35028V75.0147Z" fill="#FF9900"/>
<path d="M2.73934 84.6026V75.0147H0V84.6026H2.73934Z" fill="#FF9900"/>
<path d="M74.246 25.6003V16.0124H71.3662V25.6003H74.246Z" fill="#FF9900"/>
</g>
<g id="7/Cyan">
<path fill-rule="evenodd" clip-rule="evenodd" d="M22.5951 4.21198L10.2071 11.6679V24.8484H33.3861V12.3161H52.702V16.0124H56.8208V25.6003H52.702V31.3306L31.4194 45.3033L25.9407 48.4723H31.5599V52.7938H18.5656L10.2071 57.6194V75.0147H10.651V84.6026H10.2071V95L12.9464 94.9915V84.6026H15.1042V94.9848L33.4564 94.928V84.6026H29.0032V77.3569C28.9938 76.575 28.9856 75.7944 28.9786 75.0147H33.4298C33.3861 70.0493 33.3861 65.121 33.3861 60.1403L59.726 42.9265H75.881V25.6003H74.9426V16.0124H75.881V0H45.3128V4.21198H22.5951ZM73.0012 16.0124V5.83397H70.8238V16.0124H73.0012ZM73.0012 25.6003H70.8238V39.3973H73.0012V25.6003ZM15.1042 75.0147H12.9464V67.6394H15.1042V75.0147Z" fill="#00FFFF"/>
<path d="M8.49325 84.6026V75.0147H5.75391V84.6026H8.49325Z" fill="#00FFFF"/>
<path d="M79.9999 25.6003V16.0124H77.1201V25.6003H79.9999Z" fill="#00FFFF"/>
</g>
<g id="7/White">
<path fill-rule="evenodd" clip-rule="evenodd" d="M19.7181 4.21198L7.33014 11.6679V24.8484H30.5092V12.3161H49.825V16.0124H53.9439V25.6003H49.825V31.3306L28.5425 45.3033L23.0638 48.4723H28.683V52.7938H15.6886L7.33014 57.6194V75.0147H7.77405V84.6026H7.33014V95L10.0695 94.9915V84.6026H12.2272V94.9848L30.5794 94.928V84.6026H26.1262V77.3569C26.1168 76.575 26.1087 75.7944 26.1016 75.0147H30.5529C30.5092 70.0493 30.5092 65.121 30.5092 60.1403L56.849 42.9265H73.0041V25.6003H72.0657V16.0124H73.0041V0H42.4358V4.21198H19.7181ZM70.1243 16.0124V5.83397H67.9468V16.0124H70.1243ZM70.1243 25.6003H67.9468V39.3973H70.1243V25.6003ZM12.2272 75.0147H10.0695V67.6394H12.2272V75.0147Z" fill="#FFFDFB" fill-opacity="0.99"/>
<path d="M5.61629 84.6026V75.0147H2.87695V84.6026H5.61629Z" fill="#FFFDFB" fill-opacity="0.99"/>
<path d="M77.1229 25.6003V16.0124H74.2431V25.6003H77.1229Z" fill="#FFFDFB" fill-opacity="0.99"/>
</g>
</g>
</svg>
