<svg width="80" height="95" viewBox="0 0 80 95" fill="none" xmlns="http://www.w3.org/2000/svg">
<g id="Property 1=8">
<g id="8">
<path fill-rule="evenodd" clip-rule="evenodd" d="M7.70399 2.34831H4.33623V15.8205H5.46885V25.2935H4.33623V32.8052L17.1944 41.4157L4.33623 49.9551V57.5693H12.954V59.9176H4.33623V95H68.2853V76.3017H69.9678V66.8288H68.2853V49.9551L65.0708 47.8202H55.9059V44.5468H60.2148L55.4271 41.4157L68.2853 32.8052V0H36.003V2.34831H9.80507V15.8205H7.70399V2.34831ZM65.2076 66.8288V59.633H63.1557V66.8288H65.2076ZM52.5272 66.8288H45.7151V51.8052L36.345 45.6142L26.9065 51.8052V82.8315H45.7151V76.3017H52.5272V66.8288ZM63.1557 76.3017V92.794H65.2076V76.3017H63.1557ZM7.70399 31.123V25.2935H9.80507V31.123H7.70399ZM26.9065 25.2935H22.5703V15.8205H26.9065V12.1685H45.7151V30.9551L36.345 37.2172L27.0433 31.0262H34.9771V28.4644H26.9065V25.2935Z" fill="#FF9900"/>
<path d="M3.36776 15.8205H0V25.2935H3.36776V15.8205Z" fill="#FF9900"/>
<path d="M72.0197 66.8288H75.0975V76.3017H72.0197V66.8288Z" fill="#FF9900"/>
</g>
<g id="8/Cyan">
<path fill-rule="evenodd" clip-rule="evenodd" d="M12.6066 2.34831H9.23882V15.8205H10.3714V25.2935H9.23882V32.8052L22.097 41.4157L9.23882 49.9551V57.5693H17.8566V59.9176H9.23882V95H73.1879V76.3017H74.8704V66.8288H73.1879V49.9551L69.9734 47.8202H60.8085V44.5468H65.1173L60.3297 41.4157L73.1879 32.8052V0H40.9056V2.34831H14.7077V15.8205H12.6066V2.34831ZM70.1102 66.8288V59.633H68.0583V66.8288H70.1102ZM57.4298 66.8288H50.6177V51.8052L41.2476 45.6142L31.8091 51.8052V82.8315H50.6177V76.3017H57.4298V66.8288ZM68.0583 76.3017V92.794H70.1102V76.3017H68.0583ZM12.6066 31.123V25.2935H14.7077V31.123H12.6066ZM31.8091 25.2935H27.4729V15.8205H31.8091V12.1685H50.6177V30.9551L41.2476 37.2172L31.9459 31.0262H39.8797V28.4644H31.8091V25.2935Z" fill="#00FFFF"/>
<path d="M8.27035 15.8205H4.90259V25.2935H8.27035V15.8205Z" fill="#00FFFF"/>
<path d="M76.9223 66.8288H80V76.3017H76.9223V66.8288Z" fill="#00FFFF"/>
</g>
<g id="8/White">
<path fill-rule="evenodd" clip-rule="evenodd" d="M17.509 2.34831H6.62952V15.8205H6.30322V25.2935H6.62952V32.8052L19.4877 41.4157L6.62952 49.9551V57.5693H15.2473V59.9176H6.62952V95H70.5786V76.3017H72.2612V66.8288H70.5786V49.9551L67.3641 47.8202H58.1992V44.5468H62.5081L57.7204 41.4157L70.5786 32.8052V0H38.2963V2.34831H19.6101V15.8205H17.509V2.34831ZM67.5009 66.8288V59.633H65.449V66.8288H67.5009ZM60.1737 66.8288H51.8268V76.3017H60.1737V66.8288ZM65.449 76.3017V92.794H67.5009V76.3017H65.449ZM15.2739 25.2935H13.1728V15.8205H15.2739V25.2935ZM17.509 31.123V25.2935H19.6101V31.123H17.509ZM29.1998 25.2935H24.8636V15.8205H29.1998V12.1685H48.0084V30.9551L38.6383 37.2172L29.3366 31.0262H37.2704V28.4644H29.1998V25.2935ZM29.1998 82.8315H48.0084V51.8052L38.6383 45.6142L29.1998 51.8052V82.8315Z" fill="#FFFDFB" fill-opacity="0.99"/>
<path d="M77.3908 66.8288H74.313V76.3017H77.3908V66.8288Z" fill="#FFFDFB" fill-opacity="0.99"/>
</g>
</g>
</svg>
