<svg width="80" height="95" viewBox="0 0 80 95" fill="none" xmlns="http://www.w3.org/2000/svg">
<g id="Property 1=9">
<g id="9">
<path fill-rule="evenodd" clip-rule="evenodd" d="M60.7368 0L3.79891 0.0612894V18.9252H5.07378V28.4996H3.79891V42.9276H20.2351L46.9618 60.1172V69.7433H50.492V79.3177H46.9618V82.6292H27.3813V67.5972H3.79891V92.8423H43.1743V94.8562L70.6156 95V79.3177H74.1459V76.292H70.9301V69.7433H67.3999V31.276H70.6156V7.14142H60.7368V0ZM67.1941 69.7433H64.9988V79.3177H67.1941V69.7433ZM63.6638 79.3177H61.4685V94.7842H63.6638V79.3177ZM63.6638 69.7433V63.115H61.4685V69.7433H63.6638ZM8.87269 18.9252H6.65738V2.29091H8.87269V18.9252ZM23.5824 28.4996V18.9252H27.3813V12.4321H46.9618V44.0064L27.3813 31.3479V28.4996H23.5824ZM6.65738 28.4996H8.87269V35.8072H6.65738V28.4996Z" fill="#FF9900"/>
<path d="M0 28.4996H2.85847V18.9252H0V28.4996Z" fill="#FF9900"/>
</g>
<g id="9/Cyan">
<path fill-rule="evenodd" clip-rule="evenodd" d="M66.591 0L9.65315 0.0612894V18.9252H10.928V28.4996H9.65315V42.9276H26.0894L52.8161 60.1172V69.7433H56.3463V79.3177H52.8161V82.6292H33.2355V67.5972H9.65315V92.8423H49.0286V94.8562L76.4699 95V79.3177H80.0001V76.292H76.7843V69.7433H73.2541V31.276H76.4699V7.14142H66.591V0ZM73.0483 69.7433H70.853V79.3177H73.0483V69.7433ZM69.5181 79.3177H67.3228V94.7842H69.5181V79.3177ZM69.5181 69.7433V63.115H67.3228V69.7433H69.5181ZM14.7269 18.9252H12.5116V2.29091H14.7269V18.9252ZM29.4366 28.4996V18.9252H33.2355V12.4321H52.8161V44.0064L33.2355 31.3479V28.4996H29.4366ZM12.5116 28.4996H14.7269V35.8072H12.5116V28.4996Z" fill="#00FFFF"/>
<path d="M5.85425 28.4996H8.71272V18.9252H5.85425V28.4996Z" fill="#00FFFF"/>
</g>
<g id="9/White">
<path fill-rule="evenodd" clip-rule="evenodd" d="M63.6638 0L6.72591 0.0612894V18.9252H8.00079V28.4996H6.72591V42.9276H23.1621L49.8888 60.1172V69.7433H53.419V79.3177H49.8888V82.6292H30.3083V67.5972H6.72591V92.8423H46.1013V94.8562L73.5426 95V79.3177H77.0729V76.292H73.8571V69.7433H70.3269V31.276H73.5426V7.14142H63.6638V0ZM70.1211 69.7433H67.9258V79.3177H70.1211V69.7433ZM66.5909 79.3177H64.3955V94.7842H66.5909V79.3177ZM66.5909 69.7433V63.115H64.3955V69.7433H66.5909ZM11.7997 18.9252H9.58438V2.29091H11.7997V18.9252ZM26.5094 28.4996V18.9252H30.3083V12.4321H49.8888V44.0064L30.3083 31.3479V28.4996H26.5094ZM9.58438 28.4996H11.7997V35.8072H9.58438V28.4996Z" fill="#FFFDFB" fill-opacity="0.99"/>
<path d="M2.927 28.4996H5.78547V18.9252H2.927V28.4996Z" fill="#FFFDFB" fill-opacity="0.99"/>
</g>
</g>
</svg>
