<svg width="45" height="70" viewBox="0 0 45 70" fill="none" xmlns="http://www.w3.org/2000/svg">
<g id="Property 1=%">
<g id="Union">
<path d="M28.5638 0.524302L24.24 3.21144L23.7428 5.24255H25.0875L23.5711 11.4383H22.2264L17.069 32.508H17.3802V42.5165H14.6192L13.2437 48.1362H11.6185L10.1019 54.3319H11.7273L7.8921 70H12.2609L17.4284 66.8351L20.4866 54.3319H18.8614L20.3769 48.1362H22.002L28.9884 19.5739H28.5638V11.4383H29.9085V5.24255H28.5638V0.524302Z" fill="#FF9900"/>
<path d="M30.0069 15.4105V11.4383H30.9786L30.0069 15.4105Z" fill="#FF9900"/>
<path d="M33.7763 0L32.4941 5.24255H33.8388L32.3233 11.4383H31.3516V5.24255H30.0069V0H33.7763Z" fill="#FF9900"/>
<path d="M9.01954 7.67952L17.9921 14.1489L9.01954 20.6649L0 14.1489L3.11456 11.9149H8.17772V8.28329L9.01954 7.67952Z" fill="#FF9900"/>
<path d="M32.1321 62.4136L23.1596 55.8976L26.9384 53.1535V57.6681H28.3815V52.1054L32.1321 49.3817L41.1517 55.8976L40.68 56.2383H34.635V60.6054L32.1321 62.4136Z" fill="#FF9900"/>
</g>
<g id="Union_2">
<path d="M32.4122 0.524302L28.0884 3.21144L27.5912 5.24255H28.9359L27.4195 11.4383H26.0747L20.9174 32.508H21.2286V42.5165H18.4676L17.0921 48.1362H15.4669L13.9503 54.3319H15.5757L11.7405 70H16.1093L21.2768 66.8351L24.335 54.3319H22.7098L24.2253 48.1362H25.8504L32.8368 19.5739H32.4122V11.4383H33.7569V5.24255H32.4122V0.524302Z" fill="#00FFFF"/>
<path d="M33.8553 15.4105V11.4383H34.827L33.8553 15.4105Z" fill="#00FFFF"/>
<path d="M37.6247 0L36.3425 5.24255H37.6872L36.1717 11.4383H35.2V5.24255H33.8553V0H37.6247Z" fill="#00FFFF"/>
<path d="M12.8679 7.67952L21.8405 14.1489L12.8679 20.6649L3.84839 14.1489L6.96295 11.9149H12.0261V8.28329L12.8679 7.67952Z" fill="#00FFFF"/>
<path d="M35.9805 62.4136L27.0079 55.8976L30.7868 53.1535V57.6681H32.2299V52.1054L35.9805 49.3817L45 55.8976L44.5284 56.2383H38.4834V60.6054L35.9805 62.4136Z" fill="#00FFFF"/>
</g>
<g id="Union_3">
<path d="M30.4878 0.524302L26.1641 3.21144L25.6668 5.24255H27.0116L25.4951 11.4383H24.1504L18.9931 32.508H19.3043V42.5165H16.5432L15.1678 48.1362H13.5426L12.026 54.3319H13.6514L9.81617 70H14.185L19.3525 66.8351L22.4106 54.3319H20.7855L22.301 48.1362H23.9261L30.9125 19.5739H30.4878V11.4383H31.8325V5.24255H30.4878V0.524302Z" fill="white"/>
<path d="M31.931 15.4105V11.4383H32.9027L31.931 15.4105Z" fill="white"/>
<path d="M35.7004 0L34.4181 5.24255H35.7629L34.2474 11.4383H33.2757V5.24255H31.931V0H35.7004Z" fill="white"/>
<path d="M10.9436 7.67952L19.9162 14.1489L10.9436 20.6649L1.92407 14.1489L5.03863 11.9149H10.1018V8.28329L10.9436 7.67952Z" fill="white"/>
<path d="M34.0562 62.4136L25.0836 55.8976L28.8624 53.1535V57.6681H30.3056V52.1054L34.0562 49.3817L43.0757 55.8976L42.6041 56.2383H36.5591V60.6054L34.0562 62.4136Z" fill="white"/>
</g>
</g>
</svg>
